<svg id="Group_20" data-name="Group 20" xmlns="http://www.w3.org/2000/svg" xmlns:xlink="http://www.w3.org/1999/xlink" width="80.137" height="70.443" viewBox="0 0 80.137 70.443">
  <defs>
    <clipPath id="clip-path">
      <rect id="Rectangle_37" data-name="Rectangle 37" width="80.137" height="70.443" fill="none"/>
    </clipPath>
  </defs>
  <g id="Group_19" data-name="Group 19" clip-path="url(#clip-path)">
    <path id="Path_84" data-name="Path 84" d="M70.619,297.939a3.748,3.748,0,0,0,0-7.5H37.683L22.215,277.287l.963-.439,14.106,11.8a3.748,3.748,0,1,0,4.966-5.615l-11.83-9.9c-2.522-11.469-6.633-20.3-15.5-20.235-5.907.04-14.92,0-14.92,0v16.307s9.063-.81,10.119,2.269c0,0,3.877,7.818,3.9,7.853a13.265,13.265,0,0,0,2.929,3.314,0,0,0,0,1,0,0L33.812,296.99a3.726,3.726,0,0,0,2.513.944c.028,0,.055,0,.086,0Z" transform="translate(0 -227.496)" fill="#5f009f"/>
    <path id="Path_85" data-name="Path 85" d="M432.01,573.63h27.225a5,5,0,0,1,4.533,2.906H465a3.747,3.747,0,1,0,0-7.494H433.05a4.849,4.849,0,0,1,.188,1.312,4.994,4.994,0,0,1-1.228,3.277" transform="translate(-388.616 -511.882)" fill="#5f009f"/>
    <path id="Path_86" data-name="Path 86" d="M393.624,519.28a5.319,5.319,0,0,1,.676.758h31.18c.006-.092.014-.183.014-.277a3.752,3.752,0,0,0-3.749-3.747H389.8l3.418,2.858a5.071,5.071,0,0,1,.4.408" transform="translate(-350.648 -464.182)" fill="#5f009f"/>
    <path id="Path_87" data-name="Path 87" d="M337.242,468.209a5.33,5.33,0,0,1,.677.757H369.1c.008-.092.015-.183.015-.276a3.753,3.753,0,0,0-3.75-3.748h-31.94l3.417,2.859a5.127,5.127,0,0,1,.4.408" transform="translate(-299.93 -418.24)" fill="#5f009f"/>
    <path id="Path_88" data-name="Path 88" d="M72.554,4.376,36.817,16.918V13.243L72.554,0Z" transform="translate(-33.119 0.001)" fill="#bd6cf3"/>
    <path id="Path_89" data-name="Path 89" d="M667.643,294.385a2.1,2.1,0,0,1-4.2,0c-1.032,2.518-2.622,7.1-3.759,10.062a14.506,14.506,0,0,0,1.65.63l2.691-7.6-1.5,7.922a14.055,14.055,0,0,0,8.879-.951c-1.061-2.96-2.7-7.558-3.759-10.062" transform="translate(-593.417 -264.815)" fill="#bd6cf3"/>
    <path id="Path_90" data-name="Path 90" d="M707.226,282.5a1.359,1.359,0,1,1-1.356-1.327,1.343,1.343,0,0,1,1.356,1.327" transform="translate(-633.743 -252.928)" fill="#bd6cf3"/>
    <path id="Path_91" data-name="Path 91" d="M705.122,204.641v6.395a2.1,2.1,0,0,1,2.588,0v-7.518Z" transform="translate(-634.295 -183.074)" fill="#bd6cf3"/>
    <path id="Path_92" data-name="Path 92" d="M57.233,76.441c0-3.18,13.515-6.261,25.528-6.261,9.246,0,25.53,4.018,25.53,6.261v1.244l9.66-4.188L82.761,61.18v-.011l-.006.006-.009-.006v.011L47.563,73.5l9.67,4.2Z" transform="translate(-42.785 -55.025)" fill="#bd6cf3"/>
    <path id="Path_93" data-name="Path 93" d="M408.662,4.376,444.4,16.918V13.243L408.662,0Z" transform="translate(-367.614 0.001)" fill="#bd6cf3"/>
    <path id="Path_94" data-name="Path 94" d="M184.12,168.428c-11.238,0-23.879,2.878-23.879,5.854l.162,1.83a10.107,10.107,0,0,1,6.422,2.309c3.812,2.948,6.285,8.889,6.318,8.907a66.564,66.564,0,0,1,10.988-1.524c10.982,0,23.645,3.766,23.645,10.192h.23V174.282c0-2.1-15.233-5.854-23.886-5.854" transform="translate(-144.145 -151.51)" fill="#bd6cf3"/>
  </g>
</svg>
