<svg id="Group_251" data-name="Group 251" xmlns="http://www.w3.org/2000/svg" xmlns:xlink="http://www.w3.org/1999/xlink" width="71.881" height="52.952" viewBox="0 0 71.881 52.952">
  <defs>
    <clipPath id="clip-path">
      <rect id="Rectangle_140" data-name="Rectangle 140" width="71.881" height="52.952" fill="none"/>
    </clipPath>
  </defs>
  <g id="Group_192" data-name="Group 192" clip-path="url(#clip-path)">
    <path id="Path_473" data-name="Path 473" d="M216.794,93.606h-4.172v6.608l-.7.034V93.631h-4.208v6.75h-7.751V68.275h24.576V100.37h-7.745ZM215.319,73.3a3.081,3.081,0,1,0-3.052,3.1,3.077,3.077,0,0,0,3.052-3.1M202.81,89.907h4.447V85.443H202.81Zm11.642-4.453H210v4.472h4.455Zm-7.166-6.79h-4.453v4.461h4.453Zm2.725,4.465h4.467v-4.46h-4.467Zm7.219-.006h4.455V78.659h-4.455Zm-.016,6.8h4.469V85.451h-4.469Z" transform="translate(-180.791 -61.729)" fill="#5f009f"/>
    <path id="Path_474" data-name="Path 474" d="M468.664,284.66a13.473,13.473,0,1,1,13.445,13.5,13.46,13.46,0,0,1-13.445-13.5m6.482-2.436a1.1,1.1,0,0,0,.144.133q3.479,1.6,6.963,3.184a.658.658,0,0,0,.485-.008q4.725-2.152,9.44-4.328a2.711,2.711,0,0,0,.287-.182c-.124-.067-.206-.115-.291-.156-2.98-1.461-5.963-2.915-8.935-4.392a1.02,1.02,0,0,0-.983.056q-4.568,2.095-9.141,4.177c-.1.047-.2.108-.3.162,3.143-.153,6.261-.371,9.38-.59.534-.038.877.208.921.667.04.425-.252.72-.788.765-.652.055-1.306.089-1.959.136-1.718.123-3.437.248-5.228.378m2.141,1.84c-.128.965-.255,1.845-.348,2.729-.01.1.152.264.27.313,1.514.634,3.036,1.25,4.553,1.877a1.861,1.861,0,0,0,1.487.007c1.532-.635,3.068-1.257,4.594-1.906a.511.511,0,0,0,.23-.413c-.054-.6-.153-1.2-.243-1.8-.039-.256-.1-.509-.15-.8-1.6.737-3.141,1.433-4.668,2.156a1.128,1.128,0,0,1-1.075-.014c-1.509-.722-3.034-1.408-4.65-2.152m-4.1-2.242c.174-.023.283-.043.392-.051,2.882-.2,5.764-.4,8.646-.6a1.4,1.4,0,0,0,.428-.193,1.214,1.214,0,0,0-.432-.154c-2.994.2-5.987.422-8.981.621-.338.023-.432.149-.43.468.012,1.277.021,2.555,0,3.832a11.906,11.906,0,0,1-.311,3.888c-.2.562-.3,1.156-.462,1.774h2.046c-.054-.215-.079-.37-.131-.516a11.73,11.73,0,0,1-.783-4.722c.089-1.43.018-2.869.018-4.344" transform="translate(-423.728 -245.204)" fill="#bd6cf3"/>
    <path id="Path_475" data-name="Path 475" d="M18.916,155.429H35.45v23.747H18.916Zm9.826,6.5H33.2v-4.469H28.742Zm.016,6.791h4.469v-4.474H28.758Zm-7.275,6.74h4.454v-4.471H21.483Zm7.23,0H33.16v-4.472H28.713Zm-7.189-13.545h4.47v-4.449h-4.47Zm4.459,2.352H21.528v4.454h4.455Z" transform="translate(-17.102 -140.527)" fill="#5f009f"/>
    <path id="Path_476" data-name="Path 476" d="M0,414.112v-4.651H44l.721,4.651Zm38.689-1.9H24.152v.618H38.689Zm-2.57-1.6h-9.4v.627h9.4Z" transform="translate(0 -370.202)" fill="#5f009f"/>
    <path id="Path_477" data-name="Path 477" d="M463.889,176.5V155.488h16.554v10.4l-2.5-.233v-1.337h-4.554c0,.56-.017,1.13.007,1.7.013.294-.1.406-.364.51-.767.3-1.518.648-2.326,1v-3.219h-4.485v4.466h2.546a16.086,16.086,0,0,0-4.873,7.724m6.78-18.986h-4.463v4.469h4.463Zm7.215.007h-4.461v4.463h4.461Z" transform="translate(-419.412 -140.58)" fill="#5f009f"/>
    <path id="Path_478" data-name="Path 478" d="M214.392,5.85H187.464c.15-.178.248-.308.358-.425,1.622-1.72,3.241-3.443,4.877-5.149a.944.944,0,0,1,.611-.266q7.67-.021,15.339,0a.818.818,0,0,1,.543.2c1.722,1.823,3.428,3.661,5.137,5.5a.7.7,0,0,1,.062.143" transform="translate(-169.49 0)" fill="#bd6cf3"/>
    <path id="Path_479" data-name="Path 479" d="M23.22,93.639H5.377c.228-.27.411-.5.6-.713,1.42-1.579,2.836-3.162,4.273-4.726a.986.986,0,0,1,.643-.3c3.977-.018,7.953-.013,11.93-.011.123,0,.247.02.393.033Z" transform="translate(-4.861 -79.461)" fill="#bd6cf3"/>
    <path id="Path_480" data-name="Path 480" d="M463.871,93.571V87.88c.136-.013.257-.035.378-.035q5.915,0,11.83-.008a.889.889,0,0,1,.736.335c1.515,1.706,3.046,3.4,4.571,5.1.074.082.144.167.261.3Z" transform="translate(-419.395 -79.414)" fill="#bd6cf3"/>
    <path id="Path_481" data-name="Path 481" d="M307.275,96.524V94.6h.595v2.525h-2.444v-.6Z" transform="translate(-276.142 -85.526)"/>
    <path id="Path_482" data-name="Path 482" d="M509.057,457.681l.574,1.906H508.48l.477-1.887.1-.019" transform="translate(-459.727 -413.799)"/>
  </g>
</svg>
