<svg id="Group_22" data-name="Group 22" xmlns="http://www.w3.org/2000/svg" xmlns:xlink="http://www.w3.org/1999/xlink" width="87.908" height="72.913" viewBox="0 0 87.908 72.913">
  <defs>
    <clipPath id="clip-path">
      <rect id="Rectangle_39" data-name="Rectangle 39" width="87.908" height="72.913" fill="none"/>
    </clipPath>
  </defs>
  <g id="Group_21" data-name="Group 21" clip-path="url(#clip-path)">
    <path id="Path_95" data-name="Path 95" d="M3.147,25.743,44.669,6.985,41.484,0,0,18.74l3.147,7" fill="#fff"/>
    <path id="Path_96" data-name="Path 96" d="M91.7,85.894l2.649.174v6.845H10.136V86.03H14.2V83.72c0-12.185.02-24.369-.027-36.554a2.252,2.252,0,0,1,1.552-2.441c9.409-4.189,18.784-8.453,28.171-12.692.378-.17.763-.324,1.417-.6V85.8c1.882.613,1.677-.539,1.678-1.506q0-15.277,0-30.553c0-1.565,0-3.13,0-4.812l3.269-.24c.053-1.008.1-1.951.159-3.024H72.908l.2,2.983h3.048c0-3.042,0-6.051,0-9.06a6.427,6.427,0,0,1,.029-1.449,4.182,4.182,0,0,1,.62-1.067c.282.354.8.7.807,1.064.066,2.969.023,5.94.049,8.91a12.72,12.72,0,0,0,.247,1.737l.837-.019a26.146,26.146,0,0,1,.043-3.735c.145-1-.919-2.676,1.415-2.994v6.728H94.357V53.7l-2.657.25Zm-68.189.291H34.649V64.079H23.511ZM78.438,77.5h10.2V59.434h-10.2Zm-27.084.028H61.627V59.453H51.354Zm23.8-18.008H64.866V77.528H75.156Z" transform="translate(-6.449 -20)" fill="#5f009f"/>
    <path id="Path_97" data-name="Path 97" d="M3.147,25.743,0,18.74,41.484,0l3.185,6.985L3.147,25.743" fill="#bd6cf3"/>
    <path id="Path_98" data-name="Path 98" d="M51.3,150.907a.79.79,0,1,0,.79-.79.79.79,0,0,0-.79.79" transform="translate(-32.641 -95.517)" fill="#bd6cf3"/>
  </g>
</svg>
