<svg id="Group_24" data-name="Group 24" xmlns="http://www.w3.org/2000/svg" xmlns:xlink="http://www.w3.org/1999/xlink" width="75.906" height="74.567" viewBox="0 0 75.906 74.567">
  <defs>
    <clipPath id="clip-path">
      <rect id="Rectangle_42" data-name="Rectangle 42" width="75.906" height="74.567" fill="none"/>
    </clipPath>
  </defs>
  <g id="Group_23" data-name="Group 23" clip-path="url(#clip-path)">
    <path id="Path_99" data-name="Path 99" d="M171.119,295.65c-1.379-2.773-2.7-5.576-4.067-8.357a3.386,3.386,0,0,1-.3-2.033c.249-1.825.478-3.654.665-5.487a2.656,2.656,0,0,0-2.386-3.175c-1.036-.207-2.08-.376-3.116-.584a.759.759,0,0,1-.478-.289,9.548,9.548,0,0,1-.759-1.577c-.33-.972-.625-1.961-.866-2.959a2.873,2.873,0,0,0-2.267-2.288c-2.668-.687-5.333-1.391-7.979-2.154a11.81,11.81,0,0,1-5.573-2.853c-.026-.027-.072-.033-.156-.07a8.033,8.033,0,0,1,.276,3.078c-.14,1.35-.274,2.7-.46,4.045a180.441,180.441,0,0,1-3.533,18.769c-.125.507-.273,1.007-.41,1.511a.871.871,0,0,1-.147-.452c-.155-2.022-.284-4.048-.466-6.068-.228-2.518-.5-5.031-.752-7.546a1.459,1.459,0,0,1-.021-.629c.32-.792.684-1.565,1.043-2.37l.536.378.061-.069-2.424-2.527-.12.105.074.351h-1.109c.014-.106.024-.193.035-.28l-.145-.124-2.16,2.323.045.057.38-.246c.409,1.139,1.174,2.04,1.014,3.419-.422,3.66-.635,7.343-.929,11.018-.06.752-.112,1.5-.168,2.257a.657.657,0,0,1-.185-.358c-.536-2.441-1.145-4.868-1.585-7.326-.56-3.119-1.03-6.256-1.449-9.4-.287-2.149-.473-4.316-.6-6.481a4.444,4.444,0,0,0-.79-2.153,7.681,7.681,0,0,1-3.5,1.655c-2.545.7-5.086,1.427-7.641,2.094a2.641,2.641,0,0,0-2.088,2.168,33.613,33.613,0,0,1-1.854,5.739,7.519,7.519,0,0,0-.5,1.456,2.718,2.718,0,0,1-.891,1.566,2.257,2.257,0,0,0-.779,1.568,2.453,2.453,0,0,1-.239.817c-1.9,4.058-3.751,8.145-5.755,12.152a10.961,10.961,0,0,0-1.417,5.339,3.516,3.516,0,0,0,.827,2.524.594.594,0,0,1,.067.171l3.233,2.465a7.56,7.56,0,0,0,3.179,1.379c-.135-1.553-.269-3.09-.4-4.626l-.134.006a5.583,5.583,0,0,0-.575,3.073,7.063,7.063,0,0,1-1.16-1.079,1.056,1.056,0,0,1-.2-.767,5.071,5.071,0,0,1,2.9-3.795,1.436,1.436,0,0,0,.549-.448,1.75,1.75,0,0,1,2.311-.815c.61.208,1.193.493,1.846.767-.4-.479-.759-.917-1.125-1.351a1.364,1.364,0,0,0-.2-.155,9.841,9.841,0,0,1-.918-.748,5.254,5.254,0,0,1-1.235-2.142c-.1-.31-.153-.551.126-.759a.543.543,0,0,1,.772.073c.212.212.413.435.61.66.525.6,1.044,1.2,1.589,1.824l3.843-8.18a4.375,4.375,0,0,1,.442,1.086q1.637,6.168,3.269,12.337c.242.907.021.767,1,.808q3.876.162,7.755.239a1.65,1.65,0,0,0,.945-.3c1.047-.769,2.087-1.554,3.073-2.4a1.848,1.848,0,0,1,1.847-.372,39.121,39.121,0,0,0,4.242.79,18.843,18.843,0,0,0,6.995-.693,2.978,2.978,0,0,1,2.939.76,14.448,14.448,0,0,1,1.8,2.219,3.514,3.514,0,0,1,.511,2.671c-.021.115-.129.305-.2.306-.905.021-1.812.015-2.782.015,1-.81,1.205-1.442.592-2.448a27.257,27.257,0,0,0-2-2.657.855.855,0,0,0-.973-.228,29.777,29.777,0,0,1-3.425.748,22.175,22.175,0,0,1-6.15-.2,1.675,1.675,0,0,0-1.408.352c-1.372,1.164-2.743,2.329-4.1,3.513a1.2,1.2,0,0,0-.406.669A9.263,9.263,0,0,0,135,306.62a1.085,1.085,0,0,0,1.111.938c.41.028.557-.125.7-.789a3.216,3.216,0,0,1,.862-1.77c.879-.837,1.7-1.73,2.525-2.625.255-.28.4-.661.644-.953.1-.115.336-.112.51-.163a1.851,1.851,0,0,1,.021.479.72.72,0,0,1-.219.311c-.977.981-1.915,2-2.95,2.918a1.718,1.718,0,0,0-.518,1.842,1.132,1.132,0,0,0,1.08.94c.466.058.609-.092.963-.671a16.349,16.349,0,0,1,1.181-1.612.625.625,0,0,1,.441-.2c.363,0,.724.069,1.15.116a4.982,4.982,0,0,1-.231.472c-.255.4-.528.781-.781,1.179-.362.569-.15.994.522,1.081a1.412,1.412,0,0,0,1.209-.415c.542-.508,1.085-1.014,1.648-1.5a1.1,1.1,0,0,1,.6-.292c.862-.033,1.727-.014,2.591-.014.007.047.014.1.021.142a2.641,2.641,0,0,1-.219.238q-4.241,3.612-8.494,7.213a1.027,1.027,0,0,1-.664.2c-1.44-.084-2.879-.2-4.318-.307-.6-.045-1.205-.093-1.834-.142.111-.387.207-.7.291-1.017a.57.57,0,0,0-.422-.764c-.162-.054-.33-.09-.5-.129-3.846-.911-7.789-.946-11.7-1.295a2.618,2.618,0,0,0-2.133.812,9.939,9.939,0,0,1-.945.87,1.168,1.168,0,0,1-.684.238c-1.056-.044-2.111-.13-3.164-.208-.9-.067-1.809-.145-2.713-.218-.016-.05-.033-.1-.048-.149l12.589-6.27a3.574,3.574,0,0,0-1.919-1.395,4.755,4.755,0,0,1-.525-.183q-2.485-1.052-4.966-2.11c-.1-.044-.2-.1-.3-.152a3.37,3.37,0,0,1,.781.085,20.119,20.119,0,0,1,4.5,1.617,5.326,5.326,0,0,0,1.1.331.632.632,0,0,0,.76-.418,1.442,1.442,0,0,0-.168-.819c-.057-.137-.245-.234-.392-.319-1.617-.94-3.229-1.89-4.862-2.8a8.911,8.911,0,0,0-1.689-.718,1.253,1.253,0,0,0-1.612.832,2.028,2.028,0,0,1-.924,1.162,1.12,1.12,0,0,0-.522,1.44,8.288,8.288,0,0,1,.212.958c.143,1.175.241,2.357.4,3.53.165,1.188.62,1.521,1.828,1.466.444-.021.891,0,1.415,0l-10.574,5.348a.626.626,0,0,0,.375.155q5.683.444,11.366.883c3.233.249,6.467.488,9.7.74,4.415.344,8.83.7,13.246,1.031a1.153,1.153,0,0,0,.765-.268q5.01-4.4,9.993-8.823c.362-.32.724-.825,1.123-.863s.862.372,1.269.632a2.4,2.4,0,0,0,2,.318c1.45-.378,2.912-.712,4.36-1.1,3.256-.864,6.506-1.75,9.76-2.622a2.352,2.352,0,0,0,1.78-1.686,7.674,7.674,0,0,0-.308-5.712M131.558,312.2c-.784-.027-1.571-.054-2.353-.122q-4.586-.4-9.17-.822c-.4-.036-.789-.1-1.182-.15-.01-.065-.02-.131-.029-.2a4.432,4.432,0,0,1,1.281-.326c2.407.134,4.816.282,7.216.519,1.388.137,2.76.448,4.138.682a.432.432,0,0,1,.164.046c.092.062.174.137.26.208-.108.057-.219.165-.325.162m27.506-15.687c.093-.85.178-1.638.263-2.425l.129-.015.82,2.07-1.213.37" transform="translate(-96.16 -241.206)" fill="#5f009f"/>
    <path id="Path_100" data-name="Path 100" d="M19.13,216.937c-.266-.053-.534-.094-.8-.141a15.53,15.53,0,0,0-8.4.586.912.912,0,0,1-.636-.083c-1.08-.52-2.142-1.079-3.222-1.6a1.063,1.063,0,0,0-1.595.476q-.666,1.173-1.248,2.392a1.078,1.078,0,0,0,.554,1.664c.763.419,1.541.812,2.3,1.235,1.073.6.964.263.642,1.467q-2.151,8.048-4.363,16.08a4.164,4.164,0,0,1-.512,1.118,2.286,2.286,0,0,0,.67,3.266,1.668,1.668,0,0,1,.967,1.712c0,.086.011.171.019.256q.454,4.8.91,9.6c.1,1.007.193,2.013.292,3.051-.441.058-.836.108-1.229.164a8.668,8.668,0,0,0-2.961.793.9.9,0,0,0-.516.905c.021.556.032,1.114.023,1.671a.716.716,0,0,0,.49.768,11.506,11.506,0,0,0,1.55.479,23.694,23.694,0,0,0,7.891.123,21.616,21.616,0,0,0,2.612-.634.631.631,0,0,0,.469-.724c-.017-.287,0-.576,0-.864a3.643,3.643,0,0,0-1.784-2.18A9.871,9.871,0,0,0,7.7,257.98c-.025-.143-.052-.254-.063-.366-.128-1.279-.247-2.559-.379-3.838-.358-3.439-.725-6.876-1.072-10.315a2.835,2.835,0,0,1,.071-1.136,2.86,2.86,0,0,0-.193-2.2,1.144,1.144,0,0,1-.1-.715q1.677-6.29,3.391-12.57c.035-.13.092-.254.118-.327.952.809,1.868,1.625,2.824,2.391.9.718.964.7,1.523-.327q1.989-3.672,3.932-7.369c.612-1.162,1.188-2.342,1.76-3.524.226-.469.117-.646-.39-.748m-12.5,40.976H5.74c-.115-1.172-.231-2.334-.342-3.5q-.468-4.9-.933-9.8c-.007-.071-.012-.142-.017-.214-.044-.589-.044-.59.7-.732.493,4.754.982,9.475,1.476,14.244m1.877-32.064q-1.732,6.475-3.479,12.945a2.816,2.816,0,0,1-.11.3l-1.439-.15,4.127-15.146c.346.582.649,1.06.91,1.559a.769.769,0,0,1-.009.5" transform="translate(0 -197.041)" fill="#bd6cf3"/>
    <path id="Path_101" data-name="Path 101" d="M335.469,7.005a3.411,3.411,0,0,0,.377,3.023,4.406,4.406,0,0,1,.286-2.43l.5,1.053a6.916,6.916,0,0,1,.015-1.04.632.632,0,0,1,.318-.423A3.523,3.523,0,0,0,339.032,5.2a4.532,4.532,0,0,1,2.734-2.561,3.245,3.245,0,0,0,.868-.459l-1.982-.348c.277-.162.487-.3.708-.412a11.945,11.945,0,0,1,9.1-.912,5.27,5.27,0,0,1,2.706,1.72c.149.184.264.4.437.657l-.58.03c.468.341.976.694,1.461,1.075a2.229,2.229,0,0,1,.357.425l-1.855-.574-.055.142c.115.07.228.143.344.21A3.828,3.828,0,0,1,355.3,7.336a11.981,11.981,0,0,1-.963,6.067c-.064.142-.12.288-.223.537.243-.084.4-.148.568-.2.592-.173,1,.1.947.711a6.888,6.888,0,0,1-2.205,4.645,1.381,1.381,0,0,1-.776.29c-.3.026-.414.15-.428.409a2.184,2.184,0,0,0,.035.508c.184,1,.413,1.986.547,2.989a2.5,2.5,0,0,1-.166,1.241,10.486,10.486,0,0,1-3.683,4.311c-.7.517-1.426,1-2.161,1.467a.606.606,0,0,1-.529-.038,11.445,11.445,0,0,1-1.135-.84,1.5,1.5,0,0,0-1.1-.374,2.111,2.111,0,0,1-2.4-1.506c-.835-2-1.652-4.008-2.512-6a8.65,8.65,0,0,1-.663-3.249,5.5,5.5,0,0,0-.3-1.038,2.327,2.327,0,0,1-.133-.936,6.671,6.671,0,0,0-.488-3.812c-.062-.159-.335-.287-.533-.333a3.024,3.024,0,0,1-1.527-5.188" transform="translate(-305.826 0)" fill="#5f009f"/>
    <path id="Path_102" data-name="Path 102" d="M680.149,93.473a.984.984,0,0,1-.011-.2,3.774,3.774,0,0,0-.985-3.4,6.006,6.006,0,0,1-1.421-2.7,4.567,4.567,0,0,1,1.829-4.727,4.5,4.5,0,0,1,5.06-.3,4.446,4.446,0,0,1,2.419,4.357,4.97,4.97,0,0,1-1.02,2.682c-.418.6-.819,1.2-1.205,1.82a2.467,2.467,0,0,0-.254,2.063c.061.217.071.413-.239.413-1.383,0-2.766,0-4.173,0m.5-6.849a14.561,14.561,0,0,1,1.1,6.1l.46-.051a16.769,16.769,0,0,0-.94-5.657h2.11a15.635,15.635,0,0,0-.877,5.622c.372.04.384.04.392-.3a15.935,15.935,0,0,1,.942-5.284,4,4,0,0,0,.108-.435Z" transform="translate(-619.552 -74.516)" fill="#bd6cf3"/>
    <path id="Path_103" data-name="Path 103" d="M653.238,786.48c.065.1.084.16.125.179a4.813,4.813,0,0,0,2.147.741,16.6,16.6,0,0,1,3.754.174,26.351,26.351,0,0,0,4.451.208c.279.014.662-.048.671.339s-.373.407-.676.424c-1.1.059-2.2.111-3.3.168-.14.007-.28.027-.445.044-.056.68-.111,1.333-.163,1.987-.057.722-.247.9-.956.909a13.371,13.371,0,0,1-4.159-.728,1.429,1.429,0,0,1-1.005-1.231c-.061.036-.1.048-.127.077-.471.606-.75.657-1.392.237a1.776,1.776,0,0,1-.833-1.428c-.051-.869-.047-1.741-.058-2.612,0-.373.16-.569.567-.581a110.318,110.318,0,0,1,11.565.008c1.948.145,3.88.48,5.822.709a11.217,11.217,0,0,0,1.449.041c.3,0,.633-.033.665.347.028.342-.282.512-.574.515a6.636,6.636,0,0,1-1.613-.114,19.8,19.8,0,0,0-5.006-.577c-3.485.054-6.971.082-10.456.123-.136,0-.272.024-.457.041m1.291,2.071c.018.169.031.281.042.393.08.875.192,1.009,1.037,1.2.584.129,1.166.27,1.756.362.484.076.978.087,1.575.136,0-.595-.015-1.09.005-1.583.014-.346-.121-.494-.466-.5-1.2-.016-2.392-.045-3.588-.064a2.246,2.246,0,0,0-.362.058m-2.578-1.782c-.218,1.2-.057,2.109.742,2.516.17-.39.36-.769.5-1.167a.493.493,0,0,0-.116-.426c-.354-.325-.741-.614-1.122-.922" transform="translate(-595.44 -717.914)" fill="#bd6cf3"/>
    <path id="Path_104" data-name="Path 104" d="M798.795,281.445c-.687-.552-1.156-.382-1.333.418a5.548,5.548,0,0,1-.706-.01.365.365,0,0,1-.249-.21.636.636,0,0,0-1.074-.331,1.557,1.557,0,0,1-.163.1l-.671-.771.421-.355c-.158-.29-.056-.786-.649-.746-.051,0-.154-.158-.162-.249-.023-.251-.008-.506-.008-.791.338.023.6.013.748-.38.164-.421-.269-.487-.324-.794l.693-.643.431.39c.372-.175.844-.236.814-.835h.957c-.078.613.4.673.824.824l.4-.465.758.815c-.262.222-.517.429-.284.765.081.116.226.266.341.265.3,0,.365.142.358.394-.007.225,0,.451,0,.7-.412,0-.713.114-.776.533-.011.075-.026.2.014.225.408.3.134.53-.057.774-.1.123-.194.245-.3.377m-.677-2.433a1.058,1.058,0,0,0-1.047-1.072,1.1,1.1,0,0,0-.03,2.205,1.066,1.066,0,0,0,1.076-1.133" transform="translate(-726.106 -252.553)" fill="#bd6cf3"/>
    <path id="Path_105" data-name="Path 105" d="M421.987,681.21c-.8.808-1.583,1.616-2.388,2.4-.573.556-1.2,1.06-1.764,1.625a2.643,2.643,0,0,0-.411.765,3.7,3.7,0,0,1-.3.7,16.566,16.566,0,0,1-1.171,1.364.961.961,0,0,1-1.193.3.408.408,0,0,1-.251-.556,2.835,2.835,0,0,1,.251-.542c.571-.905,1.13-1.82,1.74-2.7a4.755,4.755,0,0,1,.95-.973c1.1-.88,2.236-1.726,3.35-2.593.456-.355.711-.343,1.183.211" transform="translate(-378.945 -622.395)" fill="#5f009f"/>
    <path id="Path_106" data-name="Path 106" d="M268.076,193.515c.455-.153.672-.286.272-.6-.078-.062-.071-.289-.033-.419.023-.076.181-.122.286-.16a1.384,1.384,0,0,1,.3-.031.549.549,0,0,1,.314-.821c.47.358.461.354.736-.143a.353.353,0,0,1,.309-.129.645.645,0,0,1,.373.244c.214.353.323.383.657.084.283.153.645.259.275.743.185.021.307.023.423.05.233.053.375.444.186.568-.491.324-.167.44.14.58l-.09.573c-.115.015-.224.026-.332.045-.2.036-.288.118-.226.355a.532.532,0,0,1-.1.453.582.582,0,0,1-.462.031c-.24-.07-.4-.1-.491.206a.377.377,0,0,1-.267.233.585.585,0,0,1-.416-.183c-.174-.246-.294-.465-.623-.175-.055.049-.294-.039-.389-.128s-.188-.3-.143-.379c.174-.3.06-.326-.213-.419-.186-.063-.3-.344-.48-.576m2.931-.207a.761.761,0,1,0-1.522-.047.79.79,0,0,0,.738.788.78.78,0,0,0,.784-.741" transform="translate(-245.093 -174.813)" fill="#bd6cf3"/>
    <path id="Path_107" data-name="Path 107" d="M292.841,769.691l20.017,1.439.017.2a1.33,1.33,0,0,1-.364.083c-2.224-.137-4.449-.268-6.672-.428-2.864-.206-5.726-.434-8.588-.656q-2.093-.163-4.185-.343a1.1,1.1,0,0,1-.3-.125l.078-.168" transform="translate(-267.664 -703.703)" fill="#5f009f"/>
    <path id="Path_108" data-name="Path 108" d="M279.811,673.181a2.726,2.726,0,0,0-1.378-1.464.578.578,0,0,1-.35-.726c.051-.234.055-.479.09-.812l-.908.185-.7-.871.033-.133c.878.1,1.76.175,2.633.3.314.046.422.331.458.647.076.677.192,1.349.271,2.026a7.16,7.16,0,0,1,.005.818l-.158.025" transform="translate(-252.859 -611.975)" fill="#5f009f"/>
    <rect id="Rectangle_41" data-name="Rectangle 41" width="3.884" height="1.261" transform="translate(60.848 19.516)" fill="#5f009f"/>
    <path id="Path_109" data-name="Path 109" d="M290.385,783l-15.544-1-.021-.142a2.4,2.4,0,0,1,.564-.106c1.767.094,3.534.188,5.3.312,2.961.209,5.921.44,8.88.665.279.021.557.066.836.1l-.015.169" transform="translate(-251.259 -714.73)" fill="#5f009f"/>
    <path id="Path_110" data-name="Path 110" d="M715.474,248.6a2.01,2.01,0,0,1-2.214,1.159c-.719-.087-.926-.707-1.323-1.159Z" transform="translate(-650.901 -227.286)" fill="#5f009f"/>
    <path id="Path_111" data-name="Path 111" d="M728.168,23.39a6.247,6.247,0,0,1-.019,1.106.71.71,0,0,1-.407.494c-.3.058-.451-.223-.454-.5-.007-.71.009-1.421.037-2.131.01-.255.174-.476.436-.4a.7.7,0,0,1,.4.446,4.912,4.912,0,0,1,.018.978h-.013" transform="translate(-664.934 -20.067)" fill="#bd6cf3"/>
    <path id="Path_112" data-name="Path 112" d="M615.493,141.941a7.274,7.274,0,0,1,1.107.017c.181.028.449.212.476.361.054.3-.2.455-.487.459q-1.088.017-2.177,0c-.27,0-.482-.133-.48-.432s.222-.4.494-.405c.356,0,.711,0,1.067,0" transform="translate(-561.298 -129.76)" fill="#bd6cf3"/>
    <path id="Path_113" data-name="Path 113" d="M814.733,141.943a6.406,6.406,0,0,1,1.064.017.663.663,0,0,1,.463.371c.066.279-.171.437-.445.442-.711.013-1.423.017-2.134.006-.285,0-.514-.147-.5-.465s.253-.376.524-.372c.341.006.683,0,1.024,0" transform="translate(-743.467 -129.76)" fill="#bd6cf3"/>
    <path id="Path_114" data-name="Path 114" d="M650.429,203.19a2.214,2.214,0,0,1-.264.421c-.471.459-.953.905-1.436,1.351-.205.189-.438.305-.673.055s-.111-.474.092-.67c.483-.466.96-.941,1.464-1.383a.649.649,0,0,1,.5-.109c.118.024.2.206.321.336" transform="translate(-592.38 -185.454)" fill="#bd6cf3"/>
    <path id="Path_115" data-name="Path 115" d="M791.547,204.882c-.078.1-.146.262-.266.329a.425.425,0,0,1-.389-.007c-.584-.524-1.16-1.059-1.7-1.625a.559.559,0,0,1,.018-.527.49.49,0,0,1,.473-.092c.615.551,1.2,1.137,1.79,1.716.036.035.04.1.076.207" transform="translate(-721.477 -185.532)" fill="#bd6cf3"/>
    <path id="Path_116" data-name="Path 116" d="M650.862,60.268c-.017.371-.434.606-.691.379a21.753,21.753,0,0,1-1.6-1.584.538.538,0,0,1,.049-.51.479.479,0,0,1,.473-.044c.58.5,1.129,1.035,1.683,1.565a.513.513,0,0,1,.087.194" transform="translate(-592.924 -53.453)" fill="#bd6cf3"/>
    <path id="Path_117" data-name="Path 117" d="M791.366,58.9a2.173,2.173,0,0,1-.215.3c-.491.474-.991.938-1.481,1.412-.206.2-.415.253-.629.035a.41.41,0,0,1,.038-.639c.49-.474.983-.947,1.5-1.39a.624.624,0,0,1,.5-.071c.114.031.185.217.287.35" transform="translate(-721.269 -53.506)" fill="#bd6cf3"/>
    <path id="Path_118" data-name="Path 118" d="M331.781,718.666l-3.682,1.846-.339-.457c.183-.1.348-.206.52-.295.661-.338,1.33-.659,1.984-1.011a1.791,1.791,0,0,1,1.517-.084" transform="translate(-299.66 -656.937)" fill="#5f009f"/>
    <path id="Path_119" data-name="Path 119" d="M316.778,759.048c2.231.131,4.454.366,6.673.632l-.018.206c-2.231-.141-4.45-.419-6.678-.6l.023-.238" transform="translate(-289.599 -693.972)" fill="#5f009f"/>
    <path id="Path_120" data-name="Path 120" d="M337.794,749.013l6.118.638q0,.084.008.168a1.2,1.2,0,0,1-.348.072q-2.744-.275-5.486-.569a1.791,1.791,0,0,1-.333-.1l.041-.206" transform="translate(-308.796 -684.798)" fill="#5f009f"/>
    <path id="Path_121" data-name="Path 121" d="M254.455,658.977l-2.327-2.171.421-.47,2.059,2.494-.153.146" transform="translate(-230.512 -600.066)" fill="#5f009f"/>
    <path id="Path_122" data-name="Path 122" d="M306.926,723.647l1.4,1.975-.116.111-1.866-1.58.585-.506" transform="translate(-280.077 -661.607)" fill="#5f009f"/>
    <path id="Path_123" data-name="Path 123" d="M368.753,742.388a24.319,24.319,0,0,1,4.04.479,35.332,35.332,0,0,1-4.049-.267q0-.106.009-.212" transform="translate(-337.13 -678.741)" fill="#5f009f"/>
    <path id="Path_124" data-name="Path 124" d="M366.909,40.589l-2.16,2.578a3.955,3.955,0,0,1,2.16-2.578" transform="translate(-333.478 -37.109)" fill="#5f009f"/>
    <line id="Line_1" data-name="Line 1" x2="2.091" y2="1.603" transform="translate(10.961 61.952)"/>
    <path id="Path_125" data-name="Path 125" d="M122.428,718.457l.465.357" transform="translate(-111.932 -656.861)"/>
    <path id="Path_126" data-name="Path 126" d="M115.73,713.322l-.073-.056.581.445" transform="translate(-105.741 -652.116)"/>
    <path id="Path_127" data-name="Path 127" d="M116.7,714.068l-.2-.15" transform="translate(-106.519 -652.712)"/>
    <path id="Path_128" data-name="Path 128" d="M119.1,715.906l-.312-.239" transform="translate(-108.604 -654.311)"/>
    <path id="Path_129" data-name="Path 129" d="M122.7,718.663l-.269-.206" transform="translate(-111.932 -656.861)"/>
    <path id="Path_130" data-name="Path 130" d="M125.877,721.1l-.312-.239" transform="translate(-114.8 -659.059)"/>
    <path id="Path_131" data-name="Path 131" d="M131.176,725.16l-1.976-1.514" transform="translate(-118.123 -661.606)"/>
  </g>
</svg>
