<svg id="Group_26" data-name="Group 26" xmlns="http://www.w3.org/2000/svg" xmlns:xlink="http://www.w3.org/1999/xlink" width="78.055" height="74.567" viewBox="0 0 78.055 74.567">
  <defs>
    <clipPath id="clip-path">
      <rect id="Rectangle_47" data-name="Rectangle 47" width="78.055" height="74.567" fill="none"/>
    </clipPath>
  </defs>
  <g id="Group_25" data-name="Group 25" clip-path="url(#clip-path)">
    <path id="Path_132" data-name="Path 132" d="M183.753,57.493V74.567H127V62.036l1.528-.734c.151.527.3,1.036.444,1.548q1.312,4.718,2.622,9.437c.156.561.446.83.916.854a1,1,0,0,0,1.017-.743q.747-1.733,1.492-3.468c.052-.121.11-.239.18-.393l3.018,2.231c.155.115.309.231.465.345a1,1,0,0,0,1.235.118.922.922,0,0,0,.349-1.112q-.487-1.776-.983-3.549c-.908-3.262-1.811-6.526-2.735-9.783a.892.892,0,0,1,.313-1c.753-.683,1.487-1.387,2.26-2.05a1.225,1.225,0,0,0,.444-1.331c-.185-.8-.279-1.623-.491-2.416a5.737,5.737,0,0,1,.193-2.469c.091-.572.2-1.141.326-1.707a.961.961,0,0,0-.332-.983c-.793-.722-1.586-1.442-2.368-2.175a1.9,1.9,0,0,1-.385-.516c-.462-.906-.918-1.815-1.355-2.732a1.181,1.181,0,0,0-1.031-.706c-1.083-.122-2.163-.266-3.242-.412a1.494,1.494,0,0,1-.466-.161c-.765-.392-1.523-.8-2.287-1.189-.379-.195-.767-.373-1.195-.58V0h46.563c0,.15,0,.3,0,.457q0,4.081,0,8.162c0,.891.334,1.209,1.265,1.209h9v25.33c-.15-.048-.291-.087-.427-.136-1.934-.7-3.87-1.4-5.8-2.118a1.654,1.654,0,0,0-1.214-.014q-9.855,3.6-19.717,7.179c-.584.212-.831.5-.829.939s.25.718.839.932c1.685.615,3.367,1.237,5.058,1.835a.49.49,0,0,1,.389.553q-.017,4.99-.007,9.981a3,3,0,0,0,3.327,3.182h18.384ZM133.047,21.607v.586c0,3.138-.007,6.276,0,9.414a3.687,3.687,0,0,0,3.915,3.767q13,.007,26.009,0a3.677,3.677,0,0,0,3.877-3.754q0-4.747,0-9.495v-.511c.908-.233,1.069-.44,1.069-1.342q0-3.474,0-6.949a3.062,3.062,0,0,0-3.293-3.2q-3.754-.006-7.509,0H156.6c0-.648.011-1.239,0-1.828a4.722,4.722,0,0,0-4.862-4.614c-1.133-.006-2.265,0-3.4,0a4.719,4.719,0,0,0-5.014,4.871c0,.508,0,1.016,0,1.572h-.488q-3.8,0-7.593,0A3.05,3.05,0,0,0,132,13.25q0,3.555,0,7.111c0,.807.192,1.044,1.046,1.246m22.041,39.958H170.4a4.083,4.083,0,0,0,.5-.013.933.933,0,0,0,.811-.715.849.849,0,0,0-.434-.967,1.782,1.782,0,0,0-.723-.143q-13.465-.01-26.93-.006c-1.384,0-2.768,0-4.153,0a.928.928,0,0,0-1.018.985c.035.537.459.857,1.154.857q7.739,0,15.479,0m2.266,4.7H144.307c-.861,0-1.3.309-1.309.912s.452.931,1.294.931l23.534,0c.965,0,1.93.006,2.895-.008a.933.933,0,0,0,.974-1.193,1,1,0,0,0-1.085-.646H157.354m-6.361-11.251q3.292,0,6.585,0a.939.939,0,0,0,1.039-1.076c-.081-.483-.487-.765-1.115-.765q-6.5,0-13,0a1.745,1.745,0,0,0-.415.037.894.894,0,0,0-.613,1.306,1.011,1.011,0,0,0,.977.5q3.271-.008,6.543,0" transform="translate(-116.279)" fill="#5f009f"/>
    <path id="Path_133" data-name="Path 133" d="M514.448,435.862l3.464-1.26q6.82-2.482,13.644-4.955a1.009,1.009,0,0,1,.629-.016q8.376,3.028,16.742,6.081c.116.042.229.093.407.167-.854.314-1.648.607-2.443.9q-7.312,2.658-14.628,5.3a1.193,1.193,0,0,1-.744,0q-8.356-3.018-16.7-6.065c-.1-.037-.2-.081-.37-.149" transform="translate(-471.279 -394.871)" fill="#bd6cf3"/>
    <path id="Path_134" data-name="Path 134" d="M594.2,552.293v8.093h-2.833c-.007-.15-.02-.293-.02-.436,0-1.118.006-2.236,0-3.353a.96.96,0,1,0-1.91,0c0,1.251,0,2.5,0,3.784H573.153c-.007-.14-.019-.283-.019-.425,0-1.118,0-2.235,0-3.353a.953.953,0,0,0-.953-1.055.939.939,0,0,0-.958,1.042c0,1.252,0,2.5,0,3.789h-2.864v-8.089c.467.165.9.313,1.322.468q5.468,1.99,10.933,3.988a1.8,1.8,0,0,0,1.33,0q5.873-2.156,11.759-4.281c.154-.056.31-.107.5-.172" transform="translate(-520.663 -507.659)" fill="#bd6cf3"/>
    <path id="Path_135" data-name="Path 135" d="M22.7,483.734c-.117.616-.177,1.171-.331,1.7a6.335,6.335,0,0,0,.038,3.344,3.141,3.141,0,0,1,.231,1.53c-.147.441-.7.779-1.115,1.111a6.627,6.627,0,0,0-2.148,2.825c-.13.339-.36.645-.473.988-.143.436-.449.538-.871.58-.889.088-1.774.211-2.659.334a1.643,1.643,0,0,0-.506.179c-.826.424-1.654.846-2.466,1.293a.613.613,0,0,1-.688-.009c-.454-.263-.957-.456-1.389-.747a6.5,6.5,0,0,0-3.5-.947,1.814,1.814,0,0,1-1.92-1.317A6.6,6.6,0,0,0,2.4,491.252a1.651,1.651,0,0,1-.748-2.185c.1-.246.081-.535.166-.789.463-1.378-.073-2.687-.3-4.013a.871.871,0,0,1,.336-1,9.879,9.879,0,0,0,3.422-4.577.668.668,0,0,1,.637-.465c.9-.09,1.8-.214,2.7-.346a2.37,2.37,0,0,0,.706-.224q1.227-.615,2.432-1.268a.548.548,0,0,1,.611-.006c.381.224.806.384,1.172.627a7.385,7.385,0,0,0,3.665,1.1,3.018,3.018,0,0,1,1.382.227,2.541,2.541,0,0,1,.668,1.178,7.326,7.326,0,0,0,2.4,3.19,10.993,10.993,0,0,1,.882.805,1.409,1.409,0,0,1,.171.227M12.036,495.671a8.671,8.671,0,1,0,.121-17.332,8.673,8.673,0,1,0-.121,17.332" transform="translate(-1.363 -437.795)" fill="#bd6cf3"/>
    <path id="Path_136" data-name="Path 136" d="M166.161,730.7c.678-.109,1.287-.217,1.9-.3.649-.093,1.3-.186,1.953-.245a1.186,1.186,0,0,0,1.1-.782l2.543,9.136c-.466-.343-.845-.62-1.223-.9-.355-.262-.7-.533-1.063-.788a.977.977,0,0,0-1.573.4c-.361.814-.706,1.635-1.11,2.576l-2.531-9.094" transform="translate(-152.218 -670.43)" fill="#bd6cf3"/>
    <path id="Path_137" data-name="Path 137" d="M2.509,729.322a1.272,1.272,0,0,0,1.269.814c.958.1,1.913.231,2.867.365a7.283,7.283,0,0,1,.8.21L4.939,739.74c-.26-.6-.476-1.085-.689-1.575-.14-.323-.272-.649-.416-.97a.974.974,0,0,0-1.592-.408c-.721.529-1.44,1.062-2.243,1.56l2.509-9.025" transform="translate(0 -670.384)" fill="#bd6cf3"/>
    <path id="Path_138" data-name="Path 138" d="M593.642,675.856a1.079,1.079,0,0,1-.976,1.028,2.6,2.6,0,0,1-.335.011q-11.6,0-23.191,0a1.238,1.238,0,0,1-1.163-.5,3.406,3.406,0,0,1-.224-.543Z" transform="translate(-520.111 -621.238)" fill="#bd6cf3"/>
    <path id="Path_139" data-name="Path 139" d="M704.858,25.147V18.7l6.7,6.451Z" transform="translate(-645.711 -17.185)" fill="#5f009f"/>
    <path id="Path_140" data-name="Path 140" d="M210.158,155.675c-.008-.133-.021-.251-.021-.369q0-3.03,0-6.06a1.181,1.181,0,0,1,1.349-1.293l23.408.006c1.986,0,3.971-.006,5.957,0,.913,0,1.374.439,1.375,1.312q.006,3.05,0,6.1c0,.093-.008.186-.014.311h-11.42c0-.2,0-.409,0-.618a.978.978,0,0,0-1.122-1.1q-3.5-.006-7.005,0a.95.95,0,0,0-1.092,1.04c0,.214,0,.429,0,.677Zm23.174-5.636c-1.217,0-2.434,0-3.65,0a1.739,1.739,0,0,0-.5.052.9.9,0,0,0-.636.979.969.969,0,0,0,1.041.807q3.713.009,7.427,0a.972.972,0,0,0,1.079-.943.962.962,0,0,0-1.072-.9c-1.231,0-2.462,0-3.692,0m-14.293,0c-1.231,0-2.462-.012-3.692.01a1.443,1.443,0,0,0-.734.22.8.8,0,0,0-.3.975.987.987,0,0,0,1.054.636q3.65,0,7.3,0c.7,0,1.141-.358,1.151-.913s-.448-.927-1.172-.929q-1.8,0-3.608,0" transform="translate(-192.502 -135.997)" fill="#5f009f"/>
    <path id="Path_141" data-name="Path 141" d="M233,267.077c.085.545-.188,1.2.385,1.491a6.421,6.421,0,0,0,1.6.353v10.1h-10.3a1.826,1.826,0,0,1-2.04-1.951q0-4.788,0-9.576c0-.132.011-.263.018-.417Zm-4.98,6.042c0-.7.007-1.4,0-2.1a.945.945,0,1,0-1.89,0q-.011,2.055,0,4.111a.946.946,0,1,0,1.891,0c.007-.672,0-1.343,0-2.015m3.517-.044c0-.685.008-1.37,0-2.055a.946.946,0,1,0-1.892.014q-.012,2.055,0,4.111a.947.947,0,1,0,1.892-.014c.006-.685,0-1.37,0-2.056" transform="translate(-203.955 -245.494)" fill="#5f009f"/>
    <path id="Path_142" data-name="Path 142" d="M445.257,267.124c.008.133.022.25.022.368q0,4.847,0,9.694a1.791,1.791,0,0,1-1.937,1.877q-5.012,0-10.024,0h-.37v-10.1a6.458,6.458,0,0,0,1.6-.371c.561-.293.294-.949.384-1.474Zm-6.973,6.039c0-.7.006-1.4,0-2.1a.954.954,0,0,0-1.907-.043q-.025,2.1,0,4.195a.952.952,0,1,0,1.9-.037c.006-.672,0-1.345,0-2.017m1.61-.02c0,.672-.005,1.344,0,2.016a.956.956,0,1,0,1.909,0q.009-2.016,0-4.032a.958.958,0,1,0-1.911,0c0,.672,0,1.344,0,2.016" transform="translate(-396.618 -245.537)" fill="#5f009f"/>
    <path id="Path_143" data-name="Path 143" d="M353.73,72.593H352.3c0-.517,0-1.024,0-1.53,0-1.123-.558-1.666-1.713-1.67q-1.593-.005-3.185,0a1.475,1.475,0,0,0-1.671,1.627c0,.509,0,1.018,0,1.559h-1.512a17.006,17.006,0,0,1,.233-2.629,2.755,2.755,0,0,1,2.731-1.943q1.823-.016,3.646,0a2.852,2.852,0,0,1,2.9,2.8c.007.577,0,1.155,0,1.782" transform="translate(-315.331 -62.502)" fill="#5f009f"/>
    <rect id="Rectangle_44" data-name="Rectangle 44" width="1.35" height="10.166" transform="translate(32.994 23.339)" fill="#5f009f"/>
    <rect id="Rectangle_45" data-name="Rectangle 45" width="5.329" height="1.636" transform="translate(31.014 19.825)" fill="#5f009f"/>
    <rect id="Rectangle_46" data-name="Rectangle 46" width="2.686" height="1.323" transform="translate(32.336 8.755)" fill="#5f009f"/>
    <path id="Path_144" data-name="Path 144" d="M57.237,531.411a7.1,7.1,0,1,1-6.888-6.874,7,7,0,0,1,6.888,6.874m-11.128,4.4a.96.96,0,0,0,1.466.87c.776-.427,1.527-.895,2.305-1.318a.632.632,0,0,1,.511,0c.754.409,1.492.845,2.229,1.283a.971.971,0,0,0,1.135.01.914.914,0,0,0,.356-1.076c-.2-.783-.375-1.573-.583-2.354a.487.487,0,0,1,.192-.59c.626-.495,1.229-1.017,1.847-1.521a.955.955,0,0,0,.442-1.12,1.041,1.041,0,0,0-1.05-.654c-.808-.056-1.615-.133-2.423-.181a.486.486,0,0,1-.49-.339c-.309-.749-.654-1.485-.967-2.233a.986.986,0,0,0-1.889,0c-.308.735-.649,1.458-.948,2.2a.543.543,0,0,1-.555.374c-.836.049-1.671.124-2.507.189a.958.958,0,0,0-.921.644.893.893,0,0,0,.352,1.039,12.441,12.441,0,0,0,1.373,1.121,1.28,1.28,0,0,1,.595,1.782,14.671,14.671,0,0,0-.47,1.871" transform="translate(-39.435 -482.147)" fill="#bd6cf3"/>
    <path id="Path_145" data-name="Path 145" d="M97.4,586.768a1.8,1.8,0,0,0-.935-2.8l.1-.1c.292-.026.585-.07.877-.073a1.173,1.173,0,0,0,1.232-.836c.1-.287.245-.558.408-.919.178.406.327.719.454,1.04a1.042,1.042,0,0,0,.98.7c.36.025.72.058,1.181.1-.311.26-.538.473-.789.655a1.074,1.074,0,0,0-.45,1.312c.093.293.143.6.235.994-.388-.225-.705-.4-1.013-.589a1.074,1.074,0,0,0-1.217.005c-.3.187-.617.362-.927.542l-.135-.019" transform="translate(-88.372 -534.999)" fill="#bd6cf3"/>
  </g>
</svg>
