<svg id="Group_246" data-name="Group 246" xmlns="http://www.w3.org/2000/svg" xmlns:xlink="http://www.w3.org/1999/xlink" width="87" height="58.153" viewBox="0 0 87 58.153">
  <defs>
    <clipPath id="clip-path">
      <rect id="Rectangle_142" data-name="Rectangle 142" width="87" height="58.153" fill="none"/>
    </clipPath>
  </defs>
  <g id="Group_194" data-name="Group 194" clip-path="url(#clip-path)">
    <path id="Path_483" data-name="Path 483" d="M322.9,202.408h34.551c.071,1.707.142,3.383.217,5.175.2,0,.442,0,.681,0,1.618.03,3.238.035,4.854.1a1.914,1.914,0,0,1,2.048,2.094q.017,4.685-.011,9.369a2.351,2.351,0,0,1-2.158,2.143c-2.529.088-5.058.192-7.587.261a1.009,1.009,0,0,0-.908.547c-.923,1.352-1.873,2.689-2.887,3.973a1.662,1.662,0,0,1-1.158.529q-13.168.044-26.337.02c-.194,0-.389-.033-.629-.056,1.865-2.945,1.157-5.492-1.213-8.084a5.423,5.423,0,0,0,.635-.325,3.767,3.767,0,0,0-.168-6.262c-.09-.064-.177-.133-.275-.207a12.588,12.588,0,0,0,.968-1.072,3.167,3.167,0,0,0,.4-2.681,1.824,1.824,0,0,1,.112-1.069,2.136,2.136,0,0,0-.554-2.829,1.614,1.614,0,0,1-.585-1.63m29.464,2.083c0,1.4-.01,2.738,0,4.077a21.357,21.357,0,0,1-4.849,14.309,1.122,1.122,0,0,0-.116.245c.142.173.263.338.4.487s.32.307.5.472a12.231,12.231,0,0,0,4.526-5.322,29,29,0,0,0,2.153-10.716c.036-1.174.006-2.35.006-3.552Zm4.13,13.715h5.862v-7.362c-1.581.094-3.118.177-4.652.294a.55.55,0,0,0-.349.384c-.3,2.22-.577,4.442-.862,6.684" transform="translate(-278.254 -174.714)" fill="#5f009f"/>
    <path id="Path_484" data-name="Path 484" d="M49.208,130.061c-14.13.421-28.136.592-42.224.4A12.135,12.135,0,0,1,9.851,125.4c5.208-5.4,11.629-7.669,19.057-7.482a23.908,23.908,0,0,1,17.213,7.46,18.131,18.131,0,0,1,3.087,4.684m-17.977-8.793c-.736-.039-.715.575-.8,1.018-.1.529.353.891,1.073.936.413.026.9-.574.921-1.132.018-.5-.391-.786-1.192-.823m6.293,2.005a1.137,1.137,0,0,0,1.041,1.123,1.034,1.034,0,0,0,.914-.921,1.116,1.116,0,0,0-1.163-1.151c-.488-.014-.791.349-.793.949m-12.5-1.094c.018-.507-.5-.9-1.231-.879-.631.019-.606.589-.672.993-.088.539.365.895,1.08.934.385.021.8-.513.824-1.048M17.058,124.3a1.136,1.136,0,0,0,.918-1.083.966.966,0,0,0-1.135-.82,1.3,1.3,0,0,0-.75.861.883.883,0,0,0,.966,1.042" transform="translate(-6.028 -101.774)" fill="#5f009f"/>
    <path id="Path_485" data-name="Path 485" d="M0,392.376l84.779.4c-.107.382-.156.59-.222.792a4.941,4.941,0,0,1-4.544,3.212q-29.17-.006-58.34.058c-5.7,0-11.4-.051-17.1-.09A4.946,4.946,0,0,1,0,392.376" transform="translate(0 -338.689)" fill="#5f009f"/>
    <path id="Path_486" data-name="Path 486" d="M12.223,245.49A2.221,2.221,0,0,0,9.53,244.4a55.724,55.724,0,0,1-5.618.679,2.357,2.357,0,0,1-2.39-2.99.518.518,0,0,1,.605-.48c2.735.044,5.47.061,8.2.132a1.528,1.528,0,0,1,.838.491q3.347,3.178,6.667,6.385c.163.156.33.309.531.5.151-.159.284-.3.421-.441,2.176-2.2,4.345-4.417,6.542-6.6a1.411,1.411,0,0,1,.9-.336q8.753-.083,17.506-.115c.473,0,1.039-.152,1.288.488a1.672,1.672,0,0,1-.4,1.878,3.47,3.47,0,0,1-2.264.994,65.188,65.188,0,0,1-16.687-.759.879.879,0,0,0-.58.064,7.155,7.155,0,0,0-1.527,1.252c1.174.182,2.346.376,3.523.544,5.148.735,10.326.52,15.5.468a2.894,2.894,0,0,1,2.161.564,2.651,2.651,0,0,1-.8,4.469,3.843,3.843,0,0,1-1.462.278q-19.25-.019-38.5-.073a2.56,2.56,0,0,1-2.493-1.659,2.874,2.874,0,0,1,.655-3.023,1.6,1.6,0,0,1,.826-.369c2.933-.4,5.87-.765,8.806-1.145.132-.017.26-.06.447-.105" transform="translate(-1.13 -208.549)" fill="#bd6cf3"/>
    <path id="Path_487" data-name="Path 487" d="M10.037,333.582c1.842-1.735,3.609-3.383,5.353-5.056a1.511,1.511,0,0,1,1.13-.492c8.731.01,17.462,0,26.192.022a5.824,5.824,0,0,1,1.768.393c.189.063.292.385.435.589a1.915,1.915,0,0,1-.626.267c-3.008.078-6.017.128-9.025.207a1.791,1.791,0,0,0-.857.327c3.719,1.461,7.5,1.047,11.366.646a3.274,3.274,0,0,1-.106,2.984,2.559,2.559,0,0,1-2.319,1.5q-19.389.014-38.778.091a3.049,3.049,0,0,1-2.983-3.021,3.234,3.234,0,0,1,3.092-3.249A3.385,3.385,0,0,1,7.086,330.3c1.009,1.169,2.063,2.3,2.951,3.284" transform="translate(-1.368 -283.151)" fill="#5f009f"/>
    <path id="Path_488" data-name="Path 488" d="M171.562,1.641l1.084-.785c.111-.08.219-.225.332-.229.444-.016,1.1-.163,1.288.062a.881.881,0,0,1-.389,1.275,3.568,3.568,0,0,0-1.814,2.862,5.919,5.919,0,0,1-2.657,4.065A20.708,20.708,0,0,1,153.543,12.6a3.115,3.115,0,0,1-2.572-2.595c-.1-.413-.266-.516-.658-.587a6,6,0,0,1-1.729-.55.985.985,0,0,1-.3-.894.7.7,0,0,1,.965-.5,3.29,3.29,0,0,0,.394.11c1.091.261,1.066.249,1.539-.716a3.7,3.7,0,0,1,3.386-2.354c.615-.012,1.229-.072,1.844-.08a6.433,6.433,0,0,0,3.385-.777,6.346,6.346,0,0,1,2.556-.576,1.493,1.493,0,0,0,1.171-.527c.21-.268.467-.5.685-.762,1.954-2.349,4.515-2.108,6.553-.9a5.105,5.105,0,0,1,.8.747m-1.481,1.9.243-.165a2.968,2.968,0,0,0-.472-.9,3.034,3.034,0,0,0-4.533.693,4.423,4.423,0,0,1-3.261,1.968,8.531,8.531,0,0,0-2.925.867,4.209,4.209,0,0,1-3.171.294,3.271,3.271,0,0,0-2.718.536,1.791,1.791,0,0,0-.5,2.9l.124-.316a2.332,2.332,0,0,1,2.554-1.694A11.391,11.391,0,0,0,160.846,7a2.329,2.329,0,0,1,.718-.216,8.43,8.43,0,0,0,4.831-2.6,2.139,2.139,0,0,0,.254-.228,2.442,2.442,0,0,1,2.55-.7,4.882,4.882,0,0,1,.882.292" transform="translate(-127.978 0)" fill="#bd6cf3"/>
    <path id="Path_489" data-name="Path 489" d="M363.005,17.324a2.029,2.029,0,0,1,.047,2.441,7.014,7.014,0,0,0-1.433,5.461,3.031,3.031,0,0,0,.434,1.129,18.2,18.2,0,0,0,1.865,2.688,4.972,4.972,0,0,1,.266,5.507,10.536,10.536,0,0,1-1.19,1.58,3.61,3.61,0,0,0-1.023,2.59c-.009.222-.029.444-.044.669a2.7,2.7,0,0,1-2.351-3.026,1.868,1.868,0,0,1,.279-.6c.554-1.016,1.109-2.031,1.673-3.041A1.36,1.36,0,0,0,361.5,31.3a12.094,12.094,0,0,0-1.314-2.06,6.778,6.778,0,0,1-1.6-6.035c.464-2.674,2.313-4.354,4.425-5.879" transform="translate(-309.399 -14.954)" fill="#bd6cf3"/>
    <path id="Path_490" data-name="Path 490" d="M420.129,40.637a2.58,2.58,0,0,1-1.774-4.189,9.328,9.328,0,0,0,1-1.781,2.963,2.963,0,0,0-.485-3.488c-.247-.265-.413-.6-.656-.874-2.81-3.1-1.494-8.263,1.121-10.3.532-.415,1.066-.827,1.6-1.238a2.243,2.243,0,0,1,.1,2.661,6.007,6.007,0,0,0-.811,6.371,3.214,3.214,0,0,0,.6.893,8.414,8.414,0,0,1,2.041,3.509,4.115,4.115,0,0,1-1.158,4.3,4.991,4.991,0,0,0-1.563,3.46c-.009.222,0,.444,0,.676" transform="translate(-359.63 -16.197)" fill="#bd6cf3"/>
    <path id="Path_491" data-name="Path 491" d="M23.08,221.95H44.14c.137,0,.274.011.41,0,.493-.036.795.276.745.677-.035.279-.383.555-.649.754-.133.1-.4.028-.6.028q-20.924,0-41.847,0c-.226,0-.553.057-.656-.064a1.823,1.823,0,0,1-.471-.948c-.037-.475.4-.447.745-.447q10.633,0,21.266,0" transform="translate(-0.921 -191.58)" fill="#bd6cf3"/>
    <path id="Path_492" data-name="Path 492" d="M69.77,13.307c-.923-.572-1.7-.991-2.4-1.5a1.192,1.192,0,0,0-1.678.038,19.719,19.719,0,0,1-1.8,1.175l-.245-.148.991-2.923-2.6-2.016c.935-.12,1.722-.238,2.513-.316a1.106,1.106,0,0,0,1.108-.887c.206-.762.5-1.5.816-2.4a5.374,5.374,0,0,1,.544.782,5.1,5.1,0,0,1,.413,1.226,1.528,1.528,0,0,0,1.776,1.4c.656-.007,1.313.089,2.144.152-.678.468-1.207.883-1.783,1.217a1.1,1.1,0,0,0-.625,1.493c.229.64.387,1.305.579,1.959.054.183.117.363.244.751" transform="translate(-53.553 -3.732)" fill="#bd6cf3"/>
    <path id="Path_493" data-name="Path 493" d="M518.248,110.342l-1.905-1.654c.7-.086,1.292-.188,1.893-.227a.913.913,0,0,0,.966-.758,16.958,16.958,0,0,1,.593-1.632c.354.669.664,1.217.936,1.783a.919.919,0,0,0,.923.632,12.471,12.471,0,0,1,1.726.247,9.745,9.745,0,0,1-1.221,1.025,1.085,1.085,0,0,0-.485,1.4c.125.49.258.977.387,1.466l-.153.116c-.569-.392-1.154-.763-1.7-1.185a.575.575,0,0,0-.835,0,7.6,7.6,0,0,1-1.632,1.022l.507-2.229" transform="translate(-445.695 -91.557)" fill="#bd6cf3"/>
  </g>
</svg>
