<svg id="Group_11" data-name="Group 11" xmlns="http://www.w3.org/2000/svg" xmlns:xlink="http://www.w3.org/1999/xlink" width="77.757" height="81.265" viewBox="0 0 77.757 81.265">
  <defs>
    <clipPath id="clip-path">
      <rect id="Rectangle_21" data-name="Rectangle 21" width="77.757" height="81.265" fill="none"/>
    </clipPath>
  </defs>
  <rect id="Rectangle_20" data-name="Rectangle 20" width="75.883" height="6.297" transform="translate(0.944 38.17)" fill="#5f009f"/>
  <g id="Group_10" data-name="Group 10">
    <g id="Group_9" data-name="Group 9" clip-path="url(#clip-path)">
      <path id="Path_46" data-name="Path 46" d="M403.132,182.731h23.094c.011.227.03.441.03.654q0,5.688,0,11.375c0,1.43-.61,2.04-2.041,2.04q-9.549,0-19.1,0c-1.365,0-1.983-.609-1.984-1.961q0-5.718,0-11.435v-.672" transform="translate(-354.828 -160.836)" fill="#bd6cf3"/>
      <path id="Path_47" data-name="Path 47" d="M225.162,399.931h-31.29v-10h31.29Zm-15.647-3.921c1.216,0,2.432.009,3.648,0a1.109,1.109,0,0,0,1.236-1.089,1.13,1.13,0,0,0-1.259-1.077q-3.618-.014-7.236,0a1.128,1.128,0,0,0-1.264,1.072c-.017.652.486,1.092,1.287,1.1,1.2.009,2.392,0,3.588,0" transform="translate(-170.642 -343.207)" fill="#5f009f"/>
      <path id="Path_48" data-name="Path 48" d="M193.9,492.386h31.278v10.005H193.9Zm15.636,6.078c1.216,0,2.432.006,3.649,0a1.132,1.132,0,0,0,1.24-1.092,1.116,1.116,0,0,0-1.255-1.07q-3.619-.009-7.237,0c-.766,0-1.251.418-1.264,1.055-.014.655.492,1.1,1.279,1.106,1.2.007,2.392,0,3.589,0" transform="translate(-170.67 -433.388)" fill="#5f009f"/>
      <path id="Path_49" data-name="Path 49" d="M193.9,594.676h31.278v10H193.9Zm15.7,3.911c-1.3,0-2.6,0-3.893,0-.792,0-1.3.433-1.3,1.087s.489,1.077,1.3,1.078q3.833,0,7.666,0c.808,0,1.3-.416,1.3-1.08s-.5-1.081-1.3-1.085c-1.258-.006-2.515,0-3.773,0" transform="translate(-170.67 -523.421)" fill="#5f009f"/>
      <path id="Path_50" data-name="Path 50" d="M49.921,424.436H32.839V389.914H49.921ZM35.713,407.161q0,6.5,0,12.992c0,1.033.38,1.421,1.4,1.422q4.251,0,8.5,0c1.032,0,1.419-.379,1.419-1.4q0-12.992,0-25.985c0-1-.379-1.376-1.37-1.376q-4.1,0-8.2,0c-1.529,0-1.745.219-1.745,1.776q0,6.286,0,12.573" transform="translate(-28.904 -343.194)" fill="#5f009f"/>
      <path id="Path_51" data-name="Path 51" d="M490.72,424.409H473.648V389.857H490.72Zm-2.88-17.249h0q0-6.5,0-12.992c0-1.051-.353-1.4-1.4-1.405q-4.251,0-8.5,0c-1.071,0-1.42.354-1.42,1.447q0,12.933,0,25.865c0,1.077.369,1.45,1.429,1.45q4.191,0,8.382,0c1.166,0,1.5-.337,1.5-1.493q0-6.436,0-12.872" transform="translate(-416.895 -343.144)" fill="#5f009f"/>
      <path id="Path_52" data-name="Path 52" d="M14.116,158.568H11.988v-5.405H9.856c-.021.151-.041.3-.063.454a1.067,1.067,0,0,1-1.093.975,1.026,1.026,0,0,1-1.056-.948c-.045-1.056-.045-2.116-.006-3.173a1.035,1.035,0,0,1,1.091-.977,1.055,1.055,0,0,1,1.06.943c.024.153.041.308.064.486h2.112c0-1.02.022-2.013-.006-3a13.616,13.616,0,0,0-.186-2.734,4.809,4.809,0,0,0-5.311-3.58,4.876,4.876,0,0,0-4.268,4.605c-.04.835-.421,1.316-1.062,1.342A1.081,1.081,0,0,1,0,146.361a6.793,6.793,0,0,1,3.222-5.826,6.71,6.71,0,0,1,7.114-.339,6.716,6.716,0,0,1,3.808,6.145c.069,3.992.017,7.986.016,11.979a1.847,1.847,0,0,1-.044.247" transform="translate(0 -122.641)" fill="#bd6cf3"/>
      <path id="Path_53" data-name="Path 53" d="M106.946,16.287c.083-1,.147-2.057.263-3.107a6.185,6.185,0,0,0-1.973-5.294c-1.583-1.578-3.137-3.186-4.71-4.774A1.786,1.786,0,0,1,99.952,1.6,1.665,1.665,0,0,1,101.093.125a1.735,1.735,0,0,1,1.926.434c1.436,1.415,2.937,2.771,4.293,4.259a7.093,7.093,0,0,0,6.958,2.361,19.479,19.479,0,0,1,1.967-.167l-9.291,9.276" transform="translate(-87.966 0)" fill="#bd6cf3"/>
      <path id="Path_54" data-name="Path 54" d="M413.148,127.466a15.149,15.149,0,0,1,1.147-1.679,9.309,9.309,0,0,1,4.676-2.639,15.5,15.5,0,0,1,11.781,1.134,11.771,11.771,0,0,1,2.355,1.984,5.3,5.3,0,0,1,.7,1.2Z" transform="translate(-363.644 -107.817)" fill="#bd6cf3"/>
      <path id="Path_55" data-name="Path 55" d="M170.342,132.422l8.38,10.084a16.549,16.549,0,0,1-2.525.842c-1.328.22-2.685.274-4.03.386a.642.642,0,0,1-.686-.442c-1.214-2.579-2.457-5.144-3.67-7.724a.672.672,0,0,1,.049-.6c.787-.847,1.609-1.66,2.482-2.547" transform="translate(-147.662 -116.555)" fill="#bd6cf3"/>
      <path id="Path_56" data-name="Path 56" d="M232.111,70.309c.884-.856,1.719-1.68,2.579-2.479a.571.571,0,0,1,.511-.064q3.948,1.858,7.877,3.757c.139.067.315.228.328.36a12.32,12.32,0,0,1-1.243,6.778l-10.052-8.353" transform="translate(-204.299 -59.617)" fill="#bd6cf3"/>
      <path id="Path_57" data-name="Path 57" d="M215.389,111.61a15.131,15.131,0,0,1-3.842,3.851l-8.6-10.354,2.09-2.1,10.355,8.6" transform="translate(-178.627 -90.665)" fill="#bd6cf3"/>
      <path id="Path_58" data-name="Path 58" d="M354.373,179.092v2.168c-1.07,0-2.106.024-3.14-.009a1.078,1.078,0,0,1,.073-2.152c1-.023,2-.006,3.067-.006" transform="translate(-308.283 -157.628)" fill="#bd6cf3"/>
      <path id="Path_59" data-name="Path 59" d="M614.393,181.366v-2.144c1.112,0,2.2-.031,3.282.014a1,1,0,0,1,.858,1.06,1.034,1.034,0,0,1-.935,1.06c-1.048.038-2.1.011-3.2.011" transform="translate(-540.776 -157.738)" fill="#bd6cf3"/>
      <path id="Path_60" data-name="Path 60" d="M490.409,79.378c0-.822-.025-1.6.008-2.371a1.079,1.079,0,0,1,2.155.013c.027.773.007,1.547.007,2.358Z" transform="translate(-431.64 -66.89)" fill="#bd6cf3"/>
      <path id="Path_61" data-name="Path 61" d="M82.249,456.737H75.374V432.365h6.875Zm-2.341-12.186h0c0-.358,0-.717,0-1.075s.012-.717-.008-1.075a1.1,1.1,0,0,0-1.1-1.164,1.08,1.08,0,0,0-1.063,1.188q-.018,2.12,0,4.241a1.07,1.07,0,0,0,1.059,1.188,1.107,1.107,0,0,0,1.115-1.212c.014-.7,0-1.393,0-2.09" transform="translate(-66.343 -380.559)" fill="#5f009f"/>
      <path id="Path_62" data-name="Path 62" d="M516.091,432.378h6.93v.727q0,11.5.011,22.991c0,.545-.134.711-.693.7-1.875-.036-3.752-.013-5.628-.013h-.619Zm4.53,12.226h0c0-.717.01-1.434,0-2.15a1.085,1.085,0,0,0-1.048-1.205,1.105,1.105,0,0,0-1.121,1.207q-.028,2.119,0,4.24a1.078,1.078,0,0,0,1.089,1.169,1.065,1.065,0,0,0,1.076-1.171c.014-.7,0-1.393,0-2.09" transform="translate(-454.253 -380.57)" fill="#5f009f"/>
    </g>
  </g>
</svg>
