<svg id="Group_13" data-name="Group 13" xmlns="http://www.w3.org/2000/svg" xmlns:xlink="http://www.w3.org/1999/xlink" width="102.159" height="80.846" viewBox="0 0 102.159 80.846">
  <defs>
    <clipPath id="clip-path">
      <rect id="Rectangle_30" data-name="Rectangle 30" width="102.159" height="80.846" fill="none"/>
    </clipPath>
  </defs>
  <g id="Group_12" data-name="Group 12" clip-path="url(#clip-path)">
    <path id="Path_63" data-name="Path 63" d="M102.159,428.106c-.174-.016-.349-.045-.523-.045q-9.709,0-19.418,0h-.549v1h17.6v.737H81.674v14.9h5.182v.714H15.282v-.688h5.266V429.8H2.865v-.708H20.548v-1c-.157-.011-.309-.031-.462-.031q-9.854,0-19.708,0a3.11,3.11,0,0,0-.378.045v-.771H20.57V406.421H81.611v20.914h20.548Zm-43.945,1.721H53.677c0,2.109.01,4.179-.01,6.249a.636.636,0,0,0,.416.654q3.156,1.655,6.295,3.34a1.461,1.461,0,0,0,1.034.2,1.627,1.627,0,0,1,1.9,1.414,1.679,1.679,0,1,1-3.337.35,5.376,5.376,0,0,1,.09-.88c-1.294-.686-2.65-1.294-3.886-2.088a7.954,7.954,0,0,0-5.461-1.325,2.487,2.487,0,0,0-.819.206c-1.356.7-2.7,1.42-4.045,2.136-.678.36-1.354.723-2.035,1.087.02.11.032.188.05.265a1.68,1.68,0,0,1-2.786,1.681,1.675,1.675,0,0,1-.307-2,1.72,1.72,0,0,1,1.931-.836.889.889,0,0,0,.537-.07q3.346-1.757,6.674-3.549a.648.648,0,0,0,.3-.465c.02-2.04.014-4.08.012-6.12a1.8,1.8,0,0,0-.034-.243h-6.1c.034.211.048.385.09.553.29,1.167.559,2.341.886,3.5a2.967,2.967,0,0,1-2.567,3.842,3.163,3.163,0,0,1-3.257-2.274c-.475-1.68-.849-3.391-1.216-5.1-.092-.426-.211-.567-.66-.565-4.5.018-8.995.01-13.493.01-.171,0-.341.016-.523.025v14.852H78.889V429.831H64.311c-.04.2-.072.387-.116.571-.394,1.67-.744,3.351-1.2,5a3.182,3.182,0,0,1-2.937,2.325,2.952,2.952,0,0,1-2.915-3.8c.372-1.34.7-2.691,1.07-4.105M23.356,410.9v16.408h14.3a36.119,36.119,0,0,1,.772-10.279H24.772v-5.882h.692v5.187H36.693c.53,0,1.061.013,1.59-.009a.459.459,0,0,0,.355-.2c.186-.577.333-1.167.512-1.821H27.486v-3.143h.689v2.386H39.333a8.272,8.272,0,0,1,.45-1.058A2.488,2.488,0,0,1,42.1,411.1c6.071.044,12.142.031,18.212.006a1.892,1.892,0,0,1,1.567.671,5.234,5.234,0,0,1,.83,1.385.537.537,0,0,0,.606.423c3.389-.011,6.778-.006,10.166-.008.155,0,.309-.016.527-.028v-2.388h.662v3.156H63.07l.555,1.984H76.7v-5.143h.668v5.9H63.887c.227,1.735.534,3.413.643,5.1s.024,3.422.024,5.155H78.889V410.9Zm34.879,9.475h-.651q-5.492,0-10.984,0c-.856,0-1.711-.038-2.613-.059a28.985,28.985,0,0,0-.216,6.987H50.25v-6.408h3.437v6.414h4.769a29.566,29.566,0,0,0-.222-6.931m20.653,7.72H64.5l-.094.948H78.887Zm-41.106.952c.006-.991.006-.99-.928-.99l-12.946,0h-.557v.988Zm19.513-12.738.05-.114a1.317,1.317,0,0,0-.292-.2q-1.657-.577-3.32-1.134a.907.907,0,0,0-.282-.031q-2.349,0-4.7,0a.892.892,0,0,0-.281.04c-1.093.369-2.186.739-3.275,1.122-.118.041-.2.169-.383.322Zm.183.621c.017-.34-.11-.456-.425-.455q-5.948.013-11.895,0c-.321,0-.432.134-.412.455ZM43.96,429.04H50.2V428.1H43.837l.123.938m9.732,0h4.572l.115-.945H53.692Z" transform="translate(0 -367.252)" fill="#5f009f"/>
    <path id="Path_64" data-name="Path 64" d="M307.841,28.444v4.409l2.332.117V28.452h22.144v16.3h-.667v-15.6H310.917c0,.863.056,1.714-.015,2.553a2.149,2.149,0,0,0,1.1,2.264,5.549,5.549,0,0,1-.7,9.525.609.609,0,0,0-.39.665c.025.462.006.925.006,1.435H313.7V59.661h9.375l-.127,2.8h-1.5v1.275a2.621,2.621,0,0,1-.393.067c-.947.009-1.895.024-2.842.011a3.454,3.454,0,0,1-2.789-1.566v2.292h-6.485c.388-.526.768-.995,1.091-1.5a1.426,1.426,0,0,0,.234-.786c-.255-4.666-.532-9.331-.8-14a.9.9,0,0,1,.012-.425,2.5,2.5,0,0,0,.13-2.158l.542-.1c0-.511,0-1.034,0-1.556l-2.3.114c0,.147,0,.348,0,.55a4.981,4.981,0,0,1-.032,1.151,2.564,2.564,0,0,0,.161,1.9,1.259,1.259,0,0,1,.048.612c-.26,4.377-.5,8.754-.81,13.128a2.531,2.531,0,0,0,.635,2.147,8.9,8.9,0,0,1,.694.923h-6.43V62.118c-.232.272-.373.431-.507.6a2.93,2.93,0,0,1-2.218,1.1,22.014,22.014,0,0,1-7.017-.68c-.354-.1-.512-.235-.473-.616.036-.346.008-.7.008-1.083l-.977-.044v-2.55h2.808l.053-.785a22.5,22.5,0,0,0,6,.61l.018-.188-1.748-.115a24.835,24.835,0,0,0,1.334-8.509,10.239,10.239,0,0,1,.28-2.144,2.58,2.58,0,0,1,2.914-2.1c1.381.01,2.762,0,4.144,0,.109,0,.218-.012.38-.022,0-.519.026-1.014-.018-1.5-.011-.124-.224-.272-.376-.336A5.627,5.627,0,0,1,306.7,33.27a.556.556,0,0,0,.43-.62c-.02-1.154-.008-2.308-.008-3.5h-21.31V55.292h-.687V28.444Z" transform="translate(-257.641 -25.703)" fill="#5f009f"/>
    <path id="Path_65" data-name="Path 65" d="M595.976,217.015h-8.86V203.124h21.259V217h-8.887c-.041-.751-.087-1.515-.123-2.279-.081-1.748-.139-3.5-.245-5.244a4,4,0,0,0-.321-1.291,1.117,1.117,0,0,0-1.048-.732,1.166,1.166,0,0,0-1.089.753,3.641,3.641,0,0,0-.294,1.2c-.127,2.276-.22,4.554-.328,6.832-.012.253-.041.505-.063.779" transform="translate(-530.532 -183.548)" fill="#bd6cf3"/>
    <path id="Path_66" data-name="Path 66" d="M309.73,19.045h-.679V.714H257.837V29.583h-.7V0H309.73Z" transform="translate(-232.359 0)" fill="#5f009f"/>
    <path id="Path_67" data-name="Path 67" d="M224.587,375.86H236.7v2.507H224.587Zm.712,1.556h3.8v-.6h-3.8Z" transform="translate(-202.942 -339.636)" fill="#bd6cf3"/>
    <path id="Path_68" data-name="Path 68" d="M226.5,346.708H214.408V344.2H226.5Zm-11.427-.958h3.81v-.6h-3.81Z" transform="translate(-193.744 -311.027)" fill="#5f009f"/>
    <path id="Path_69" data-name="Path 69" d="M243.917,312.668h12.1v2.5h-12.1Zm4.5.952H244.62v.6h3.795Z" transform="translate(-220.409 -282.534)" fill="#bd6cf3"/>
    <path id="Path_70" data-name="Path 70" d="M685.691,265.766h-2.808c0-.154-.006-.305,0-.456q.246-5.265.5-10.529a1.441,1.441,0,0,1,.183-.734c.18-.253.474-.592.715-.589s.543.342.707.6a1.772,1.772,0,0,1,.186.832c.149,3.045.285,6.09.426,9.135.026.56.058,1.12.091,1.738" transform="translate(-617.067 -229.03)" fill="#bd6cf3"/>
    <path id="Path_71" data-name="Path 71" d="M715.847,355.428c-.043-.9-.086-1.8-.13-2.728h4.511c-.226.972-3.178,2.834-4.381,2.728" transform="translate(-646.739 -318.708)" fill="#5f009f"/>
    <rect id="Rectangle_24" data-name="Rectangle 24" width="5.804" height="1.262" transform="translate(64.316 37.275)" fill="#bd6cf3"/>
    <path id="Path_72" data-name="Path 72" d="M379.34,197.076l-.444-.342,6.994-6.977.363.422-6.913,6.9" transform="translate(-342.379 -171.468)" fill="#bd6cf3"/>
    <path id="Path_73" data-name="Path 73" d="M394.511,241.138l-.444-.342,3.905-3.9a6.724,6.724,0,0,0-.079.864l-3.381,3.374" transform="translate(-356.088 -214.068)" fill="#bd6cf3"/>
    <path id="Path_74" data-name="Path 74" d="M358.989,192.928l-.357-.382,6.2-6.2.36.4-6.206,6.182" transform="translate(-324.068 -168.389)" fill="#bd6cf3"/>
    <rect id="Rectangle_25" data-name="Rectangle 25" width="0.643" height="4.858" transform="translate(74.032 33.993)" fill="#5f009f"/>
    <rect id="Rectangle_26" data-name="Rectangle 26" width="0.643" height="4.846" transform="translate(76.719 34.002)" fill="#5f009f"/>
    <rect id="Rectangle_27" data-name="Rectangle 27" width="27.44" height="0.679" transform="translate(41.41 80.167)" fill="#5f009f"/>
    <rect id="Rectangle_28" data-name="Rectangle 28" width="15.092" height="0.669" transform="translate(23.436 80.168)" fill="#5f009f"/>
    <rect id="Rectangle_29" data-name="Rectangle 29" width="6.872" height="0.67" transform="translate(71.839 80.174)" fill="#5f009f"/>
  </g>
</svg>
