<svg id="Group_15" data-name="Group 15" xmlns="http://www.w3.org/2000/svg" xmlns:xlink="http://www.w3.org/1999/xlink" width="103.247" height="68.78" viewBox="0 0 103.247 68.78">
  <defs>
    <clipPath id="clip-path">
      <rect id="Rectangle_33" data-name="Rectangle 33" width="103.247" height="68.78" fill="none"/>
    </clipPath>
  </defs>
  <g id="Group_14" data-name="Group 14" clip-path="url(#clip-path)">
    <path id="Path_75" data-name="Path 75" d="M180.36,52.43h1.692a4.953,4.953,0,0,1,.7-1.77c.478-.479,1.221-.2,1.835.082.016-.019.06-.045.061-.073.031-.977.338-1.4,1.086-1.5a1.689,1.689,0,0,1,1.954,1.189,3.094,3.094,0,0,1,.1.785q.019,3.646.019,7.291c0,.184-.008.368-.016.551-.073,1.621-1.094,2.271-2.618,1.668-.473-.187-.553-.357-.615-1.287a3.035,3.035,0,0,1-.853.448c-.989.16-1.487-.3-1.487-1.285,0-.239,0-.477,0-.683-.109-.05-.145-.08-.18-.08-1.3-.013-1.486-.2-1.45-1.5a10.215,10.215,0,0,0,0-1.04c-.008-.106-.14-.2-.215-.3-.1.084-.252.149-.291.255a2.389,2.389,0,0,0-.092.6c-.071.835-.369,1.151-1.209,1.086a7.969,7.969,0,0,1-3.954-1.342c-.1-.068-.19-.151-.322-.258a2.163,2.163,0,0,0-.175.315,15.65,15.65,0,0,0-.98,8.168,5.957,5.957,0,0,1-.991,4.551c-.135.2-.244.425-.359.641a1.463,1.463,0,0,0-.066.25c.415.029.812.066,1.21.082a8.067,8.067,0,0,1,6.673,3.513,1.084,1.084,0,0,0,.767.322,9.827,9.827,0,0,1,6.992,2.778c.667.676,1.223,1.462,1.863,2.238a8.993,8.993,0,0,0,2.983-2.486.779.779,0,0,0,.021-.6c-.283-.914-.6-1.819-.923-2.8-.874,0-1.259-.7-1.578-1.446a8.258,8.258,0,0,1-.781-3.189l.955-.1c-.061-.426-.118-.842-.181-1.257a7.5,7.5,0,0,1,1.917-6.053,2.91,2.91,0,0,1,1.531-.8,9.045,9.045,0,0,1,5.415.407,5.462,5.462,0,0,1,3.655,6.208c-.056.485-.122.969-.183,1.442.046.041.075.087.106.09.971.064,1.045.134.8,1.088a16.937,16.937,0,0,1-.767,2.447,5.072,5.072,0,0,1-.908,1.073c-.164.195-.4.4-.436.62-.19,1.25-.337,2.507-.472,3.764a.538.538,0,0,0,.225.433c.863.449,1.744.865,2.672,1.318.168-.336.287-.566.4-.8a7.59,7.59,0,0,1,6.786-4.391c.65-.049,1.407.193,1.931-.067s.767-1,1.176-1.5a6.331,6.331,0,0,1,5.849-2.4,5.246,5.246,0,0,0,1.014.027c-1.839-1.564-1.786-3.625-1.7-5.721a20.542,20.542,0,0,0-.378-5.91c-.173-.681-.46-1.333-.713-2.049a5.836,5.836,0,0,0-.541.248,3.965,3.965,0,0,1-2.628.617,3.431,3.431,0,0,0-1.155.058.817.817,0,0,1-1.087-.611c-.243-.813-.427-1.644-.6-2.339,0,.787,0,1.727,0,2.666,0,.082.01.163.014.245.064,1.317.064,1.316-1.259,1.362a1.371,1.371,0,0,0-.208.021c-.219.672-.249,1.431-.644,1.8a1.568,1.568,0,0,1-1.823-.036c-.519,1.219-.711,1.363-1.767,1.337-.992-.024-1.41-.371-1.537-1.373a19.877,19.877,0,0,1-.171-2.319c-.016-1.878,0-3.757.025-5.636a6.636,6.636,0,0,1,.119-1.094,1.617,1.617,0,0,1,2.735-.991.711.711,0,0,1,.213.456,3.424,3.424,0,0,1-.043.638,6.445,6.445,0,0,1,1.919.156c.762.307.415,1.183.6,1.915.572,0,1.16.023,1.743-.017.135-.009.314-.212.372-.365.506-1.321.785-1.588,2.177-1.4a36.771,36.771,0,0,1,4.364.906,2.408,2.408,0,0,1,1.206.872,71.985,71.985,0,0,1,6.013,9.8,8.1,8.1,0,0,1,.661,2.277c.335,1.868.581,3.751.9,5.622a2.247,2.247,0,0,1-1.181,2.627,4.246,4.246,0,0,0-1.868,2.311,12.287,12.287,0,0,1-6.161,6.375A36.038,36.038,0,0,1,214.3,83.1c-.307.108-.466.214-.515.562a23.033,23.033,0,0,1-6.249,12.9,3.464,3.464,0,0,0-1.193,2.839c.092,1.072.019,2.158.019,3.3H186.011a22.726,22.726,0,0,1,.018-2.64,4.473,4.473,0,0,0-1.422-3.844,20.708,20.708,0,0,1-5.545-11.573c-.067-.484-.108-.971-.163-1.472-.866-.141-1.715-.246-2.549-.421a10.021,10.021,0,0,1-6.439-4.119c-.815-1.173-1.568-2.39-2.393-3.556-.682-.963-1.393-1.91-2.158-2.807a2.387,2.387,0,0,1-.639-1.968c.294-1.954.541-3.924,1-5.843a10.607,10.607,0,0,1,1.38-3.181,72.959,72.959,0,0,0,4.822-8.518,5.5,5.5,0,0,1,.444-.731A1.423,1.423,0,0,1,174,51.362a4.506,4.506,0,0,0,2.233-.076,21.189,21.189,0,0,1,2.165-.4c1.516-.2,1.755,0,1.959,1.54" transform="translate(-144.516 -42.987)" fill="#5f009f"/>
    <path id="Path_76" data-name="Path 76" d="M591.169,243.406c.489-.65,1.019-1.369,1.564-2.076.7-.9,1.364-1.835,2.121-2.685a1.838,1.838,0,0,1,2.092-.45,1.911,1.911,0,0,1,1.429,1.672,2.736,2.736,0,0,1-.437,1.65c-1.126,1.548-2.357,3.019-3.551,4.517-.1.126-.225.234-.394.408a14.68,14.68,0,0,1,2.786,8.8,9.912,9.912,0,0,0-.552-6.321c-.222-.5-.7-1.022-.642-1.479s.691-.81,1-1.259c.9-1.314,1.842-2.6,2.605-3.993,1.038-1.891.753-3.283-.882-4.685a15.287,15.287,0,0,0-6.261-3.214,2.645,2.645,0,0,0-3.235,1.27c-1.1,1.767-2.288,3.477-3.457,5.2a.826.826,0,0,1-.54.375,14.305,14.305,0,0,0-5.941,1.272.486.486,0,0,1-.383.006c.651-.612,1.316-1.21,1.95-1.837a28.035,28.035,0,0,0,4.636-6.143c2.055-3.626,5.258-4.583,9.051-4.124a11.016,11.016,0,0,1,8.8,5.8,8.818,8.818,0,0,1,0,8.631c-.254.5-.527.994-.764,1.5a10.985,10.985,0,0,0,2.066-4.265,8.941,8.941,0,0,0-2.143-8.32,11.628,11.628,0,0,0-10.691-4.069,22.967,22.967,0,0,0-3.936,1.24,3.278,3.278,0,0,1,1.327-1.261,9.186,9.186,0,0,1,3.637-1.191c5.174-.773,11.389,3.09,12.831,8.081,1.142,3.951.183,7.548-2.146,10.835a20.613,20.613,0,0,1-4.712,4.69,1.293,1.293,0,0,0-.557,1.067,14.48,14.48,0,0,1-2.375,7.306,12.568,12.568,0,0,1-19.671,1.1,12.146,12.146,0,0,1,2.037-18.118c3.093-2.077,6.508-2.2,10-1.22,1.11.313,2.164.824,3.346,1.284m-6.083,5.491a1.525,1.525,0,0,0-.368.035A23.969,23.969,0,0,0,579,251.215a1.382,1.382,0,0,0-.636.626,30.39,30.39,0,0,0-1.23,4.4,2.537,2.537,0,0,0,3.033,2.766c1.2-.221,2.383-.543,3.572-.824a2.077,2.077,0,0,0,1.446-1.127c.784-1.567,1.617-3.113,2.326-4.713a2.519,2.519,0,0,0-2.426-3.446m8.418,8.054c.146-3.967-.853-7.472-3.943-10.165-2.262-1.972-5.938-2.849-7.595-2.477,5.807,2.34,10.191,6.079,11.538,12.642m2.992-9.388.124.117c.143-.11.3-.209.429-.331a18.12,18.12,0,0,0,4.259-5.7,5.265,5.265,0,0,0-1.113-6.188,11.328,11.328,0,0,0-5.531-2.859c-.446-.105-.908-.143-1.506-.234.162.151.186.192.221.2.214.067.429.129.645.189a16.6,16.6,0,0,1,5.214,2.511,4.986,4.986,0,0,1,1.7,6.392,16.77,16.77,0,0,1-3.695,5.14c-.257.245-.5.509-.744.764" transform="translate(-502.484 -200.312)" fill="#bd6cf3"/>
    <path id="Path_77" data-name="Path 77" d="M19.575,232.578a1.59,1.59,0,0,1-.193-.108,11.2,11.2,0,0,0-13.122.036c-3.092,2.179-4.919,5.084-4.849,8.974a9.414,9.414,0,0,0,2.3,5.7c-.089-.173-.169-.351-.269-.517-3.014-5.034-1.51-10.414,3.28-13.535a10.872,10.872,0,0,1,10.552-1.232,4.931,4.931,0,0,1,2.393,1.927c1.258,1.981,2.552,3.941,3.758,5.954a5.47,5.47,0,0,0,2.412,2.325,9.258,9.258,0,0,1,3.467,2.673l-.457-.327a11.534,11.534,0,0,0-8.148-2.393.621.621,0,0,1-.676-.357c-1.178-1.814-2.335-3.643-3.58-5.411-.925-1.313-1.722-1.52-3.228-.925A23.588,23.588,0,0,0,7.5,238.524a2.969,2.969,0,0,0-.817,4.354c.856,1.389,1.749,2.763,2.722,4.071a2.248,2.248,0,0,1,.286,2.651,10.106,10.106,0,0,0-.727,6.694,1.231,1.231,0,0,0,.214.488,13.663,13.663,0,0,1,4.384-11.088l-.224-.138-2,1.754c-.033-.008-.089,0-.1-.028-1.138-1.743-2.287-3.478-3.4-5.237-.379-.6-.679-1.326-.126-1.935.67-.738,1.475-1.5,2.566-1.255a2.76,2.76,0,0,1,1.365,1.118c.931,1.289,1.77,2.646,2.647,3.974.111.169.232.332.277.4a42.028,42.028,0,0,1,4.006-1.393,12.338,12.338,0,0,1,13.323,5.306,11.917,11.917,0,0,1-2.436,14.957,12.127,12.127,0,0,1-12.5,2.866c-4.781-1.527-7.449-5.078-8.567-9.867a11.854,11.854,0,0,1-.267-2.367,1.037,1.037,0,0,0-.559-.962,16.706,16.706,0,0,1-6.724-7.964A10.226,10.226,0,0,1,3.1,233.481,12.238,12.238,0,0,1,13.429,229.4a9.049,9.049,0,0,1,6.146,3.18m.752,17.235a3.2,3.2,0,0,0-.82.436,10.9,10.9,0,0,0-1.162,1.33,1.365,1.365,0,0,0-.14,1.5c.764,1.555,1.52,3.114,2.325,4.647a2.342,2.342,0,0,0,.832.867,12.544,12.544,0,0,0,4.352,1.726,1.541,1.541,0,0,0,1.089-.218,9.188,9.188,0,0,0,1.7-1.654,2.047,2.047,0,0,0,.351-1.354,10.408,10.408,0,0,0-1.654-4.432,2.877,2.877,0,0,0-1.3-1.051c-1.575-.611-3.192-1.115-4.8-1.652a6.615,6.615,0,0,0-.774-.149m3.816-4.639c-6.986-.745-13.352,6.465-11.482,12.981,1.045-6.755,5.459-10.535,11.482-12.981m-14.8,3.9.219-.137c-.258-.419-.49-.857-.778-1.255-1.315-1.818-2.646-3.624-3.969-5.436a3.145,3.145,0,0,1-.507-2.618,4.666,4.666,0,0,1,1.741-2.86,21.893,21.893,0,0,1,6.011-3.231c.228-.082.451-.181.676-.272a13.621,13.621,0,0,0-7.782,4.025,4.067,4.067,0,0,0-.293,5.385c1.354,1.94,2.76,3.843,4.148,5.759.163.224.356.427.534.64" transform="translate(0 -201.247)" fill="#bd6cf3"/>
    <path id="Path_78" data-name="Path 78" d="M299.368,478.344c-12.088,9.29-30.488,7.881-39.761-.258a9.8,9.8,0,0,0,2.736-4.017,26.715,26.715,0,0,0,17.1,5.687,27.135,27.135,0,0,0,16.991-5.575l2.937,4.164" transform="translate(-227.799 -415.985)" fill="#5f009f"/>
    <path id="Path_79" data-name="Path 79" d="M278.684,5.97a2.5,2.5,0,0,0-2.495-1.485,2.276,2.276,0,0,0-2.364,1.3.663.663,0,0,1-.734.386,1.739,1.739,0,0,0-1.828,1.078c-1.084-1.373-2.5-1.021-3.894-.837C269.185,3.691,279.3.055,285.742,0a31.684,31.684,0,0,1,18.608,5.9c-1.2.143-2.4.205-3.04,1.452-.9-1.149-.9-1.149-2.352-1.322-.374-1.386-1.573-1.432-2.662-1.594a2.25,2.25,0,0,0-2.7,1.489,24.071,24.071,0,0,0-14.915.043" transform="translate(-234.609 0)" fill="#5f009f"/>
    <rect id="Rectangle_32" data-name="Rectangle 32" width="15.89" height="2.55" transform="translate(43.666 10.731)" fill="#5f009f"/>
    <path id="Path_80" data-name="Path 80" d="M624.4,414.95c.165-1.533.309-2.986.492-4.434a.747.747,0,0,1,.4-.466c1.108-.51,2.22-1.019,3.359-1.453a1.2,1.2,0,0,1,.954.153,12.317,12.317,0,0,1,1.565,1.354.687.687,0,0,1,.125.589c-.4,1.175-.817,2.341-1.254,3.5a1.438,1.438,0,0,1-1.567,1c-1.3-.083-2.6-.159-4.072-.248" transform="translate(-547.899 -358.496)" fill="#bd6cf3"/>
    <path id="Path_81" data-name="Path 81" d="M160.337,403.991c1.75.685,3.37,1.29,4.96,1.965a1.267,1.267,0,0,1,.659.813c.189,1.161.3,2.337.387,3.512a.9.9,0,0,1-.89,1.027,7.769,7.769,0,0,0-1.189.282,3.478,3.478,0,0,1-3.289-1.07c-.707-1.117-1.32-2.295-1.951-3.459-.062-.114.018-.321.068-.473.029-.089.125-.158.2-.23.623-.618,1.321-1.2,1.048-2.368" transform="translate(-139.521 -354.493)" fill="#bd6cf3"/>
  </g>
</svg>
