<svg xmlns="http://www.w3.org/2000/svg" width="90.566" height="68.339" viewBox="0 0 90.566 68.339">
  <g id="Group_27" data-name="Group 27" transform="translate(0 -2.598)">
    <path id="Path_82" data-name="Path 82" d="M274.931,0a34.169,34.169,0,1,1-34.162,34.162A34.173,34.173,0,0,1,274.931,0" transform="translate(-218.542 2.598)" fill="#bd6cf3" fill-rule="evenodd"/>
    <path id="Path_83" data-name="Path 83" d="M72.208,74.782H66.667a.646.646,0,0,0,.046-.248V68.761h5.449v5.774a.646.646,0,0,0,.046.248m-12.816,0H41.483a21.777,21.777,0,1,0,1.006,16.082h2.4a4.825,4.825,0,0,0,9.612,0h2.57a4.834,4.834,0,0,0,9.628,0H69.36a4.824,4.824,0,0,0,9.612-.031A5.667,5.667,0,0,0,84.343,85.2V80.447a5.649,5.649,0,0,0-4.907-5.6.98.98,0,0,0,.279-.681V62.136L69.438,52.787,59.16,62.136V74.163a.893.893,0,0,0,.232.619M59.5,45.434l8.39.341L58.9,53.932ZM83.725,58.823,70.738,47.013a1.942,1.942,0,0,0-2.6,0L55.151,58.823a1.914,1.914,0,0,0-.124,2.709,1.956,1.956,0,0,0,1.424.635,1.917,1.917,0,0,0,1.3-.511L69.438,51.022,81.124,61.656a1.923,1.923,0,1,0,2.6-2.833M7.058,84.07h0a6.253,6.253,0,1,1,6.254,6.253A6.256,6.256,0,0,1,7.058,84.07" transform="translate(0 -38.882)" fill="#5f009f"/>
  </g>
</svg>
