<svg xmlns="http://www.w3.org/2000/svg" xmlns:xlink="http://www.w3.org/1999/xlink" width="80.279" height="71.57" viewBox="0 0 80.279 71.57">
  <defs>
    <clipPath id="clip-path">
      <rect id="Rectangle_63" data-name="Rectangle 63" width="80.279" height="71.57" fill="none"/>
    </clipPath>
  </defs>
  <g id="Group_242" data-name="Group 242" transform="translate(0 -8)">
    <g id="Group_57" data-name="Group 57" transform="translate(0 8)" clip-path="url(#clip-path)">
      <path id="Path_230" data-name="Path 230" d="M56.055,59.284a8.232,8.232,0,0,0,6.185,7.957V94.333H58.117a2.062,2.062,0,1,0,0,4.123h61.851a2.062,2.062,0,1,0,0-4.123h-4.123V67.241a8.232,8.232,0,0,0,6.185-7.957V57.222H56.055Zm41.234,8.247a8.245,8.245,0,0,0,8.247-8.247,8.232,8.232,0,0,0,6.185,7.957V94.333H80.8v-26.8a8.245,8.245,0,0,0,8.247-8.247,8.25,8.25,0,0,0,8.247,8.247m-18.555-.29V94.333H66.364V67.241a8.232,8.232,0,0,0,6.185-7.957,8.232,8.232,0,0,0,6.185,7.957M64.3,34.544a2.063,2.063,0,0,1,2.062-2.062h45.357a2.062,2.062,0,1,1,0,4.123H66.364A2.063,2.063,0,0,1,64.3,34.544" transform="translate(-46.399 -26.887)" fill="#5f009f"/>
      <path id="Path_231" data-name="Path 231" d="M62.784,243.054a1.3,1.3,0,0,0-.511-.08l-.17.005-.17-.679a.021.021,0,0,0,.016,0,.006.006,0,0,1,.009.005.381.381,0,0,1,.3.281l.539-.135a.814.814,0,0,0-.476-.565,1.12,1.12,0,0,0-.511-.08l-.095-.378-.5.125.091.364a1.012,1.012,0,0,0-.5.362.8.8,0,0,0-.115.669.678.678,0,0,0,.418.512,1.7,1.7,0,0,0,.595.059l.182.728a.454.454,0,0,1-.257-.077.507.507,0,0,1-.172-.239l-.532.133a.808.808,0,0,0,.464.575,1.2,1.2,0,0,0,.614.077l.07.28.5-.125-.068-.273a1.15,1.15,0,0,0,.523-.376.808.808,0,0,0,.126-.686.675.675,0,0,0-.375-.486m-1.207-.069a.886.886,0,0,1-.184-.021.237.237,0,0,1-.187-.183.28.28,0,0,1,.071-.278.721.721,0,0,1,.15-.112Zm.895,1.107a.367.367,0,0,1-.079.042l-.156-.623a1.007,1.007,0,0,1,.224.033.246.246,0,0,1,.172.18.32.32,0,0,1-.161.367" transform="translate(-50.22 -199.845)" fill="#bd6cf3"/>
      <path id="Path_232" data-name="Path 232" d="M411.568,46.639a1.306,1.306,0,0,0-.406-.32l-.151-.079.184-.675a.021.021,0,0,0,.012.011.006.006,0,0,1,0,.009.381.381,0,0,1,.125.393l.536.146a.814.814,0,0,0-.138-.726,1.12,1.12,0,0,0-.406-.32l.1-.376-.494-.135-.1.362a1.01,1.01,0,0,0-.61.073.8.8,0,0,0-.428.526.679.679,0,0,0,.114.652,1.71,1.71,0,0,0,.49.343l-.2.724a.459.459,0,0,1-.187-.193.508.508,0,0,1-.032-.293l-.529-.144a.809.809,0,0,0,.123.729,1.2,1.2,0,0,0,.5.368l-.076.278.494.135.074-.271a1.152,1.152,0,0,0,.64-.072.809.809,0,0,0,.445-.537.676.676,0,0,0-.089-.607m-1.018-.652a.9.9,0,0,1-.15-.108.237.237,0,0,1-.073-.252.281.281,0,0,1,.2-.208.715.715,0,0,1,.186-.024Zm.238,1.4a.385.385,0,0,1-.089,0l.169-.619a1.014,1.014,0,0,1,.179.139.246.246,0,0,1,.061.241.32.32,0,0,1-.32.242" transform="translate(-338.897 -36.89)" fill="#bd6cf3"/>
      <path id="Path_233" data-name="Path 233" d="M26.5,209.686a2.289,2.289,0,0,0-.719-.552L25.515,209l.308-1.187a.036.036,0,0,0,.021.019.011.011,0,0,1,.009.015.668.668,0,0,1,.227.686l.942.244a1.425,1.425,0,0,0-.259-1.268,1.959,1.959,0,0,0-.718-.552l.171-.661-.869-.225-.165.636a1.773,1.773,0,0,0-1.068.141,1.4,1.4,0,0,0-.738.932,1.188,1.188,0,0,0,.214,1.139,2.99,2.99,0,0,0,.865.59l-.33,1.272a.8.8,0,0,1-.331-.334.89.89,0,0,1-.063-.512l-.93-.241a1.417,1.417,0,0,0,.231,1.274,2.108,2.108,0,0,0,.88.633l-.127.489.869.225.124-.477a2.015,2.015,0,0,0,1.12-.14,1.415,1.415,0,0,0,.768-.95,1.185,1.185,0,0,0-.168-1.062m-1.8-1.119a1.559,1.559,0,0,1-.265-.186.415.415,0,0,1-.134-.439.491.491,0,0,1,.343-.368,1.261,1.261,0,0,1,.325-.046Zm.448,2.453a.663.663,0,0,1-.156,0l.282-1.089a1.791,1.791,0,0,1,.317.239.43.43,0,0,1,.113.421.561.561,0,0,1-.556.43" transform="translate(-18.827 -170.574)" fill="#bd6cf3"/>
      <path id="Path_234" data-name="Path 234" d="M402.564,2.32a2.288,2.288,0,0,0-.9.074l-.287.079-.569-1.086a.036.036,0,0,0,.028,0,.011.011,0,0,1,.017.005.668.668,0,0,1,.629.355l.862-.452A1.425,1.425,0,0,0,401.3.53a1.961,1.961,0,0,0-.9.074l-.317-.6-.795.417.305.582a1.77,1.77,0,0,0-.7.822,1.394,1.394,0,0,0,.08,1.186,1.188,1.188,0,0,0,.924.7,3,3,0,0,0,1.037-.145l.611,1.164a.8.8,0,0,1-.47-.025.891.891,0,0,1-.391-.337l-.85.446a1.417,1.417,0,0,0,1.027.788,2.109,2.109,0,0,0,1.077-.123l.235.448.795-.417-.229-.436a2.015,2.015,0,0,0,.735-.857,1.415,1.415,0,0,0-.069-1.22,1.185,1.185,0,0,0-.838-.674m-2.084.38a1.569,1.569,0,0,1-.321.04.415.415,0,0,1-.395-.235.491.491,0,0,1,.007-.5,1.264,1.264,0,0,1,.21-.253Zm1.98,1.516a.67.67,0,0,1-.117.1l-.523-1a1.787,1.787,0,0,1,.4-.036.431.431,0,0,1,.366.236.56.56,0,0,1-.122.692" transform="translate(-330.101)" fill="#bd6cf3"/>
      <path id="Path_235" data-name="Path 235" d="M5.639,143.12a3.526,3.526,0,0,0-1.361-.31l-.458-.017-.333-1.86a.056.056,0,0,0,.042.012.017.017,0,0,1,.023.016,1.029,1.029,0,0,1,.759.814l1.476-.264A2.2,2.2,0,0,0,4.608,139.9a3.019,3.019,0,0,0-1.361-.31l-.185-1.035L1.7,138.8l.178,1a2.729,2.729,0,0,0-1.4.885A2.15,2.15,0,0,0,.04,142.46a1.831,1.831,0,0,0,1.032,1.457,4.607,4.607,0,0,0,1.591.269l.357,1.994a1.234,1.234,0,0,1-.679-.254,1.372,1.372,0,0,1-.418-.677l-1.457.261a2.184,2.184,0,0,0,1.143,1.635,3.251,3.251,0,0,0,1.64.32l.137.767,1.361-.244-.134-.748a3.1,3.1,0,0,0,1.478-.917,2.181,2.181,0,0,0,.465-1.824,1.825,1.825,0,0,0-.919-1.379m-3.239-.41a2.394,2.394,0,0,1-.491-.09.64.64,0,0,1-.471-.529.757.757,0,0,1,.244-.736,1.94,1.94,0,0,1,.426-.274Zm2.205,3.147a1.019,1.019,0,0,1-.22.1L4.08,144.25a2.75,2.75,0,0,1,.6.131.664.664,0,0,1,.429.517.864.864,0,0,1-.5.96" transform="translate(0 -114.689)" fill="#bd6cf3"/>
      <path id="Path_236" data-name="Path 236" d="M434.324,58.773a3.526,3.526,0,0,0-1.17-.762l-.424-.174.331-1.86A.056.056,0,0,0,433.1,56a.017.017,0,0,1,.016.023,1.03,1.03,0,0,1,.43,1.026l1.476.263a2.2,2.2,0,0,0-.548-1.918,3.019,3.019,0,0,0-1.17-.762l.184-1.035-1.361-.243-.178,1a2.729,2.729,0,0,0-1.624.344,2.15,2.15,0,0,0-1.022,1.519,1.831,1.831,0,0,0,.464,1.725,4.609,4.609,0,0,0,1.4.8l-.355,1.994a1.233,1.233,0,0,1-.549-.474,1.372,1.372,0,0,1-.158-.78l-1.457-.26a2.184,2.184,0,0,0,.507,1.93,3.248,3.248,0,0,0,1.428.868l-.137.767,1.361.243.133-.748a3.105,3.105,0,0,0,1.7-.349,2.181,2.181,0,0,0,1.068-1.551,1.825,1.825,0,0,0-.385-1.612m-2.9-1.505a2.413,2.413,0,0,1-.429-.255.64.64,0,0,1-.258-.659.757.757,0,0,1,.484-.606,1.949,1.949,0,0,1,.494-.11Zm.98,3.716a1.029,1.029,0,0,1-.24.017l.3-1.707a2.746,2.746,0,0,1,.515.329.663.663,0,0,1,.223.633.863.863,0,0,1-.8.727" transform="translate(-354.772 -44.165)" fill="#bd6cf3"/>
      <path id="Path_237" data-name="Path 237" d="M147.424,284.546v-4.752a2.039,2.039,0,0,1-1.031-1.748,2.062,2.062,0,1,1,4.123,0,2.03,2.03,0,0,1-1.031,1.748v4.752a2.03,2.03,0,0,1,1.031,1.748,2.062,2.062,0,1,1-3.092-1.748" transform="translate(-121.176 -228.445)" fill="#bd6cf3"/>
      <path id="Path_494" data-name="Path 494" d="M0,0H8.246V2.062s-6.185.515-8.246,0S0,0,0,0Z" transform="translate(43.402 50.934) rotate(-45)" fill="#bd6cf3"/>
      <rect id="Rectangle_61" data-name="Rectangle 61" width="16.492" height="2.062" transform="translate(43.402 56.765) rotate(-45)" fill="#bd6cf3"/>
      <rect id="Rectangle_62" data-name="Rectangle 62" width="8.246" height="2.062" transform="translate(49.232 56.765) rotate(-45)" fill="#bd6cf3"/>
      <path id="Path_238" data-name="Path 238" d="M113.484,68.945H64L55.756,85.439H121.73ZM73.176,73.527l-4.123,8.247a1.04,1.04,0,0,1-.926.572,1,1,0,0,1-.459-.109,1.027,1.027,0,0,1-.459-1.381l4.123-8.247a1.03,1.03,0,0,1,1.844.918m8.247,0L77.3,81.774a1.04,1.04,0,0,1-.926.572,1,1,0,0,1-.459-.109,1.027,1.027,0,0,1-.459-1.381l4.123-8.247a1.03,1.03,0,0,1,1.844.918m8.352,7.788a1.031,1.031,0,0,1-2.062,0V73.068a1.031,1.031,0,0,1,2.062,0Zm11.839.9a1.029,1.029,0,0,1-1.4-.407L95.7,73.564a1.033,1.033,0,0,1,1.812-.991l4.51,8.247a1.035,1.035,0,0,1-.411,1.4m8.207.02a.964.964,0,0,1-.459.109,1.019,1.019,0,0,1-.918-.572l-4.123-8.247a1.03,1.03,0,1,1,1.844-.918l4.123,8.247a1.03,1.03,0,0,1-.467,1.381" transform="translate(-46.152 -57.069)" fill="#bd6cf3"/>
    </g>
  </g>
</svg>
