<svg id="Group_240" data-name="Group 240" xmlns="http://www.w3.org/2000/svg" xmlns:xlink="http://www.w3.org/1999/xlink" width="115.416" height="67.792" viewBox="0 0 115.416 67.792">
  <defs>
    <clipPath id="clip-path">
      <rect id="Rectangle_81" data-name="Rectangle 81" width="115.416" height="67.792" fill="none"/>
    </clipPath>
    <clipPath id="clip-path-3">
      <rect id="Rectangle_76" data-name="Rectangle 76" width="12.653" height="6.952" fill="none"/>
    </clipPath>
    <clipPath id="clip-path-5">
      <rect id="Rectangle_78" data-name="Rectangle 78" width="26.753" height="19.075" fill="none"/>
    </clipPath>
    <clipPath id="clip-path-6">
      <rect id="Rectangle_79" data-name="Rectangle 79" width="26.478" height="19.283" fill="none"/>
    </clipPath>
  </defs>
  <g id="Group_89" data-name="Group 89" clip-path="url(#clip-path)">
    <g id="Group_88" data-name="Group 88">
      <g id="Group_87" data-name="Group 87" clip-path="url(#clip-path)">
        <path id="Path_273" data-name="Path 273" d="M198.63,11.2c-1.576.066-3.62.16-5.664.229a6.227,6.227,0,0,1-1.217-.118.989.989,0,0,1-.845-.994c-.03-2.132-.085-4.265-.052-6.4.017-1.084,0-2.383.119-3.464.044-.407.4-.327.815-.316,1.507.041,3.015.153,4.521.126,2.777-.05,5.553-.192,8.33-.264a9.9,9.9,0,0,1,1.724.18.554.554,0,0,1,.333.291,3.386,3.386,0,0,1,.231,1.676c-.093,1.828-.169,3.657-.261,5.486-.047.924-.1,1.849-.176,2.77-.045.544-.2.685-.762.706q-1.68.062-3.36.087c-1.089.014-2.177,0-3.735,0M191.836.834l-.075.084q.451.413.9.826c.66.6,1.3,1.23,1.987,1.8.623.511,1.306.949,1.956,1.428.616.453,1.223.919,1.837,1.374a.637.637,0,0,0,.88,0c.221-.189.467-.347.687-.538Q202.9,3.293,205.779.77a2.734,2.734,0,0,0,.193-.219,6.068,6.068,0,0,0-.789-.1c-.634.007-1.268.042-1.9.066-1.291.049-2.585.055-3.872.159a56,56,0,0,1-6.617.157c-.318-.012-.637,0-.955,0m13.558,9.811.015-.088c-.117-.11-.231-.224-.352-.329-1.423-1.236-2.851-2.467-4.268-3.71a.405.405,0,0,0-.616-.012,5.946,5.946,0,0,1-.571.423,1.232,1.232,0,0,1-1.532-.032c-.313-.224-.623-.452-.943-.684a55.4,55.4,0,0,0-5.116,4.626c3.18-.034,6.285-.061,9.389-.1,1.332-.017,2.663-.061,4-.092m-4.419-4.792,4.988,4.3a77.09,77.09,0,0,0,.3-8.926l-5.291,4.622m-9.494-4.015c-.021,2.622-.043,5.228-.056,7.834a3.8,3.8,0,0,0,.116.642l4.983-4.568-5.043-3.907" transform="translate(-141.378 0)" fill="#5f009f" fill-rule="evenodd"/>
        <path id="Path_274" data-name="Path 274" d="M194.466,2.135c.319,0,.637-.01.955,0a55.99,55.99,0,0,0,6.617-.157c1.287-.1,2.582-.109,3.873-.159.634-.024,1.268-.059,1.9-.066a6.1,6.1,0,0,1,.789.1,2.54,2.54,0,0,1-.193.219q-2.882,2.52-5.769,5.037c-.219.19-.466.349-.687.538a.638.638,0,0,1-.88,0c-.615-.455-1.221-.921-1.837-1.374-.65-.478-1.332-.916-1.956-1.428-.69-.566-1.328-1.194-1.988-1.8q-.452-.412-.9-.826l.075-.084" transform="translate(-144.007 -1.301)" fill="#fff" fill-rule="evenodd"/>
        <path id="Path_275" data-name="Path 275" d="M208.735,28.406c-1.332.032-2.663.075-4,.092-3.1.04-6.208.068-9.389.1a55.393,55.393,0,0,1,5.116-4.626c.32.232.63.461.943.684a1.232,1.232,0,0,0,1.532.032,5.907,5.907,0,0,0,.572-.423.4.4,0,0,1,.616.012c1.418,1.242,2.846,2.474,4.269,3.71.122.105.235.219.352.329l-.015.088" transform="translate(-144.719 -17.76)" fill="#fff" fill-rule="evenodd"/>
        <path id="Path_276" data-name="Path 276" d="M229.938,9.373l5.291-4.622a77.079,77.079,0,0,1-.3,8.925l-4.988-4.3" transform="translate(-170.341 -3.52)" fill="#bd6cf3" fill-rule="evenodd"/>
        <path id="Path_277" data-name="Path 277" d="M193.147,7.093,198.19,11l-4.983,4.568a3.8,3.8,0,0,1-.116-.642c.013-2.606.036-5.212.056-7.834" transform="translate(-143.044 -5.255)" fill="#bd6cf3" fill-rule="evenodd"/>
        <path id="Path_278" data-name="Path 278" d="M123.034,27.6a18.339,18.339,0,0,1,10.677-5.866,17.626,17.626,0,0,1,3.281-.325.337.337,0,0,0,0-.674,20.4,20.4,0,0,0-11.872,3.979,14.725,14.725,0,0,0-2.563,2.409c-.274.332.2.812.476.476" transform="translate(-90.731 -15.359)" fill="#5f009f"/>
        <path id="Path_279" data-name="Path 279" d="M170.43,15.46l2.448,1.437q-.034-.264-.068-.529l-2,1.977c-.309.305.168.782.477.477l2-1.977a.341.341,0,0,0-.068-.529l-2.449-1.437a.337.337,0,0,0-.34.582" transform="translate(-126.137 -10.986)" fill="#5f009f"/>
        <path id="Path_280" data-name="Path 280" d="M277.009,25.919a18.927,18.927,0,0,0-11.021-6.048,18.618,18.618,0,0,0-3.414-.34.337.337,0,0,0,0,.674,19.8,19.8,0,0,1,11.494,3.859,14.07,14.07,0,0,1,2.465,2.332c.276.335.75-.144.476-.476" transform="translate(-194.277 -14.469)" fill="#5f009f"/>
        <path id="Path_281" data-name="Path 281" d="M310.882,35.971l.072,2.481q.006.179.01.357l.427-.325L309,37.921l-.343-.081c-.422-.1-.6.55-.179.65l2.393.563.343.081a.341.341,0,0,0,.426-.325l-.072-2.481q-.005-.178-.01-.357c-.013-.433-.687-.434-.674,0" transform="translate(-228.344 -26.407)" fill="#5f009f"/>
        <path id="Path_282" data-name="Path 282" d="M278.324,176.606a18.341,18.341,0,0,1-10.677,5.865,17.622,17.622,0,0,1-3.281.325.337.337,0,0,0,0,.674,20.4,20.4,0,0,0,11.871-3.979,14.736,14.736,0,0,0,2.563-2.409c.274-.332-.2-.812-.477-.476" transform="translate(-195.605 -130.748)" fill="#5f009f"/>
        <path id="Path_283" data-name="Path 283" d="M264.444,197,262,195.561q.034.265.068.529l2-1.977c.309-.305-.168-.782-.477-.477l-2,1.977a.341.341,0,0,0,.068.529l2.448,1.438a.337.337,0,0,0,.34-.582" transform="translate(-193.716 -143.376)" fill="#5f009f"/>
        <path id="Path_284" data-name="Path 284" d="M124.349,178.284a18.926,18.926,0,0,0,11.021,6.048,18.615,18.615,0,0,0,3.414.34.337.337,0,0,0,0-.674,19.8,19.8,0,0,1-11.494-3.859,14.074,14.074,0,0,1-2.465-2.332c-.276-.335-.75.144-.476.476" transform="translate(-92.058 -131.638)" fill="#5f009f"/>
        <path id="Path_285" data-name="Path 285" d="M123.168,178.183,123.1,175.7c0-.119-.007-.238-.01-.357l-.427.325,2.393.563.343.081c.422.1.6-.55.179-.65l-2.393-.563-.343-.081a.341.341,0,0,0-.426.325l.072,2.481q.005.178.01.357c.013.433.687.434.674,0" transform="translate(-90.684 -129.65)" fill="#5f009f"/>
        <path id="Path_286" data-name="Path 286" d="M197.161,183.145c1.3-.32,2.545-.64,3.8-.937,2.282-.541,4.568-1.065,6.851-1.6.977-.23,1.055-.172,1.284.795.778,3.3,1.258,6.66,1.888,9.989.256,1.351.564,2.694.847,4.04.008.04.009.081.014.133l-11.253,2.686-3.431-15.1" transform="translate(-146.06 -133.712)" fill="#fff" fill-rule="evenodd"/>
        <path id="Path_287" data-name="Path 287" d="M189.88,202.648l2.057-.387c.2.759.425,1.488.6,2.229.576,2.484,1.15,4.969,1.694,7.461.179.819.259,1.659.4,2.487.078.471.162.514.634.4q4.436-1.086,8.873-2.171c.481-.117.534-.079.691.4.09.276.185.55.27.828.1.333.058.419-.29.5-1.278.3-2.56.582-3.836.889-2.322.56-4.641,1.135-6.96,1.7-.679.167-.7.173-.842-.512-.389-1.843-.71-3.7-1.15-5.531-.642-2.667-1.364-5.315-2.052-7.971-.024-.093-.046-.186-.081-.329" transform="translate(-140.666 -149.838)" fill="#bd6cf3" fill-rule="evenodd"/>
        <path id="Path_288" data-name="Path 288" d="M203.788,194.917c.172.564.337,1.1.5,1.634.109.371.046.483-.333.575q-5.882,1.428-11.764,2.849c-.607.146-.758.045-.881-.549-.5-2.391-.946-4.794-1.5-7.172-.528-2.273-1.165-4.522-1.749-6.782-.062-.238-.094-.483-.147-.764.631-.14,1.236-.277,1.842-.408.658-.142.65-.137.5-.794-.131-.588-.247-1.18-.358-1.772-.067-.358,0-.465.364-.548,2.066-.476,4.133-.942,6.2-1.421,1.687-.392,3.37-.8,5.056-1.2.638-.15.831-.024,1,.608a66.463,66.463,0,0,1,1.551,7.882c.236,1.714.576,3.415.906,5.115a11.806,11.806,0,0,0,.474,1.439c.193.584.038.877-.554,1.035-.362.1-.726.18-1.1.272m-13.48-13.242,3.432,15.1,11.252-2.686a1.266,1.266,0,0,0-.014-.133c-.283-1.346-.591-2.689-.846-4.041-.631-3.329-1.11-6.687-1.888-9.989-.228-.966-.307-1.025-1.284-.795-2.283.536-4.569,1.061-6.851,1.6-1.255.3-2.5.617-3.8.937m-1.887,3.377c.035.143.057.236.081.329.688,2.656,1.411,5.3,2.052,7.971.441,1.83.762,3.689,1.15,5.531.145.685.163.679.842.512,2.319-.569,4.638-1.144,6.96-1.7,1.276-.308,2.558-.59,3.836-.89.348-.081.392-.167.29-.5-.085-.277-.181-.552-.27-.828-.157-.483-.21-.52-.691-.4q-4.438,1.082-8.873,2.171c-.471.116-.555.072-.634-.4-.138-.828-.217-1.668-.4-2.487-.544-2.492-1.117-4.977-1.694-7.461-.172-.741-.392-1.47-.6-2.229l-2.057.387" transform="translate(-139.206 -132.242)" fill="#5f009f" fill-rule="evenodd"/>
        <path id="Path_289" data-name="Path 289" d="M204.887,190.436a1.7,1.7,0,0,1-.315-.439c-.022-.061.184-.277.313-.308q2.278-.559,4.567-1.077c.95-.217,1.905-.408,2.858-.612a1.479,1.479,0,0,0,.275-.086.35.35,0,0,1,.523.271c.071.259-.112.4-.355.45-.694.134-1.4.238-2.084.4-1.3.3-2.6.634-3.9.952-.592.145-1.186.285-1.885.453" transform="translate(-151.549 -139.175)" fill="#5f009f" fill-rule="evenodd"/>
        <path id="Path_290" data-name="Path 290" d="M206,198.258l6.79-1.485.975-.213c.326-.071.188-.571-.138-.5l-6.79,1.485-.975.213c-.326.071-.188.571.138.5" transform="translate(-152.368 -145.239)" fill="#5f009f"/>
        <path id="Path_291" data-name="Path 291" d="M206.687,201.715l8.562-1.948c.325-.074.187-.574-.138-.5l-8.562,1.947c-.325.074-.187.574.138.5" transform="translate(-152.877 -147.615)" fill="#5f009f"/>
        <path id="Path_292" data-name="Path 292" d="M207.73,205.98l8.372-1.829c.326-.071.188-.571-.138-.5l-8.373,1.828c-.326.071-.188.571.138.5" transform="translate(-153.649 -150.863)" fill="#5f009f"/>
        <path id="Path_293" data-name="Path 293" d="M208.708,210.2l8.011-1.762c.326-.072.188-.572-.138-.5L208.57,209.7c-.326.072-.188.572.138.5" transform="translate(-154.374 -154.036)" fill="#5f009f"/>
        <path id="Path_294" data-name="Path 294" d="M209.758,214.552l7.766-1.729c.326-.072.188-.572-.138-.5l-7.766,1.728c-.325.073-.188.573.138.5" transform="translate(-155.152 -157.287)" fill="#5f009f"/>
        <path id="Path_295" data-name="Path 295" d="M210.532,217.518l8.756-1.928c.326-.072.188-.572-.138-.5l-8.756,1.928c-.326.072-.188.572.138.5" transform="translate(-155.725 -159.337)" fill="#5f009f"/>
        <path id="Path_296" data-name="Path 296" d="M211.736,223.711l6.5-1.5c.325-.075.187-.575-.138-.5l-6.5,1.5c-.325.075-.187.575.138.5" transform="translate(-156.617 -164.242)" fill="#5f009f"/>
        <path id="Path_297" data-name="Path 297" d="M212.681,226.688l7.523-1.738c.325-.075.187-.575-.138-.5l-7.523,1.738c-.325.075-.187.575.138.5" transform="translate(-157.317 -166.27)" fill="#5f009f"/>
        <path id="Path_298" data-name="Path 298" d="M230.855,232.542c.094.454.585,1.089,1.137.878.473-.177.4-.714.364-1.118.246.956,1.175.712,1.039-.227.021.243.477.8.794.691.287-.134.239-.673.193-.886,0,.352.487.908.869.6.252-.212.125-.744.1-1.041" transform="translate(-171.021 -171.456)" fill="none" stroke="#5f009f" stroke-linecap="round" stroke-linejoin="round" stroke-width="1.086"/>
        <path id="Path_299" data-name="Path 299" d="M5.1,10.3c-5.8.07-3.621,10.39-3.778,24.39-.031,2.745.339,22.124.531,24.715.234,3.161,16.426,1.546,19.391,1.6,9.433.169,7.943-.123,7.94-10.889,0-8.515-.075-17.3.02-25.807.034-3.02.165-12.078-1.469-13.2C25.522,9.6,8.6,10.342,5.1,10.3" transform="translate(-0.774 -7.523)" fill="#5f009f"/>
        <path id="Path_300" data-name="Path 300" d="M4.322,9.255a3.612,3.612,0,0,0-2.353.828A4.8,4.8,0,0,0,.644,12.336a15.183,15.183,0,0,0-.556,3.47c-.1,1.538-.1,3.083-.072,4.623.068,3.983.266,7.961.266,11.945,0,1.865,0,3.729.026,5.594q.055,3.886.136,7.772.08,4,.184,8c.044,1.606.041,3.228.173,4.83.125,1.524,2.347,1.82,3.513,1.988a45.409,45.409,0,0,0,7.5.275c2.338-.054,4.672-.191,7.007-.3,2.055-.092,4.117.081,6.169-.084,1.363-.11,2.829-.41,3.391-1.812a6.717,6.717,0,0,0,.362-2.253c.044-1.187,0-2.376-.027-3.563-.093-4.277-.053-8.558-.064-12.836-.012-4.86-.02-9.72.021-14.579.024-2.868.084-5.738-.059-8.6a31.409,31.409,0,0,0-.425-4.164,4.3,4.3,0,0,0-.978-2.447,3.707,3.707,0,0,0-1.787-.612,28.471,28.471,0,0,0-3.087-.32c-2.745-.167-5.5-.17-8.249-.151-2.523.018-5.046.074-7.569.119-.733.013-1.467.029-2.2.021a.27.27,0,0,0,0,.539c1.875.021,3.753-.052,5.628-.085,2.754-.049,5.508-.083,8.263-.044a48.217,48.217,0,0,1,6.919.415,8.845,8.845,0,0,1,1.069.228,1.759,1.759,0,0,1,.637.275,1.919,1.919,0,0,1,.487.836,9.267,9.267,0,0,1,.376,1.526,48.376,48.376,0,0,1,.472,8.353c0,3.8-.063,7.591-.066,11.387,0,4.736.018,9.471.026,14.207,0,1.891,0,3.781.041,5.671.025,1.192.07,2.386.04,3.579a7.178,7.178,0,0,1-.3,2.228,1.925,1.925,0,0,1-.983,1.122,5.69,5.69,0,0,1-2.116.44c-1.226.084-2.461.058-3.689.039-1.815-.029-3.625.1-5.437.186-2.564.121-5.133.216-7.7.146a31.122,31.122,0,0,1-3.48-.252,7.811,7.811,0,0,1-2.424-.628,1.772,1.772,0,0,1-.6-.45.779.779,0,0,1-.153-.519c-.039-.641-.06-1.284-.082-1.926-.077-2.259-.13-4.518-.181-6.777Q.976,45.678.906,41.6c-.037-2.113-.073-4.226-.09-6.339C.793,32.326.808,29.39.723,26.451c-.1-3.373-.3-6.766-.126-10.14a16.747,16.747,0,0,1,.485-3.551,4.649,4.649,0,0,1,1.179-2.215,3.017,3.017,0,0,1,2.062-.752.27.27,0,0,0,0-.539" transform="translate(0 -6.747)" fill="#5f009f"/>
        <path id="Path_301" data-name="Path 301" d="M7.177,9.261c-5.8.07-3.621,10.39-3.778,24.39-.031,2.745.339,22.124.531,24.715.234,3.16,16.426,1.546,19.391,1.6,9.433.168,7.943-.124,7.94-10.889,0-8.514-.075-17.3.02-25.807.034-3.02.165-12.078-1.469-13.2C27.6,8.562,10.681,9.3,7.177,9.261" transform="translate(-2.315 -6.753)" fill="#fff"/>
        <path id="Path_302" data-name="Path 302" d="M6.4,8.215a3.612,3.612,0,0,0-2.353.828A4.8,4.8,0,0,0,2.724,11.3a15.183,15.183,0,0,0-.556,3.47c-.1,1.538-.1,3.083-.072,4.623.068,3.982.266,7.961.266,11.945,0,1.866,0,3.729.026,5.595q.055,3.886.136,7.772.08,4,.184,8c.044,1.606.041,3.228.173,4.83.125,1.524,2.347,1.819,3.513,1.987a45.436,45.436,0,0,0,7.5.275c2.338-.054,4.672-.191,7.007-.3,2.055-.092,4.117.08,6.169-.085,1.363-.11,2.828-.41,3.391-1.812a6.724,6.724,0,0,0,.362-2.253c.044-1.187,0-2.376-.027-3.563-.093-4.277-.053-8.558-.064-12.836-.012-4.86-.02-9.72.021-14.579.024-2.868.084-5.738-.058-8.6a31.408,31.408,0,0,0-.425-4.164A4.3,4.3,0,0,0,29.3,9.158a3.707,3.707,0,0,0-1.787-.612,28.471,28.471,0,0,0-3.087-.32c-2.745-.167-5.5-.17-8.249-.151-2.523.018-5.046.074-7.569.119-.733.013-1.467.029-2.2.021a.27.27,0,0,0,0,.539c1.875.021,3.753-.052,5.628-.085,2.754-.049,5.508-.083,8.263-.044a48.216,48.216,0,0,1,6.919.415,8.834,8.834,0,0,1,1.069.228,1.759,1.759,0,0,1,.637.275,1.919,1.919,0,0,1,.487.836,9.267,9.267,0,0,1,.376,1.526,48.348,48.348,0,0,1,.472,8.353c0,3.8-.063,7.591-.066,11.387,0,4.735.019,9.471.026,14.206,0,1.891,0,3.781.041,5.671.025,1.192.07,2.386.041,3.579a7.178,7.178,0,0,1-.3,2.228,1.925,1.925,0,0,1-.983,1.122,5.684,5.684,0,0,1-2.116.441c-1.226.084-2.461.058-3.689.039-1.815-.029-3.625.1-5.437.186-2.564.121-5.133.216-7.7.146a31.116,31.116,0,0,1-3.48-.252,7.819,7.819,0,0,1-2.424-.628,1.769,1.769,0,0,1-.6-.45.776.776,0,0,1-.153-.519c-.04-.641-.06-1.284-.082-1.926-.077-2.259-.13-4.518-.182-6.777q-.093-4.073-.164-8.146c-.037-2.113-.073-4.226-.09-6.339-.023-2.939-.009-5.875-.093-8.814-.1-3.374-.3-6.766-.126-10.14a16.73,16.73,0,0,1,.486-3.551A4.649,4.649,0,0,1,4.341,9.506,3.017,3.017,0,0,1,6.4,8.754a.27.27,0,0,0,0-.539" transform="translate(-1.541 -5.976)" fill="#5f009f"/>
        <path id="Path_303" data-name="Path 303" d="M54.486,193.792a1.078,1.078,0,1,0-1.078-1.078,1.09,1.09,0,0,0,1.078,1.078" transform="translate(-39.564 -141.967)" fill="#5f009f"/>
        <path id="Path_304" data-name="Path 304" d="M56.175,194.857a.506.506,0,0,0,0-1.011.506.506,0,0,0,0,1.011" transform="translate(-41.253 -143.604)" fill="#fff"/>
        <path id="Path_305" data-name="Path 305" d="M26.6,191.9l0,0a.242.242,0,0,1,.118.3l-.124.162c-.6.438-.273.005-.207.027l-.062-.026.007,0,.026.015c.045.025.088.051.131.077.248.148.495.3.741.451v-.467l-.863.589-.126.086a.271.271,0,1,0,.273.467l.863-.589.125-.086a.274.274,0,0,0,0-.467c-.265-.163-.53-.327-.8-.486-.033-.019-.066-.04-.1-.057a.49.49,0,0,0-.075-.032.274.274,0,0,0-.306.4.337.337,0,0,0,.108.105.273.273,0,0,0,.371-.1.278.278,0,0,0-.1-.37" transform="translate(-19.337 -142.126)" fill="#5f009f"/>
        <path id="Path_306" data-name="Path 306" d="M83.915,191.49l-.864.589-.124.085a.272.272,0,0,0,.065.495c.161.06.321.123.48.188l.092.038.029.012-.03-.012.047.02.147.064.2.09a.353.353,0,0,0,.267.054.273.273,0,0,0,.162-.4.334.334,0,0,0-.1-.1.271.271,0,1,0-.273.467c.044.026,0,.026-.09-.093l.162-.4h.144c.04.009.084.037.04.016l-.055-.026-.214-.1q-.423-.185-.856-.347l.065.495.864-.589.124-.085a.271.271,0,0,0-.273-.467" transform="translate(-61.336 -141.83)" fill="#5f009f"/>
        <path id="Path_307" data-name="Path 307" d="M48.319,14.555a.337.337,0,0,0,0-.674.337.337,0,0,0,0,.674" transform="translate(-35.554 -10.283)" fill="#5f009f"/>
        <path id="Path_308" data-name="Path 308" d="M52.48,14.555a.337.337,0,0,0,0-.674.337.337,0,0,0,0,.674" transform="translate(-38.636 -10.283)" fill="#5f009f"/>
        <path id="Path_309" data-name="Path 309" d="M56.64,14.555a.337.337,0,0,0,0-.674.337.337,0,0,0,0,.674" transform="translate(-41.718 -10.283)" fill="#5f009f"/>
        <path id="Path_310" data-name="Path 310" d="M60.8,14.555a.337.337,0,0,0,0-.674.337.337,0,0,0,0,.674" transform="translate(-44.8 -10.283)" fill="#5f009f"/>
        <path id="Path_311" data-name="Path 311" d="M64.96,14.555a.337.337,0,0,0,0-.674.337.337,0,0,0,0,.674" transform="translate(-47.882 -10.283)" fill="#5f009f"/>
        <path id="Path_312" data-name="Path 312" d="M14.734,20.158c-4.927.059-3.078,8.806-3.212,20.669-.026,2.325.289,18.746.452,20.943.2,2.677,13.964,1.31,16.483,1.354,8.018.143,6.751-.1,6.749-9.227,0-7.215-.064-14.656.018-21.868.028-2.558.14-10.234-1.249-11.181-1.879-1.282-16.262-.655-19.241-.69" transform="translate(-8.364 -14.843)" fill="#dfb6ff"/>
        <path id="Path_313" data-name="Path 313" d="M23.832,34.17H39.465a1.3,1.3,0,1,0,0-2.593H23.832a1.3,1.3,0,1,0,0,2.593" transform="translate(-16.693 -23.393)" fill="#fff"/>
        <g id="Group_77" data-name="Group 77" transform="translate(11.122 37.393)" opacity="0.9">
          <g id="Group_76" data-name="Group 76">
            <g id="Group_75" data-name="Group 75" clip-path="url(#clip-path-3)">
              <path id="Path_314" data-name="Path 314" d="M54.742,144.282c-3.078.158-7.278,0-10.063,0-1.258,0-1.573-.2-1.707,1.078a14.291,14.291,0,0,0,0,2.606c.09,1.168.058,1.522,1.168,1.572,1.527.071,2.7,0,3.863,0,1.438,0,3.133-.137,3.235.135.427,1.146.831,1.663,2.336,1.527a1.5,1.5,0,0,1-.719-1.707c2.179-.123,2.336.269,2.606-1.707.09-.988.385-3.516-.719-3.5" transform="translate(-42.912 -144.27)" fill="#5f009f" fill-rule="evenodd"/>
            </g>
          </g>
        </g>
        <path id="Path_315" data-name="Path 315" d="M57.049,153.365a.486.486,0,0,0,0-.972.486.486,0,0,0,0,.972" transform="translate(-41.915 -112.895)" fill="#fff"/>
        <path id="Path_316" data-name="Path 316" d="M65.146,153.365a.486.486,0,0,0,0-.972.486.486,0,0,0,0,.972" transform="translate(-47.913 -112.895)" fill="#fff"/>
        <path id="Path_317" data-name="Path 317" d="M73.246,153.365a.486.486,0,0,0,0-.972.486.486,0,0,0,0,.972" transform="translate(-53.914 -112.895)" fill="#fff"/>
        <path id="Path_318" data-name="Path 318" d="M358.016,10.3c5.8.07,3.621,10.39,3.778,24.39.031,2.745-.34,22.124-.531,24.715-.233,3.161-16.427,1.546-19.391,1.6-9.433.169-7.943-.123-7.94-10.889,0-8.515.075-17.3-.02-25.807-.034-3.02-.165-12.078,1.469-13.2,2.21-1.511,19.131-.772,22.635-.813" transform="translate(-247.317 -7.523)" fill="#5f009f"/>
        <path id="Path_319" data-name="Path 319" d="M356.155,9.094c.113,0,.225.006.338.016l.139.015c-.184-.02.007,0,.052.011a4.182,4.182,0,0,1,.579.159c.125.042.011,0,.017.006.043.021.086.04.129.061.084.043.166.09.245.14.039.025.077.054.116.079.121.077-.072-.065.013.008s.144.122.211.188.133.138.2.21c.017.019.119.146.055.064s.049.069.063.089a4.413,4.413,0,0,1,.317.535c.046.091.088.184.13.277-.054-.121,0-.007.018.047s.048.124.07.186c.083.231.153.466.215.7.067.258.123.518.172.779q.036.193.066.387c.03.187.04.263.052.358.078.641.128,1.285.159,1.931.075,1.561.057,3.125.023,4.687-.086,3.952-.268,7.9-.252,11.855q.01,2.576-.029,5.15-.055,3.832-.135,7.664-.079,3.923-.18,7.846c-.043,1.62-.068,3.245-.17,4.862,0,.044-.01.091-.009.135,0,.1.044-.134.01-.066a.488.488,0,0,0-.023.095c-.035.158.075-.1,0,.015-.057.08-.166.173-.019.048-.043.037-.081.088-.121.128-.023.023-.054.041-.075.066-.049.057.138-.088.013-.011a4.344,4.344,0,0,1-.4.231c-.033.016-.067.029-.1.045-.094.048.135-.049,0,0-.094.034-.186.071-.281.1-.194.065-.392.12-.59.169-.221.054-.445.1-.669.142q-.18.033-.361.061l-.16.024c-.048.007-.237.033-.1.015a47.716,47.716,0,0,1-7.424.23c-2.283-.057-4.561-.191-6.842-.293-2.007-.089-4.019.073-6.024-.075q-.332-.025-.662-.066c.191.024-.105-.017-.168-.028-.092-.016-.184-.034-.275-.054a4.55,4.55,0,0,1-.509-.14c-.068-.023-.135-.051-.2-.076.19.071-.017-.011-.087-.048s-.114-.063-.169-.1c-.029-.018-.056-.039-.085-.057-.108-.068.01.008.017.015-.1-.091-.187-.184-.28-.277s.065.109.023.031c-.013-.025-.034-.046-.049-.07-.039-.061-.077-.122-.111-.187s-.054-.118-.086-.175c.107.2-.007-.023-.031-.095a4.128,4.128,0,0,1-.125-.463c-.018-.085-.034-.171-.048-.257-.008-.045-.014-.09-.021-.135.02.123.009.079,0-.008-.049-.44-.071-.881-.08-1.323-.024-1.21.021-2.421.046-3.631.088-4.284.045-8.573.056-12.858.012-4.733.018-9.465-.022-14.2-.024-2.808-.081-5.617.053-8.424.034-.719.08-1.438.148-2.155.065-.689.12-1.163.239-1.821a9.206,9.206,0,0,1,.392-1.521c.008-.023.064-.159.026-.069s.026-.057.037-.079c.043-.088.09-.172.14-.256.021-.035.048-.067.069-.1-.038.063-.089.093-.019.029a.615.615,0,0,0,.075-.077c.07-.1-.121.06-.022.015.042-.02.081-.051.123-.073.025-.013.051-.024.076-.038.111-.061-.036.013-.035.013.135-.045.267-.1.4-.135a9.364,9.364,0,0,1,1.088-.224l.16-.024c.025,0,.2-.028.1-.015s.088-.011.109-.014l.176-.021q.372-.044.746-.077c.569-.052,1.14-.091,1.71-.122,2.695-.146,5.4-.148,8.094-.127,2.465.019,4.93.075,7.4.118.716.012,1.433.027,2.15.02a.648.648,0,0,0,0-1.3c-1.932.021-3.867-.054-5.8-.088-2.807-.049-5.616-.082-8.423-.036a44.9,44.9,0,0,0-7.05.479,3.717,3.717,0,0,0-1.923.728,4.907,4.907,0,0,0-1.065,2.709,49.206,49.206,0,0,0-.51,8.595c0,3.891.064,7.783.066,11.674,0,4.84-.021,9.679-.027,14.519,0,1.842-.01,3.682-.05,5.523-.026,1.169-.07,2.342-.02,3.51.061,1.447.306,3.1,1.753,3.807a6.711,6.711,0,0,0,2.475.546c1.225.09,2.458.064,3.685.045,1.884-.029,3.762.1,5.644.191,2.611.122,5.229.217,7.843.133a31.05,31.05,0,0,0,3.617-.3,7.821,7.821,0,0,0,2.558-.737,1.964,1.964,0,0,0,1.128-1.638c.043-.617.06-1.236.082-1.853.08-2.3.134-4.6.186-6.9q.094-4.142.166-8.285c.037-2.123.074-4.246.089-6.369.022-3.105.017-6.206.11-9.311a99.363,99.363,0,0,0,.068-10.155,14.961,14.961,0,0,0-.592-3.529,5.032,5.032,0,0,0-1.453-2.373,4.033,4.033,0,0,0-2.558-.887.648.648,0,0,0,0,1.3" transform="translate(-245.455 -5.669)" fill="#5f009f"/>
        <path id="Path_320" data-name="Path 320" d="M355.936,9.261c5.8.07,3.621,10.39,3.778,24.39.031,2.745-.339,22.124-.531,24.715-.233,3.16-16.426,1.546-19.391,1.6-9.433.168-7.943-.124-7.94-10.889,0-8.514.075-17.3-.02-25.807-.034-3.02-.165-12.078,1.469-13.2,2.21-1.511,19.13-.772,22.635-.813" transform="translate(-245.776 -6.753)" fill="#fff"/>
        <path id="Path_321" data-name="Path 321" d="M355.156,8.757a3.01,3.01,0,0,1,2.106.794,4.818,4.818,0,0,1,1.162,2.278,17.412,17.412,0,0,1,.463,3.556c.075,1.561.057,3.125.023,4.687-.086,3.952-.268,7.9-.252,11.854q.011,2.576-.029,5.15-.055,3.833-.135,7.665-.079,3.923-.18,7.846c-.043,1.62-.068,3.245-.17,4.863a.806.806,0,0,1-.157.494,1.76,1.76,0,0,1-.661.474,8.228,8.228,0,0,1-2.453.61,47.271,47.271,0,0,1-7.424.23c-2.283-.057-4.562-.191-6.842-.293-2.007-.089-4.019.073-6.024-.075a5.377,5.377,0,0,1-2.094-.463,1.935,1.935,0,0,1-.944-1.139A7.609,7.609,0,0,1,331.26,55c-.024-1.21.021-2.421.046-3.631.088-4.284.045-8.573.056-12.857.012-4.733.018-9.465-.022-14.2-.024-2.808-.081-5.617.053-8.424a31.2,31.2,0,0,1,.4-4.076,8.646,8.646,0,0,1,.392-1.521,1.748,1.748,0,0,1,.481-.766,4.391,4.391,0,0,1,1.747-.494,31.117,31.117,0,0,1,3.1-.287c2.694-.146,5.4-.148,8.094-.127,2.465.019,4.93.075,7.395.118.716.012,1.433.027,2.15.02a.27.27,0,0,0,0-.539c-1.932.021-3.867-.054-5.8-.088-2.807-.049-5.616-.082-8.423-.035a44.306,44.306,0,0,0-6.949.466,3.488,3.488,0,0,0-1.756.631,4.6,4.6,0,0,0-.968,2.542,48.641,48.641,0,0,0-.5,8.494c0,3.892.064,7.783.066,11.675,0,4.84-.021,9.679-.027,14.518,0,1.842-.009,3.682-.05,5.523-.026,1.169-.07,2.342-.02,3.51.056,1.315.247,2.836,1.566,3.48a6.224,6.224,0,0,0,2.284.5c1.225.09,2.458.064,3.685.045,1.884-.029,3.762.1,5.644.191,2.611.122,5.229.217,7.843.132a30.232,30.232,0,0,0,3.516-.287,7.56,7.56,0,0,0,2.467-.7,1.589,1.589,0,0,0,.941-1.311c.043-.617.06-1.236.082-1.853.08-2.3.134-4.6.186-6.9q.095-4.142.166-8.285c.037-2.123.074-4.246.089-6.369.022-3.105.017-6.206.11-9.311a99.341,99.341,0,0,0,.068-10.155A14.537,14.537,0,0,0,358.8,11.2a4.657,4.657,0,0,0-1.356-2.206,3.631,3.631,0,0,0-2.291-.776.27.27,0,0,0,0,.539" transform="translate(-244.996 -5.979)" fill="#5f009f"/>
        <path id="Path_322" data-name="Path 322" d="M383.133,193.792a1.078,1.078,0,1,0-1.078-1.078,1.09,1.09,0,0,0,1.078,1.078" transform="translate(-283.03 -141.967)" fill="#5f009f"/>
        <path id="Path_323" data-name="Path 323" d="M384.428,194.592a.648.648,0,0,0,0-1.3.648.648,0,0,0,0,1.3" transform="translate(-284.326 -143.196)" fill="#fff"/>
        <path id="Path_324" data-name="Path 324" d="M413.093,192.376a.547.547,0,0,0,.065-.05.272.272,0,0,0-.086-.44.278.278,0,0,0-.247.016c-.115.058-.223.13-.333.2l-.57.349a.274.274,0,0,0,0,.467l.863.589.126.086a.272.272,0,0,0,.37-.1.277.277,0,0,0-.1-.37l-.863-.589-.126-.086v.467c.246-.151.493-.3.741-.452.043-.026.086-.052.13-.076l.028-.015.007,0a.263.263,0,0,1-.269,0l-.124-.162-.01-.072.037-.137a.247.247,0,0,1,.091-.092l0,0a.271.271,0,0,0,.273.467" transform="translate(-305.06 -142.135)" fill="#5f009f"/>
        <path id="Path_325" data-name="Path 325" d="M354.945,191.961l.864.589.124.085q.033-.247.065-.495-.432.162-.856.347c-.072.031-.143.063-.214.1l-.055.026c-.05.023.031-.014.04-.016h.144l.162.4c-.08.113-.135.119-.09.093a.271.271,0,1,0-.273-.467.338.338,0,0,0-.1.1.273.273,0,0,0,.162.4.357.357,0,0,0,.267-.054l.2-.09.147-.064.04-.017c.047-.02-.063.026,0,0l.1-.041q.238-.1.48-.188a.272.272,0,0,0,.065-.495l-.864-.589-.124-.085a.272.272,0,0,0-.37.1.277.277,0,0,0,.1.37" transform="translate(-262.774 -141.833)" fill="#5f009f"/>
        <path id="Path_326" data-name="Path 326" d="M393.606,14.555a.337.337,0,0,0,0-.674.337.337,0,0,0,0,.674" transform="translate(-291.348 -10.283)" fill="#5f009f"/>
        <path id="Path_327" data-name="Path 327" d="M389.447,14.555a.337.337,0,0,0,0-.674.337.337,0,0,0,0,.674" transform="translate(-288.266 -10.283)" fill="#5f009f"/>
        <path id="Path_328" data-name="Path 328" d="M385.287,14.555a.337.337,0,0,0,0-.674.337.337,0,0,0,0,.674" transform="translate(-285.184 -10.283)" fill="#5f009f"/>
        <path id="Path_329" data-name="Path 329" d="M381.126,14.555a.337.337,0,0,0,0-.674.337.337,0,0,0,0,.674" transform="translate(-282.103 -10.283)" fill="#5f009f"/>
        <path id="Path_330" data-name="Path 330" d="M376.966,14.555a.337.337,0,0,0,0-.674.337.337,0,0,0,0,.674" transform="translate(-279.02 -10.283)" fill="#5f009f"/>
        <path id="Path_331" data-name="Path 331" d="M360.476,20.158c4.927.059,3.078,8.806,3.212,20.669.026,2.325-.289,18.746-.452,20.943-.2,2.677-13.964,1.31-16.483,1.354-8.019.143-6.752-.1-6.749-9.227,0-7.215.064-14.656-.018-21.868-.028-2.558-.14-10.234,1.249-11.181,1.879-1.282,16.262-.655,19.241-.69" transform="translate(-251.824 -14.843)" fill="#dfb6ff"/>
        <path id="Path_332" data-name="Path 332" d="M367.814,31.576H352.18a1.3,1.3,0,1,0,0,2.593h15.634a1.3,1.3,0,1,0,0-2.593" transform="translate(-259.938 -23.392)" fill="#fff"/>
        <g id="Group_80" data-name="Group 80" transform="translate(91.239 37.393)" opacity="0.9">
          <g id="Group_79" data-name="Group 79">
            <g id="Group_78" data-name="Group 78" clip-path="url(#clip-path-3)">
              <path id="Path_333" data-name="Path 333" d="M352.844,144.282c3.078.158,7.278,0,10.063,0,1.258,0,1.572-.2,1.708,1.078a14.329,14.329,0,0,1,0,2.606c-.09,1.168-.058,1.522-1.168,1.572-1.526.071-2.7,0-3.863,0-1.438,0-3.134-.137-3.235.135-.427,1.146-.831,1.663-2.336,1.527a1.5,1.5,0,0,0,.719-1.707c-2.179-.123-2.336.269-2.605-1.707-.09-.988-.384-3.516.719-3.5" transform="translate(-352.022 -144.27)" fill="#5f009f" fill-rule="evenodd"/>
            </g>
          </g>
        </g>
        <path id="Path_334" data-name="Path 334" d="M367.853,153.365a.486.486,0,0,0,0-.972.486.486,0,0,0,0,.972" transform="translate(-272.163 -112.895)" fill="#fff"/>
        <path id="Path_335" data-name="Path 335" d="M375.951,153.365a.486.486,0,0,0,0-.972.486.486,0,0,0,0,.972" transform="translate(-278.162 -112.895)" fill="#fff"/>
        <path id="Path_336" data-name="Path 336" d="M384.049,153.365a.486.486,0,0,0,0-.972.486.486,0,0,0,0,.972" transform="translate(-284.161 -112.895)" fill="#fff"/>
        <path id="Path_337" data-name="Path 337" d="M308.849,65.237c-.153-1.111-.363-2.211-.56-3.315-.22-1.234-.376-2.478-.538-3.72-.361-2.77-.808-5.631-2.33-8.024a.663.663,0,0,1-.216.148c-.766.279-1.542.527-2.313.788-.952.322-1.9.655-2.856.966-1.486.484-2.985.929-4.464,1.434-1.646.562-3.262,1.213-4.914,1.75-1.566.509-3.129,1.036-4.74,1.408-1.209.28-2.393.668-3.608,1.015.108.918.23,1.8.313,2.694.145,1.563.263,3.127.4,4.691.136,1.584.3,3.166.411,4.752.077,1.115.065,2.236.124,3.351.039.726.136,1.449.214,2.239a13.642,13.642,0,0,0,1.365-.112q2.538-.466,5.067-.978c2.4-.487,4.807-.977,7.2-1.5,2.671-.579,5.336-1.189,8-1.792.922-.209,1.842-.434,2.76-.661.158-.039.3-.075.43.032a4.668,4.668,0,0,0,.46-2.111,17.991,17.991,0,0,0-.207-3.059" transform="translate(-209.139 -37.173)" fill="#bd6cf3"/>
        <g id="Group_83" data-name="Group 83" transform="translate(73.171 19.167)" opacity="0.4">
          <g id="Group_82" data-name="Group 82">
            <g id="Group_81" data-name="Group 81" clip-path="url(#clip-path-5)">
              <path id="Path_338" data-name="Path 338" d="M308.619,81.39c-.936.278-1.875.55-2.818.809-1.652.455-3.313.878-4.985,1.254q-1.265.284-2.536.532c-.688.133-1.379.241-2.067.375-1.113.217-2.212.5-3.333.671a7.809,7.809,0,0,1-3.244-.025,3.286,3.286,0,0,1-1.266-.647,2.919,2.919,0,0,1-.824-1.2,10.269,10.269,0,0,1-.571-3.383c-.044-1.3.024-2.6.107-3.89.042-.645.091-1.291.127-1.937-.427.119-.857.232-1.291.332-1.209.28-2.393.668-3.608,1.015.108.918.23,1.8.313,2.694.145,1.563.263,3.127.4,4.691.136,1.584.3,3.166.411,4.752.077,1.115.065,2.235.125,3.351.039.726.136,1.449.214,2.239a13.642,13.642,0,0,0,1.365-.112q2.538-.466,5.067-.978c2.4-.487,4.807-.977,7.2-1.5,2.671-.579,5.336-1.189,8-1.792.923-.209,1.842-.434,2.76-.661.157-.039.3-.075.43.032a4.666,4.666,0,0,0,.46-2.111,17.985,17.985,0,0,0-.207-3.059c-.067-.488-.147-.974-.23-1.459" transform="translate(-282.31 -73.952)" fill="#3e056b"/>
            </g>
          </g>
        </g>
        <path id="Path_339" data-name="Path 339" d="M78.706,55.058c-.924-.289-1.855-.56-2.777-.856-1.514-.486-3.01-1.035-4.539-1.468-2.4-.68-4.74-1.55-7.1-2.354-.324-.11-.665-.173-1-.259a2.228,2.228,0,0,1-.368-.108c-.146-.068-.3-.152-.3-.314a6.709,6.709,0,0,0-2.534,3.723,27.617,27.617,0,0,0-1.14,6.5c-.059.71-.106,1.418-.2,2.124-.124.926-.258,1.852-.355,2.782a18.188,18.188,0,0,0-.119,3.014,5.252,5.252,0,0,0,.194,1.217,1.982,1.982,0,0,0,.274.578c.08-.135.226-.151.439-.1.941.227,1.882.451,2.829.649,2.445.511,4.9,1,7.338,1.515,1.915.406,3.826.836,5.734,1.275,1.823.419,3.638.873,5.462,1.293.663.153,1.338.256,2.042.387.962-5.916,1.436-11.849,2.144-17.794-1.448-.419-2.846-.817-4.241-1.229-.6-.177-1.186-.387-1.781-.574" transform="translate(-43.152 -36.818)" fill="#bd6cf3"/>
        <g id="Group_86" data-name="Group 86" transform="translate(15.098 18.553)" opacity="0.4">
          <g id="Group_85" data-name="Group 85">
            <g id="Group_84" data-name="Group 84" clip-path="url(#clip-path-6)">
              <path id="Path_340" data-name="Path 340" d="M80.487,71.843c-.274-.081-.547-.17-.819-.26q-.039.339-.072.677c-.1.94-.174,1.88-.272,2.819a33.279,33.279,0,0,1-.517,3.521,10.245,10.245,0,0,1-1.021,2.952,3.952,3.952,0,0,1-.813,1.046,2.91,2.91,0,0,1-1.37.626A9.271,9.271,0,0,1,72.038,83c-1.31-.273-2.614-.588-3.918-.892-1.745-.407-3.488-.818-5.229-1.243q-2.178-.533-4.345-1.107c-.056.427-.109.855-.154,1.283a18.184,18.184,0,0,0-.119,3.013,5.253,5.253,0,0,0,.194,1.217,1.982,1.982,0,0,0,.274.578c.08-.135.226-.151.439-.1.941.227,1.882.45,2.829.649,2.445.511,4.9,1,7.338,1.515,1.915.406,3.826.836,5.734,1.275,1.823.419,3.638.873,5.462,1.293.663.153,1.338.256,2.042.387.962-5.916,1.436-11.849,2.144-17.794-1.448-.419-2.846-.817-4.241-1.229" transform="translate(-58.25 -71.583)" fill="#5f009f"/>
            </g>
          </g>
        </g>
        <path id="Path_341" data-name="Path 341" d="M106.94,78.476a.932.932,0,0,0-.118.185,1.735,1.735,0,0,1-.7,1.117,3.662,3.662,0,0,1-2.021.576.8.8,0,0,1-.368-.095,8.621,8.621,0,0,1-1.958-1.316,10.531,10.531,0,0,0-.948-.812c-.664.416-1.267.823-1.9,1.181a1.916,1.916,0,0,1-2.845-.923c-.032-.078-.077-.151-.155-.3a2.391,2.391,0,0,1-2.091.145c-.724-.248-1.291-.6-1.349-1.478a2.424,2.424,0,0,1-1.762-.02,2.19,2.19,0,0,1-1-1.286c-.415-.131-.825-.247-1.224-.393a2.346,2.346,0,0,1-.565-.306,1.271,1.271,0,0,1-.609-1.38c.041-.186.053-.378.086-.619-.867-.464-1.427-1.49-2.676-1.455-.041.8-.092,1.544-.112,2.291-.012.454-.025.538-.445.623a1.924,1.924,0,0,1-.759,0q-1.008-.21-2-.482c-2.929-.808-5.9-1.4-8.889-1.957-.781-.145-1.545-.379-2.322-.549q-3.027-.663-6.058-1.3c-1.2-.252-2.406-.481-3.608-.725-.225-.045-.446-.111-.675-.168.015-.413.188-.484.509-.407.941.227,1.882.45,2.829.649,2.445.511,4.9,1,7.338,1.515,1.915.406,3.826.836,5.734,1.275,1.823.419,3.638.873,5.462,1.293.663.153,1.337.256,2.041.387.962-5.916,1.436-11.849,2.144-17.794-1.447-.419-2.846-.817-4.24-1.229-.6-.177-1.186-.387-1.781-.574-.925-.289-1.855-.56-2.777-.856-1.514-.486-3.01-1.035-4.539-1.468-2.4-.68-4.74-1.55-7.1-2.354-.324-.11-.665-.173-1-.259a2.232,2.232,0,0,1-.367-.108c-.178-.082-.374-.187-.281-.432s.3-.192.491-.126c1.038.355,2.072.721,3.114,1.062,2.392.784,4.789,1.551,7.181,2.333,1.145.375,2.277.788,3.425,1.148,1.723.541,3.454,1.054,5.183,1.574q1.389.418,2.784.819c.483.14.512.158.477.669-.024.335-.086.667-.131,1a7.642,7.642,0,0,0,2.826.5c1.675.032,3.354-.1,5.032-.159a.544.544,0,0,0,.538-.266A2.731,2.731,0,0,1,96.216,56.1c1.734-.76,3.469-1.519,5.223-2.233a5.575,5.575,0,0,1,3.548-.15,14.781,14.781,0,0,1,3.093,1.278c1.3.664,2.562,1.4,3.831,2.127.41.234.781.534,1.187.776a.67.67,0,0,0,.469.086c1.115-.316,2.223-.657,3.288-.976.043-.074.061-.092.062-.11.024-.853-.035-.946,1.024-1.248,2.854-.814,5.711-1.624,8.541-2.518,2.932-.927,5.834-1.952,8.75-2.933q2.447-.823,4.9-1.642c.242-.081.49-.228.705.16a1.609,1.609,0,0,1-.413.338c-.766.279-1.541.527-2.313.788-.952.322-1.9.655-2.855.966-1.486.484-2.985.929-4.464,1.434-1.646.562-3.262,1.213-4.914,1.75-1.566.509-3.129,1.036-4.74,1.408-1.209.28-2.393.669-3.608,1.015.108.918.23,1.8.313,2.694.145,1.563.263,3.127.4,4.691.136,1.584.3,3.166.411,4.752.077,1.115.065,2.235.124,3.351.039.726.136,1.449.214,2.239a13.638,13.638,0,0,0,1.365-.112q2.538-.466,5.067-.978c2.4-.487,4.807-.977,7.2-1.5,2.671-.578,5.336-1.189,8-1.791.922-.209,1.842-.434,2.76-.661.2-.049.378-.1.529.151a1.232,1.232,0,0,1-.785.454c-.962.185-1.9.477-2.856.706-1.168.279-2.342.532-3.511.8-1.234.287-2.462.6-3.7.872-.733.162-1.479.269-2.217.414-1.181.232-2.362.462-3.538.717-1.427.31-2.842.676-4.273.961-1.114.222-2.246.353-3.367.533-.357.057-.709.141-1.124.225-.324-1-.078-2.04-.356-3.05l-2.15.23a5.64,5.64,0,0,1,.023.583,6.189,6.189,0,0,1-.136,1.332c-.276.911-.857,1.17-1.8,1.022a2.473,2.473,0,0,1-.455-.174l-.21.851a2.22,2.22,0,0,1-1.664,1.7,1.305,1.305,0,0,1-1.081-.273,3.154,3.154,0,0,0-.365-.22c-.21.814-.38,1.624-1.2,1.984a1.966,1.966,0,0,1-2.2-.448m1.757-9.959.072-.15a.991.991,0,0,1,.364.071,1.438,1.438,0,0,1,.293.34c.983,1.279,1.953,2.568,2.95,3.836a16.169,16.169,0,0,0,1.442,1.651.917.917,0,0,0,1.579-.6,3.383,3.383,0,0,0-.11-1.589,17.978,17.978,0,0,0-2.714-4.934c-.683-.913-1.412-1.791-2.112-2.691a4.772,4.772,0,0,0-2.008-1.667c-.722-.277-1.44-.575-2.178-.8-1.478-.446-2.969-.851-4.457-1.265-.761-.212-1.529-.406-2.259-.6-.607.676-1.173,1.319-1.753,1.95A8.266,8.266,0,0,1,94.854,64a2.744,2.744,0,0,1-3.151-.647c-.314-.31-.336-.4-.107-.783.265-.441.573-.858.828-1.3.584-1.024,1.147-2.059,1.74-3.129-.212-.011-.376-.03-.539-.026-1.484.04-2.968.086-4.452.123a3.672,3.672,0,0,1-.578-.054c-.741-.1-1.482-.209-2.27-.32-.064.335-.142.646-.178.961-.174,1.561-.328,3.125-.506,4.686-.209,1.837-.446,3.671-.652,5.508-.061.545-.061,1.1-.089,1.645,1.251.029,1.883.995,2.742,1.557,1.359-2.524,3.335-2.424,4.745-.979a5.916,5.916,0,0,1,2.246-1.556,3.189,3.189,0,0,1,1.766-.251,2.137,2.137,0,0,1,1.64,1.516c.264-.083.505-.168.751-.236a2.1,2.1,0,0,1,2.689,1.142c.137-.031.28-.067.424-.094a3.28,3.28,0,0,1,2.024.159c.832.379,1.073,1.055.545,2.031a11.29,11.29,0,0,1-.733,1.07c.263.212.521.4.755.611.886.814,1.753,1.65,2.649,2.452a1.418,1.418,0,0,0,2.44-.624c.059-.162.093-.334.163-.49a.655.655,0,0,0-.156-.77c-.19-.2-.421-.37-.6-.582-.563-.671-1.1-1.359-1.664-2.033-.329-.4-.687-.77-1.013-1.17a1.4,1.4,0,0,1-.158-.412l.138-.1a2.435,2.435,0,0,1,.43.319c.509.584,1,1.182,1.5,1.775s.975,1.207,1.508,1.768a6.556,6.556,0,0,0,1.189.982,1,1,0,0,0,1.4-.2,2.323,2.323,0,0,0,.119-3.119q-1.76-2.225-3.508-4.459a2.694,2.694,0,0,1-.235-.451m9.478,2.8c-.03-1.11-.025-2.183-.1-3.251-.086-1.287-.242-2.57-.356-3.855-.171-1.907-.326-3.816-.5-5.722a8.353,8.353,0,0,0-.2-.939L113.1,58.8a5.646,5.646,0,0,0-.533-.534c-.464-.347-.932-.692-1.42-1a32.753,32.753,0,0,0-4.888-2.555,5.971,5.971,0,0,0-5.4.06c-.7.372-1.443.671-2.169,1-1,.447-2.012.875-3.006,1.337a1.243,1.243,0,0,0-.509.462c-.99,1.663-1.959,3.338-2.938,5.008-.1.17-.123.322.05.454a2.143,2.143,0,0,0,1.722.542,6.793,6.793,0,0,0,3.281-1.829,29.584,29.584,0,0,0,2.072-2.223c.208.046.5.1.786.177q2.115.573,4.225,1.158c.7.194,1.4.386,2.094.609.757.245,1.514.5,2.249.8a2.845,2.845,0,0,1,1.014.649c.821.905,1.617,1.838,2.369,2.8a28.421,28.421,0,0,1,2.872,4.282c.276.53.586,1.044.885,1.572l2.32-.243m-20.888.116a1.252,1.252,0,0,0-1.339-1.364,5.037,5.037,0,0,0-2.976,1.411,2.174,2.174,0,0,0-.593.753,6.447,6.447,0,0,1-1.9,2.721.432.432,0,0,0-.12.571,1.292,1.292,0,0,0,1.513.81A4.9,4.9,0,0,0,93.947,75.2a13.947,13.947,0,0,0,1.309-1.151,23.012,23.012,0,0,0,1.609-1.757,3.524,3.524,0,0,0,.422-.863m2.5-.13c-1.105-.072-1.692.126-2.134.8a11.053,11.053,0,0,1-2.211,2.5q-.965.792-1.957,1.55a.809.809,0,0,0-.352.712.771.771,0,0,0,.511.692,2.624,2.624,0,0,0,2.682-.238,16.739,16.739,0,0,0,3.38-3.34,11.132,11.132,0,0,0,1.047-1.537.7.7,0,0,0-.481-1.054,2.9,2.9,0,0,0-.485-.079m3.277,1.017a2.127,2.127,0,0,0-2.266,1.035c-.166.224-.34.441-.51.662a16.075,16.075,0,0,1-3.308,3.421c-.49.35-.512.548-.18,1.057a1.123,1.123,0,0,0,.84.53,2.9,2.9,0,0,0,2.087-.7,15.585,15.585,0,0,0,2.547-2.46c.562-.622,1.158-1.219,1.658-1.889.511-.686.291-1.263-.509-1.561a2.276,2.276,0,0,0-.357-.091m-1.936,5.427c.782.617,1.531,1.215,2.289,1.8a1.112,1.112,0,0,0,.411.164,2.307,2.307,0,0,0,2.129-.641A1,1,0,0,0,106,77.629a7.179,7.179,0,0,0-.554-.537c-.657-.579-1.317-1.153-2.03-1.776l-2.287,2.43M91.8,71.882a1.571,1.571,0,0,0-2.708-.627,3.442,3.442,0,0,0-1.106,1.776,1.086,1.086,0,0,0,.642,1.521,3.054,3.054,0,0,0,.853.262.711.711,0,0,0,.478-.111,5.483,5.483,0,0,0,1.668-2.092,3.47,3.47,0,0,0,.173-.729" transform="translate(-44.353 -35.899)" fill="#5f009f" fill-rule="evenodd"/>
        <path id="Path_342" data-name="Path 342" d="M180.238,95.395a2.732,2.732,0,0,0,.235.451q1.747,2.235,3.508,4.459a2.324,2.324,0,0,1-.119,3.119,1,1,0,0,1-1.4.2,6.537,6.537,0,0,1-1.189-.982c-.532-.561-1.008-1.175-1.507-1.768s-.992-1.191-1.5-1.775a2.431,2.431,0,0,0-.43-.319l-.138.1a1.409,1.409,0,0,0,.158.412c.326.4.683.773,1.013,1.17.56.673,1.1,1.362,1.663,2.032.178.212.408.379.6.582a.656.656,0,0,1,.156.769c-.07.157-.1.329-.162.49a1.418,1.418,0,0,1-2.441.624c-.9-.8-1.763-1.638-2.65-2.452-.233-.214-.492-.4-.755-.611a11.355,11.355,0,0,0,.733-1.07c.527-.977.287-1.652-.545-2.031a3.28,3.28,0,0,0-2.024-.158c-.144.026-.287.063-.424.094a2.1,2.1,0,0,0-2.689-1.142c-.246.068-.487.152-.752.236a2.137,2.137,0,0,0-1.639-1.516,3.192,3.192,0,0,0-1.765.251,5.914,5.914,0,0,0-2.246,1.557c-1.41-1.445-3.386-1.545-4.746.979-.858-.562-1.491-1.527-2.741-1.557.028-.549.028-1.1.089-1.645.206-1.837.442-3.671.651-5.508.178-1.561.332-3.125.506-4.686.036-.315.114-.626.177-.961.788.111,1.529.218,2.27.32a3.6,3.6,0,0,0,.578.054c1.484-.037,2.968-.083,4.452-.123.163,0,.327.015.539.026-.593,1.07-1.156,2.106-1.74,3.129-.255.447-.563.863-.828,1.3-.229.38-.207.474.107.783a2.744,2.744,0,0,0,3.151.647,8.265,8.265,0,0,0,2.952-1.932c.58-.63,1.146-1.274,1.753-1.95.729.193,1.5.386,2.259.6,1.488.414,2.979.818,4.457,1.265.739.223,1.456.521,2.179.8A4.775,4.775,0,0,1,182,91.327c.7.9,1.429,1.778,2.112,2.691a17.974,17.974,0,0,1,2.714,4.934,3.382,3.382,0,0,1,.11,1.589.917.917,0,0,1-1.579.6,16.2,16.2,0,0,1-1.442-1.651c-1-1.268-1.967-2.557-2.95-3.836a1.441,1.441,0,0,0-.293-.34.99.99,0,0,0-.364-.071l-.072.15" transform="translate(-115.895 -62.777)" fill="#fff" fill-rule="evenodd"/>
        <path id="Path_343" data-name="Path 343" d="M210.457,87.407l-2.32.243c-.3-.528-.609-1.042-.885-1.572A28.42,28.42,0,0,0,204.38,81.8c-.752-.964-1.548-1.9-2.369-2.8a2.848,2.848,0,0,0-1.014-.65c-.735-.3-1.492-.554-2.249-.8-.692-.223-1.393-.415-2.094-.61q-2.11-.586-4.225-1.158c-.286-.078-.578-.131-.786-.178a29.523,29.523,0,0,1-2.071,2.223,6.792,6.792,0,0,1-3.281,1.83,2.143,2.143,0,0,1-1.722-.543c-.173-.132-.15-.284-.05-.454.979-1.67,1.948-3.345,2.938-5.007a1.239,1.239,0,0,1,.509-.462c.995-.462,2-.891,3.006-1.337.726-.324,1.467-.624,2.169-1a5.97,5.97,0,0,1,5.4-.06,32.772,32.772,0,0,1,4.888,2.556c.487.313.955.658,1.419,1a5.636,5.636,0,0,1,.533.533l3.92-1.249a8.285,8.285,0,0,1,.2.939c.175,1.906.331,3.815.5,5.722.114,1.285.271,2.568.356,3.855.071,1.068.066,2.141.1,3.251" transform="translate(-136.637 -51.989)" fill="#fff" fill-rule="evenodd"/>
        <path id="Path_344" data-name="Path 344" d="M184.275,133.18a3.508,3.508,0,0,1-.422.863,23.009,23.009,0,0,1-1.609,1.757,13.876,13.876,0,0,1-1.309,1.151,4.9,4.9,0,0,1-2.071,1.132,1.293,1.293,0,0,1-1.513-.81.432.432,0,0,1,.121-.571,6.44,6.44,0,0,0,1.9-2.721,2.172,2.172,0,0,1,.593-.753,5.035,5.035,0,0,1,2.976-1.411,1.251,1.251,0,0,1,1.338,1.364" transform="translate(-131.342 -97.647)" fill="#fff" fill-rule="evenodd"/>
        <path id="Path_345" data-name="Path 345" d="M194.849,136.555a2.873,2.873,0,0,1,.485.079.7.7,0,0,1,.481,1.054,11.156,11.156,0,0,1-1.047,1.537,16.733,16.733,0,0,1-3.38,3.34,2.624,2.624,0,0,1-2.682.238.771.771,0,0,1-.511-.692.807.807,0,0,1,.352-.712q.992-.757,1.957-1.55a11.052,11.052,0,0,0,2.211-2.5c.441-.669,1.028-.867,2.134-.8" transform="translate(-139.417 -101.152)" fill="#fff" fill-rule="evenodd"/>
        <path id="Path_346" data-name="Path 346" d="M207.972,140.5a2.218,2.218,0,0,1,.357.091c.8.3,1.02.876.509,1.561-.5.669-1.1,1.267-1.659,1.889a15.559,15.559,0,0,1-2.547,2.46,2.9,2.9,0,0,1-2.087.7,1.121,1.121,0,0,1-.839-.53c-.332-.509-.309-.707.18-1.057a16.08,16.08,0,0,0,3.308-3.42c.17-.221.344-.439.51-.663a2.128,2.128,0,0,1,2.267-1.035" transform="translate(-149.262 -104.084)" fill="#fff" fill-rule="evenodd"/>
        <path id="Path_347" data-name="Path 347" d="M219.046,154.509l2.287-2.43c.713.623,1.374,1.2,2.03,1.776a7.136,7.136,0,0,1,.554.537,1,1,0,0,1-.043,1.439,2.307,2.307,0,0,1-2.129.641,1.11,1.11,0,0,1-.41-.164c-.758-.585-1.507-1.182-2.289-1.8" transform="translate(-162.272 -112.662)" fill="#fff" fill-rule="evenodd"/>
        <path id="Path_348" data-name="Path 348" d="M171.872,135.764a3.47,3.47,0,0,1-.173.729,5.483,5.483,0,0,1-1.668,2.092.711.711,0,0,1-.478.111,3.056,3.056,0,0,1-.853-.262,1.086,1.086,0,0,1-.642-1.521,3.442,3.442,0,0,1,1.106-1.776,1.572,1.572,0,0,1,2.708.627" transform="translate(-124.429 -99.781)" fill="#fff" fill-rule="evenodd"/>
        <path id="Path_349" data-name="Path 349" d="M300.336,128.059a1.253,1.253,0,1,0-.4,2.471c1.663.269,2.067-2.381.4-2.471" transform="translate(-221.378 -94.857)" fill="#bd6cf3" fill-rule="evenodd"/>
        <path id="Path_350" data-name="Path 350" d="M298.478,125.561a2.151,2.151,0,0,0-1.252.23,1.752,1.752,0,0,0-.778.912,1.961,1.961,0,0,0,2.7,2.441,2.016,2.016,0,0,0,1.04-1.819,1.867,1.867,0,0,0-.451-1.207,1.776,1.776,0,0,0-1.26-.558.651.651,0,0,0-.648.648.663.663,0,0,0,.648.648l.1.009c-.24-.019-.1-.014-.04,0,.03.007.06.015.089.024l.053.018c.087.027-.148-.069-.084-.037s.1.055.156.086c0,0,.032.024.033.023s-.136-.115-.084-.064c.023.023.05.044.073.068s.035.039.052.058c.059.065-.108-.158-.043-.053.031.05.058.1.085.153s-.066-.182-.028-.064c.009.028.019.056.026.085s.013.051.019.077,0,.026.008.039c.023.11-.018-.165-.012-.093s.01.114.01.171c0,.08-.041.294.008.031a2.468,2.468,0,0,1-.089.337c-.023.069.083-.174.024-.061-.012.024-.024.049-.037.073-.03.054-.066.1-.1.155.134-.205.031-.04-.026.016-.022.022-.045.042-.068.062-.1.088.132-.09.041-.033-.05.032-.1.061-.153.089-.114.06.144-.05.057-.024-.035.01-.068.023-.1.033s-.058.013-.087.019c-.134.03.156-.01.059-.008a2.169,2.169,0,0,1-.218,0c-.15-.011.161.033.031.006-.031-.007-.063-.013-.094-.021s-.06-.016-.09-.026l-.054-.019c-.088-.029.146.067.081.036a1.825,1.825,0,0,1-.165-.088l-.071-.048c-.042-.028-.061-.078.081.063-.015-.015-.033-.027-.048-.041-.041-.037-.079-.077-.116-.118-.087-.094.088.126.038.051-.019-.028-.039-.055-.057-.084-.031-.049-.055-.1-.081-.151-.016-.031.073.187.027.062-.012-.031-.022-.063-.031-.095-.016-.054-.026-.109-.037-.165-.017-.092.019.2.011.074,0-.033,0-.065,0-.1,0-.053,0-.1.007-.156,0-.073-.036.2-.009.076.007-.032.013-.063.021-.094s.018-.062.029-.092c.051-.143-.055.11-.021.048s.059-.106.092-.159c.054-.087-.122.139-.036.046.023-.024.044-.049.068-.072a.7.7,0,0,0,.075-.066s-.146.1-.082.065c.017-.01.034-.024.052-.034s.054-.033.083-.047l.048-.024c.082-.041-.152.058-.083.035a2.025,2.025,0,0,1,.213-.061l.048-.009c.105-.023-.181.017-.072.01.045,0,.089-.007.133-.008a2.126,2.126,0,0,1,.291.014.648.648,0,0,0,.458-.19.659.659,0,0,0,.19-.458.666.666,0,0,0-.648-.648" transform="translate(-219.52 -93.007)" fill="#5f009f"/>
        <path id="Path_351" data-name="Path 351" d="M303.357,130.767a.337.337,0,0,0,0-.674.337.337,0,0,0,0,.674" transform="translate(-224.49 -96.375)" fill="#5f009f"/>
        <path id="Path_352" data-name="Path 352" d="M302.318,133.715a.337.337,0,0,0,0-.674.337.337,0,0,0,0,.674" transform="translate(-223.72 -98.559)" fill="#5f009f"/>
        <path id="Path_353" data-name="Path 353" d="M284.331,77.3c.138,1.244.249,2.489.378,3.734.126,1.217.352,2.42.518,3.631.175,1.27.223,2.551.31,3.829.073,1.081.151,2.161.2,3.243.027.645.013,1.3.084,1.937a12.084,12.084,0,0,0,.362,1.865.169.169,0,0,0,.325-.09,11.7,11.7,0,0,1-.343-1.719c-.064-.553-.057-1.111-.077-1.667-.039-1.1-.115-2.195-.19-3.291-.082-1.2-.121-2.409-.264-3.6-.149-1.24-.385-2.467-.535-3.707-.168-1.384-.272-2.777-.426-4.162-.024-.213-.361-.216-.337,0" transform="translate(-210.635 -57.143)" fill="#5f009f"/>
        <path id="Path_354" data-name="Path 354" d="M286.672,77.48c.138,1.244.248,2.489.377,3.734.126,1.211.35,2.408.516,3.613.176,1.276.225,2.563.312,3.847.073,1.081.151,2.161.2,3.243.027.645.013,1.3.084,1.937a12,12,0,0,0,.359,1.847.1.1,0,0,0,.195-.054,11.78,11.78,0,0,1-.346-1.737c-.064-.553-.057-1.111-.077-1.667-.039-1.1-.115-2.195-.19-3.291-.082-1.2-.121-2.409-.264-3.6-.149-1.24-.385-2.467-.535-3.707-.168-1.383-.272-2.777-.426-4.162-.014-.128-.216-.129-.2,0" transform="translate(-212.37 -57.327)" fill="#5f009f"/>
        <path id="Path_355" data-name="Path 355" d="M150.994,75.389a12.5,12.5,0,0,1-.257,3.515c-.2,1.166-.339,2.341-.545,3.507-.2,1.127-.412,2.252-.564,3.386-.158,1.176-.213,2.362-.285,3.547-.084,1.387-.176,2.774-.365,4.151-.029.212.3.3.325.089.327-2.375.318-4.773.583-7.152.136-1.217.362-2.421.576-3.625.208-1.167.347-2.344.547-3.511a14,14,0,0,0,.321-3.906c-.024-.213-.361-.216-.337,0" transform="translate(-110.364 -55.73)" fill="#5f009f"/>
        <path id="Path_356" data-name="Path 356" d="M149.17,75.573a12.559,12.559,0,0,1-.259,3.532c-.2,1.166-.339,2.341-.545,3.507-.2,1.124-.411,2.246-.563,3.377-.158,1.173-.212,2.357-.283,3.538-.084,1.393-.178,2.786-.368,4.169-.017.127.177.182.195.054.326-2.369.316-4.761.581-7.134.137-1.223.363-2.433.579-3.643.208-1.167.347-2.344.547-3.511a13.935,13.935,0,0,0,.319-3.888c-.014-.128-.216-.129-.2,0" transform="translate(-109.011 -55.914)" fill="#5f009f"/>
        <path id="Path_357" data-name="Path 357" d="M134.029,128.059a1.253,1.253,0,1,1,.4,2.471c-1.662.269-2.067-2.381-.4-2.471" transform="translate(-98.503 -94.857)" fill="#bd6cf3" fill-rule="evenodd"/>
        <path id="Path_358" data-name="Path 358" d="M132.2,126.856a2.213,2.213,0,0,1,.249-.015c.036,0,.073,0,.109,0l.066.005c.1.008-.159-.026-.084-.012a1.8,1.8,0,0,1,.2.046c.013,0,.08.018.086.03s-.17-.08-.094-.039l.058.029c.05.026.093.06.141.089-.175-.1-.1-.083-.053-.037.025.022.048.045.071.069s.033.04.051.06c-.147-.157-.077-.1-.039-.044q.021.032.04.066c.016.03.069.149.014.018s-.011-.025,0,0,.018.055.025.083.012.05.018.075c.03.152-.01-.131-.006-.057,0,.052.008.1.007.156,0,.026,0,.052,0,.079s0,.026,0,.039c0,.1.033-.187.013-.094-.011.052-.02.1-.034.155q-.012.043-.027.086l-.014.037c-.032.091.036-.087.038-.09-.033.043-.051.1-.08.151-.016.026-.033.051-.05.076-.072.109.1-.122.032-.043-.04.043-.079.086-.123.126l-.032.027c-.058.056.081-.072.082-.062s-.077.054-.088.061c-.05.031-.1.056-.154.083-.072.037.093-.039.093-.039s-.044.016-.054.02c-.033.011-.067.022-.1.031s-.07.016-.106.024c-.13.028.175-.014.044-.007-.074,0-.145,0-.219,0-.125,0,.179.034.058.009-.033-.007-.066-.013-.1-.022s-.055-.017-.083-.025c-.129-.039.156.077.037.016-.05-.025-.1-.053-.144-.083-.108-.068.116.1.049.04-.025-.023-.052-.044-.076-.068s-.038-.039-.057-.059-.1-.122-.015-.013.014.016,0-.009-.037-.058-.053-.088-.026-.048-.038-.073c-.064-.132.05.136.02.051-.021-.058-.041-.116-.057-.176s-.021-.107-.032-.161c.054.262.008.051.008-.031,0-.034,0-.067,0-.1,0-.067.041-.19-.01.053.013-.062.023-.123.042-.183.009-.028.021-.055.029-.083-.064.213-.051.114-.017.048a.971.971,0,0,1,.049-.084c.007-.011.015-.021.022-.032.045-.077-.116.134-.054.069.044-.046.086-.09.132-.132s-.141.1-.083.064l.042-.029a1,1,0,0,1,.09-.052l.038-.018c.084-.044-.167.056-.074.032.037-.01.072-.024.108-.034.011,0,.116-.02.117-.024s-.186.02-.1.014l.077-.006a.648.648,0,0,0,0-1.3,1.829,1.829,0,0,0-1.193.486,1.693,1.693,0,0,0-.481.936,2.091,2.091,0,0,0,.834,2.06,1.949,1.949,0,0,0,2.33-.19,1.994,1.994,0,0,0,.6-1.976,1.778,1.778,0,0,0-.747-1.031,2.057,2.057,0,0,0-1.342-.284.7.7,0,0,0-.458.19.648.648,0,0,0,.458,1.106" transform="translate(-96.675 -93.006)" fill="#5f009f"/>
        <path id="Path_359" data-name="Path 359" d="M136.483,130.767a.337.337,0,0,0,0-.674.337.337,0,0,0,0,.674" transform="translate(-100.867 -96.375)" fill="#5f009f"/>
        <path id="Path_360" data-name="Path 360" d="M137.523,133.715a.337.337,0,0,0,0-.674.337.337,0,0,0,0,.674" transform="translate(-101.637 -98.559)" fill="#5f009f"/>
        <path id="Path_361" data-name="Path 361" d="M243.372,157.1a1.852,1.852,0,0,0,1.585-.977c.048-.072-.068-.14-.116-.068a1.716,1.716,0,0,1-1.469.91c-.087,0-.086.13,0,.135" transform="translate(-180.245 -115.587)" fill="#5f009f"/>
        <path id="Path_362" data-name="Path 362" d="M255.873,151.044a2.01,2.01,0,0,0,1.531-1.352c.035-.169-.224-.242-.26-.072a1.746,1.746,0,0,1-1.343,1.164.135.135,0,0,0,.071.26" transform="translate(-189.431 -110.769)" fill="#5f009f"/>
        <path id="Path_363" data-name="Path 363" d="M267.489,142.623a2.557,2.557,0,0,0,1.208-.884c.049-.072-.068-.14-.116-.068a2.4,2.4,0,0,1-1.127.823c-.08.032-.045.162.036.13" transform="translate(-198.1 -104.929)" fill="#5f009f"/>
        <path id="Path_364" data-name="Path 364" d="M258.14,153.281a3.974,3.974,0,0,0,1.192-.967c.049-.072-.068-.139-.116-.068a3.826,3.826,0,0,1-1.143.919c-.072.048,0,.165.068.116" transform="translate(-191.16 -112.763)" fill="#5f009f"/>
        <path id="Path_365" data-name="Path 365" d="M231.085,165.109a2.472,2.472,0,0,0,1.388-.84c.045-.074-.071-.142-.116-.068a2.34,2.34,0,0,1-1.307.778c-.081.029-.046.16.036.13" transform="translate(-171.131 -121.618)" fill="#5f009f"/>
        <path id="Path_366" data-name="Path 366" d="M173.077,136.544a1.238,1.238,0,0,0-.291,1.356.779.779,0,0,0,.442.38.944.944,0,0,0,.673-.055,2.155,2.155,0,0,0,.826-.725.137.137,0,0,0-.048-.185,13.611,13.611,0,0,0-1.438-.793.138.138,0,0,0-.184.048.136.136,0,0,0,.048.185,13.583,13.583,0,0,1,1.438.793l-.048-.184a1.985,1.985,0,0,1-.635.583.947.947,0,0,1-.273.1.362.362,0,0,1-.05.006l-.055,0a.4.4,0,0,1-.108-.01.441.441,0,0,1-.2-.086c-.005,0-.026-.02-.006,0l-.018-.016c-.015-.014-.03-.027-.043-.042l-.029-.032s-.024-.035-.031-.047-.019-.032-.027-.049-.023-.052-.015-.031a.752.752,0,0,1-.037-.124.4.4,0,0,1-.012-.1.913.913,0,0,1,0-.143,1.223,1.223,0,0,1,.31-.631c.115-.129-.075-.321-.19-.19" transform="translate(-127.926 -101.121)" fill="#5f009f"/>
        <path id="Path_367" data-name="Path 367" d="M173.757,138.008c.43.225.84.487,1.264.725a.067.067,0,0,0,.068-.116c-.423-.238-.833-.5-1.263-.725-.077-.04-.145.076-.068.116" transform="translate(-128.697 -102.145)" fill="#5f009f"/>
        <path id="Path_368" data-name="Path 368" d="M193.776,133.587a1.582,1.582,0,0,0-.72.978.947.947,0,0,0,.2.981.729.729,0,0,0,.545.138,1.381,1.381,0,0,0,.619-.212,2.758,2.758,0,0,0,.551-.5c.092-.109.32-.372.171-.515a2.077,2.077,0,0,0-.188-.144q-.16-.121-.322-.24a7.277,7.277,0,0,0-.723-.486.135.135,0,0,0-.136.233,7.5,7.5,0,0,1,.75.5q.161.118.32.239l.1.078.015.011-.039-.1c0,.024.007-.024,0,0,0,.01-.006.021-.01.031.008-.022,0,.007-.007.014s-.016.03-.025.044a1.23,1.23,0,0,1-.122.161,2.843,2.843,0,0,1-.374.358,1.486,1.486,0,0,1-.164.115.468.468,0,0,1-.129.056,1.11,1.11,0,0,1-.43.082.426.426,0,0,1-.144-.03c-.024-.009.009.005-.013-.006l-.032-.017-.03-.019c-.018-.012.008.009-.014-.011a.534.534,0,0,1-.052-.054c.014.018,0,0-.007-.01s-.015-.023-.022-.035l-.017-.031-.006-.012a.647.647,0,0,1-.025-.076.85.85,0,0,1-.016-.314,1.243,1.243,0,0,1,.031-.162,1.535,1.535,0,0,1,.06-.184,1.28,1.28,0,0,1,.539-.64.135.135,0,0,0-.136-.233" transform="translate(-142.982 -98.95)" fill="#5f009f"/>
        <path id="Path_369" data-name="Path 369" d="M195.187,134.948a7.329,7.329,0,0,1,1.112.826c.055.067.15-.029.1-.1a7.3,7.3,0,0,0-1.112-.826c-.066-.055-.162.039-.1.1" transform="translate(-144.58 -99.888)" fill="#5f009f"/>
        <path id="Path_370" data-name="Path 370" d="M207.659,138.632a2.961,2.961,0,0,0-.569.658,1.11,1.11,0,0,0-.215.8.762.762,0,0,0,.7.508,1.086,1.086,0,0,0,.883-.324,4.306,4.306,0,0,0,.621-.85.137.137,0,0,0-.048-.185c-.391-.235-.838-.361-1.21-.629a.135.135,0,0,0-.184.048.138.138,0,0,0,.048.185c.372.268.82.394,1.21.629l-.048-.184a5.519,5.519,0,0,1-.452.662.966.966,0,0,1-.658.387.82.82,0,0,1-.412-.09.354.354,0,0,1-.182-.194.464.464,0,0,1,.009-.272,1.3,1.3,0,0,1,.149-.324,2.7,2.7,0,0,1,.547-.636c.132-.113-.06-.3-.19-.191" transform="translate(-153.244 -102.67)" fill="#5f009f"/>
        <path id="Path_371" data-name="Path 371" d="M209.311,140.22a8.86,8.86,0,0,1,1.129.606c.072.05.139-.067.068-.116a8.879,8.879,0,0,0-1.129-.607c-.077-.039-.146.077-.068.116" transform="translate(-155.035 -103.785)" fill="#5f009f"/>
        <path id="Path_372" data-name="Path 372" d="M220.034,142.613c-.332.365-.7.981-.421,1.476a.951.951,0,0,0,.722.419,1.314,1.314,0,0,0,.868-.157,1.58,1.58,0,0,0,.616-.741.138.138,0,0,0-.048-.184c-.263-.147-.518-.307-.78-.456a4.227,4.227,0,0,0-.824-.391c-.166-.051-.237.209-.072.26a3.972,3.972,0,0,1,.782.376c.254.145.5.3.759.444l-.048-.185a1.437,1.437,0,0,1-.421.579,1,1,0,0,1-.646.2.839.839,0,0,1-.636-.247.575.575,0,0,1-.061-.524,1.738,1.738,0,0,1,.4-.681c.117-.128-.074-.319-.19-.19" transform="translate(-162.618 -105.618)" fill="#5f009f"/>
        <path id="Path_373" data-name="Path 373" d="M221.014,144.182c.258.143.522.277.779.423a5.161,5.161,0,0,0,.635.426c.081.031.116-.1.036-.13a1.174,1.174,0,0,1-.311-.207,2.118,2.118,0,0,0-.315-.219c-.25-.141-.505-.271-.756-.41-.076-.042-.144.074-.068.116" transform="translate(-163.706 -106.719)" fill="#5f009f"/>
        <path id="Path_374" data-name="Path 374" d="M212.922,154.176a2.725,2.725,0,0,0,1,.782c.076.04.145-.076.068-.116a4.423,4.423,0,0,1-.514-.313,1.8,1.8,0,0,1-.439-.421c-.049-.071-.166,0-.116.068" transform="translate(-157.726 -114.143)" fill="#5f009f"/>
        <path id="Path_375" data-name="Path 375" d="M214.139,153.611a4.432,4.432,0,0,1,.641.414c.074.046.142-.071.068-.116a4.586,4.586,0,0,0-.673-.428.068.068,0,0,0-.083.047.069.069,0,0,0,.047.083" transform="translate(-158.6 -113.698)" fill="#5f009f"/>
        <path id="Path_376" data-name="Path 376" d="M198.634,151.977a6.549,6.549,0,0,0,.923.65c.075.045.142-.071.068-.116a6.351,6.351,0,0,1-.9-.629c-.065-.057-.161.038-.1.1" transform="translate(-147.134 -112.503)" fill="#5f009f"/>
        <path id="Path_377" data-name="Path 377" d="M200.006,150.672a7.011,7.011,0,0,0,.906.684.067.067,0,0,0,.068-.116,6.8,6.8,0,0,1-.879-.663.069.069,0,0,0-.1,0,.068.068,0,0,0,0,.1" transform="translate(-148.153 -111.535)" fill="#5f009f"/>
        <path id="Path_378" data-name="Path 378" d="M185.569,144.868a1.861,1.861,0,0,0,.484.591,2.739,2.739,0,0,0,.652.411c.079.035.147-.081.068-.116a2.182,2.182,0,0,1-1.088-.953c-.038-.078-.154-.01-.116.068" transform="translate(-137.466 -107.245)" fill="#5f009f"/>
        <path id="Path_379" data-name="Path 379" d="M187.058,144.288a2.7,2.7,0,0,0,.833.8c.077.041.145-.075.068-.116a2.544,2.544,0,0,1-.785-.751.07.07,0,0,0-.092-.024.068.068,0,0,0-.024.092" transform="translate(-138.567 -106.815)" fill="#5f009f"/>
        <path id="Path_380" data-name="Path 380" d="M262.507,111.078c1.083.064,1.723-.921,2.055-1.819a6.387,6.387,0,0,0,.219-.73c.051-.211-.274-.3-.325-.089-.228.951-.749,2.373-1.949,2.3-.217-.013-.216.324,0,.337" transform="translate(-194.349 -80.244)" fill="#5f009f"/>
        <path id="Path_381" data-name="Path 381" d="M196.079,81.6a22.714,22.714,0,0,0,1.638,1.915c.118.128.308-.063.191-.191a21.957,21.957,0,0,1-1.6-1.86.139.139,0,0,0-.184-.048.135.135,0,0,0-.048.184" transform="translate(-145.243 -60.3)" fill="#5f009f"/>
        <path id="Path_382" data-name="Path 382" d="M200.09,82.149a6.743,6.743,0,0,1,1.057,1.141.138.138,0,0,0,.184.048.136.136,0,0,0,.048-.184,7.02,7.02,0,0,0-1.1-1.2.138.138,0,0,0-.191,0,.136.136,0,0,0,0,.19" transform="translate(-148.201 -60.688)" fill="#5f009f"/>
        <path id="Path_383" data-name="Path 383" d="M184.339,94.806a2.639,2.639,0,0,0,.98.331.972.972,0,0,0,.813-.362,1.75,1.75,0,0,0,.383-1.741,1.451,1.451,0,0,0-.814-.721.135.135,0,0,0-.166.094.138.138,0,0,0,.094.166,1.2,1.2,0,0,1,.609.506,1.025,1.025,0,0,1,.092.675,1.975,1.975,0,0,1-.317.734.761.761,0,0,1-.629.381,2.13,2.13,0,0,1-.909-.3c-.155-.077-.292.155-.136.233" transform="translate(-136.51 -68.381)" fill="#5f009f"/>
        <path id="Path_384" data-name="Path 384" d="M185.521,100.245a4.668,4.668,0,0,0,1.128.411c.085.017.121-.113.036-.13a4.534,4.534,0,0,1-1.1-.4c-.077-.039-.146.078-.068.116" transform="translate(-137.411 -74.171)" fill="#5f009f"/>
      </g>
    </g>
  </g>
</svg>
