<svg id="Group_241" data-name="Group 241" xmlns="http://www.w3.org/2000/svg" xmlns:xlink="http://www.w3.org/1999/xlink" width="71.397" height="73.704" viewBox="0 0 71.397 73.704">
  <defs>
    <clipPath id="clip-path">
      <rect id="Rectangle_84" data-name="Rectangle 84" width="71.397" height="73.704" fill="none"/>
    </clipPath>
  </defs>
  <g id="Group_96" data-name="Group 96" clip-path="url(#clip-path)">
    <path id="Path_390" data-name="Path 390" d="M3.456,26.246,1.934,27.357A1.167,1.167,0,0,1,.243,27.2,1.154,1.154,0,0,1,.561,25.5q5.928-4.355,11.861-8.7L34.7.461c.837-.614,1.155-.616,2,0Q43.877,5.73,51.057,11q8.376,6.142,16.754,12.282c1.018.747,2.041,1.488,3.053,2.243A1.156,1.156,0,1,1,69.5,27.385q-1.317-.972-2.64-1.939c-.118.1-.074.223-.074.325q0,14.462,0,28.924,0,8.8,0,17.6c0,.994-.411,1.406-1.4,1.406l-35.914,0q-12.295,0-24.59,0c-1.016,0-1.428-.41-1.428-1.421q0-22.777,0-45.554v-.482M64.5,47.543h0q0-5.325,0-10.649,0-6.428.005-12.856a.57.57,0,0,0-.257-.528c-1.06-.765-2.109-1.545-3.163-2.318L43.793,8.515q-3.916-2.871-7.828-5.749a.373.373,0,0,0-.544.016c-.32.257-.658.492-.989.735Q20.26,13.909,6.085,24.3a.7.7,0,0,0-.329.638q.013,11.36.007,22.72,0,11.678-.008,23.356c0,.345.1.4.416.4q5.363-.016,10.725,0c.3,0,.394-.068.393-.385q-.014-13.528-.008-27.056,0-6.259.006-12.519c0-.29-.068-.387-.369-.374-.584.025-1.171.009-1.756.007a1.164,1.164,0,0,1-1.331-1.322q0-2.092,0-4.185c0-.967.42-1.388,1.385-1.388q6.11,0,12.221,0,5.493,0,10.987.008,8.408,0,16.817-.006a1.14,1.14,0,0,1,1.184,1.18q.015,2.242,0,4.484a1.155,1.155,0,0,1-1.243,1.237c-.6.008-1.2.025-1.793-.006-.354-.018-.424.106-.423.435.01,2.491,0,4.983,0,7.474q0,2.223.012,4.446c0,.117-.068.257.132.336.883.348,1.012.553,1.012,1.5,0,3.974,0,7.948-.008,11.921,0,.335.085.406.415.4,2.479-.018,4.958-.014,7.437-.012.948,0,1.361.421,1.361,1.369q0,5.83,0,11.66c0,.8,0,.778.8.8.329.009.384-.111.381-.405C64.492,69.5,64.5,68,64.5,66.49ZM19.6,51.228v1.943q0,8.912-.008,17.824c0,.334.087.41.41.407q2.466-.025,4.933,0c.335,0,.408-.084.407-.409-.012-4.01-.008-8.021-.008-12.031,0-.96.424-1.386,1.386-1.387,2.852,0,5.705-.006,8.557.008.328,0,.411-.079.41-.411-.013-3.924-.008-7.847-.007-11.771a4.76,4.76,0,0,1,.024-.6,1.141,1.141,0,0,1,1.159-1.047c.423-.01.847,0,1.27,0q6.073,0,12.145,0c.179,0,.392.088.39-.264q-.022-5.96-.01-11.92c0-.35-.075-.463-.447-.461-3.213.016-6.427.009-9.64.009H30.3q-5.176,0-10.351-.006c-.277,0-.365.065-.356.35.021.7.007,1.395.007,2.092q0,8.838,0,17.675M34.555,71.42v.006c2.191,0,4.383-.006,6.574.007.308,0,.381-.094.369-.383-.024-.584-.013-1.17-.014-1.754,0-3,0-6,.006-9,0-.321-.05-.468-.418-.443a13.577,13.577,0,0,1-1.568,0c-.3-.014-.373.085-.371.376.013,1.743,0,3.486.007,5.229a1.192,1.192,0,0,1-.616,1.184,1.178,1.178,0,0,1-1.293-.151c-.813-.555-1.64-1.091-2.453-1.645a.349.349,0,0,0-.462,0c-.811.554-1.636,1.089-2.448,1.642a1.168,1.168,0,0,1-1.293.15,1.186,1.186,0,0,1-.61-1.185c.013-1.755,0-3.511.011-5.266,0-.26-.069-.346-.334-.337-.56.019-1.121.023-1.68,0-.294-.012-.347.1-.346.364q.012,5.416,0,10.832c0,.328.113.379.4.377,2.179-.011,4.358-.006,6.537-.006m10.3-13.84h6.614c.185,0,.349.047.348-.265q-.018-5.493,0-10.986c0-.224-.076-.264-.276-.259-.56.012-1.122.019-1.681,0-.276-.011-.354.061-.352.347.015,1.769,0,3.537.01,5.306a1.155,1.155,0,0,1-.61,1.114,1.141,1.141,0,0,1-1.264-.1c-.814-.55-1.644-1.079-2.449-1.642a.431.431,0,0,0-.583.009c-.79.542-1.595,1.062-2.386,1.6a1.18,1.18,0,0,1-1.3.145,1.2,1.2,0,0,1-.634-1.177c.007-1.769,0-3.537.008-5.306,0-.223-.043-.3-.282-.295-.547.019-1.1.026-1.644,0-.309-.014-.387.072-.386.385q.019,5.381,0,10.761c0,.335.11.374.4.372,2.155-.012,4.31-.006,6.465-.007M54.1,71.411c2.192,0,4.384-.005,6.576.006.289,0,.386-.074.375-.37-.022-.609-.007-1.22-.007-1.831,0-2.976,0-5.953.007-8.929,0-.305-.042-.448-.4-.425a14.165,14.165,0,0,1-1.569,0c-.3-.014-.375.084-.373.376.012,1.756,0,3.512.008,5.268a1.158,1.158,0,0,1-1.89,1c-.8-.547-1.619-1.071-2.419-1.622a.413.413,0,0,0-.558-.008c-.777.539-1.577,1.044-2.357,1.58a1.209,1.209,0,0,1-1.356.179,1.26,1.26,0,0,1-.615-1.263c.01-1.718,0-3.437.01-5.156,0-.276-.067-.367-.35-.355-.535.023-1.071.021-1.606,0-.283-.011-.385.06-.384.367q.016,5.4,0,10.8c0,.318.1.389.4.387,2.167-.012,4.334-.007,6.5-.007M35.1,28.815h9.08c3.2,0,6.4,0,9.6.01.277,0,.372-.061.36-.345a14.214,14.214,0,0,1,0-1.568c.027-.379-.111-.437-.456-.437q-13.435.015-26.87.009c-3.438,0-6.876.006-10.314-.009-.345,0-.414.1-.4.416a12.863,12.863,0,0,1,0,1.457c-.022.358.055.48.456.479q9.268-.024,18.536-.01m8.663,36.843q0,2.5,0,5c0,.736,0,.722.736.741.307.008.424-.041.422-.4-.017-3.446-.01-6.892-.01-10.338,0-.785,0-.767-.774-.787-.328-.009-.382.108-.38.4.013,1.791.007,3.583.007,5.374M36.856,63.5c0-1.2,0-2.317,0-3.432,0-.224-.159-.18-.286-.18-1.356-.006-2.711-.008-4.067-.017-.2,0-.286.057-.283.276.014,1.02.02,2.04.012,3.06,0,.294.1.243.27.127.431-.294.868-.58,1.3-.875a1.208,1.208,0,0,1,1.49,0c.49.338.99.661,1.564,1.042m19.576,0c0-1.193,0-2.3,0-3.4,0-.2-.107-.214-.261-.214-1.357,0-2.713.007-4.07,0-.23,0-.295.07-.293.3.011,1.033,0,2.066,0,3.1,0,.059-.013.127.094.159.481-.32.979-.647,1.472-.982a1.21,1.21,0,0,1,1.49,0c.49.337.99.66,1.56,1.039M42.606,49.676c.6-.4,1.128-.744,1.656-1.089a1.118,1.118,0,0,1,1.327.013c.446.3.891.593,1.339.885.069.045.129.142.224.1s.061-.151.061-.23c0-1.008,0-2.017,0-3.025,0-.177-.03-.271-.242-.269-1.382.008-2.763.005-4.145,0-.148,0-.227.029-.226.2.005,1.106,0,2.212,0,3.408" transform="translate(0.001 0)" fill="#562b85"/>
    <path id="Path_391" data-name="Path 391" d="M135.719,80.4V99.347c0,1.507-.007,3.014.006,4.521,0,.294-.052.414-.381.405-.795-.021-.8,0-.8-.8q0-5.83,0-11.66c0-.948-.413-1.369-1.361-1.369-2.479,0-4.958-.006-7.437.012-.33,0-.416-.069-.415-.4.012-3.974.008-7.948.008-11.921,0-.943-.129-1.148-1.012-1.5-.2-.079-.131-.219-.132-.336q-.013-2.223-.012-4.446c0-2.491.012-4.983,0-7.474,0-.328.069-.453.423-.435.6.031,1.2.014,1.793.006a1.155,1.155,0,0,0,1.243-1.237q.014-2.242,0-4.484a1.14,1.14,0,0,0-1.184-1.18q-8.408,0-16.817.006-5.493,0-10.987-.008-6.11,0-12.221,0c-.965,0-1.385.421-1.385,1.388q0,2.093,0,4.185a1.164,1.164,0,0,0,1.331,1.322c.585,0,1.172.018,1.756-.007.3-.013.37.083.369.374q-.014,6.259-.006,12.519,0,13.528.008,27.056c0,.317-.089.386-.393.385q-5.363-.016-10.725,0c-.315,0-.417-.058-.416-.4q.017-11.678.008-23.356,0-11.36-.007-22.721a.7.7,0,0,1,.329-.638Q91.482,46.77,105.652,36.374c.331-.243.669-.478.989-.735a.373.373,0,0,1,.543-.016q3.906,2.886,7.828,5.749L132.3,54.05c1.054.773,2.1,1.553,3.163,2.318a.571.571,0,0,1,.257.528q-.01,6.428-.005,12.856,0,5.325,0,10.649ZM112.677,46.717a5.755,5.755,0,1,0-5.751,5.724,5.781,5.781,0,0,0,5.751-5.724" transform="translate(-71.219 -32.858)" fill="#bd6cf3"/>
    <path id="Path_392" data-name="Path 392" d="M262.046,436.193q0-8.837,0-17.675c0-.7.014-1.4-.007-2.092-.009-.285.079-.351.356-.35q5.176.014,10.351.006H283.02c3.213,0,6.427.007,9.64-.009.372,0,.448.111.447.461q-.013,5.96.01,11.92c0,.352-.212.264-.39.264q-6.073,0-12.145,0c-.423,0-.847-.007-1.271,0a1.141,1.141,0,0,0-1.159,1.047,4.761,4.761,0,0,0-.024.6c0,3.924-.006,7.847.007,11.771,0,.332-.082.413-.41.411-2.853-.013-5.7-.009-8.558-.008-.963,0-1.386.426-1.386,1.386,0,4.01,0,8.021.008,12.031,0,.326-.072.414-.407.409q-2.466-.03-4.932,0c-.324,0-.411-.073-.41-.407q.017-8.912.008-17.824v-1.943" transform="translate(-242.447 -384.965)" fill="#7625bf"/>
    <path id="Path_393" data-name="Path 393" d="M234.45,356.435q-9.268,0-18.536.011c-.4,0-.477-.121-.456-.479a12.857,12.857,0,0,0,0-1.457c-.017-.313.053-.417.4-.416,3.438.015,6.876.009,10.314.009q13.435,0,26.87-.009c.345,0,.483.058.456.437a14.254,14.254,0,0,0,0,1.568c.011.284-.083.346-.36.345-3.2-.012-6.4-.009-9.6-.01h-9.08" transform="translate(-199.346 -327.621)" fill="#bd6cf3"/>
    <path id="Path_394" data-name="Path 394" d="M585.3,806.671c0-1.791.007-3.583-.007-5.374,0-.3.052-.413.38-.4.773.02.774,0,.774.787,0,3.446-.006,6.892.01,10.338,0,.356-.115.4-.422.4-.736-.019-.736-.006-.736-.742q0-2.5,0-5" transform="translate(-541.536 -741.014)" fill="#999"/>
    <path id="Path_395" data-name="Path 395" d="M435.611,804.375c-.574-.381-1.074-.7-1.564-1.042a1.208,1.208,0,0,0-1.49,0c-.431.294-.868.58-1.3.875-.171.116-.272.167-.27-.127.008-1.02,0-2.04-.012-3.06,0-.219.082-.277.283-.276,1.356.009,2.711.011,4.067.017.128,0,.287-.044.286.18,0,1.115,0,2.23,0,3.432" transform="translate(-398.754 -740.879)" fill="#9470ae"/>
    <path id="Path_396" data-name="Path 396" d="M697.632,804.515c-.57-.379-1.069-.7-1.56-1.039a1.21,1.21,0,0,0-1.49,0c-.492.335-.991.661-1.472.982-.107-.032-.094-.1-.094-.159,0-1.033.006-2.066,0-3.1,0-.227.062-.3.293-.3,1.356.009,2.713.006,4.07,0,.154,0,.262.013.261.214-.006,1.1,0,2.208,0,3.4" transform="translate(-641.199 -741.019)" fill="#9470ae"/>
    <path id="Path_397" data-name="Path 397" d="M569.839,619.713c0-1.2,0-2.3,0-3.408,0-.173.078-.2.226-.2,1.382,0,2.763.006,4.145,0,.211,0,.243.092.242.269,0,1.008,0,2.017,0,3.025,0,.08.042.188-.061.23s-.155-.059-.224-.1c-.448-.292-.893-.589-1.339-.885a1.117,1.117,0,0,0-1.327-.013c-.528.345-1.055.693-1.656,1.089" transform="translate(-527.232 -570.038)" fill="#9470ae"/>
    <path id="Path_398" data-name="Path 398" d="M412.09,113.753a5.755,5.755,0,1,1-5.725-5.787,5.781,5.781,0,0,1,5.725,5.787m-2.294-.039a3.462,3.462,0,1,0-3.464,3.469,3.474,3.474,0,0,0,3.464-3.469" transform="translate(-370.632 -99.894)" fill="#562b85"/>
  </g>
</svg>
