<svg id="Group_1" data-name="Group 1" xmlns="http://www.w3.org/2000/svg" xmlns:xlink="http://www.w3.org/1999/xlink" width="82" height="82" viewBox="0 0 82 82">
  <defs>
    <clipPath id="clip-path">
      <rect id="Rectangle_1" data-name="Rectangle 1" width="82" height="82" fill="none"/>
    </clipPath>
  </defs>
  <g id="Group_1-2" data-name="Group 1" clip-path="url(#clip-path)">
    <path id="Path_1" data-name="Path 1" d="M33.327,100.359V57.378c.395.644.649,1,.843,1.385,1.844,3.656,3.721,7.3,5.487,10.991A2.082,2.082,0,0,0,41.937,71.2c1.91-.11,3.831-.029,5.965-.029v8.582l10.3-6.689,10.229,6.656V71.267H83.773v29.092Zm24.805-5.853c2.344,0,4.689-.011,7.033,0,1.269.008,1.847-.589,1.832-1.852-.023-2.019-.035-4.04,0-6.058.027-1.423-.638-2.026-2.031-2.021q-6.794.026-13.587,0c-1.42-.006-2.031.66-2.01,2.05q.045,2.95,0,5.9c-.02,1.415.628,2.019,2.044,1.99,2.237-.045,4.476-.012,6.714-.012" transform="translate(-10.646 -18.429)" fill="#5f009f"/>
    <path id="Path_2" data-name="Path 2" d="M32.961,49.72H35.2q23.509,0,47.017-.03a2.181,2.181,0,0,1,2.31,1.415c2.391,4.925,4.876,9.8,7.323,14.7.207.414.384.842.678,1.493h-1.7q-23.99,0-47.98.032a2.271,2.271,0,0,1-2.417-1.5c-2.193-4.547-4.522-9.029-6.752-13.561a15.4,15.4,0,0,1-.718-2.555" transform="translate(-10.529 -15.96)" fill="#bd6cf3"/>
    <path id="Path_3" data-name="Path 3" d="M24.431,100.964H10.652V71.708c2.3,0,4.568-.058,6.828.025a1.748,1.748,0,0,0,1.986-1.316c1.522-3.832,3.157-7.619,4.965-11.375Z" transform="translate(-3.403 -18.964)" fill="#5f009f"/>
    <path id="Path_4" data-name="Path 4" d="M21.3,49.741a15.732,15.732,0,0,1-.542,2.583c-1.887,4.617-3.8,9.222-5.788,13.8a2.059,2.059,0,0,1-1.384,1.141c-4.468.087-8.938.052-13.589.052a10.866,10.866,0,0,1,.344-1.27c2.116-5.1,4.232-10.2,6.39-15.275.175-.411.659-.98,1.008-.986,4.405-.067,8.812-.044,13.56-.044" transform="translate(0 -15.975)" fill="#bd6cf3"/>
    <path id="Path_5" data-name="Path 5" d="M51.983,7.781c-.976,1.037-1.923,2.1-2.937,3.1-1.154,1.138-2.417,1.185-3.367.206A2.2,2.2,0,0,1,45.9,7.835Q49.307,4.362,52.783.953C54.074-.308,55.12-.318,56.389.92q3.484,3.4,6.894,6.874c1.117,1.134,1.146,2.457.167,3.369a2.2,2.2,0,0,1-3.261-.234c-1.024-.986-1.993-2.03-3.229-3.3-.056.794-.114,1.233-.115,1.674q-.012,6.217-.007,12.434a8.123,8.123,0,0,1-.007.955,2.187,2.187,0,0,1-2.237,2.232,2.135,2.135,0,0,1-2.171-2.408c-.027-4.3-.012-8.608-.013-12.912q0-.783,0-1.567l-.426-.259" transform="translate(-14.394 0)" fill="#5f009f"/>
    <path id="Path_6" data-name="Path 6" d="M33.08,29.6v9.474H28.7V29.155c-1.307,1.282-2.265,2.231-3.233,3.171-1.273,1.236-2.5,1.366-3.5.381s-.887-2.218.37-3.487q3.261-3.292,6.557-6.55c1.459-1.44,2.481-1.432,3.966.031q3.3,3.252,6.56,6.546c1.206,1.219,1.3,2.544.3,3.492s-2.17.856-3.37-.342c-.977-.975-1.877-2.024-2.811-3.04l-.46.248" transform="translate(-6.803 -6.937)" fill="#5f009f"/>
    <path id="Path_7" data-name="Path 7" d="M78.347,39.131V29.1c-1.256,1.245-2.193,2.183-3.139,3.112-1.379,1.352-2.557,1.508-3.6.485-1.007-.985-.848-2.275.466-3.594,2.139-2.146,4.275-4.3,6.436-6.421,1.481-1.456,2.481-1.459,3.957-.009q3.355,3.3,6.661,6.646c1.162,1.177,1.239,2.414.28,3.362-.975.964-2.2.9-3.378-.238-.99-.961-1.918-1.984-3.25-3.372V39.131Z" transform="translate(-22.666 -6.936)" fill="#5f009f"/>
    <path id="Path_8" data-name="Path 8" d="M57.093,77.834H74.511v5.742a73.413,73.413,0,0,1-6.192-4.08c-1.829-1.476-3.246-1.464-5.068.008a72.571,72.571,0,0,1-6.158,4.056Z" transform="translate(-18.238 -25)" fill="#5f009f"/>
  </g>
</svg>
