<svg xmlns="http://www.w3.org/2000/svg" xmlns:xlink="http://www.w3.org/1999/xlink" width="57.212" height="71.187" viewBox="0 0 57.212 71.187">
  <defs>
    <clipPath id="clip-path">
      <rect id="Rectangle_83" data-name="Rectangle 83" width="57.212" height="31.666" fill="#bd6cf3"/>
    </clipPath>
  </defs>
  <g id="Group_243" data-name="Group 243" transform="translate(0)">
    <g id="Group_95" data-name="Group 95" transform="translate(0 39.521)">
      <g id="Group_94" data-name="Group 94" transform="translate(0 0)" clip-path="url(#clip-path)">
        <path id="Path_389" data-name="Path 389" d="M16.426.315C11.466,1.392,9.568,4.1,7.189,7.838h9.237ZM45.414,8.152c-.971,0-1.676.438-1.676,1.463a1.624,1.624,0,0,0,1.672,1.567H55.536a1.571,1.571,0,1,1,0,3.135H40.451a1.571,1.571,0,1,0-.006,3.135H55.536a1.571,1.571,0,1,1,0,3.135H51.848v4.7a1.624,1.624,0,0,1-1.676,1.567H46.8a6.527,6.527,0,0,1-12.593,0H17.192a6.338,6.338,0,0,1-6.3,4.808,6.338,6.338,0,0,1-6.3-4.808H1.676A1.624,1.624,0,0,1,0,25.291V15.885c0-4.6,5.188-4.9,5.192-4.912H18.1a1.624,1.624,0,0,0,1.676-1.567V0H50.172a1.625,1.625,0,0,1,1.676,1.568V5.017H53.86a1.624,1.624,0,0,1,1.676,1.567A1.625,1.625,0,0,1,53.86,8.152ZM8.722,23.625a2.745,2.745,0,0,0,0,4.065c1.93,1.805,5.246.521,5.246-2.033s-3.315-3.838-5.246-2.032m29.612,0a2.745,2.745,0,0,0,0,4.065c1.93,1.805,5.246.521,5.246-2.033s-3.315-3.838-5.246-2.032" transform="translate(0 0)" fill="#bd6cf3" fill-rule="evenodd"/>
      </g>
    </g>
    <path id="Path_386" data-name="Path 386" d="M112.736,41.827l-4.883-6.6c-2.484-3.359-4.958-6.725-7.454-10.076A15.71,15.71,0,0,1,110.368.2a15.5,15.5,0,0,1,17.6,12.857A15.7,15.7,0,0,1,125.012,25.2Q119.04,33.276,113.1,41.374c-.1.133-.205.259-.36.453m.276-37.981a11.825,11.825,0,1,0,11.422,12.46,11.847,11.847,0,0,0-11.422-12.46" transform="translate(-84.507 0)" fill="#6c12a8"/>
    <path id="Path_388" data-name="Path 388" d="M155.005,63.445a5.035,5.035,0,1,1,5.043,5.119,5.095,5.095,0,0,1-5.043-5.119" transform="translate(-131.824 -47.78)" fill="#6c12a8"/>
  </g>
</svg>
