<svg id="Group_38" data-name="Group 38" xmlns="http://www.w3.org/2000/svg" xmlns:xlink="http://www.w3.org/1999/xlink" width="86.722" height="75.686" viewBox="0 0 86.722 75.686">
  <defs>
    <clipPath id="clip-path">
      <rect id="Rectangle_60" data-name="Rectangle 60" width="86.722" height="75.686" fill="none"/>
    </clipPath>
  </defs>
  <rect id="Rectangle_57" data-name="Rectangle 57" width="42.348" height="6.166" transform="translate(22.183 59.349)" fill="#5f009f"/>
  <rect id="Rectangle_58" data-name="Rectangle 58" width="42.333" height="6.165" transform="translate(22.195 67.521)" fill="#5f009f"/>
  <g id="Group_37" data-name="Group 37">
    <g id="Group_36" data-name="Group 36" clip-path="url(#clip-path)">
      <path id="Path_182" data-name="Path 182" d="M263.836,215.064h-38.5c.319-.217.529-.366.745-.507q8.975-5.852,17.944-11.711a.857.857,0,0,1,1.115-.016q9.2,6.036,18.434,12.034c.057.037.108.082.264.2" transform="translate(-201.23 -180.957)" fill="#5f009f"/>
      <rect id="Rectangle_59" data-name="Rectangle 59" width="47.749" height="3.385" transform="translate(19.515 52.996)" fill="#5f009f"/>
      <path id="Path_183" data-name="Path 183" d="M354.449,12.512c-1.294-.506-2.5-.992-3.714-1.437a1.241,1.241,0,0,0-.793.005c-1.051.389-2.084.825-3.125,1.241-.145.058-.295.1-.488.172.075-1.347.165-2.643.206-3.94a1.338,1.338,0,0,0-.266-.807c-.782-.989-1.6-1.947-2.466-2.983,1.072-.284,2.068-.6,3.086-.8a2.4,2.4,0,0,0,1.838-1.323c.462-.9,1.065-1.721,1.646-2.639.129.176.234.307.324.447.608.943,1.194,1.9,1.831,2.823a1.427,1.427,0,0,0,.727.526c1.2.34,2.409.626,3.677.947a4.082,4.082,0,0,1-.232.357c-.744.91-1.505,1.807-2.228,2.733a1.255,1.255,0,0,0-.249.758c.049,1.279.143,2.557.227,3.921" transform="translate(-307.027 2)" fill="#bd6cf3"/>
      <path id="Path_184" data-name="Path 184" d="M12.5,354.271c-1.267-.072-2.456-.119-3.64-.217a1.528,1.528,0,0,0-1.257.385c-.889.789-1.826,1.524-2.81,2.336-.346-1.309-.651-2.545-1.013-3.764a1.513,1.513,0,0,0-.557-.767c-1.033-.7-2.1-1.343-3.224-2.052.94-.6,1.81-1.22,2.736-1.737A2.341,2.341,0,0,0,4.013,346.7c.186-1.013.5-2,.775-3.086.277.221.521.41.76.606.772.632,1.529,1.284,2.323,1.889a1.35,1.35,0,0,0,.809.253c1.243-.05,2.484-.149,3.823-.237-.077.225-.125.385-.185.54-.411,1.063-.839,2.12-1.226,3.192a1.188,1.188,0,0,0,0,.751c.379,1.037.8,2.058,1.2,3.086.063.162.117.327.2.575" transform="translate(0 -306.861)" fill="#bd6cf3"/>
      <path id="Path_185" data-name="Path 185" d="M582.122,113.9c1.044-.915,2.03-1.76,2.986-2.638a1.24,1.24,0,0,0,.358-.711c.15-1.266.256-2.538.384-3.883,1.157.672,2.252,1.292,3.329,1.942a1.223,1.223,0,0,0,1,.155c1.189-.29,2.387-.544,3.681-.835-.149.707-.28,1.342-.417,1.976-.132.609-.24,1.225-.415,1.821a1.147,1.147,0,0,0,.17,1c.638,1.047,1.258,2.1,1.934,3.24l-1.992.214a6.986,6.986,0,0,0-2.36.309c-.664.342-1.093,1.141-1.623,1.741-.4.453-.8.908-1.259,1.435-.193-.433-.363-.81-.53-1.188-.359-.814-.7-1.639-1.087-2.438a1.283,1.283,0,0,0-.568-.566c-1.163-.536-2.345-1.03-3.6-1.573" transform="translate(-522.854 -92.261)" fill="#5f009f"/>
      <path id="Path_186" data-name="Path 186" d="M693.722,346.07c.865.05,1.64.081,2.413.142,1.922.151,1.921.156,3.38-1.062.625-.522,1.254-1.04,1.932-1.6.337,1.264.676,2.455.963,3.659a1.444,1.444,0,0,0,.729.974c1.019.614,2.017,1.264,3.1,1.948a25.947,25.947,0,0,1-2.231,1.415,3.182,3.182,0,0,0-1.922,2.629,19.943,19.943,0,0,1-.625,2.5c-.152-.1-.28-.179-.394-.272-.9-.733-1.778-1.483-2.69-2.194a1.258,1.258,0,0,0-.762-.248c-1.227.05-2.452.146-3.678.224a.629.629,0,0,1-.152-.046c.043-.144.077-.292.13-.432a11.5,11.5,0,0,1,.662-1.686,3.705,3.705,0,0,0-.029-3.9,18.184,18.184,0,0,1-.825-2.045" transform="translate(-619.516 -306.799)" fill="#bd6cf3"/>
      <path id="Path_187" data-name="Path 187" d="M116.2,106.616c.137,1.369.243,2.627.4,3.879a1.422,1.422,0,0,0,.408.8c.925.858,1.888,1.675,2.9,2.561-1.138.5-2.208,1-3.308,1.431a1.774,1.774,0,0,0-1.1,1.117c-.407,1.059-.879,2.093-1.359,3.219-.668-.75-1.341-1.412-1.9-2.159a2.809,2.809,0,0,0-2.449-1.287,28.806,28.806,0,0,1-2.9-.245c.562-.967,1.041-1.9,1.624-2.764a2.423,2.423,0,0,0,.349-2.242c-.295-.964-.465-1.966-.71-3.041a17.758,17.758,0,0,1,2.339.526,3.617,3.617,0,0,0,3.757-.618,18.825,18.825,0,0,1,1.939-1.179" transform="translate(-93.466 -91.211)" fill="#5f009f"/>
      <path id="Path_188" data-name="Path 188" d="M590.81,393.749v8.861h-2.884v-8.356l2.884-.505" transform="translate(-525.037 -351.63)" fill="#5f009f"/>
      <path id="Path_189" data-name="Path 189" d="M198.821,402.705c-.16.014-.3.037-.436.038-.8,0-1.6,0-2.431,0v-8.927l2.866.516Z" transform="translate(-174.994 -351.692)" fill="#5f009f"/>
      <path id="Path_190" data-name="Path 190" d="M345.235,346.774h4.782a2.393,2.393,0,1,1-4.782,0" transform="translate(-308.306 -309.68)" fill="#bd6cf3"/>
      <path id="Path_191" data-name="Path 191" d="M194.146,346.715h4.738a2.689,2.689,0,0,1-2.265,2.537,2.736,2.736,0,0,1-2.472-2.537" transform="translate(-173.379 -309.628)" fill="#bd6cf3"/>
      <path id="Path_192" data-name="Path 192" d="M500.964,346.853a2.386,2.386,0,1,1-4.767,0Z" transform="translate(-443.12 -309.751)" fill="#bd6cf3"/>
      <path id="Path_193" data-name="Path 193" d="M269.553,346.756h4.771a2.388,2.388,0,1,1-4.771,0" transform="translate(-240.719 -309.664)" fill="#bd6cf3"/>
      <path id="Path_194" data-name="Path 194" d="M425.242,346.995a2.7,2.7,0,0,1-2.218,2.47c-1.189.089-2.16-.826-2.571-2.47Z" transform="translate(-375.478 -309.878)" fill="#bd6cf3"/>
      <path id="Path_195" data-name="Path 195" d="M571.714,346.753h4.76a2.661,2.661,0,0,1-2.31,2.5c-1.176.045-2.159-.941-2.45-2.5" transform="translate(-510.559 -309.661)" fill="#bd6cf3"/>
    </g>
  </g>
</svg>
