<svg id="Group_252" data-name="Group 252" xmlns="http://www.w3.org/2000/svg" xmlns:xlink="http://www.w3.org/1999/xlink" width="51.817" height="58.828" viewBox="0 0 51.817 58.828">
  <defs>
    <clipPath id="clip-path">
      <rect id="Rectangle_133" data-name="Rectangle 133" width="51.817" height="58.828" fill="none"/>
    </clipPath>
  </defs>
  <g id="Group_175" data-name="Group 175" clip-path="url(#clip-path)">
    <path id="Path_432" data-name="Path 432" d="M8.2,17.96c.048,1.076.028,2.009.143,2.924A3.038,3.038,0,0,0,11.5,23.714a3.013,3.013,0,0,0,3.151-2.707c.145-.95.134-1.924.2-2.986H36.123a26.455,26.455,0,0,0,.2,3.23,3.243,3.243,0,0,0,5.3,1.946,3.366,3.366,0,0,0,1.23-2.643c.038-.792.007-1.588.007-2.51,2.275-.1,4.507-.474,6.687.312a3.068,3.068,0,0,1,2.059,2.534,14.3,14.3,0,0,1,.161,2.275c-.006,8.8-.043,17.593-.038,26.39,0,5.92.06,11.84.087,17.761,0,.519-.006,1.04-.054,1.557A3.965,3.965,0,0,1,47.833,72.9c-1.1.111-2.213.074-3.32.074q-18.75.006-37.5-.006a25.049,25.049,0,0,1-3.417-.2A3.458,3.458,0,0,1,.271,69.377a46.268,46.268,0,0,1-.215-4.766Q.009,44.352,0,24.092c0-.9-.012-1.8.059-2.7a3.483,3.483,0,0,1,3.781-3.434c1.444.009,2.888,0,4.354,0M1.985,30.1c0,.592,0,1,0,1.415Q2,43.153,2.021,54.79c0,3.946-.129,7.895-.043,11.839.089,4.066.667,4.534,4.72,4.529q18.233-.024,36.467-.044c1.212,0,2.426.048,3.635-.018,1.824-.1,2.612-.924,2.73-2.732.032-.484.055-.969.055-1.453q0-17.037,0-34.075V30.1ZM1.869,27.06q-.016.269-.031.538a9.834,9.834,0,0,0,1.48.475,10.389,10.389,0,0,0,1.658.047q20.3-.008,40.6-.023c1.038,0,2.079,0,3.111-.1.3-.027.565-.38.846-.584-.257-.228-.49-.612-.775-.655a16.488,16.488,0,0,0-2.483-.143q-16.719.022-33.437.061c-3.011.006-6.022-.012-9.032.03a11.473,11.473,0,0,0-1.936.353" transform="translate(0 -14.153)" fill="#5f009f"/>
    <path id="Path_433" data-name="Path 433" d="M183.768,5.144a9.7,9.7,0,0,1-.976,2.714,1.781,1.781,0,0,1-3.151-.488,7.77,7.77,0,0,1,.109-6.141A2.5,2.5,0,0,1,181.46.2a1.519,1.519,0,0,1,1.711,1.214c.28,1.16.387,2.362.6,3.731" transform="translate(-141.852 -0.141)" fill="#5f009f"/>
    <path id="Path_434" data-name="Path 434" d="M44.452,3.9c.042-.654.065-1.31.129-1.962A2.4,2.4,0,0,1,46.351.013,1.919,1.919,0,0,1,48.386,1.44a8.916,8.916,0,0,1-.094,5.495,2.273,2.273,0,0,1-1.612,1.293,2.248,2.248,0,0,1-1.749-1.11,14.091,14.091,0,0,1-.64-3.189l.161-.032" transform="translate(-35.087 0)" fill="#5f009f"/>
    <rect id="Rectangle_128" data-name="Rectangle 128" width="5.35" height="23.954" transform="translate(36.96 30.449)" fill="#bd6cf3"/>
    <rect id="Rectangle_129" data-name="Rectangle 129" width="5.444" height="20.304" transform="translate(29.911 34.065)" fill="#bd6cf3"/>
    <rect id="Rectangle_130" data-name="Rectangle 130" width="5.336" height="16.99" transform="translate(23.016 37.384)" fill="#bd6cf3"/>
    <path id="Path_435" data-name="Path 435" d="M31.056,124.135c9.12-6.716,19.133-11.994,28.823-17.987l-2.18-2.839,6.779,1.08-2.642,6.376-1.351-2.8c-9.681,5.716-19.416,11.189-29.429,16.167" transform="translate(-24.602 -81.841)" fill="#bd6cf3"/>
    <rect id="Rectangle_131" data-name="Rectangle 131" width="5.42" height="12.698" transform="translate(16.003 41.687)" fill="#bd6cf3"/>
    <rect id="Rectangle_132" data-name="Rectangle 132" width="5.273" height="8.552" transform="translate(9.12 45.876)" fill="#bd6cf3"/>
  </g>
</svg>
