<svg id="Group_253" data-name="Group 253" xmlns="http://www.w3.org/2000/svg" xmlns:xlink="http://www.w3.org/1999/xlink" width="59.474" height="52.756" viewBox="0 0 59.474 52.756">
  <defs>
    <clipPath id="clip-path">
      <rect id="Rectangle_134" data-name="Rectangle 134" width="59.474" height="52.756" fill="none"/>
    </clipPath>
  </defs>
  <g id="Group_177" data-name="Group 177" transform="translate(0 0)" clip-path="url(#clip-path)">
    <path id="Path_436" data-name="Path 436" d="M214.114,707.849h-7.283a1.1,1.1,0,0,0-1.1,1.1v4.341a1.1,1.1,0,0,0,1.1,1.1h7.283a1.1,1.1,0,0,0,1.1-1.1v-4.341a1.1,1.1,0,0,0-1.1-1.1" transform="translate(-198.624 -683.405)" fill="#5f009f"/>
    <path id="Path_437" data-name="Path 437" d="M572.416,714.4H579.7a1.1,1.1,0,0,0,1.1-1.1v-4.341a1.1,1.1,0,0,0-1.1-1.1h-7.283a1.1,1.1,0,0,0-1.1,1.1v4.341a1.1,1.1,0,0,0,1.1,1.1" transform="translate(-551.584 -683.405)" fill="#5f009f"/>
    <path id="Path_438" data-name="Path 438" d="M938,714.4h7.283a1.1,1.1,0,0,0,1.1-1.1v-4.341a1.1,1.1,0,0,0-1.1-1.1H938a1.1,1.1,0,0,0-1.1,1.1v4.341a1.1,1.1,0,0,0,1.1,1.1" transform="translate(-904.544 -683.405)" fill="#5f009f"/>
    <path id="Path_439" data-name="Path 439" d="M214.114,957.575h-7.283a1.1,1.1,0,0,0-1.1,1.1v4.341a1.1,1.1,0,0,0,1.1,1.1h7.283a1.1,1.1,0,0,0,1.1-1.1v-4.341a1.1,1.1,0,0,0-1.1-1.1" transform="translate(-198.624 -924.507)" fill="#5f009f"/>
    <path id="Path_440" data-name="Path 440" d="M572.416,964.12H579.7a1.1,1.1,0,0,0,1.1-1.1v-4.341a1.1,1.1,0,0,0-1.1-1.1h-7.283a1.1,1.1,0,0,0-1.1,1.1v4.341a1.1,1.1,0,0,0,1.1,1.1" transform="translate(-551.584 -924.506)" fill="#5f009f"/>
    <path id="Path_441" data-name="Path 441" d="M572.416,1213.847H579.7a1.1,1.1,0,0,0,1.1-1.1V1208.4a1.1,1.1,0,0,0-1.1-1.1h-7.283a1.1,1.1,0,0,0-1.1,1.1v4.341a1.1,1.1,0,0,0,1.1,1.1" transform="translate(-551.584 -1165.608)" fill="#5f009f"/>
    <path id="Path_442" data-name="Path 442" d="M214.114,1207.3h-7.283a1.1,1.1,0,0,0-1.1,1.1v4.341a1.1,1.1,0,0,0,1.1,1.1h7.283a1.1,1.1,0,0,0,1.1-1.1V1208.4a1.1,1.1,0,0,0-1.1-1.1" transform="translate(-198.624 -1165.609)" fill="#5f009f"/>
    <path id="Path_443" data-name="Path 443" d="M45.015,161.552H43.75v3.942a3.1,3.1,0,0,1-6.195,0v-3.942H32.964v3.942a3.1,3.1,0,0,1-6.195,0v-3.942H22.178v3.942a3.1,3.1,0,0,1-6.195,0v-3.942H11.391v3.942a3.1,3.1,0,0,1-6.195,0v-3.942H3.932A3.932,3.932,0,0,0,0,165.484v39.342a3.9,3.9,0,0,0,3.9,3.9h41.14a3.9,3.9,0,0,0,3.9-3.9V165.484a3.932,3.932,0,0,0-3.932-3.932M46.463,204.8a1.45,1.45,0,0,1-1.448,1.449H3.932A1.45,1.45,0,0,1,2.483,204.8V178.383h43.98Z" transform="translate(0 -155.973)" fill="#5f009f"/>
    <path id="Path_444" data-name="Path 444" d="M185.686,11.471h0a1.949,1.949,0,0,0,1.949-1.949V1.95a1.949,1.949,0,1,0-3.9,0V9.522a1.949,1.949,0,0,0,1.949,1.949" transform="translate(-177.392 -0.001)" fill="#5f009f"/>
    <path id="Path_445" data-name="Path 445" d="M498.028,11.471h0a1.949,1.949,0,0,0,1.949-1.949V1.95a1.949,1.949,0,1,0-3.9,0V9.522a1.949,1.949,0,0,0,1.949,1.949" transform="translate(-478.948 -0.001)" fill="#5f009f"/>
    <path id="Path_446" data-name="Path 446" d="M810.37,11.471h0a1.949,1.949,0,0,0,1.949-1.949V1.95a1.949,1.949,0,0,0-3.9,0V9.522a1.949,1.949,0,0,0,1.949,1.949" transform="translate(-780.504 -0.001)" fill="#5f009f"/>
    <path id="Path_447" data-name="Path 447" d="M1122.713,11.471h0a1.949,1.949,0,0,0,1.949-1.949V1.95a1.949,1.949,0,1,0-3.9,0V9.522a1.949,1.949,0,0,0,1.949,1.949" transform="translate(-1082.06 -0.001)" fill="#5f009f"/>
    <path id="Path_448" data-name="Path 448" d="M946.5,810.243l-9.115-9.115a1.647,1.647,0,0,1,0-2.33l2.384-2.384a1.647,1.647,0,0,1,2.33,0l5.472,5.472,11.255-11.255a1.647,1.647,0,0,1,2.33,0l2.384,2.384a1.647,1.647,0,0,1,0,2.33l-14.9,14.9a1.513,1.513,0,0,1-2.141,0" transform="translate(-904.543 -762.862)" fill="#bd6cf3"/>
  </g>
</svg>
