<svg id="Group_254" data-name="Group 254" xmlns="http://www.w3.org/2000/svg" xmlns:xlink="http://www.w3.org/1999/xlink" width="68.098" height="53.139" viewBox="0 0 68.098 53.139">
  <defs>
    <clipPath id="clip-path">
      <rect id="Rectangle_136" data-name="Rectangle 136" width="68.098" height="53.139" fill="none"/>
    </clipPath>
  </defs>
  <path id="Path_453" data-name="Path 453" d="M27.46,29.351v4.78l-11.034,1.9v2.613H43.431V36.031L32.4,34.131v-4.78Z" transform="translate(4.12 9.086)" fill="#5f009f"/>
  <g id="Group_182" data-name="Group 182" transform="translate(0 0)">
    <g id="Group_181" data-name="Group 181" clip-path="url(#clip-path)">
      <path id="Path_454" data-name="Path 454" d="M51.238,0H1.615A1.744,1.744,0,0,0,0,1.841V31.985a1.744,1.744,0,0,0,1.615,1.841H51.238a1.744,1.744,0,0,0,1.615-1.841V1.841A1.744,1.744,0,0,0,51.238,0m-.806,29.223a1.745,1.745,0,0,1-1.614,1.842H4.035a1.745,1.745,0,0,1-1.614-1.842V4.6A1.744,1.744,0,0,1,4.035,2.761H48.818A1.744,1.744,0,0,1,50.432,4.6Z" transform="translate(8.027 4.77)" fill="#5f009f"/>
      <path id="Path_455" data-name="Path 455" d="M23.361,22.717h-.018A9.166,9.166,0,0,1,19.6,25.662a3.531,3.531,0,0,0,.62-1.513,9.761,9.761,0,0,0,2.166-1c.215-.135.407-.281.6-.428h-.407c-.034.023-.062.046-.1.069a9.874,9.874,0,0,1-2.2,1.019,11.584,11.584,0,0,0,.127-1.81c0-.429-.014-.876-.043-1.335.016-.006.031-.015.05-.02v-.523c-.03.009-.059.025-.09.035a29.864,29.864,0,0,0-.6-3.784c.236-.077.463-.174.691-.271V15.5c-.267.118-.537.229-.818.322A32.982,32.982,0,0,0,18.464,12.1a5.134,5.134,0,0,0,1.143-.529,4,4,0,0,0,.758-.613c.016.016.03.034.046.051v-.246a1.814,1.814,0,0,1,.718-1.474c.005-.074.014-.147.012-.221.064.032.121.069.184.1a1.429,1.429,0,0,1,.324-.126c-.176-.093-.354-.186-.538-.266a2.816,2.816,0,0,0-.92-1.589,4.009,4.009,0,0,1,.946.231A9.4,9.4,0,0,1,22.932,9h.6a1.364,1.364,0,0,1,.407.072,9.4,9.4,0,0,0-7.477-3.89c-5.4,0-9.795,4.909-9.795,10.943s4.394,10.944,9.795,10.944a9.524,9.524,0,0,0,7.984-4.626c-.044-.029-.1-.046-.137-.08a1.466,1.466,0,0,1-.947.351m-3.8-2.346a12.859,12.859,0,0,1-4.667.273c.05-1.229.138-2.542.257-3.862a10.806,10.806,0,0,0,3.928-.23,38.09,38.09,0,0,1,.481,3.819m-9.03-5.5a14.6,14.6,0,0,0-1.125,3.5A5.581,5.581,0,0,1,7.5,15.307a8.523,8.523,0,0,1,1.426-3.019,4.711,4.711,0,0,0,1.605,2.579M9.223,11.9a10.4,10.4,0,0,1,2.64-2.3,2.864,2.864,0,0,0,.983,1.577,17.071,17.071,0,0,0-2.082,3.2A4.524,4.524,0,0,1,9.223,11.9m1.793,3.345a8.756,8.756,0,0,0,3.468,1.428c-.178,1.311-.311,2.618-.38,3.843a10.415,10.415,0,0,1-4.122-1.7,16.242,16.242,0,0,1,1.034-3.575m.216-.5a18.871,18.871,0,0,1,1.909-3.329,5.351,5.351,0,0,0,2.121.872c-.27,1.221-.509,2.522-.7,3.829a8.373,8.373,0,0,1-3.331-1.372M18.975,16a10.376,10.376,0,0,1-3.771.222c.128-1.319.286-2.634.467-3.866a6.609,6.609,0,0,0,2.4-.142c.35,1.2.658,2.488.9,3.785M14.937,6.2a5.952,5.952,0,0,1,2.171-.166,6.675,6.675,0,0,0-.559,1.723l.041.006a4.866,4.866,0,0,1,.891-1.678,4.849,4.849,0,0,1,2.083.855c.109,0,.218,0,.324,0a4.968,4.968,0,0,0-1.39-.705,8.412,8.412,0,0,1,2.079.845,5.162,5.162,0,0,0-3.761.776c.006.007.015.014.023.022a6.531,6.531,0,0,1,3-.71A2.535,2.535,0,0,1,20.67,8.6a9.677,9.677,0,0,0-3.746-.577.116.116,0,0,1,0,.027,10.114,10.114,0,0,1,3.769.813,2.243,2.243,0,0,1-.5,1.478,12.264,12.264,0,0,0-3.321-2.134.146.146,0,0,1-.02.024A12.734,12.734,0,0,1,20,10.576a3.584,3.584,0,0,1-.688.554,4.634,4.634,0,0,1-1.034.478,19.794,19.794,0,0,0-1.6-3.264l-.039.011a23.476,23.476,0,0,1,1.287,3.356,5.963,5.963,0,0,1-2.173.127c.2-1.3.423-2.483.656-3.469a.271.271,0,0,1-.039-.007,30.3,30.3,0,0,0-.986,3.418,4.836,4.836,0,0,1-1.92-.789,13.869,13.869,0,0,1,2.7-2.713l-.012-.008-.015-.014a13.232,13.232,0,0,0-2.946,2.522A2.609,2.609,0,0,1,12.3,9.352a10.913,10.913,0,0,1,3.74-1.247.277.277,0,0,1-.005-.028,10.542,10.542,0,0,0-3.771,1.011A2.222,2.222,0,0,1,12.713,7.6a7.67,7.67,0,0,1,3.372.316A.2.2,0,0,1,16.1,7.9a7.093,7.093,0,0,0-3.2-.527,3.493,3.493,0,0,1,.746-.617,4.64,4.64,0,0,1,.936-.447,4.4,4.4,0,0,1,1.7,1.479l.036-.012A4.284,4.284,0,0,0,14.937,6.2m-.565.05a4.951,4.951,0,0,0-1.021.487,3.882,3.882,0,0,0-.824.683,4.714,4.714,0,0,0-1.282.4,8.632,8.632,0,0,1,3.126-1.57M9.511,9.592A9.9,9.9,0,0,1,10.594,8.38a5.281,5.281,0,0,1,1.723-.705,2.444,2.444,0,0,0-.495,1.641,9.546,9.546,0,0,0-2.663,2.131,3.7,3.7,0,0,1,.352-1.855m-.41.587a3.79,3.79,0,0,0-.24,1.635,7.987,7.987,0,0,0-1.369,2.674A10.766,10.766,0,0,1,9.1,10.178m-1.73,5.95c0-.049,0-.1,0-.146.011-.072.016-.146.028-.217A5.653,5.653,0,0,0,9.33,18.859a10.185,10.185,0,0,0-.091,1.312,7.372,7.372,0,0,0,.216,1.867A6.536,6.536,0,0,1,8.489,21,11.033,11.033,0,0,1,7.37,16.128m1.509,5.6a7.073,7.073,0,0,0,.683.686,5.18,5.18,0,0,0,.286.677,10.162,10.162,0,0,1-.969-1.363m.949-1.087a11.345,11.345,0,0,1,.084-1.319,10.528,10.528,0,0,0,4.164,1.714c-.021.462-.032.91-.032,1.339,0,.687.021,1.286.068,1.8a10.314,10.314,0,0,1-4.087-1.684,7.922,7.922,0,0,1-.2-1.851m.745,3.22a4.543,4.543,0,0,1-.447-1,10.169,10.169,0,0,0,4.021,1.655,4.019,4.019,0,0,0,.42,1.553,8.747,8.747,0,0,1-3.994-2.206m8.369,2.04a8.218,8.218,0,0,1-1.166.28,10.166,10.166,0,0,1-2.5.019l-.073-.01a5.222,5.222,0,0,1-.288-1.556,12.511,12.511,0,0,0,4.553-.266,3.592,3.592,0,0,1-.531,1.533m-4.046-1.6q-.044-.764-.043-1.795,0-.647.022-1.343a12.965,12.965,0,0,0,4.714-.275c.023.461.036.908.035,1.338a14.946,14.946,0,0,1-.1,1.8,12.732,12.732,0,0,1-4.626.271" transform="translate(7.656 6.056)" fill="#bd6cf3"/>
      <path id="Path_456" data-name="Path 456" d="M25.153,10.92v6.043l-.2-.738-.116-.433-1.066-4-.211-.794-.224-.84-.011-.041H21.784V20.3h1.374V13.777L24.4,18.063l.32,1.1.324,1.118.005.023h1.478V10.112H25.153Z" transform="translate(7.86 6.707)" fill="#5f009f"/>
      <path id="Path_457" data-name="Path 457" d="M27.678,20.3h3.914V18.761H29.053v-2.78h1.856V14.436H29.053V11.656h2.539V10.112H27.678Z" transform="translate(7.939 6.707)" fill="#5f009f"/>
      <path id="Path_458" data-name="Path 458" d="M37.456,15.568l-.72-5.448H35.3l-.662,5.454-.722-5.454h-1.44L34,20.3h1.316l.732-5.6.784,5.6h1.309L39.566,10.12H38.124Z" transform="translate(8.003 6.708)" fill="#5f009f"/>
      <path id="Path_459" data-name="Path 459" d="M44.287,16.329a5.2,5.2,0,0,0-.785-1.122c-.1-.12-.313-.327-.632-.626a4.664,4.664,0,0,1-.611-.65,2.392,2.392,0,0,1-.539-1.423,1.58,1.58,0,0,1,.16-.747.62.62,0,0,1,.574-.374.64.64,0,0,1,.546.251,1.916,1.916,0,0,1,.321.976l1.315-.268a3.216,3.216,0,0,0-.3-1.18,2.047,2.047,0,0,0-.659-.8A2.142,2.142,0,0,0,42.417,10a1.93,1.93,0,0,0-1.28.431,2.62,2.62,0,0,0-.838,2.107,3.368,3.368,0,0,0,.306,1.432,5.794,5.794,0,0,0,.967,1.326q.815.863,1.222,1.293a1.988,1.988,0,0,1,.518,1.262,1.341,1.341,0,0,1-.139.674.845.845,0,0,1-.721.5.669.669,0,0,1-.567-.286,2.358,2.358,0,0,1-.422-1.291l-1.31.105a4.379,4.379,0,0,0,.3,1.443,2.464,2.464,0,0,0,.7,1,2,2,0,0,0,1.339.447,2.322,2.322,0,0,0,.763-.113,1.8,1.8,0,0,0,.947-.724,3.113,3.113,0,0,0,.495-1.822,3.051,3.051,0,0,0-.2-.975,4.526,4.526,0,0,0-.211-.479" transform="translate(8.106 6.693)" fill="#5f009f"/>
    </g>
  </g>
</svg>
