<svg xmlns="http://www.w3.org/2000/svg" xmlns:xlink="http://www.w3.org/1999/xlink" width="43.9" height="59.418" viewBox="0 0 43.9 59.418">
  <defs>
    <clipPath id="clip-path">
      <rect id="Rectangle_135" data-name="Rectangle 135" width="43.9" height="59.418" fill="none"/>
    </clipPath>
  </defs>
  <g id="Group_255" data-name="Group 255" transform="translate(0)">
    <g id="Group_179" data-name="Group 179" transform="translate(0)" clip-path="url(#clip-path)">
      <path id="Path_449" data-name="Path 449" d="M12.28,83.683H38.515a2.712,2.712,0,0,0,2.712-2.712V38.219a1.608,1.608,0,0,0-1.608-1.608H11.649a1.878,1.878,0,0,0-1.878,1.878V81.174a2.509,2.509,0,0,0,2.509,2.509M35.753,60.147a1.04,1.04,0,1,1,1.5.926l.8,1.592H35.534l.8-1.592a1.036,1.036,0,0,1-.577-.926" transform="translate(-7.099 -26.601)" fill="#5f009f"/>
      <path id="Path_450" data-name="Path 450" d="M43.9,6.507A6.526,6.526,0,0,0,37.393,0H9.911A2.833,2.833,0,0,0,7.99.75L.907,7.276A2.809,2.809,0,0,0,0,9.342V56.231a3.2,3.2,0,0,0,3.187,3.187h30.2a3.41,3.41,0,0,0,3.41-3.41V10.579A3.023,3.023,0,0,0,33.77,7.555H4.1A.324.324,0,0,1,3.878,7L8.841,2.461a2.688,2.688,0,0,1,1.793-.821H37.089A5.186,5.186,0,0,1,42.26,6.811v44.7c0,.846,1.641-.38,1.641-1.473ZM1.852,11.389a2.2,2.2,0,0,1,2.2-2.2H32.52a2.428,2.428,0,0,1,2.428,2.429V54.37A3.532,3.532,0,0,1,31.416,57.9H5.181a3.329,3.329,0,0,1-3.329-3.329Z" transform="translate(-0.001)" fill="#4e2f82"/>
      <path id="Path_451" data-name="Path 451" d="M67.281,61.2a.41.41,0,0,1-.41-.41V15.414a4.2,4.2,0,0,0-4.2-4.2H37.125a.41.41,0,1,1,0-.82H62.668a5.023,5.023,0,0,1,5.023,5.023V60.795a.41.41,0,0,1-.41.41" transform="translate(-26.676 -7.55)" fill="#bd6cf3"/>
      <path id="Path_452" data-name="Path 452" d="M59.337,69.346a.41.41,0,0,1-.41-.41V23.19A3.125,3.125,0,0,0,55.8,20.064H28.918a.41.41,0,0,1,0-.82H55.8a3.946,3.946,0,0,1,3.946,3.946V68.936a.41.41,0,0,1-.41.41" transform="translate(-20.713 -13.982)" fill="#bd6cf3"/>
    </g>
  </g>
</svg>
