<svg id="Group_263" data-name="Group 263" xmlns="http://www.w3.org/2000/svg" xmlns:xlink="http://www.w3.org/1999/xlink" width="53.688" height="61.18" viewBox="0 0 53.688 61.18">
  <defs>
    <linearGradient id="linear-gradient" x1="0.5" x2="0.5" y2="1" gradientUnits="objectBoundingBox">
      <stop offset="0" stop-color="#bd6cf3"/>
      <stop offset="0.477" stop-color="#3f0c62"/>
      <stop offset="1" stop-color="#300050"/>
    </linearGradient>
    <clipPath id="clip-path">
      <path id="Path_428" data-name="Path 428" d="M7.74,41.928a62.114,62.114,0,0,1,7.366-1.708c.328,1.156.7,2.266,1.115,3.319H10.141a8.918,8.918,0,0,0-.958.052q-.761-.8-1.443-1.663M38.582,40.22a62.116,62.116,0,0,1,7.366,1.708q-.681.86-1.443,1.663a8.918,8.918,0,0,0-.958-.052H37.466c.415-1.053.787-2.162,1.115-3.319M17.6,39.844a70.908,70.908,0,0,1,7.988-.586v4.28H18.93A31.429,31.429,0,0,1,17.6,39.844M28.1,39.259a70.908,70.908,0,0,1,7.988.586,31.435,31.435,0,0,1-1.325,3.694H28.1ZM4.415,36.314a24.128,24.128,0,0,1-1.881-8.223H13.371A50.757,50.757,0,0,0,14.5,37.785a64.047,64.047,0,0,0-8.276,1.991,24.3,24.3,0,0,1-1.8-3.462m12.381.239a48.506,48.506,0,0,1-.922-8.462h9.718v8.664a73.349,73.349,0,0,0-8.616.647q-.094-.42-.181-.849m11.3.2V28.092h9.718a48.506,48.506,0,0,1-.922,8.462q-.087.429-.181.849a73.348,73.348,0,0,0-8.616-.647m11.1,1.029a50.757,50.757,0,0,0,1.125-9.694H51.154a24.243,24.243,0,0,1-3.685,11.685,64.055,64.055,0,0,0-8.276-1.991M16.8,17.126q.087-.429.181-.849a73.355,73.355,0,0,0,8.616.647v8.664H15.874a48.506,48.506,0,0,1,.922-8.462m11.3-.2a73.355,73.355,0,0,0,8.616-.647q.094.42.181.849a48.506,48.506,0,0,1,.922,8.462H28.1Zm11.1-1.03A64.043,64.043,0,0,0,47.469,13.9a24.244,24.244,0,0,1,3.685,11.685H40.317A50.757,50.757,0,0,0,39.193,15.9M4.415,17.366a24.3,24.3,0,0,1,1.8-3.462A64.037,64.037,0,0,0,14.5,15.9a50.758,50.758,0,0,0-1.125,9.694H2.534a24.128,24.128,0,0,1,1.881-8.223M7.74,11.752A24.615,24.615,0,0,1,9.632,9.628a24.3,24.3,0,0,1,10.507-6.2A20.229,20.229,0,0,0,17.063,8.2a33.3,33.3,0,0,0-1.956,5.257A62.11,62.11,0,0,1,7.74,11.752M36.625,8.2a20.229,20.229,0,0,0-3.077-4.771,24.3,24.3,0,0,1,10.507,6.2,24.615,24.615,0,0,1,1.892,2.124,62.105,62.105,0,0,1-7.366,1.708A33.3,33.3,0,0,0,36.625,8.2M17.6,13.836a30.3,30.3,0,0,1,1.717-4.553A15.862,15.862,0,0,1,22.91,4.2a6.73,6.73,0,0,1,2.682-1.529V14.421a70.923,70.923,0,0,1-7.988-.586M28.1,2.667A6.73,6.73,0,0,1,30.778,4.2a15.862,15.862,0,0,1,3.59,5.087,30.3,30.3,0,0,1,1.717,4.553,70.923,70.923,0,0,1-7.988.586ZM26.844,0A26.835,26.835,0,0,0,6.48,44.332a8.82,8.82,0,0,0,3.661,16.844H43.547a8.82,8.82,0,0,0,3.661-16.844A26.836,26.836,0,0,0,26.844,0Z" transform="translate(0 0.004)" fill="url(#linear-gradient)"/>
    </clipPath>
    <clipPath id="clip-path-2">
      <rect id="Rectangle_127" data-name="Rectangle 127" width="53.688" height="61.18" fill="none"/>
    </clipPath>
  </defs>
  <g id="Group_171" data-name="Group 171" transform="translate(0 0)">
    <g id="Group_170" data-name="Group 170" transform="translate(0 0)" clip-path="url(#clip-path)">
      <rect id="Rectangle_126" data-name="Rectangle 126" width="53.688" height="61.18" transform="translate(0 0)" fill="url(#linear-gradient)"/>
    </g>
  </g>
  <g id="Group_173" data-name="Group 173" transform="translate(0 0)">
    <g id="Group_172" data-name="Group 172" transform="translate(0 0)" clip-path="url(#clip-path-2)">
      <path id="Path_429" data-name="Path 429" d="M295.591,1421.88h-.028l-1.629-6.139h-1.319l-1.629,6.139h-.028l-1.415-6.139h-1.511l2.182,8.135h1.4l1.64-5.84h.034l1.64,5.84h1.4l2.176-8.135h-1.505Z" transform="translate(-278.205 -1367.447)" fill="#fff"/>
      <path id="Path_430" data-name="Path 430" d="M640.886,1421.88h-.028l-1.629-6.139h-1.319l-1.629,6.139h-.028l-1.415-6.139h-1.511l2.182,8.135h1.4l1.641-5.84h.034l1.641,5.84h1.4l2.176-8.135H642.3Z" transform="translate(-611.722 -1367.447)" fill="#fff"/>
      <path id="Path_431" data-name="Path 431" d="M987.595,1415.74l-1.415,6.139h-.028l-1.629-6.139H983.2l-1.629,6.139h-.028l-1.415-6.139H978.62l2.182,8.135h1.4l1.641-5.84h.034l1.64,5.84h1.4l2.176-8.135Z" transform="translate(-945.237 -1367.447)" fill="#fff"/>
    </g>
  </g>
</svg>
