<svg xmlns="http://www.w3.org/2000/svg" xmlns:xlink="http://www.w3.org/1999/xlink" width="62.107" height="60.484" viewBox="0 0 62.107 60.484">
  <defs>
    <clipPath id="clip-path">
      <rect id="Rectangle_137" data-name="Rectangle 137" width="62.107" height="60.483" fill="none"/>
    </clipPath>
  </defs>
  <g id="Group_264" data-name="Group 264" transform="translate(-460 273)">
    <g id="Group_184" data-name="Group 184" transform="translate(460 -273)" clip-path="url(#clip-path)">
      <path id="Path_460" data-name="Path 460" d="M12.78,62.919q0-4.7,0-9.4a5.9,5.9,0,0,1,11.757-.736c.029.313.044.628.045.941q0,9.369,0,18.737a5.9,5.9,0,1,1-11.8.023V62.919" transform="translate(-7.087 -26.35)" fill="#bd6cf3"/>
      <path id="Path_461" data-name="Path 461" d="M111.926,62.942c0,3.145.02,6.29-.007,9.434a5.734,5.734,0,0,1-3.218,5.335,5.84,5.84,0,0,1-8.429-4.16,6.663,6.663,0,0,1-.109-1.163q-.009-9.45,0-18.9a5.876,5.876,0,0,1,11.738-.5c.074,1.667.026,3.339.029,5.009q0,2.473,0,4.945" transform="translate(-55.547 -26.349)" fill="#bd6cf3"/>
      <path id="Path_462" data-name="Path 462" d="M25.646,20.544a7.207,7.207,0,0,0-4.225-.041,21.529,21.529,0,0,1,43.009,0,7.106,7.106,0,0,0-4.2.041,17.547,17.547,0,0,0-7.7-13.274A16.486,16.486,0,0,0,42.211,4.3,17.476,17.476,0,0,0,25.646,20.544" transform="translate(-11.88 0)" fill="#5f009f"/>
      <path id="Path_463" data-name="Path 463" d="M52.3,119.892c1.084,0,2.168,0,3.252,0a2.209,2.209,0,0,1,2.287,2.24c.017.856.016,1.713.006,2.569a2.242,2.242,0,0,1-2.3,2.27q-3.268,0-6.536,0a2.235,2.235,0,0,1-2.254-2.217q-.021-1.317,0-2.634a2.208,2.208,0,0,1,2.264-2.229c1.095,0,2.19,0,3.284,0" transform="translate(-25.922 -66.491)" fill="#5f009f"/>
      <path id="Path_464" data-name="Path 464" d="M4.728,63.092v17c-.412-.241-.8-.431-1.145-.678A8.032,8.032,0,0,1,.592,75.154a11,11,0,0,1,.853-9.044,6.912,6.912,0,0,1,2.933-2.866c.1-.052.212-.093.349-.152" transform="translate(0 -34.99)" fill="#5f009f"/>
      <path id="Path_465" data-name="Path 465" d="M128.75,79.992V63.027c.336.183.648.326.933.512A7.907,7.907,0,0,1,132.923,68a10.8,10.8,0,0,1-1.233,9.58,6.531,6.531,0,0,1-2.576,2.279q-.116.057-.236.109a.893.893,0,0,1-.129.028" transform="translate(-71.404 -34.954)" fill="#5f009f"/>
      <path id="Path_466" data-name="Path 466" d="M32.7,124.136h-.371q-2.324,0-4.648,0a4.434,4.434,0,0,1-4.513-4.441c-.006-.291,0-.582,0-.862h2.545c0,.216,0,.472,0,.728a1.877,1.877,0,0,0,1.978,1.982q2.324,0,4.648,0H32.7Z" transform="translate(-12.845 -65.903)" fill="#5f009f"/>
    </g>
  </g>
</svg>
