<svg id="Group_261" data-name="Group 261" xmlns="http://www.w3.org/2000/svg" xmlns:xlink="http://www.w3.org/1999/xlink" width="50.607" height="60.519" viewBox="0 0 50.607 60.519">
  <defs>
    <clipPath id="clip-path">
      <rect id="Rectangle_46" data-name="Rectangle 46" width="50.606" height="60.519" fill="#5f009f"/>
    </clipPath>
  </defs>
  <g id="Group_30" data-name="Group 30" transform="translate(0)" clip-path="url(#clip-path)">
    <path id="Path_105" data-name="Path 105" d="M50.415,5.921a1.051,1.051,0,0,0-1.246-.969c-.339.064-.682.124-1.021.178a36.611,36.611,0,0,1-6.217.482,30.4,30.4,0,0,1-5.208-.494A26.709,26.709,0,0,1,32.51,3.977a23.954,23.954,0,0,1-3.238-1.455,20.672,20.672,0,0,1-2.279-1.436c-.266-.195-.529-.4-.784-.608A1.523,1.523,0,0,0,25.386,0a1.29,1.29,0,0,0-.833.366c-.415.335-.833.662-1.27.968a21.209,21.209,0,0,1-2.435,1.453A24.2,24.2,0,0,1,17.464,4.2a26.818,26.818,0,0,1-4.349,1.049,30.8,30.8,0,0,1-5.331.359,37.77,37.77,0,0,1-6.331-.658A1.053,1.053,0,0,0,.2,5.918c-.337,5.507-1.211,28.533,6.884,38.664,8.517,10.656,15.885,14.891,17.763,15.826a1.043,1.043,0,0,0,.923,0c1.89-.921,9.3-5.111,17.761-15.831,8.028-10.179,7.2-33.155,6.879-38.662M38.721,24.31l-15,16.647a3.041,3.041,0,0,1-4.073.408L13.894,37.1a3.043,3.043,0,0,1,3.623-4.889l3.532,2.619L34.2,20.237a3.043,3.043,0,1,1,4.521,4.073" transform="translate(0 0)" fill="#5f009f"/>
  </g>
</svg>
