<svg id="Group_262" data-name="Group 262" xmlns="http://www.w3.org/2000/svg" xmlns:xlink="http://www.w3.org/1999/xlink" width="68.012" height="60.701" viewBox="0 0 68.012 60.701">
  <defs>
    <clipPath id="clip-path">
      <rect id="Rectangle_54" data-name="Rectangle 54" width="68.012" height="60.701" fill="none"/>
    </clipPath>
    <clipPath id="clip-path-3">
      <rect id="Rectangle_47" data-name="Rectangle 47" width="9.884" height="1.636" fill="none"/>
    </clipPath>
    <clipPath id="clip-path-5">
      <path id="Rectangle_52" data-name="Rectangle 52" d="M3.177,0H7.769a3.176,3.176,0,0,1,3.176,3.176v0A3.177,3.177,0,0,1,7.768,6.353H3.177A3.177,3.177,0,0,1,0,3.177v0A3.177,3.177,0,0,1,3.177,0Z" fill="none"/>
    </clipPath>
  </defs>
  <g id="Group_43" data-name="Group 43" clip-path="url(#clip-path)">
    <g id="Group_36" data-name="Group 36">
      <g id="Group_35" data-name="Group 35" clip-path="url(#clip-path)">
        <path id="Path_106" data-name="Path 106" d="M129.894,100.939v21.483H87.913V100.939A1.541,1.541,0,0,1,89.452,99.4h38.9a1.541,1.541,0,0,1,1.539,1.539" transform="translate(-73.926 -83.585)" fill="#1c293d"/>
        <path id="Path_107" data-name="Path 107" d="M185.469,264.666v6.056h9.884v-6.056Z" transform="translate(-155.96 -222.556)" fill="#bc91f4"/>
        <path id="Path_108" data-name="Path 108" d="M179.454,304.045h-17.3a1.368,1.368,0,0,1,1.411-1.318h14.482a1.45,1.45,0,0,1,1,.386,1.271,1.271,0,0,1,.414.932" transform="translate(-136.351 -254.562)" fill="#bc91f4"/>
        <path id="Path_109" data-name="Path 109" d="M87.913,244.1v1.733a1.541,1.541,0,0,0,1.539,1.539h38.9a1.541,1.541,0,0,0,1.539-1.539V244.1Z" transform="translate(-73.926 -205.259)" fill="#bc91f4"/>
        <path id="Path_110" data-name="Path 110" d="M217.954,251.378a.523.523,0,1,1-.523-.523.524.524,0,0,1,.523.523" transform="translate(-182.396 -210.943)" fill="#e2e2e2"/>
        <g id="Group_34" data-name="Group 34" transform="translate(29.509 42.11)" opacity="0.17">
          <g id="Group_33" data-name="Group 33">
            <g id="Group_32" data-name="Group 32" clip-path="url(#clip-path-3)">
              <path id="Path_111" data-name="Path 111" d="M195.353,264.666v.508l-9.884,1.129v-1.636Z" transform="translate(-185.469 -264.666)" fill="#111b43"/>
            </g>
          </g>
        </g>
        <path id="Path_112" data-name="Path 112" d="M218.737,105.028a.258.258,0,1,1-.258-.258.258.258,0,0,1,.258.258" transform="translate(-183.501 -88.101)" fill="#6ce0b3"/>
        <path id="Path_113" data-name="Path 113" d="M98.721,112.3v19.225h38.542V112.3Z" transform="translate(-83.014 -94.434)" fill="#f3f2ff"/>
        <rect id="Rectangle_48" data-name="Rectangle 48" width="38.542" height="2.783" transform="translate(15.707 17.868)" fill="#584ae4"/>
        <path id="Path_114" data-name="Path 114" d="M110.834,118.831a.42.42,0,1,1-.42-.42.42.42,0,0,1,.42.42" transform="translate(-92.494 -99.571)" fill="#e382b8"/>
        <path id="Path_115" data-name="Path 115" d="M125.7,118.924a.42.42,0,1,1-.315-.5.42.42,0,0,1,.315.5" transform="translate(-105.005 -99.571)" fill="#7cdabe"/>
        <path id="Path_116" data-name="Path 116" d="M140.486,118.831a.42.42,0,1,1-.42-.42.42.42,0,0,1,.42.42" transform="translate(-117.429 -99.571)" fill="#edba2c"/>
        <path id="Path_117" data-name="Path 117" d="M144.075,149.61H110.869a.874.874,0,0,1-.874-.874V141.1a.874.874,0,0,1,.874-.874h33.206a.874.874,0,0,1,.874.874v7.634a.874.874,0,0,1-.874.874" transform="translate(-92.494 -117.916)" fill="#e7e3fd"/>
        <line id="Line_2" data-name="Line 2" x2="17.735" transform="translate(17.501 33.169)" fill="none" stroke="#e7e3fd" stroke-linecap="round" stroke-miterlimit="10" stroke-width="3"/>
        <line id="Line_3" data-name="Line 3" x2="34.954" transform="translate(17.501 34.376)" fill="none" stroke="#e7e3fd" stroke-linecap="round" stroke-miterlimit="10" stroke-width="3"/>
        <line id="Line_4" data-name="Line 4" x2="9.426" transform="translate(36.92 33.169)" fill="none" stroke="#e7e3fd" stroke-linecap="round" stroke-miterlimit="10" stroke-width="3"/>
        <line id="Line_5" data-name="Line 5" x2="4.445" transform="translate(48.01 33.169)" fill="none" stroke="#e7e3fd" stroke-linecap="round" stroke-miterlimit="10" stroke-width="3"/>
        <line id="Line_6" data-name="Line 6" x1="17.735" transform="translate(34.72 35.582)" fill="none" stroke="#e7e3fd" stroke-linecap="round" stroke-miterlimit="10" stroke-width="3"/>
        <line id="Line_7" data-name="Line 7" x1="9.426" transform="translate(23.61 35.582)" fill="none" stroke="#e7e3fd" stroke-linecap="round" stroke-miterlimit="10" stroke-width="3"/>
        <line id="Line_8" data-name="Line 8" x1="4.445" transform="translate(17.501 35.582)" fill="none" stroke="#e7e3fd" stroke-linecap="round" stroke-miterlimit="10" stroke-width="3"/>
        <path id="Path_118" data-name="Path 118" d="M8.26,155.771v3.12c0,.56-1.849,1.013-4.13,1.013S0,159.451,0,158.891v-3.12c0,.56,1.849,1.015,4.129,1.015s4.13-.455,4.13-1.015" transform="translate(-0.001 -130.987)" fill="#e382b8"/>
        <path id="Path_119" data-name="Path 119" d="M8.26,136.171v3.118c0,.56-1.849,1.015-4.13,1.015S0,139.85,0,139.289v-3.118Z" transform="translate(-0.001 -114.506)" fill="#bc91f4"/>
        <path id="Path_120" data-name="Path 120" d="M8.26,175.381v2.776c0,.56-1.849,1.013-4.13,1.013S0,178.717,0,178.157v-2.776c0,.56,1.849,1.014,4.129,1.014s4.13-.453,4.13-1.014" transform="translate(-0.001 -147.477)" fill="#bc91f4"/>
        <path id="Path_121" data-name="Path 121" d="M8.259,130.811c0,.56-1.849,1.013-4.13,1.013S0,131.37,0,130.811,1.849,129.8,4.13,129.8s4.13.454,4.13,1.014" transform="translate(0 -109.146)" fill="#7cdabe"/>
        <path id="Path_122" data-name="Path 122" d="M51.387,277.867h1.386a.375.375,0,0,1,.213.343c.017.227.055.452.08.678a.1.1,0,0,0,.079.1q.395.156.785.324a.1.1,0,0,0,.125-.013c.195-.157.391-.31.588-.464a.284.284,0,0,1,.411.021q.418.416.834.835a.284.284,0,0,1,.025.41c-.153.2-.307.394-.464.588a.1.1,0,0,0-.015.124q.17.394.328.793a.094.094,0,0,0,.09.073c.245.027.489.06.734.088a.292.292,0,0,1,.291.32q0,.576,0,1.152a.294.294,0,0,1-.294.327c-.245.027-.489.061-.734.088-.054.006-.07.03-.088.076-.105.263-.213.525-.325.784a.109.109,0,0,0,.016.132c.155.192.306.386.458.581a.285.285,0,0,1-.024.418q-.412.415-.827.828a.286.286,0,0,1-.418.023c-.2-.153-.394-.307-.589-.463a.1.1,0,0,0-.116-.013q-.394.169-.793.328c-.046.018-.07.035-.076.088-.026.245-.06.489-.087.734a.293.293,0,0,1-.318.294H51.5a.293.293,0,0,1-.32-.292c-.027-.242-.06-.483-.086-.725a.108.108,0,0,0-.084-.1q-.391-.153-.776-.32a.109.109,0,0,0-.133.013c-.191.155-.386.306-.581.458a.286.286,0,0,1-.424-.026q-.411-.411-.82-.822a.287.287,0,0,1-.027-.418c.153-.2.307-.394.463-.588a.1.1,0,0,0,.011-.125q-.168-.39-.324-.785a.1.1,0,0,0-.1-.077c-.226-.025-.451-.063-.678-.08a.374.374,0,0,1-.343-.214V281.97a.377.377,0,0,1,.343-.213c.227-.016.452-.054.678-.079a.1.1,0,0,0,.1-.078q.155-.395.324-.784a.109.109,0,0,0-.017-.132c-.154-.192-.306-.386-.457-.581a.285.285,0,0,1,.024-.418q.412-.415.827-.827a.285.285,0,0,1,.417-.024c.194.151.389.3.581.457a.109.109,0,0,0,.132.016q.389-.168.784-.324a.1.1,0,0,0,.078-.1c.025-.226.063-.451.08-.678a.373.373,0,0,1,.213-.343m.707,2.4a2.4,2.4,0,1,0,2.385,2.415,2.4,2.4,0,0,0-2.385-2.415" transform="translate(-39.761 -233.657)" fill="#584ae4"/>
        <path id="Path_123" data-name="Path 123" d="M101.523,317.96l1.175.313a.329.329,0,0,1,.1.339c-.037.2-.055.4-.086.593a.089.089,0,0,0,.045.1q.3.221.592.452a.09.09,0,0,0,.109.017c.2-.089.4-.175.6-.26a.249.249,0,0,1,.343.111q.261.447.519.9a.249.249,0,0,1-.071.354c-.175.132-.349.265-.526.394a.09.09,0,0,0-.041.1q.055.372.1.746a.083.083,0,0,0,.06.082c.2.078.4.161.6.24a.257.257,0,0,1,.174.337q-.129.488-.26.976a.258.258,0,0,1-.323.211c-.214-.032-.428-.058-.642-.092a.083.083,0,0,0-.091.044c-.148.2-.3.4-.453.591a.1.1,0,0,0-.016.116c.088.2.173.4.257.6a.25.25,0,0,1-.114.349q-.443.259-.888.516a.251.251,0,0,1-.359-.075c-.132-.174-.264-.349-.394-.525a.085.085,0,0,0-.1-.038q-.372.054-.746.1c-.043.005-.067.014-.084.057-.077.2-.161.4-.239.6a.257.257,0,0,1-.336.177l-.984-.262a.257.257,0,0,1-.206-.319c.032-.211.058-.423.091-.634a.1.1,0,0,0-.048-.105q-.3-.218-.586-.446a.1.1,0,0,0-.115-.019c-.2.088-.4.173-.6.257a.251.251,0,0,1-.354-.118q-.256-.44-.509-.882a.252.252,0,0,1,.071-.36c.174-.132.349-.265.526-.394a.09.09,0,0,0,.038-.1q-.054-.368-.1-.738a.088.088,0,0,0-.065-.088c-.186-.072-.368-.155-.557-.221a.328.328,0,0,1-.242-.258l.313-1.175a.331.331,0,0,1,.339-.1c.2.037.4.056.593.086a.089.089,0,0,0,.1-.045q.221-.3.451-.591a.1.1,0,0,0,.016-.116c-.088-.2-.172-.4-.256-.6a.25.25,0,0,1,.114-.349q.443-.258.888-.514a.25.25,0,0,1,.359.074c.13.172.261.344.389.519a.1.1,0,0,0,.109.043q.368-.055.737-.1a.089.089,0,0,0,.088-.064c.072-.186.155-.368.221-.556a.327.327,0,0,1,.258-.242m.058,2.192a2.1,2.1,0,1,0,1.476,2.585,2.106,2.106,0,0,0-1.476-2.585" transform="translate(-81.404 -267.371)" fill="#7cdabe"/>
        <path id="Path_124" data-name="Path 124" d="M60.88,341.268l.721.558a.246.246,0,0,1-.027.264c-.082.125-.153.257-.232.385a.067.067,0,0,0,0,.082q.143.24.278.484a.068.068,0,0,0,.07.043c.164,0,.328,0,.493,0a.187.187,0,0,1,.205.176q.05.385.1.77a.187.187,0,0,1-.152.224c-.159.041-.318.081-.478.119a.067.067,0,0,0-.058.058q-.07.273-.149.545a.062.062,0,0,0,.017.074c.117.112.23.228.347.341a.193.193,0,0,1,.022.284l-.464.6a.193.193,0,0,1-.285.052c-.138-.084-.279-.165-.417-.25a.062.062,0,0,0-.076,0c-.16.094-.322.187-.485.277a.071.071,0,0,0-.045.075c0,.162,0,.324,0,.487a.187.187,0,0,1-.18.208l-.764.1a.188.188,0,0,1-.227-.156c-.041-.159-.081-.318-.12-.478a.064.064,0,0,0-.055-.054q-.273-.071-.545-.149a.062.062,0,0,0-.075.015c-.112.117-.228.23-.341.347a.192.192,0,0,1-.284.025l-.6-.467a.193.193,0,0,1-.049-.281c.083-.137.163-.275.247-.412a.071.071,0,0,0,0-.087q-.141-.237-.275-.479a.071.071,0,0,0-.074-.047c-.162,0-.324,0-.486,0a.188.188,0,0,1-.21-.185q-.048-.379-.1-.758a.189.189,0,0,1,.154-.228c.159-.041.318-.082.478-.12.036-.009.047-.026.056-.06.047-.18.1-.36.147-.539a.066.066,0,0,0-.019-.079c-.108-.1-.209-.215-.321-.315a.246.246,0,0,1-.092-.249l.558-.721a.248.248,0,0,1,.264.027c.124.083.257.154.384.232a.067.067,0,0,0,.082,0q.24-.143.484-.277a.071.071,0,0,0,.045-.075c0-.162,0-.324,0-.486a.188.188,0,0,1,.18-.208l.763-.1a.187.187,0,0,1,.227.156c.04.157.081.314.118.472a.072.072,0,0,0,.062.061q.27.069.538.147a.066.066,0,0,0,.079-.019c.1-.108.214-.209.315-.32a.245.245,0,0,1,.249-.092m-.6,1.532a1.577,1.577,0,1,0,.268,2.216,1.58,1.58,0,0,0-.268-2.216" transform="translate(-47.199 -286.629)" fill="#bc91f4"/>
        <path id="Path_125" data-name="Path 125" d="M9.693,113.468a.37.37,0,1,1,0,.487.346.346,0,0,1,0-.487" transform="translate(-8.067 -95.355)" fill="#584ae4"/>
        <path id="Path_126" data-name="Path 126" d="M25.955,54.819a19.848,19.848,0,0,1,6.362-11.264A19.409,19.409,0,0,1,40,39.428" transform="translate(-21.825 -33.155)" fill="none" stroke="#bc91f4" stroke-linecap="round" stroke-miterlimit="10" stroke-width="2.328"/>
        <path id="Path_127" data-name="Path 127" d="M18.275,35.311a21.589,21.589,0,0,1,14.256-12.5" transform="translate(-15.367 -19.178)" fill="none" stroke="#584ae4" stroke-linecap="round" stroke-miterlimit="10" stroke-width="2.328"/>
        <path id="Path_128" data-name="Path 128" d="M101.118,4.881c-.036,0-.071,0-.106.005A3.667,3.667,0,0,0,95.8,2.009a4.5,4.5,0,0,0-8.1,1.373,2.849,2.849,0,1,0-.707,5.609h14.124a2.055,2.055,0,1,0,0-4.11" transform="translate(-70.757)" fill="#e7e3fd"/>
        <path id="Path_129" data-name="Path 129" d="M14.538,243.065a.367.367,0,1,1-.068-.514.366.366,0,0,1,.068.514" transform="translate(-11.672 -203.897)" fill="#7cdabe"/>
        <path id="Path_130" data-name="Path 130" d="M21.3,259.944a13.625,13.625,0,0,1-1.794-4" transform="translate(-16.403 -215.219)" fill="none" stroke="#7cdabe" stroke-linecap="round" stroke-miterlimit="10" stroke-width="2.492"/>
        <path id="Path_131" data-name="Path 131" d="M42.881,227.745a18.55,18.55,0,0,1-2.66-7.141" transform="translate(-33.822 -185.505)" fill="none" stroke="#bc91f4" stroke-linecap="round" stroke-miterlimit="10" stroke-width="2.492"/>
        <path id="Path_132" data-name="Path 132" d="M6.3,148.709a.42.42,0,1,1-.42-.42.42.42,0,0,1,.42.42" transform="translate(-4.594 -124.696)" fill="#7cdabe"/>
        <path id="Path_133" data-name="Path 133" d="M6.3,167.346a.42.42,0,1,1-.42-.42.42.42,0,0,1,.42.42" transform="translate(-4.594 -140.367)" fill="#7cdabe"/>
        <path id="Path_134" data-name="Path 134" d="M6.3,185.982a.42.42,0,1,1-.42-.42.42.42,0,0,1,.42.42" transform="translate(-4.594 -156.038)" fill="#7cdabe"/>
      </g>
    </g>
    <text id="_" data-name="{" transform="translate(25.146 24.754)" fill="#7cdabe" font-size="2" font-family="SegoeUI, Segoe UI"><tspan x="0" y="0">{</tspan></text>
    <text id="API" transform="translate(28.981 27.754)" fill="#584ae4" font-size="5" font-family="SegoeUI, Segoe UI"><tspan x="0" y="0" letter-spacing="0.1em">AP</tspan><tspan y="0">I</tspan></text>
    <text id="_2" data-name="}" transform="translate(40.975 24.754)" fill="#7cdabe" font-size="2" font-family="SegoeUI, Segoe UI"><tspan x="0" y="0">}</tspan></text>
    <g id="Group_38" data-name="Group 38">
      <g id="Group_37" data-name="Group 37" clip-path="url(#clip-path)">
        <path id="Path_135" data-name="Path 135" d="M342.58,31.863H331.421a1.731,1.731,0,0,1-1.731-1.731V3.089a1.731,1.731,0,0,1,1.731-1.731H342.58a1.731,1.731,0,0,1,1.731,1.731V30.131a1.731,1.731,0,0,1-1.731,1.731" transform="translate(-277.235 -1.142)" fill="#f3f2ff"/>
        <path id="Path_136" data-name="Path 136" d="M351.55,126.3h-9.672a.636.636,0,0,1-.636-.636v-9.149a.636.636,0,0,1,.636-.636h9.672a.636.636,0,0,1,.636.636v9.149a.636.636,0,0,1-.636.636" transform="translate(-286.949 -97.444)" fill="#bc91f4"/>
        <path id="Path_137" data-name="Path 137" d="M351.55,52.455h-9.672a.636.636,0,0,1-.636-.636V46.738a.636.636,0,0,1,.636-.636h9.672a.636.636,0,0,1,.636.636v5.081a.636.636,0,0,1-.636.636" transform="translate(-286.949 -38.767)" fill="#7cdabe"/>
        <rect id="Rectangle_50" data-name="Rectangle 50" width="13.814" height="2.964" transform="translate(52.859 0.601)" fill="#584ae4"/>
        <path id="Path_138" data-name="Path 138" d="M341.739.357H330.58a1.893,1.893,0,0,0-1.89,1.89V29.289a1.893,1.893,0,0,0,1.89,1.89h11.158a1.893,1.893,0,0,0,1.89-1.89V2.247a1.893,1.893,0,0,0-1.89-1.89m1.1,28.843a1.144,1.144,0,0,1-1.143,1.143H330.623a1.143,1.143,0,0,1-1.143-1.143V2.336a1.143,1.143,0,0,1,1.143-1.143H341.7a1.144,1.144,0,0,1,1.143,1.143Z" transform="translate(-276.394 -0.3)" fill="#170d34"/>
        <path id="Path_139" data-name="Path 139" d="M358.57,5.746h-6.226a.7.7,0,0,1-.7-.7V4.562h7.636v.479a.705.705,0,0,1-.7.7" transform="translate(-295.692 -3.836)" fill="#170d34"/>
        <path id="Path_140" data-name="Path 140" d="M368.483,7.675h-1.75a.129.129,0,1,1,0-.257h1.75a.129.129,0,1,1,0,.257" transform="translate(-308.276 -6.238)" fill="#e7e3fd"/>
        <path id="Path_141" data-name="Path 141" d="M381.994,6.889a.253.253,0,1,1-.253-.253.253.253,0,0,1,.253.253" transform="translate(-320.792 -5.58)" fill="#e7e3fd"/>
        <path id="Path_142" data-name="Path 142" d="M363.529,125.3v.8a.215.215,0,0,1-.2.122c-.13.01-.26.032-.39.046a.058.058,0,0,0-.055.045q-.089.227-.186.451a.059.059,0,0,0,.008.072c.09.112.178.225.266.338a.163.163,0,0,1-.012.236q-.239.24-.479.479a.163.163,0,0,1-.236.014c-.113-.088-.226-.176-.338-.266a.059.059,0,0,0-.071-.009q-.226.1-.455.189a.054.054,0,0,0-.042.052c-.015.141-.034.281-.05.422a.168.168,0,0,1-.184.167h-.662a.169.169,0,0,1-.188-.169c-.016-.141-.035-.281-.05-.422,0-.031-.017-.04-.043-.05-.151-.06-.3-.122-.45-.187a.063.063,0,0,0-.076.009c-.11.089-.222.176-.334.263a.164.164,0,0,1-.24-.014l-.476-.475a.164.164,0,0,1-.013-.24c.088-.113.176-.226.266-.338a.056.056,0,0,0,.008-.067q-.1-.226-.188-.456c-.01-.026-.02-.04-.051-.043-.141-.015-.281-.034-.422-.05a.168.168,0,0,1-.169-.183q0-.333,0-.667a.168.168,0,0,1,.167-.184c.139-.015.277-.034.416-.049a.062.062,0,0,0,.059-.048q.088-.225.184-.446a.063.063,0,0,0-.007-.076c-.089-.11-.176-.222-.263-.333a.164.164,0,0,1,.015-.244l.472-.471a.165.165,0,0,1,.24-.015c.113.088.226.176.338.266a.059.059,0,0,0,.072.006c.149-.064.3-.126.451-.186a.058.058,0,0,0,.045-.056c.014-.13.036-.259.046-.39a.215.215,0,0,1,.123-.2h.8a.217.217,0,0,1,.122.2c.009.13.031.259.046.389a.058.058,0,0,0,.045.055q.227.089.45.186a.063.063,0,0,0,.076-.01c.11-.089.222-.176.334-.262a.164.164,0,0,1,.24.014l.475.475a.164.164,0,0,1,.014.24c-.087.112-.174.223-.263.333a.062.062,0,0,0-.009.076q.1.224.186.45a.058.058,0,0,0,.056.045c.13.014.259.036.389.046a.214.214,0,0,1,.2.122m-1.378.406a1.377,1.377,0,1,0-1.387,1.37,1.379,1.379,0,0,0,1.387-1.37" transform="translate(-301.056 -103.384)" fill="#f3f2ff"/>
        <line id="Line_9" data-name="Line 9" x2="8.24" transform="translate(55.646 25.935)" fill="none" stroke="#f3f2ff" stroke-linecap="round" stroke-miterlimit="10" stroke-width="2"/>
        <line id="Line_10" data-name="Line 10" x2="8.24" transform="translate(55.646 26.835)" fill="none" stroke="#f3f2ff" stroke-linecap="round" stroke-miterlimit="10" stroke-width="2"/>
        <line id="Line_11" data-name="Line 11" x2="8.24" transform="translate(55.646 27.735)" fill="none" stroke="#f3f2ff" stroke-linecap="round" stroke-miterlimit="10" stroke-width="2"/>
        <path id="Path_143" data-name="Path 143" d="M351.55,95.564h-9.672a.636.636,0,0,1-.636-.636V93.682a.636.636,0,0,1,.636-.636h9.672a.636.636,0,0,1,.636.636v1.245a.636.636,0,0,1-.636.636" transform="translate(-286.949 -78.242)" fill="#e382b8"/>
      </g>
    </g>
    <g id="Group_40" data-name="Group 40" transform="translate(54.293 7.335)">
      <g id="Group_39" data-name="Group 39" clip-path="url(#clip-path-5)">
        <path id="Path_144" data-name="Path 144" d="M324.194,38.757a5.025,5.025,0,0,1,2.868-1.157c1.041-.128,2.1-.094,3.136-.237a4.805,4.805,0,0,0,2.829-1.239" transform="translate(-326.906 -37.712)" fill="none" stroke="#584ae4" stroke-miterlimit="10" stroke-width="1"/>
        <path id="Path_145" data-name="Path 145" d="M324.485,38.809a7.381,7.381,0,0,0,5.371-.246c1.737-.782,3.112-2.214,4.83-3.036a7.814,7.814,0,0,1,4.537-.668" transform="translate(-327.151 -36.573)" fill="none" stroke="#584ae4" stroke-miterlimit="10" stroke-width="1"/>
        <path id="Path_146" data-name="Path 146" d="M337.878,44.6a8.03,8.03,0,0,1-4.53,1.9,13.7,13.7,0,0,0-4.791,1.309c-.978.577-1.774,1.434-2.779,1.963a5.027,5.027,0,0,1-4.089.238" transform="translate(-324.799 -44.842)" fill="none" stroke="#584ae4" stroke-miterlimit="10" stroke-width="1"/>
        <path id="Path_147" data-name="Path 147" d="M340.908,64.317a4.05,4.05,0,0,1,2.485-1.706,16.057,16.057,0,0,1,3.063-.367,8.022,8.022,0,0,0,3-.659,21.313,21.313,0,0,0,2.11-1.415,3.414,3.414,0,0,1,2.389-.672" transform="translate(-340.961 -57.339)" fill="none" stroke="#584ae4" stroke-miterlimit="10" stroke-width="1"/>
        <path id="Path_148" data-name="Path 148" d="M369.275,72.493a7.974,7.974,0,0,0,4.023-1.4,14.054,14.054,0,0,1,1.885-1.295,7.482,7.482,0,0,1,3.349-.467" transform="translate(-364.815 -65.627)" fill="none" stroke="#584ae4" stroke-miterlimit="10" stroke-width="1"/>
        <path id="Path_149" data-name="Path 149" d="M394.083,75.723a3.716,3.716,0,0,0-3.055.634,6.6,6.6,0,0,1-2.941,1.24" transform="translate(-380.635 -70.897)" fill="none" stroke="#584ae4" stroke-miterlimit="10" stroke-width="1"/>
        <path id="Path_150" data-name="Path 150" d="M409.636,81.361a2.916,2.916,0,0,1,2.509-1.2" transform="translate(-398.754 -74.739)" fill="none" stroke="#584ae4" stroke-miterlimit="10" stroke-width="1"/>
        <path id="Path_151" data-name="Path 151" d="M322.263,33.938a7.126,7.126,0,0,0,2.132-.2,2.409,2.409,0,0,0,1.589-1.338" transform="translate(-325.283 -34.577)" fill="none" stroke="#584ae4" stroke-miterlimit="10" stroke-width="1"/>
        <path id="Path_152" data-name="Path 152" d="M334.96,37.154a13.637,13.637,0,0,1-3.74,2.112c-1.635.76-3.2,1.687-4.892,2.3a8.249,8.249,0,0,1-5.3.353" transform="translate(-324.246 -38.578)" fill="none" stroke="#584ae4" stroke-miterlimit="10" stroke-width="1"/>
      </g>
    </g>
    <text id="API-2" data-name="API" transform="translate(56.731 4.501)" fill="#584ae4" font-size="1" font-family="SegoeUI, Segoe UI"><tspan x="0" y="0" letter-spacing="0.2em">AP</tspan><tspan y="0">I</tspan></text>
    <g id="Group_42" data-name="Group 42">
      <g id="Group_41" data-name="Group 41" clip-path="url(#clip-path)">
        <path id="Path_153" data-name="Path 153" d="M339.84,52.255a.367.367,0,1,1,.367.367.367.367,0,0,1-.367-.367" transform="translate(-285.77 -43.632)" fill="#bc91f4"/>
        <path id="Path_154" data-name="Path 154" d="M310.831,25.553a24.863,24.863,0,0,1-9.044,3.331" transform="translate(-253.771 -21.487)" fill="none" stroke="#e382b8" stroke-linecap="round" stroke-miterlimit="10" stroke-width="2.492"/>
        <path id="Path_155" data-name="Path 155" d="M205.74,45.115a28.137,28.137,0,0,1-5.882.618,27.893,27.893,0,0,1-14.57-4.081" transform="translate(-155.808 -35.026)" fill="none" stroke="#bc91f4" stroke-linecap="round" stroke-miterlimit="10" stroke-width="2.492"/>
        <path id="Path_156" data-name="Path 156" d="M294.639,301.133v7.988a.885.885,0,0,1-.841.923H280.842a.885.885,0,0,1-.841-.923v-7.063a.885.885,0,0,1,.841-.923h5.607a4.2,4.2,0,0,0,1.908-.462,4.2,4.2,0,0,1,1.908-.462H293.8a.885.885,0,0,1,.841.923" transform="translate(-235.452 -252.445)" fill="#bc91f4"/>
        <path id="Path_157" data-name="Path 157" d="M302.654,310.88v7.988a.885.885,0,0,1-.841.923H288.857a.885.885,0,0,1-.841-.923V311.8a.885.885,0,0,1,.841-.923h5.607a4.2,4.2,0,0,0,1.908-.462,4.2,4.2,0,0,1,1.908-.462h3.532a.885.885,0,0,1,.841.923" transform="translate(-242.191 -260.641)" fill="#584ae4"/>
        <path id="Path_158" data-name="Path 158" d="M312.4,320.627v7.988a.885.885,0,0,1-.841.923H298.605a.885.885,0,0,1-.841-.923v-7.063a.885.885,0,0,1,.841-.923h5.607a4.2,4.2,0,0,0,1.908-.462,4.2,4.2,0,0,1,1.908-.462h3.532a.885.885,0,0,1,.841.923" transform="translate(-250.388 -268.838)" fill="#e382b8"/>
        <path id="Path_159" data-name="Path 159" d="M306.013,331.405h0a.224.224,0,0,1-.02-.317l.255-.289a.225.225,0,0,1,.337.3l-.255.289a.225.225,0,0,1-.317.02" transform="translate(-257.261 -278.104)" fill="#fff"/>
        <path id="Path_160" data-name="Path 160" d="M363.24,340.963h0a.225.225,0,0,1-.287.137l-.363-.128a.225.225,0,1,1,.149-.424l.363.128a.225.225,0,0,1,.137.287" transform="translate(-304.774 -286.355)" fill="#fff"/>
        <path id="Path_161" data-name="Path 161" d="M308.61,367.438h0a.225.225,0,0,1-.287.137l-.363-.128a.225.225,0,1,1,.149-.424l.363.128a.225.225,0,0,1,.137.287" transform="translate(-258.836 -308.618)" fill="#fff"/>
        <path id="Path_162" data-name="Path 162" d="M323.38,337.334h0a.224.224,0,0,1,.213-.236l.385-.02a.225.225,0,1,1,.023.449l-.385.02a.225.225,0,0,1-.236-.213" transform="translate(-271.929 -283.447)" fill="#fff"/>
        <path id="Path_163" data-name="Path 163" d="M378.626,353.186h0a.225.225,0,0,1,.213-.236l.385-.02a.225.225,0,0,1,.023.449l-.385.02a.225.225,0,0,1-.236-.213" transform="translate(-318.384 -296.777)" fill="#fff"/>
        <path id="Path_164" data-name="Path 164" d="M345.347,371.3h0a.225.225,0,0,1,.213-.236l.385-.02a.225.225,0,1,1,.023.449l-.385.02a.225.225,0,0,1-.236-.213" transform="translate(-290.401 -312.01)" fill="#fff"/>
        <path id="Path_165" data-name="Path 165" d="M368.2,358.151h0a.225.225,0,0,1,.213-.236l.385-.02a.225.225,0,1,1,.023.449l-.385.02a.225.225,0,0,1-.236-.213" transform="translate(-309.614 -300.952)" fill="#fff"/>
        <path id="Path_166" data-name="Path 166" d="M329.98,353.972h0a.225.225,0,0,1,.307-.082l.334.193a.225.225,0,1,1-.225.389l-.334-.193a.225.225,0,0,1-.082-.307" transform="translate(-277.453 -297.559)" fill="#fff"/>
        <path id="Path_167" data-name="Path 167" d="M342.917,333.156h0a.225.225,0,0,1,.307-.082l.334.193a.225.225,0,0,1-.225.389l-.334-.193a.225.225,0,0,1-.082-.307" transform="translate(-288.332 -280.055)" fill="#fff"/>
        <path id="Path_168" data-name="Path 168" d="M327.862,367.649h0a.224.224,0,0,1,.013-.317l.284-.261a.225.225,0,0,1,.3.331l-.284.261a.225.225,0,0,1-.317-.013" transform="translate(-275.648 -308.618)" fill="#fff"/>
        <path id="Path_169" data-name="Path 169" d="M319.03,374.993h0a.225.225,0,0,1,.013-.317l.284-.261a.225.225,0,0,1,.3.331l-.284.261a.225.225,0,0,1-.317-.013" transform="translate(-268.221 -314.794)" fill="#fff"/>
        <path id="Path_170" data-name="Path 170" d="M349.249,348.033h0a.225.225,0,0,1,.16.274l-.1.373a.225.225,0,1,1-.435-.114l.1-.373a.225.225,0,0,1,.274-.16" transform="translate(-293.363 -292.653)" fill="#fff"/>
        <path id="Path_171" data-name="Path 171" d="M374.87,370.316h0a.225.225,0,0,1,.318,0l.272.272a.225.225,0,0,1-.318.318l-.272-.272a.225.225,0,0,1,0-.318" transform="translate(-315.171 -311.342)" fill="#fff"/>
        <path id="Path_172" data-name="Path 172" d="M375.732,329.6h0a.225.225,0,0,1,.16.274l-.1.372a.225.225,0,1,1-.435-.114l.1-.372a.225.225,0,0,1,.274-.16" transform="translate(-315.632 -277.153)" fill="#fff"/>
        <path id="Path_173" data-name="Path 173" d="M358.621,374.011h0a.225.225,0,0,1,.16.274l-.1.372a.225.225,0,1,1-.435-.114l.1-.372a.225.225,0,0,1,.274-.16" transform="translate(-301.244 -314.498)" fill="#fff"/>
        <path id="Path_174" data-name="Path 174" d="M312.312,348.033h0a.225.225,0,0,1,.16.274l-.1.373a.225.225,0,1,1-.435-.114l.1-.372a.225.225,0,0,1,.274-.16" transform="translate(-262.302 -292.653)" fill="#fff"/>
        <path id="Path_175" data-name="Path 175" d="M374.61,324.293a.367.367,0,1,1,.234.463.367.367,0,0,1-.234-.463" transform="translate(-314.992 -272.484)" fill="#584ae4"/>
        <path id="Path_176" data-name="Path 176" d="M344.212,236.066a25.182,25.182,0,0,1-1,4.3,24.914,24.914,0,0,1-9.378,12.673" transform="translate(-280.716 -198.507)" fill="none" stroke="#7cdabe" stroke-linecap="round" stroke-miterlimit="10" stroke-width="2.492"/>
        <path id="Path_177" data-name="Path 177" d="M391.556,174.8a27.988,27.988,0,0,1-4.3,22.22" transform="translate(-325.641 -146.987)" fill="none" stroke="#584ae4" stroke-linecap="round" stroke-miterlimit="10" stroke-width="2.492"/>
        <path id="Path_178" data-name="Path 178" d="M243.994,358.277a.367.367,0,1,1,.107.507.366.366,0,0,1-.107-.507" transform="translate(-205.123 -301.134)" fill="#584ae4"/>
        <path id="Path_179" data-name="Path 179" d="M195.646,357.491a18.584,18.584,0,0,1,6.1-.184" transform="translate(-164.518 -300.315)" fill="none" stroke="#584ae4" stroke-linecap="round" stroke-miterlimit="10" stroke-width="2.492"/>
        <path id="Path_180" data-name="Path 180" d="M178.015,347.1a18.507,18.507,0,0,1,10.471-.476" transform="translate(-149.692 -291.024)" fill="none" stroke="#bc91f4" stroke-linecap="round" stroke-miterlimit="10" stroke-width="2.492"/>
        <path id="Path_181" data-name="Path 181" d="M216.65,37.08a21.8,21.8,0,0,1-3.786.564,21.585,21.585,0,0,1-13.2-3.512" transform="translate(-167.893 -28.701)" fill="none" stroke="#7cdabe" stroke-linecap="round" stroke-miterlimit="10" stroke-width="2.16"/>
      </g>
    </g>
  </g>
</svg>
