<svg id="Group_245" data-name="Group 245" xmlns="http://www.w3.org/2000/svg" xmlns:xlink="http://www.w3.org/1999/xlink" width="64" height="66.407" viewBox="0 0 64 66.407">
  <defs>
    <clipPath id="clip-path">
      <rect id="Rectangle_138" data-name="Rectangle 138" width="64" height="66.407" fill="none"/>
    </clipPath>
    <clipPath id="clip-path-2">
      <rect id="Rectangle_139" data-name="Rectangle 139" width="5.203" height="5.198" fill="#5f009f"/>
    </clipPath>
  </defs>
  <g id="Group_187" data-name="Group 187" transform="translate(0 0)">
    <g id="Group_186" data-name="Group 186" clip-path="url(#clip-path)">
      <path id="Path_467" data-name="Path 467" d="M97.674,20.516c-.13.814-.283,1.728-.418,2.644a1.153,1.153,0,0,0,.067.4,4.934,4.934,0,0,1,.289,1.31c-.067,1.109-.231,2.212-.374,3.315-.063.481-.02.574.5.7a7.5,7.5,0,0,1,3.889,2.124,4.683,4.683,0,0,1,.075,6.7q-3.514,3.873-7.04,7.734a6.827,6.827,0,0,0-1.477,2.48,4.985,4.985,0,0,1-3.757,3.353c-.785.2-.784.2-.784,1q0,4.5,0,9c0,.675.038.73.683.946a6.061,6.061,0,0,1,4.41,5.491,6.26,6.26,0,1,1-8.132-5.456c.59-.172.719-.333.719-.938q0-4.587-.007-9.173c0-.6-.064-.685-.642-.816a5.344,5.344,0,0,1-4.146-3.848,5.055,5.055,0,0,0-1.027-1.7c-2.3-2.619-4.57-5.272-6.987-7.78-2.479-2.573-1.9-5.992.929-7.941a7.6,7.6,0,0,1,2.832-1.166c.511-.105.555-.162.433-.656a13.87,13.87,0,0,1-.384-3.825,4.07,4.07,0,0,1,.235-.8,1.258,1.258,0,0,0,.061-.513,12.52,12.52,0,0,1,.02-5.86,8.962,8.962,0,0,1,7.43-6.688A11.4,11.4,0,0,1,92.9,11.591a8.707,8.707,0,0,1,4.672,7.189c.056.538.064,1.082.1,1.736M82.169,18.738a1.78,1.78,0,0,0-.17.2q-.877,1.518-1.748,3.039a3.632,3.632,0,0,0-.491,2.51,5.842,5.842,0,0,1,.072.677c.058.925.054,1.858.176,2.775a12.111,12.111,0,0,0,3.265,6.933,5.59,5.59,0,0,0,8.333.118A11.04,11.04,0,0,0,94.043,31.4a18.779,18.779,0,0,0,1.094-7.785,3.858,3.858,0,0,0-.777-2.146A.974.974,0,0,0,93.344,21c-.494.069-.994.109-1.493.134a18.079,18.079,0,0,1-6.816-.715,8.6,8.6,0,0,1-2.866-1.678m1.128,24.9-.087.037-4.766-5.557c-.218-.254-.1-.433.124-.6.653-.51,1.3-1.031,1.952-1.538.248-.192.318-.387.1-.648a12.261,12.261,0,0,1-2.189-4,.427.427,0,0,0-.555-.322,5.217,5.217,0,0,0-2.452,1.053,2.734,2.734,0,0,0-.369,4.29c.075.086.151.171.228.257q3.556,3.978,7.112,7.956a5.492,5.492,0,0,1,1.387,2.568A2.371,2.371,0,0,0,84.825,48.6a4.549,4.549,0,0,0,3.3.751,3.23,3.23,0,0,0,3.094-2.463A5.112,5.112,0,0,1,92.49,44.6q3.773-4.157,7.526-8.333a2.562,2.562,0,0,0,.086-3.6,5,5,0,0,0-2.8-1.633c-.547-.142-.643-.1-.822.437a11.553,11.553,0,0,1-2.053,3.779c-.245.294-.194.481.093.7.647.495,1.269,1.02,1.914,1.516.27.207.332.379.087.66q-2.239,2.568-4.457,5.154c-.1.121-.2.252-.3.379.13-1.08.348-2.083.563-3.088s.42-1.993.633-3.005c-.09.006-.125,0-.145.011q-2.386,1.593-4.771,3.188c-.231.154-.192.308-.048.5.337.444.67.891.992,1.345a1.261,1.261,0,0,1,.25.488c.14.888.255,1.781.373,2.672a1.249,1.249,0,0,1-.381,1.05,2.5,2.5,0,0,1-3.415.109,1.191,1.191,0,0,1-.418-.988c.109-1.648.178-3.3,1.543-4.527.283-.254.226-.472-.121-.7-1.321-.873-2.62-1.781-3.924-2.682-.278-.192-.54-.407-.81-.612l-.107.049L83.3,43.636m.2,24.539a3.959,3.959,0,0,0,7.916-.007,4.063,4.063,0,0,0-3.953-3.941A3.985,3.985,0,0,0,83.5,68.175" transform="translate(-55.549 -7.947)" fill="#5f009f"/>
      <path id="Path_468" data-name="Path 468" d="M23.251,61.787c-.439-.117-.8-.189-1.147-.309A32.228,32.228,0,0,1,2.223,43.141a28.967,28.967,0,0,1-1.739-16.6C2.321,15.584,10.689,5.6,22.237,1.729A29.48,29.48,0,0,1,33.307.036,31.4,31.4,0,0,1,45.945,3.494a32.115,32.115,0,0,1,16.5,18.883,29.539,29.539,0,0,1,1.424,12.257,30.038,30.038,0,0,1-4.137,12.5C55.54,54.324,49.3,58.926,41.511,61.578c-.255.087-.52.146-.852.237a6.178,6.178,0,0,0,.119-.785c.013-.707.036-1.417-.014-2.122-.029-.405.19-.529.477-.649,1.171-.488,2.376-.908,3.507-1.475A28.034,28.034,0,0,0,60.329,36.519a24.989,24.989,0,0,0-1.693-15.095A28.841,28.841,0,0,0,44.167,6.284,10.762,10.762,0,0,1,40.9,3.9,11.139,11.139,0,0,0,33.312.386,13.139,13.139,0,0,0,25.118,2.14a10.456,10.456,0,0,0-3.057,2.776,2.29,2.29,0,0,1-.884.7,31.8,31.8,0,0,0-10.262,7.091,28.38,28.38,0,0,0-7.121,13.8c-1.757,8.148.26,15.42,5.244,21.961a28.941,28.941,0,0,0,13.649,9.816c.37.132.441.294.366.654a6.1,6.1,0,0,0,.2,2.851" transform="translate(0 0)" fill="#bd6cf3"/>
      <path id="Path_469" data-name="Path 469" d="M200.041,159.15c-.086-.838-.169-1.558-.233-2.281q-.4-4.565-.789-9.131a1.07,1.07,0,0,0-.607-.943c-1.564-.859-3.116-1.739-4.667-2.62-.613-.348-.62-.457-.161-.994.241-.282.467-.576.705-.861a.653.653,0,0,1,.914-.164c1.714.97,3.435,1.925,5.14,2.91a2.459,2.459,0,0,1,1.247,1.947c.317,2.909.618,5.82.934,8.729a1.075,1.075,0,0,1-.382.98c-.455.429-.86.913-1.272,1.386-.261.3-.5.621-.829,1.042" transform="translate(-149.187 -109.647)" fill="#5f009f"/>
      <path id="Path_470" data-name="Path 470" d="M48.732,159.19c-.516-.62-.958-1.157-1.409-1.688a2.58,2.58,0,0,0-.5-.522,1.364,1.364,0,0,1-.551-1.514c.335-2.779.631-5.563.934-8.345a2.227,2.227,0,0,1,1.091-1.8q2.719-1.586,5.465-3.127a.494.494,0,0,1,.455.012c.481.5.929,1.037,1.422,1.6-.174.124-.3.231-.443.313q-2.461,1.434-4.928,2.859a.9.9,0,0,0-.482.754q-.434,4.887-.874,9.773c-.047.526-.11,1.05-.177,1.682" transform="translate(-35.695 -109.732)" fill="#5f009f"/>
      <path id="Path_471" data-name="Path 471" d="M170.881,190.707h-.728c-.575,0-.748-.164-.755-.729-.006-.485,0-.971,0-1.456,0-.516-.087-.605-.59-.6-.457,0-.914.013-1.371.006s-.634-.171-.649-.613c-.019-.571-.025-1.142-.012-1.713.011-.482.2-.654.7-.664.385-.008.771,0,1.156,0,.7,0,.77-.069.765-.748,0-.457-.006-.914,0-1.37.012-.509.169-.681.661-.694.556-.015,1.114-.006,1.67,0a.548.548,0,0,1,.614.607c.006.514,0,1.028.015,1.541s.164.657.677.667c.414.008.828,0,1.242-.01a.536.536,0,0,1,.627.585c.009.6.015,1.2.013,1.8,0,.428-.246.613-.656.613l-1.37,0c-.465,0-.552.088-.548.543.005.5.013,1,.006,1.5-.008.583-.166.733-.745.738-.243,0-.486,0-.728,0Z" transform="translate(-128.74 -140.587)" fill="#5f009f"/>
    </g>
  </g>
  <g id="Group_190" data-name="Group 190" transform="translate(29.398 57.674)">
    <g id="Group_188" data-name="Group 188" transform="translate(0 0)" clip-path="url(#clip-path-2)">
      <path id="Path_472" data-name="Path 472" d="M5.2,2.639A2.624,2.624,0,0,1,2.566,5.2,2.532,2.532,0,0,1,0,2.6,2.557,2.557,0,0,1,2.579,0,2.635,2.635,0,0,1,5.2,2.639" transform="translate(0 0)" fill="#5f009f"/>
    </g>
  </g>
</svg>
