<svg xmlns="http://www.w3.org/2000/svg" xmlns:xlink="http://www.w3.org/1999/xlink" width="64.235" height="78.572" viewBox="0 0 64.235 78.572">
  <defs>
    <clipPath id="clip-path">
      <rect id="Rectangle_14" data-name="Rectangle 14" width="64.235" height="78.572" fill="none"/>
    </clipPath>
  </defs>
  <g id="Group_4" data-name="Group 4" transform="translate(0 0.001)">
    <g id="Group_3" data-name="Group 3" transform="translate(0 -0.001)" clip-path="url(#clip-path)">
      <path id="Path_21" data-name="Path 21" d="M13.056,692.257H75.035v18.661H13.056ZM26.114,706.88q4.8,0,9.6,0c.79,0,1.133-.341,1.134-1.133q0-4.195,0-8.39a1,1,0,0,0-1.152-1.131q-9.579,0-19.159,0c-.8,0-1.151.36-1.152,1.166q0,4.152,0,8.3c0,.854.322,1.181,1.17,1.182q4.779,0,9.558,0m41.2,0a5.317,5.317,0,1,0-5.275-5.343,5.321,5.321,0,0,0,5.275,5.343m-7.783-5.3q0-2.12,0-4.24a.962.962,0,1,0-1.9-.006q0,4.241,0,8.481a.958.958,0,1,0,1.9.005c0-1.413,0-2.827,0-4.24m-18.24.044c0-1.442,0-2.885,0-4.327a.978.978,0,0,0-.458-.918.881.881,0,0,0-.944-.029,1.019,1.019,0,0,0-.5.984q0,4.219,0,8.437c0,.7.389,1.141.972,1.13.567-.011.925-.44.927-1.124q0-2.077,0-4.154m4.571-.046q0-2.12,0-4.24a1,1,0,0,0-.949-1.111.986.986,0,0,0-.948,1.113q-.006,4.219,0,8.437c0,.677.366,1.108.934,1.119.592.012.965-.417.967-1.121q0-2.1,0-4.2m4.565-.008q0-2.1,0-4.2a1.013,1.013,0,0,0-.965-1.146c-.558,0-.936.444-.936,1.119q0,4.219,0,8.437c0,.685.358,1.1.936,1.113s.965-.424.967-1.129q0-2.1,0-4.2m4.546.022c0-1.414,0-2.827,0-4.241a1.006,1.006,0,0,0-.982-1.129c-.554.011-.922.467-.921,1.142q0,1.666.006,3.332c0,1.717,0,3.433,0,5.15a.956.956,0,0,0,.7,1.02.944.944,0,0,0,1.194-.989c.011-1.428,0-2.856,0-4.284" transform="translate(-11.926 -632.346)" fill="#5f009f"/>
      <path id="Path_22" data-name="Path 22" d="M32.128,550.971q-14.82,0-29.64,0a2.376,2.376,0,0,1-2.389-1.7,2.269,2.269,0,0,1,.987-2.633,3.245,3.245,0,0,1,1.512-.4q9.173-.041,18.347-.018c6.807.006,13.615.03,20.422.03q10.125,0,20.249-.03a2.424,2.424,0,0,1,2.549,1.84,2.356,2.356,0,0,1-2.094,2.9c-.172.012-.346.009-.519.009H32.128" transform="translate(0 -498.947)" fill="#5f009f"/>
      <path id="Path_23" data-name="Path 23" d="M209.937,301.78a8.065,8.065,0,0,0,3.1.9,8.154,8.154,0,0,0,6.5-2.344,6.34,6.34,0,0,1,5.246-1.835c.115.011.228.034.343.045a2.128,2.128,0,0,1,1.833,1.309c1.862,3.6,3.832,7.135,5.705,10.725a5.376,5.376,0,0,1-.4,5.923,3.52,3.52,0,0,1-3.068,1.548q-10.255-.031-20.509,0a3.539,3.539,0,0,1-3.091-1.587,5.267,5.267,0,0,1-.488-5.688c1.517-2.995,3.151-5.931,4.735-8.891a.949.949,0,0,1,.093-.108m17.162,5.808a3.486,3.486,0,1,0,3.476,3.5,3.49,3.49,0,0,0-3.476-3.5m-14.975-1.72a3.494,3.494,0,1,0,3.465,3.523,3.522,3.522,0,0,0-3.465-3.523m8.22,3.128a3.464,3.464,0,0,0,3.494-3.477,3.424,3.424,0,0,0-3.458-3.5,3.487,3.487,0,1,0-.036,6.975m-1.436,1.018a3.489,3.489,0,1,0,.048,6.977,3.489,3.489,0,0,0-.048-6.977" transform="translate(-186.796 -272.637)" fill="#5f009f"/>
      <rect id="Rectangle_12" data-name="Rectangle 12" width="53.842" height="4.032" transform="translate(5.187 53.947)" fill="#5f009f"/>
      <path id="Path_24" data-name="Path 24" d="M281.824,55.451h7.85V56c0,4.572-.005,9.144.011,13.716a2.344,2.344,0,0,0,.251,1.022c.662,1.293,1.363,2.565,2.076,3.893-.142,0-.234.006-.325,0A8.235,8.235,0,0,0,285.062,77a6.3,6.3,0,0,1-6.958,1.339c-.145-.062-.285-.135-.462-.219.059-.127.106-.242.164-.35,1.239-2.312,2.489-4.618,3.708-6.94a2.577,2.577,0,0,0,.3-1.14c.02-4.63.013-9.26.013-13.889Z" transform="translate(-253.614 -50.652)" fill="#bd6cf3"/>
      <path id="Path_25" data-name="Path 25" d="M303.354,2.923c-1.63,0-3.26.006-4.89,0a1.407,1.407,0,0,1-1.352-.843,1.381,1.381,0,0,1,.195-1.541A1.391,1.391,0,0,1,298.441,0q4.933,0,9.866,0a1.436,1.436,0,0,1,1.469,1.444,1.442,1.442,0,0,1-1.488,1.47c-1.644.013-3.289,0-4.933,0" transform="translate(-271.261 0.001)" fill="#bd6cf3"/>
      <rect id="Rectangle_13" data-name="Rectangle 13" width="17.615" height="6.82" transform="translate(5.392 65.8)" fill="#bd6cf3"/>
      <path id="Path_26" data-name="Path 26" d="M600.8,763.539a3.431,3.431,0,1,1,3.436,3.427,3.428,3.428,0,0,1-3.436-3.427" transform="translate(-548.804 -694.317)" fill="#bd6cf3"/>
      <path id="Path_27" data-name="Path 27" d="M275.465,405.834a1.582,1.582,0,0,1,1.573,1.606,1.619,1.619,0,0,1-1.638,1.6,1.6,1.6,0,0,1,.065-3.207" transform="translate(-250.132 -370.711)" fill="#bd6cf3"/>
      <path id="Path_28" data-name="Path 28" d="M372.092,362.841a1.621,1.621,0,0,1-1.576,1.621,1.593,1.593,0,0,1-1.639-1.592,1.607,1.607,0,1,1,3.215-.03" transform="translate(-336.953 -329.979)" fill="#bd6cf3"/>
      <path id="Path_29" data-name="Path 29" d="M354.156,453.764a1.586,1.586,0,0,1,1.6,1.584,1.624,1.624,0,0,1-1.622,1.62,1.6,1.6,0,1,1,.025-3.2" transform="translate(-322.027 -414.493)" fill="#bd6cf3"/>
      <path id="Path_30" data-name="Path 30" d="M448.476,425.89a1.586,1.586,0,0,1,1.6,1.584,1.624,1.624,0,0,1-1.622,1.62,1.6,1.6,0,1,1,.025-3.2" transform="translate(-408.185 -389.032)" fill="#bd6cf3"/>
    </g>
  </g>
</svg>
