<svg id="Group_6" data-name="Group 6" xmlns="http://www.w3.org/2000/svg" xmlns:xlink="http://www.w3.org/1999/xlink" width="98.694" height="65.749" viewBox="0 0 98.694 65.749">
  <defs>
    <clipPath id="clip-path">
      <rect id="Rectangle_15" data-name="Rectangle 15" width="98.694" height="65.749" fill="none"/>
    </clipPath>
  </defs>
  <g id="Group_5" data-name="Group 5" clip-path="url(#clip-path)">
    <path id="Path_31" data-name="Path 31" d="M0,68.18A19.589,19.589,0,0,1,16.906,48.914a19.444,19.444,0,0,1,11.671,1.715,18.9,18.9,0,0,1,6.514,5.859,46.87,46.87,0,0,1,4.127,6.888c.256.508.56.912,1.184.913s.932-.4,1.187-.911a45.3,45.3,0,0,1,4.937-7.943,17.106,17.106,0,0,1,13.869-6.715c.727-.008,1.455.028,2.182.051a3.925,3.925,0,0,1,.436.064c-4.831,6.229-6.377,13.115-3.89,20.609,2.478,7.464,7.8,12.082,15.4,14.247-.635.575-1.221,1.133-1.836,1.657a95.055,95.055,0,0,1-10.432,7.363,149.562,149.562,0,0,0-17.029,12.224c-1.625,1.4-3.2,2.86-4.832,4.318a.988.988,0,0,1-.177-.119A118.992,118.992,0,0,0,22.06,94.977c-3.859-2.527-7.71-5.071-11.488-7.718A57.881,57.881,0,0,1,6.157,83.5c-.132-.114-.243-.253-.466-.489H6.4c5.061,0,10.121-.008,15.181.009a1.526,1.526,0,0,0,1.5-.875c.691-1.26,1.429-2.494,2.15-3.738.085-.147.182-.287.338-.531.191,1.413.368,2.706.541,4q.588,4.407,1.174,8.814a1.172,1.172,0,0,0,1.081,1.122,1.185,1.185,0,0,0,1.222-.905c.859-2.593,1.719-5.186,2.553-7.787.126-.392.3-.537.708-.509.566.038,1.136-.008,1.7.014a1.292,1.292,0,0,0,1.331-.851c1.183-2.56,2.381-5.114,3.574-7.669.074-.159.153-.317.267-.552.07.184.126.3.16.422q1.05,3.713,2.1,7.426c.244.862.552,1.1,1.441,1.1q4,0,7.99,0c.837,0,1.351-.454,1.345-1.171a1.183,1.183,0,0,0-1.324-1.152c-2.273-.01-4.546-.015-6.818.006-.426,0-.608-.1-.726-.536q-1.3-4.748-2.657-9.48a2.048,2.048,0,0,0-.455-.876,1.128,1.128,0,0,0-1.842.437c-.734,1.537-1.444,3.084-2.164,4.628-.854,1.833-1.717,3.662-2.554,5.5a.651.651,0,0,1-.725.451c-.6-.033-1.207-.014-1.811-.011a1.237,1.237,0,0,0-1.4,1.035c-.42,1.3-.848,2.589-1.375,3.881-.143-1.053-.289-2.105-.429-3.159q-.5-3.8-1-7.6c0-.035-.012-.07-.018-.105-.115-.727-.434-1.121-.992-1.223a1.236,1.236,0,0,0-1.321.774c-1.207,2.09-2.425,4.174-3.609,6.277a.9.9,0,0,1-.917.515q-8.15-.025-16.3,0a1,1,0,0,1-.939-.512A20.609,20.609,0,0,1,0,68.18" transform="translate(0 -43.502)" fill="#5f009f"/>
    <path id="Path_32" data-name="Path 32" d="M585.506,0a19.195,19.195,0,1,1-19.212,19.055A19.171,19.171,0,0,1,585.506,0m-4.3,23.457c0,.268,0,.475,0,.683,0,1.651-.027,3.3.01,4.953a4.262,4.262,0,0,0,8.521-.061c.011-.692.006-1.384.007-2.077,0-1.147,0-2.293,0-3.5h.638c1.562,0,3.124.005,4.686,0a5.19,5.19,0,0,0,1.057-.088,4.263,4.263,0,0,0-.834-8.434c-1.65-.022-3.3,0-4.952-.006-.187,0-.374-.018-.6-.03,0-1.685.005-3.315,0-4.945a6.881,6.881,0,0,0-.08-1.324,4.264,4.264,0,0,0-8.45.844c-.012,1.438,0,2.876,0,4.314v1.144h-.644c-1.615,0-3.231-.01-4.846,0a4.263,4.263,0,1,0,.013,8.526c1.615.009,3.231,0,4.846,0h.631" transform="translate(-505.961 0)" fill="#bd6cf3"/>
    <path id="Path_33" data-name="Path 33" d="M650.155,75.6c0,1.066-.007,2.131,0,3.2.008.971.437,1.395,1.4,1.4,2.131,0,4.262-.007,6.392.005a1.94,1.94,0,0,1,1.954,1.625,1.9,1.9,0,0,1-1.191,2.095,2.983,2.983,0,0,1-.99.151c-2.024.013-4.048,0-6.073.006-1.085,0-1.486.4-1.489,1.469q-.007,3.09-.007,6.18a1.936,1.936,0,1,1-3.861.038c0-2.078,0-4.155,0-6.233,0-1.044-.409-1.452-1.449-1.453-2.1,0-4.19.013-6.285-.005a1.941,1.941,0,1,1,.012-3.877h6.232c1.088,0,1.487-.391,1.488-1.466,0-2.113-.005-4.226,0-6.339a1.927,1.927,0,0,1,3.686-.81,2.6,2.6,0,0,1,.163.932c.02,1.03.007,2.06.007,3.09" transform="translate(-568.708 -62.941)" fill="#5f009f"/>
  </g>
</svg>
