<svg id="Group_8" data-name="Group 8" xmlns="http://www.w3.org/2000/svg" xmlns:xlink="http://www.w3.org/1999/xlink" width="68.765" height="80.906" viewBox="0 0 68.765 80.906">
  <defs>
    <clipPath id="clip-path">
      <rect id="Rectangle_19" data-name="Rectangle 19" width="68.765" height="80.906" fill="none"/>
    </clipPath>
  </defs>
  <g id="Group_7" data-name="Group 7" clip-path="url(#clip-path)">
    <path id="Path_34" data-name="Path 34" d="M319.816,17A16.9,16.9,0,1,1,302.97,0a17.011,17.011,0,0,1,16.846,17m-12.746,9.96V21.216h5.713V12.86h-5.736v-5.7h-8.328v5.751h-5.682v8.316h5.718v5.736Z" transform="translate(-251.05 0)" fill="#bd6cf3"/>
    <path id="Path_35" data-name="Path 35" d="M39.366,345.417a5.536,5.536,0,0,0,4.628-1.65,7.443,7.443,0,0,0,9.664-.006,6.179,6.179,0,0,0,4.766,1.7,6.079,6.079,0,0,0,4.768-1.7,7.415,7.415,0,0,0,9.639.019l.354.309a5.24,5.24,0,0,0,3.621,1.387c.387,0,.775-.014,1.161,0a5.522,5.522,0,0,0,4.412-1.7,5.722,5.722,0,0,0,4.711,1.688v31.67h-25v-.716q0-10.974,0-21.948c0-1.374-.5-1.875-1.878-1.876H42.847c-1.355,0-1.879.525-1.879,1.887q0,10.882,0,21.765v.888h-1.6ZM65.3,372.032H83.537V351.094H65.3Z" transform="translate(-34.553 -301.73)" fill="#5f009f"/>
    <path id="Path_36" data-name="Path 36" d="M77.34,440.756H92.432v21.523H77.34Zm6.065,10.8c0,1.019-.007,2.038,0,3.056a1.488,1.488,0,1,0,2.97.009q.017-3.087,0-6.174a1.489,1.489,0,1,0-2.97-.009c-.009,1.039,0,2.078,0,3.117" transform="translate(-67.884 -386.87)" fill="#5f009f"/>
    <path id="Path_37" data-name="Path 37" d="M36.669,172.005c.387-.9.74-1.739,1.106-2.572.507-1.155,1.014-2.31,1.541-3.456A1.732,1.732,0,0,1,41.1,164.9c7.515.035,15.03.02,22.545.02h.789a19.37,19.37,0,0,0,2.533,7.08Z" transform="translate(-32.186 -144.743)" fill="#5f009f"/>
    <rect id="Rectangle_18" data-name="Rectangle 18" width="57.338" height="2.438" transform="translate(0.016 78.468)" fill="#5f009f"/>
    <path id="Path_38" data-name="Path 38" d="M135.671,82.776a20.994,20.994,0,0,0-1.245,7.073H116.742c.408-1.538.8-3.031,1.2-4.52.18-.668.393-1.327.571-1.995.119-.446.372-.577.836-.575,5.071.02,10.143.016,15.214.018h1.1" transform="translate(-102.469 -72.64)" fill="#5f009f"/>
    <path id="Path_39" data-name="Path 39" d="M39.1,250.082H0v-2.465H.742q17.784,0,35.569-.01a1.208,1.208,0,0,1,1.058.445c.6.739,1.232,1.448,1.733,2.03" transform="translate(0 -217.335)" fill="#5f009f"/>
    <path id="Path_40" data-name="Path 40" d="M175.477,292.852c0,.915.021,1.729,0,2.542a2.4,2.4,0,0,1-2.44,2.37c-.61,0-1.221.007-1.831,0a2.239,2.239,0,0,1-2.318-2.18c-.041-.892-.008-1.786-.008-2.731Z" transform="translate(-148.218 -257.048)" fill="#bd6cf3"/>
    <path id="Path_41" data-name="Path 41" d="M247.18,292.7h6.529a27.369,27.369,0,0,1-.028,3.174,2.268,2.268,0,0,1-2.161,1.749c-.63.017-1.261.008-1.892.007a2.278,2.278,0,0,1-2.437-2.192c-.06-.889-.011-1.786-.011-2.738" transform="translate(-216.943 -256.911)" fill="#bd6cf3"/>
    <path id="Path_42" data-name="Path 42" d="M11.879,293.033h6.466a31.2,31.2,0,0,1-.024,3.128,2.271,2.271,0,0,1-2.072,1.776c-.73.031-1.464.032-2.194-.01a2.279,2.279,0,0,1-2.15-1.848,25.449,25.449,0,0,1-.026-3.046" transform="translate(-10.395 -257.207)" fill="#bd6cf3"/>
    <path id="Path_43" data-name="Path 43" d="M90.091,292.958h6.546a29.247,29.247,0,0,1-.023,3.062,2.275,2.275,0,0,1-2.207,1.855c-.631.018-1.263.008-1.895.006a2.311,2.311,0,0,1-2.407-2.128c-.078-.906-.015-1.824-.015-2.795" transform="translate(-79.056 -257.141)" fill="#bd6cf3"/>
    <path id="Path_44" data-name="Path 44" d="M325.256,291.706c2.038.244,4.074-.34,6.058.385.377.138.572.275.536.713-.045.546.007,1.1-.018,1.647a2.265,2.265,0,0,1-2.294,2.216q-.976.017-1.953,0a2.249,2.249,0,0,1-2.309-2.008c-.1-.94-.019-1.9-.019-2.952" transform="translate(-285.465 -256.042)" fill="#bd6cf3"/>
    <path id="Path_45" data-name="Path 45" d="M403.346,300.776l6.683-.263a14.528,14.528,0,0,1-.216,2.273,2.356,2.356,0,0,1-2.295,1.683c-.528.017-1.057,0-1.585,0a2.478,2.478,0,0,1-2.583-2.439c-.023-.443,0-.888,0-1.258" transform="translate(-354.026 -263.772)" fill="#bd6cf3"/>
  </g>
</svg>
