<svg id="Group_12" data-name="Group 12" xmlns="http://www.w3.org/2000/svg" xmlns:xlink="http://www.w3.org/1999/xlink" width="35.426" height="47.363" viewBox="0 0 35.426 47.363">
  <defs>
    <clipPath id="clip-path">
      <rect id="Rectangle_34" data-name="Rectangle 34" width="35.426" height="47.363" fill="#5f009f"/>
    </clipPath>
  </defs>
  <g id="Group_11" data-name="Group 11" clip-path="url(#clip-path)">
    <path id="Path_95" data-name="Path 95" d="M14.134,5.846c-.76-2.212-.33-3.957,1.233-5.087a4.015,4.015,0,0,1,5.938,5.066,1.644,1.644,0,0,0,.221.089,12.163,12.163,0,0,1,8.614,7.5,20.279,20.279,0,0,1,1.548,6.768c.13,2.112.127,4.231.23,6.345A33.951,33.951,0,0,0,33.7,36.6a24.769,24.769,0,0,0,1.427,3.03,1.73,1.73,0,0,1,.094,1.781,1.644,1.644,0,0,1-1.577.826q-15.955-.009-31.91,0a1.6,1.6,0,0,1-1.524-.849A1.6,1.6,0,0,1,.3,39.671,19.91,19.91,0,0,0,2.715,33.13a49.266,49.266,0,0,0,.9-10.019,26.79,26.79,0,0,1,1.1-8.089A13.329,13.329,0,0,1,9.865,7.675,12.062,12.062,0,0,1,13.9,5.916c.071-.017.14-.042.234-.07m3.58-.292a8.985,8.985,0,0,1,.921.007.688.688,0,0,0,.659-.306,2.015,2.015,0,1,0-3.179-.037.732.732,0,0,0,.715.342,8,8,0,0,1,.884-.007" transform="translate(0 0)" fill="#5f009f"/>
    <path id="Path_96" data-name="Path 96" d="M180.959,582.134h8.713a4.124,4.124,0,0,1-1.635,3.383,4.346,4.346,0,0,1-7.077-3.383" transform="translate(-167.583 -539.138)" fill="#5f009f"/>
  </g>
</svg>
