<svg xmlns="http://www.w3.org/2000/svg" xmlns:xlink="http://www.w3.org/1999/xlink" width="228.113" height="37.511" viewBox="0 0 228.113 37.511">
  <defs>
    <clipPath id="clip-path">
      <rect id="Rectangle_137" data-name="Rectangle 137" width="38.518" height="37.511" fill="none"/>
    </clipPath>
  </defs>
  <g id="Group_271" data-name="Group 271" transform="translate(-1471.401 -941)">
    <g id="Group_267" data-name="Group 267" transform="translate(1471.401 941)">
      <g id="Group_184" data-name="Group 184" transform="translate(0 0)" clip-path="url(#clip-path)">
        <path id="Path_460" data-name="Path 460" d="M12.78,57.067q0-2.915,0-5.831a3.657,3.657,0,0,1,7.292-.457c.018.194.027.389.028.584q0,5.81,0,11.621A3.66,3.66,0,1,1,12.78,63V57.067" transform="translate(-9.249 -34.387)" fill="#bd6cf3"/>
        <path id="Path_461" data-name="Path 461" d="M107.457,57.08c0,1.95.012,3.9,0,5.851a3.556,3.556,0,0,1-2,3.309,3.622,3.622,0,0,1-5.227-2.58,4.133,4.133,0,0,1-.067-.721q-.006-5.861,0-11.722a3.644,3.644,0,0,1,7.28-.31c.046,1.034.016,2.071.018,3.106s0,2.044,0,3.067" transform="translate(-72.491 -34.386)" fill="#bd6cf3"/>
        <path id="Path_462" data-name="Path 462" d="M24.041,12.741a4.47,4.47,0,0,0-2.62-.025,13.352,13.352,0,0,1,26.674,0,4.407,4.407,0,0,0-2.607.025,10.883,10.883,0,0,0-4.775-8.232,10.225,10.225,0,0,0-6.4-1.842A10.839,10.839,0,0,0,24.041,12.741" transform="translate(-15.504 0)" fill="#5f009f"/>
        <path id="Path_463" data-name="Path 463" d="M50.189,119.892c.672,0,1.344,0,2.017,0a1.37,1.37,0,0,1,1.418,1.389c.01.531.01,1.062,0,1.593a1.391,1.391,0,0,1-1.428,1.408q-2.027,0-4.053,0a1.386,1.386,0,0,1-1.4-1.375q-.013-.817,0-1.634a1.369,1.369,0,0,1,1.4-1.382c.679,0,1.358,0,2.037,0" transform="translate(-33.83 -86.773)" fill="#5f009f"/>
        <path id="Path_464" data-name="Path 464" d="M2.932,63.092V73.636c-.256-.15-.5-.267-.71-.42A4.981,4.981,0,0,1,.367,70.573,6.819,6.819,0,0,1,.9,64.964a4.287,4.287,0,0,1,1.819-1.778c.064-.032.131-.058.216-.094" transform="translate(0 -45.664)" fill="#5f009f"/>
        <path id="Path_465" data-name="Path 465" d="M128.75,73.548V63.027c.208.113.4.2.579.317a4.9,4.9,0,0,1,2.01,2.764,6.7,6.7,0,0,1-.765,5.942,4.05,4.05,0,0,1-1.6,1.414q-.072.036-.146.068a.554.554,0,0,1-.08.017" transform="translate(-93.185 -45.617)" fill="#5f009f"/>
        <path id="Path_466" data-name="Path 466" d="M29.074,122.121h-.23q-1.441,0-2.883,0a2.75,2.75,0,0,1-2.8-2.754c0-.18,0-.361,0-.535H24.74c0,.134,0,.293,0,.452a1.164,1.164,0,0,0,1.227,1.229q1.441,0,2.883,0h.225Z" transform="translate(-16.763 -86.006)" fill="#5f009f"/>
      </g>
    </g>
    <g id="Group_270" data-name="Group 270" transform="translate(1523.154 947.594)">
      <g id="Group_268" data-name="Group 268" transform="translate(1.554 1.554)">
        <g id="Speech_Bubble" transform="translate(0 0)">
          <path id="Path_76" data-name="Path 76" d="M391.174,109.389l-13.921,0h0a2.226,2.226,0,0,1-2.228-2.225v-1.411a2.228,2.228,0,0,1,2.225-2.225l13.91,0,0-2.929-13.915,0a5.162,5.162,0,0,0-5.154,5.156v1.411a5.157,5.157,0,0,0,5.156,5.156h.009l13.921-.017Zm-.038-14.676V91.781l-19.043-.011,0,2.929Z" transform="translate(-372.09 -90.111)" fill="#bd6cf3"/>
          <path id="Path_77" data-name="Path 77" d="M874.88,112.33a10.27,10.27,0,0,1-.011-20.54l10.163-.011,0,2.933-10.163.009a7.341,7.341,0,0,0,.006,14.682h.013l6.037-.011a1.307,1.307,0,0,0,1.3-1.306l0-6.026,2.927,0,0,6.026a4.238,4.238,0,0,1-4.226,4.237l-6.037.011S874.886,112.33,874.88,112.33Z" transform="translate(-759.321 -90.119)" fill="#bd6cf3"/>
          <path id="Path_78" data-name="Path 78" d="M1017.064,112.33h-10.411a4.237,4.237,0,0,1-4.233-4.233V91.78h2.929V108.1a1.305,1.305,0,0,0,1.3,1.3h10.411Z" transform="translate(-867.671 -90.119)" fill="#bd6cf3"/>
          <path id="Path_79" data-name="Path 79" d="M737.2,112.322l1.552-4.624a4.084,4.084,0,0,1,3.872-2.785h9.19l2.523,7.409h3.106l-5.374-15.79a7.025,7.025,0,0,0-6.653-4.763h-.009l-3.292.009.007,2.939,3.292-.009h.007a4.08,4.08,0,0,1,3.867,2.768l1.528,4.491h-8.19a7.018,7.018,0,0,0-6.659,4.789l-1.868,5.56h3.1Z" transform="translate(-656.711 -90.111)" fill="#bd6cf3"/>
          <path id="Path_90" data-name="Path 90" d="M506.078,91.78v15.732L490.859,92.293a1.394,1.394,0,0,0-.436-.3,1.2,1.2,0,0,0-.691-.218h-.071a1.552,1.552,0,0,0-1.552,1.552v18.825h2.828V96.374l15.392,15.392a1.376,1.376,0,0,0,1.293.366,1.55,1.55,0,0,0,1.283-1.526V91.78Z" transform="translate(-463.308 -90.119)" fill="#bd6cf3"/>
          <g id="Group_8" data-name="Group 8" transform="translate(51.131 1.661)">
            <path id="Path_91" data-name="Path 91" d="M699.011,95.884l1.616-4.1h-3.151l-1.616,4.1Z" transform="translate(-677.776 -91.78)" fill="#bd6cf3"/>
            <path id="Path_92" data-name="Path 92" d="M627.224,101.3l-2.668,6.779a2.076,2.076,0,0,1-1.945,1.325h0a2.107,2.107,0,0,1-1.95-1.342L614.41,91.78H611.27l6.648,17.327a5.058,5.058,0,0,0,4.682,3.224h.009a4.992,4.992,0,0,0,4.673-3.183l3.091-7.854h-3.149Z" transform="translate(-611.27 -91.78)" fill="#bd6cf3"/>
          </g>
          <g id="Group_9" data-name="Group 9" transform="translate(152.501)">
            <path id="Path_93" data-name="Path 93" d="M1094.9,103.255a8.221,8.221,0,0,1,0-16.085V84.19a11.152,11.152,0,0,0,0,22.04Z" transform="translate(-1085.46 -84.151)" fill="#bd6cf3"/>
            <path id="Path_94" data-name="Path 94" d="M1144.2,84.01v2.961a8.221,8.221,0,0,1,0,16.2v2.961a11.149,11.149,0,0,0,0-22.122Z" transform="translate(-1131.642 -84.01)" fill="#bd6cf3"/>
          </g>
        </g>
      </g>
      <g id="Group_269" data-name="Group 269">
        <g id="Speech_Bubble-2" data-name="Speech_Bubble" transform="translate(0 0)">
          <path id="Path_76-2" data-name="Path 76" d="M391.174,109.389l-13.921,0h0a2.226,2.226,0,0,1-2.228-2.225v-1.411a2.228,2.228,0,0,1,2.225-2.225l13.91,0,0-2.929-13.915,0a5.162,5.162,0,0,0-5.154,5.156v1.411a5.157,5.157,0,0,0,5.156,5.156h.009l13.921-.017Zm-.038-14.676V91.781l-19.043-.011,0,2.929Z" transform="translate(-372.09 -90.111)" fill="#680fa4"/>
          <path id="Path_77-2" data-name="Path 77" d="M874.88,112.33a10.27,10.27,0,0,1-.011-20.54l10.163-.011,0,2.933-10.163.009a7.341,7.341,0,0,0,.006,14.682h.013l6.037-.011a1.307,1.307,0,0,0,1.3-1.306l0-6.026,2.927,0,0,6.026a4.238,4.238,0,0,1-4.226,4.237l-6.037.011S874.886,112.33,874.88,112.33Z" transform="translate(-759.321 -90.119)" fill="#680fa4"/>
          <path id="Path_78-2" data-name="Path 78" d="M1017.064,112.33h-10.411a4.237,4.237,0,0,1-4.233-4.233V91.78h2.929V108.1a1.305,1.305,0,0,0,1.3,1.3h10.411Z" transform="translate(-867.671 -90.119)" fill="#680fa4"/>
          <path id="Path_79-2" data-name="Path 79" d="M737.2,112.322l1.552-4.624a4.084,4.084,0,0,1,3.872-2.785h9.19l2.523,7.409h3.106l-5.374-15.79a7.025,7.025,0,0,0-6.653-4.763h-.009l-3.292.009.007,2.939,3.292-.009h.007a4.08,4.08,0,0,1,3.867,2.768l1.528,4.491h-8.19a7.018,7.018,0,0,0-6.659,4.789l-1.868,5.56h3.1Z" transform="translate(-656.711 -90.111)" fill="#680fa4"/>
          <path id="Path_90-2" data-name="Path 90" d="M506.078,91.78v15.732L490.859,92.293a1.394,1.394,0,0,0-.436-.3,1.2,1.2,0,0,0-.691-.218h-.071a1.552,1.552,0,0,0-1.552,1.552v18.825h2.828V96.374l15.392,15.392a1.376,1.376,0,0,0,1.293.366,1.55,1.55,0,0,0,1.283-1.526V91.78Z" transform="translate(-463.308 -90.119)" fill="#680fa4"/>
          <g id="Group_8-2" data-name="Group 8" transform="translate(51.131 1.661)">
            <path id="Path_91-2" data-name="Path 91" d="M699.011,95.884l1.616-4.1h-3.151l-1.616,4.1Z" transform="translate(-677.776 -91.78)" fill="#680fa4"/>
            <path id="Path_92-2" data-name="Path 92" d="M627.224,101.3l-2.668,6.779a2.076,2.076,0,0,1-1.945,1.325h0a2.107,2.107,0,0,1-1.95-1.342L614.41,91.78H611.27l6.648,17.327a5.058,5.058,0,0,0,4.682,3.224h.009a4.992,4.992,0,0,0,4.673-3.183l3.091-7.854h-3.149Z" transform="translate(-611.27 -91.78)" fill="#680fa4"/>
          </g>
          <g id="Group_9-2" data-name="Group 9" transform="translate(152.501)">
            <path id="Path_93-2" data-name="Path 93" d="M1094.9,103.255a8.221,8.221,0,0,1,0-16.085V84.19a11.152,11.152,0,0,0,0,22.04Z" transform="translate(-1085.46 -84.151)" fill="#680fa4"/>
            <path id="Path_94-2" data-name="Path 94" d="M1144.2,84.01v2.961a8.221,8.221,0,0,1,0,16.2v2.961a11.149,11.149,0,0,0,0-22.122Z" transform="translate(-1131.642 -84.01)" fill="#680fa4"/>
          </g>
        </g>
      </g>
    </g>
  </g>
</svg>
