<svg id="Group_13" data-name="Group 13" xmlns="http://www.w3.org/2000/svg" xmlns:xlink="http://www.w3.org/1999/xlink" width="34.179" height="34.179" viewBox="0 0 34.179 34.179">
  <defs>
    <clipPath id="clip-path">
      <rect id="Rectangle_35" data-name="Rectangle 35" width="34.179" height="34.179" fill="#5f009f"/>
    </clipPath>
  </defs>
  <g id="Group_13-2" data-name="Group 13" clip-path="url(#clip-path)">
    <path id="Path_97" data-name="Path 97" d="M29.174,29.173A17.1,17.1,0,0,0,20.82.406a1.011,1.011,0,0,0-.228-.048,17.3,17.3,0,0,0-7,0,1.01,1.01,0,0,0-.229.048A17.1,17.1,0,0,0,0,16.728a1,1,0,0,0,0,.147c0,.072,0,.143,0,.215A17.1,17.1,0,0,0,13.354,33.771a1.012,1.012,0,0,0,.232.049,17.3,17.3,0,0,0,7.008,0,1.01,1.01,0,0,0,.231-.049,16.974,16.974,0,0,0,8.348-4.6M18.1,32.128V30.1c.574-.022,1.149-.058,1.723-.108.518-.046,1.037-.1,1.555-.174q-.659,1.049-1.436,2.077a15.031,15.031,0,0,1-1.842.237m-3.858-.237q-.745-.985-1.38-1.988,1.6.183,3.222.216v2.01a15.031,15.031,0,0,1-1.842-.237M4.548,8.738A26.4,26.4,0,0,0,8.26,10q-.119.4-.228.81a25.983,25.983,0,0,0-.894,7.14A29.978,29.978,0,0,1,2.044,16.2a14.978,14.978,0,0,1,2.5-7.458M16.081,2.051v7a31.527,31.527,0,0,1-4.269-.369c-.315-.049-.62-.1-.917-.158a28.024,28.024,0,0,1,3.348-6.238,15.031,15.031,0,0,1,1.839-.236m3.855.236a27.985,27.985,0,0,1,3.3,6.126,33.937,33.937,0,0,1-5.144.616V2.051a15.031,15.031,0,0,1,1.839.236M32.11,15.839a43.971,43.971,0,0,1-5.066,1.752,26.077,26.077,0,0,0-.9-6.782q-.126-.475-.265-.932A38.709,38.709,0,0,0,29.6,8.69a14.978,14.978,0,0,1,2.511,7.149M29.521,25.6a36.423,36.423,0,0,1-4.428,1.436,24.459,24.459,0,0,0,1.659-5.753c.083-.525.146-1.053.194-1.582A45.651,45.651,0,0,0,32.134,18a14.98,14.98,0,0,1-2.612,7.6M11.6,27.693a22.559,22.559,0,0,1-2.27-7.212c.4.071.812.138,1.237.2a40.068,40.068,0,0,0,5.513.41V28.1a31.529,31.529,0,0,1-4.269-.369l-.21-.034m6.5-6.639q1.378-.06,2.756-.213,2.017-.224,4.031-.649a22.476,22.476,0,0,1-2.245,7.378,33.873,33.873,0,0,1-4.541.5ZM24.217,11.4a24.018,24.018,0,0,1,.817,6.7,39.9,39.9,0,0,1-6.937.939V11.054c.574-.022,1.149-.057,1.723-.108a35.816,35.816,0,0,0,4.093-.605q.16.518.3,1.06m-12.811-.738a33.838,33.838,0,0,0,4.675.414v8A37.8,37.8,0,0,1,9.154,18.4a23.915,23.915,0,0,1,.808-7q.127-.484.269-.948.567.112,1.175.21m-4.14,9.4q.065.616.161,1.228a24.5,24.5,0,0,0,1.722,5.9,22.177,22.177,0,0,1-4.471-1.57l-.015-.007a14.98,14.98,0,0,1-2.588-7.2,33.729,33.729,0,0,0,5.191,1.647m3.02,9.448q.4.719.841,1.426A15.09,15.09,0,0,1,7.732,28.9c.757.214,1.611.424,2.554.608m13.68-.134q1.37-.285,2.733-.678a15.1,15.1,0,0,1-3.647,2.238q.486-.773.914-1.56M28.3,7.02c-1.045.372-2.068.683-3.065.941A30.9,30.9,0,0,0,22.946,3.2,15.141,15.141,0,0,1,28.3,7.02M11.233,3.2A30.892,30.892,0,0,0,8.9,8.081a25.986,25.986,0,0,1-3.076-1A15.143,15.143,0,0,1,11.233,3.2" fill="#5f009f"/>
  </g>
</svg>
