<svg xmlns="http://www.w3.org/2000/svg" width="136.283" height="57.284" viewBox="0 0 136.283 57.284">
  <g id="Group_82" data-name="Group 82" transform="translate(-157.216 -834.83)">
    <g id="Group_21" data-name="Group 21" transform="translate(157.216 834.83)">
      <g id="Group_16" data-name="Group 16" transform="translate(0 44.276)">
        <path id="Path_72" data-name="Path 72" d="M170.976,138.683v3.025H156.618q-3.92,0-3.919-3.187V131.87q0-3.17,3.919-3.171h14.31v3.024h-14.31q-.731,0-.732.634v1.317H170.83V136.7H155.886v1.334q0,.65.732.65Z" transform="translate(-152.699 -128.699)" fill="#fe3e12"/>
        <path id="Path_73" data-name="Path 73" d="M197.739,132.7a3.087,3.087,0,0,0-.837-.691,2.023,2.023,0,0,0-1.016-.284h-.163v9.984h-3.09V128.7h3.252a5.068,5.068,0,0,1,2.187.422,5.482,5.482,0,0,1,1.7,1.334l6.293,7.252a3.424,3.424,0,0,0,.829.683,1.935,1.935,0,0,0,1.008.293h.163V128.7h3.106v13.009H207.9a5.35,5.35,0,0,1-2.285-.439,5.082,5.082,0,0,1-1.731-1.4Z" transform="translate(-172.844 -128.699)" fill="#fe3e12"/>
        <path id="Path_74" data-name="Path 74" d="M240.642,138.065a1,1,0,0,0,.862.618h.878a.831.831,0,0,0,.447-.138,1.227,1.227,0,0,0,.4-.463l5.366-9.382h3.659l-6.8,11.919a2.132,2.132,0,0,1-1.984,1.09H240.4a3.065,3.065,0,0,1-.732-.073,1.62,1.62,0,0,1-.5-.212,1.451,1.451,0,0,1-.366-.341,3.434,3.434,0,0,1-.3-.48l-6.813-11.9h3.675Z" transform="translate(-192.542 -128.699)" fill="#fe3e12"/>
        <path id="Path_75" data-name="Path 75" d="M280.122,139.155H269.569l-1.431,2.553h-3.675l6.813-11.9a3.546,3.546,0,0,1,.3-.48,1.459,1.459,0,0,1,.366-.341,1.645,1.645,0,0,1,.5-.212,3.093,3.093,0,0,1,.732-.073h3.284a2.132,2.132,0,0,1,1.984,1.089l6.8,11.919h-3.658Zm-9.009-2.862h7.448l-2.26-3.968a1.237,1.237,0,0,0-.4-.463.83.83,0,0,0-.447-.138H274.2a.994.994,0,0,0-.862.617Z" transform="translate(-209.078 -128.699)" fill="#fe3e12"/>
        <path id="Path_76" data-name="Path 76" d="M325.785,133.756v4.8q0,3.155-3.919,3.155H310.581q-3.919,0-3.919-3.187V131.87q0-3.17,3.936-3.171h14.846v3.024H310.6q-.748,0-.748.634v5.675q0,.65.747.65h11.271q.73,0,.73-.618v-4.309Z" transform="translate(-230.366 -128.699)" fill="#fe3e12"/>
        <path id="Path_77" data-name="Path 77" d="M352.452,141.708q-3.919,0-3.919-3.155V128.7h3.187v9.366q0,.618.731.618h14.18v3.025Z" transform="translate(-251.488 -128.699)" fill="#fe3e12"/>
        <path id="Path_78" data-name="Path 78" d="M392.575,141.708q-4.895,0-4.895-4.13v-4.732q0-4.146,4.895-4.146h10.049q4.894,0,4.895,4.146v4.732q0,4.13-4.895,4.13Zm0-9.984q-1.707,0-1.708,1.122v4.732q0,1.106,1.708,1.106h10.049q1.707,0,1.707-1.106v-4.732q0-1.122-1.707-1.122Z" transform="translate(-271.235 -128.699)" fill="#fe3e12"/>
      </g>
      <g id="Group_19" data-name="Group 19" transform="translate(44.255 0)">
        <ellipse id="Ellipse_1" data-name="Ellipse 1" cx="23.886" cy="17.802" rx="23.886" ry="17.802" fill="#fe3e12"/>
        <g id="Group_18" data-name="Group 18" transform="translate(5.808 6.894)">
          <g id="Group_17" data-name="Group 17">
            <path id="Path_79" data-name="Path 79" d="M272.378,53.264c10.073,0,17.347,2.873,17.347,7.255,0,3.294-1.673,5.212-7.53,6.077a61.892,61.892,0,0,1-13.375.894,86.172,86.172,0,0,1-8.562-1.161q2.338,3.439,12.911,3.886,8.82-.7,13.341-3.714,2.115-.636,2.8.774.808,1.444-.722,3.215-5.089,3.972-15.284,4.59c-12.08-.023-19.582-3.7-19.582-10.47C253.724,57.688,260.893,53.264,272.378,53.264Zm.464,5.02c-6.387,0-10.046,1.307-11.948,2.854,1.158,1.2,5.254,1.65,12.292,1.65,6.98,0,10.35-.77,10.35-1.719C283.535,59.845,280.581,58.284,272.841,58.284Z" transform="translate(-253.724 -53.264)" fill="#4c3585"/>
          </g>
        </g>
      </g>
    </g>
    <ellipse id="Ellipse_4" data-name="Ellipse 4" cx="2.336" cy="2.336" rx="2.336" ry="2.336" transform="translate(238.458 854.626)" fill="none" stroke="#fe3e12" stroke-miterlimit="10" stroke-width="1"/>
  </g>
</svg>
