<svg id="Group_40" data-name="Group 40" xmlns="http://www.w3.org/2000/svg" xmlns:xlink="http://www.w3.org/1999/xlink" width="81.582" height="74.567" viewBox="0 0 81.582 74.567">
  <defs>
    <clipPath id="clip-path">
      <rect id="Rectangle_63" data-name="Rectangle 63" width="81.582" height="74.567" fill="none"/>
    </clipPath>
  </defs>
  <g id="Group_39" data-name="Group 39" clip-path="url(#clip-path)">
    <path id="Path_196" data-name="Path 196" d="M0,14.087H12.855c.917,0,1.243-.327,1.243-1.259q0-6.134,0-12.268V0H54.381c.008.169.022.312.022.456q0,17.14,0,34.281c0,1.934.006,3.868,0,5.8a1.815,1.815,0,0,1-.09.6c-.9,2.481-1.835,4.95-2.7,7.443a17.228,17.228,0,0,0-.388,2.123,8.849,8.849,0,0,1-1.735,3.927,4.587,4.587,0,0,1-2.537,1.6.961.961,0,0,0-.787,1.321q1.349,5.089,2.707,10.176c.261.976.935,1.208,1.767.626l3.714-2.6v8.809H0ZM45.6,33.053c.15-.071.255-.122.36-.17a3.937,3.937,0,0,0,2.3-4.186A3.983,3.983,0,0,0,44.7,25.343a3.926,3.926,0,0,0-4.044,2.605.471.471,0,0,1-.532.376q-4.362-.02-8.724,0a.468.468,0,0,1-.539-.364,3.917,3.917,0,0,0-7.385-.036.522.522,0,0,1-.6.4c-2.8-.014-5.61-.022-8.414,0a.787.787,0,0,1-.886-.593A3.96,3.96,0,0,0,6.289,30.84a4.049,4.049,0,0,0,2.4,2.233c-.031.131-.054.244-.086.354q-1.839,6.4-3.675,12.8a2.205,2.205,0,0,0-.095.694,5.107,5.107,0,0,0,10.019,1.167,3.634,3.634,0,0,0,.1-1.818c-1.147-4.15-2.364-8.281-3.558-12.418-.076-.263-.139-.53-.209-.8a3.943,3.943,0,0,0,2.451-2.4.494.494,0,0,1,.556-.4c2.746.013,5.492.027,8.237-.008.615-.008,1.051.068,1.172.751a.629.629,0,0,0,.148.27,1.671,1.671,0,0,1,.32,1.155q-.016,10.895-.013,21.79c0,.334,0,.667,0,1.038-1.151,0-2.24,0-3.329,0-.809,0-1.164.35-1.165,1.156q-.005,2.9,0,5.8c0,.832.354,1.182,1.191,1.183q6.421,0,12.843,0a2.235,2.235,0,0,0,.309-.011.931.931,0,0,0,.859-.917q.023-3.144,0-6.289a.915.915,0,0,0-.987-.92c-1-.012-2.008,0-3.011,0h-.521v-.615q0-10.983-.006-21.967a2.183,2.183,0,0,1,.4-1.533,1.462,1.462,0,0,0,.268-.6c.06-.263.205-.306.442-.306q4.428.01,8.856,0a.412.412,0,0,1,.46.344,3.847,3.847,0,0,0,2.124,2.311c.117.054.232.114.351.173-.043.156-.076.284-.113.411Q41.213,39.783,39.406,46.1a2.781,2.781,0,0,0-.118.911,5.109,5.109,0,0,0,9.956,1.247,3.641,3.641,0,0,0,.188-1.859c-.686-2.624-1.484-5.218-2.239-7.824-.529-1.826-1.052-3.654-1.59-5.521" transform="translate(0 0.001)" fill="#5f009f"/>
    <path id="Path_197" data-name="Path 197" d="M714.029,76.527l-7.44-2.705c.2-.561.4-1.1.592-1.632,1.417-3.893,2.825-7.789,4.255-11.677a3.972,3.972,0,0,1,6.277-1.785,3.923,3.923,0,0,1,1.246,4.319c-1.592,4.441-3.221,8.868-4.836,13.3a1.76,1.76,0,0,1-.093.18" transform="translate(-644.006 -52.7)" fill="#bd6cf3"/>
    <path id="Path_198" data-name="Path 198" d="M642.014,282.8l-5.581-2.044,6.494-17.846,5.6,2.025L642.014,282.8" transform="translate(-580.064 -239.626)" fill="#bd6cf3"/>
    <path id="Path_199" data-name="Path 199" d="M547.013,585.416l-2.191-8.248c3.239-1.42,4.348-4.248,5.022-7.43l5.093,1.854c-1.531,2.832-2.521,5.7-.932,8.906l-6.992,4.918m3.986-6.1a.893.893,0,0,0-.617-.788c-.505-.2-1.016-.391-1.532-.564a.924.924,0,0,0-1.191.547.935.935,0,0,0,.49,1.223,16.1,16.1,0,0,0,1.655.609.954.954,0,0,0,1.2-1.027" transform="translate(-496.567 -519.275)" fill="#bd6cf3"/>
    <path id="Path_200" data-name="Path 200" d="M830,129.207l-2.16-.808,1.118-3.091c.161.05.3.086.43.134q1.6.583,3.2,1.17a1.657,1.657,0,0,1,1.065,2.3q-2.546,7.027-5.1,14.05a1.661,1.661,0,1,1-3.11-1.142q2.2-6.092,4.415-12.182c.049-.135.092-.272.147-.434" transform="translate(-752.209 -114.209)" fill="#bd6cf3"/>
    <path id="Path_201" data-name="Path 201" d="M27.353,27.483H16.7L27.353,16.832Z" transform="translate(-15.222 -15.341)" fill="#5f009f"/>
    <path id="Path_202" data-name="Path 202" d="M607.891,484.839l5.6,2.046-2.044,5.6-5.6-2.044,2.038-5.6" transform="translate(-552.192 -441.897)" fill="#bd6cf3"/>
    <rect id="Rectangle_61" data-name="Rectangle 61" width="2.268" height="22.073" transform="translate(26.035 33.171)" fill="#5f009f"/>
    <rect id="Rectangle_62" data-name="Rectangle 62" width="11.299" height="4.182" transform="translate(21.533 57.231)" fill="#5f009f"/>
    <path id="Path_203" data-name="Path 203" d="M83.214,405.4l2.809,9.765H80.307l2.813-9.772.094.008" transform="translate(-73.194 -369.487)" fill="#5f009f"/>
    <path id="Path_204" data-name="Path 204" d="M474.642,415.053h-5.383c-.087,0-.173-.013-.321-.025l2.8-9.789.079-.008,2.828,9.822" transform="translate(-427.404 -369.34)" fill="#5f009f"/>
    <path id="Path_205" data-name="Path 205" d="M91.683,307.811a2.025,2.025,0,1,1-2.026,2.024,2.024,2.024,0,0,1,2.026-2.024" transform="translate(-81.716 -280.548)" fill="#5f009f"/>
    <path id="Path_206" data-name="Path 206" d="M285.838,307.865a2,2,0,0,1,2,1.989,2.022,2.022,0,1,1-2-1.989" transform="translate(-258.661 -280.597)" fill="#5f009f"/>
    <path id="Path_207" data-name="Path 207" d="M480.2,307.808a2.026,2.026,0,1,1-2.014,2.027,2.028,2.028,0,0,1,2.014-2.027" transform="translate(-435.836 -280.545)" fill="#5f009f"/>
    <path id="Path_208" data-name="Path 208" d="M79.186,538.178h5.946a3.111,3.111,0,0,1-5.946,0" transform="translate(-72.172 -490.511)" fill="#5f009f"/>
    <path id="Path_209" data-name="Path 209" d="M467.436,538.071h5.957a3.008,3.008,0,0,1-2.722,2.2,3.108,3.108,0,0,1-3.235-2.2" transform="translate(-426.035 -490.414)" fill="#5f009f"/>
  </g>
</svg>
