<svg id="Group_259" data-name="Group 259" xmlns="http://www.w3.org/2000/svg" xmlns:xlink="http://www.w3.org/1999/xlink" width="57.052" height="56.198" viewBox="0 0 57.052 56.198">
  <defs>
    <clipPath id="clip-path">
      <rect id="Rectangle_45" data-name="Rectangle 45" width="57.052" height="56.198" fill="#5f009f"/>
    </clipPath>
  </defs>
  <rect id="Rectangle_43" data-name="Rectangle 43" width="2.537" height="2.509" transform="translate(52.687 41.847)" fill="#5f009f"/>
  <rect id="Rectangle_44" data-name="Rectangle 44" width="2.538" height="2.509" transform="translate(5.685 43.051)" fill="#5f009f"/>
  <g id="Group_28" data-name="Group 28">
    <g id="Group_27" data-name="Group 27" clip-path="url(#clip-path)">
      <path id="Path_101" data-name="Path 101" d="M21.446,52.955a3.147,3.147,0,0,0,6.294,0V46.633a4.467,4.467,0,0,1,8.933,0v2.509a3.147,3.147,0,0,0,6.294,0V37.3H21.446Z" transform="translate(0.076 0.132)" fill="#5f009f"/>
      <path id="Path_102" data-name="Path 102" d="M51.194,51a1.917,1.917,0,0,0-1.93,1.907,1.929,1.929,0,0,0,3.858,0A1.916,1.916,0,0,0,51.194,51" transform="translate(0.174 0.18)" fill="#5f009f"/>
      <path id="Path_103" data-name="Path 103" d="M53.906,14.852h-26.6a.6.6,0,1,1,0-1.2h24.06a3.111,3.111,0,1,0,0-6.222H14.618a.652.652,0,0,1-.609-.6.652.652,0,0,1,.609-.6H38.779a3.145,3.145,0,0,0,3.147-3.111A3.145,3.145,0,0,0,38.779,0H14.72L7.31,4.917a.377.377,0,0,1-.305.1H0v27.6H12.08c.1,0,.2,0,.2.1l8.731,3.713H44.971a3.111,3.111,0,1,0,0-6.222H20.913a.6.6,0,1,1,0-1.2H51.368a3.111,3.111,0,1,0,0-6.222H27.308a.6.6,0,1,1,0-1.2h26.6a3.145,3.145,0,0,0,3.147-3.111c0-1.706-1.421-3.613-3.147-3.613M5.076,28a.651.651,0,0,1-.609.6.652.652,0,0,1-.609-.6V10.437a.652.652,0,0,1,.609-.6.651.651,0,0,1,.609.6Zm5.685-5.018H8.223V20.472h2.538Zm0-5.018H8.223V15.454h2.538Zm6.4,5.018H14.618V20.472h2.538Zm0-5.018H14.618V15.454h2.538Zm6.294,5.018H20.913V20.472H23.45Zm0-5.018H20.913V15.454H23.45Z" fill="#5f009f"/>
      <path id="Path_104" data-name="Path 104" d="M14.574,48.5a1.917,1.917,0,0,0-1.929,1.907,1.856,1.856,0,0,0,1.929,1.907A1.856,1.856,0,0,0,16.5,50.407,1.916,1.916,0,0,0,14.574,48.5" transform="translate(0.045 0.171)" fill="#5f009f"/>
    </g>
  </g>
</svg>
