<svg id="Group_258" data-name="Group 258" xmlns="http://www.w3.org/2000/svg" xmlns:xlink="http://www.w3.org/1999/xlink" width="56.488" height="56.378" viewBox="0 0 56.488 56.378">
  <defs>
    <clipPath id="clip-path">
      <rect id="Rectangle_41" data-name="Rectangle 41" width="56.488" height="56.378" fill="#5f009f"/>
    </clipPath>
  </defs>
  <g id="Group_23" data-name="Group 23" clip-path="url(#clip-path)">
    <path id="Path_98" data-name="Path 98" d="M4.381,42.973c.8-1.032,1.837-2.215,2.683-3.52a2.943,2.943,0,0,0,.279-1.923c-.6-3.575-2.477-5.8-6.379-5.76A4.286,4.286,0,0,1,0,31.527V22.2c1.668-.28,3.392-.487,5.067-.9a3,3,0,0,0,1.521-1.222,4.749,4.749,0,0,0-.442-6.357,17.6,17.6,0,0,1-1.474-2.408L11.418,4.89c.4.311.723.559,1.041.814,3.956,3.172,3.974,3.208,8.427.864A3.077,3.077,0,0,0,22.06,4.746C23.345.008,23.32,0,28.194,0c4.225,0,4.277-.013,5.331,4.109C33.9,5.583,34.832,6.157,36.023,7c3,2.132,5.121,1.039,7.3-1.062a8.123,8.123,0,0,1,1.055-.763l6.639,6.206a30.041,30.041,0,0,0-2.04,3.925,7.333,7.333,0,0,0-.185,3.036c.221,2.331,1.753,3.166,3.93,3.3a33.066,33.066,0,0,1,3.759.69c0,2.892.027,5.766-.036,8.638-.007.335-.489.682-.8.977-.106.1-.347.063-.525.1-5.1.929-5.128.922-6.6,5.783a2.236,2.236,0,0,0,.4,1.606c.891,1.358,1.892,2.644,3,4.157l-6.69,7.081c-1.334-1.084-2.49-2.145-3.781-3a2.423,2.423,0,0,0-1.855-.093c-.9.3-1.676,1.123-2.578,1.271-2.86.469-3.457,2.476-3.79,4.873-.4,2.89-.055,2.551-3.134,2.631-2.105.055-4.213.011-6.5.011-.324-1.6-.663-3.112-.928-4.636a2.368,2.368,0,0,0-1.913-2.26,7.16,7.16,0,0,1-2.8-1.228c-1.649-1.308-2.971-1.05-4.34.371a22.953,22.953,0,0,1-2.249,1.808L4.381,42.973M38.7,28.742A11.036,11.036,0,0,0,27.93,17.595,10.871,10.871,0,0,0,17.2,28.175,10.752,10.752,0,0,0,27.851,39.123c6.213.106,10.784-4.267,10.851-10.381" transform="translate(0 0)" fill="#5f009f"/>
  </g>
</svg>
