<svg id="Group_256" data-name="Group 256" xmlns="http://www.w3.org/2000/svg" xmlns:xlink="http://www.w3.org/1999/xlink" width="71" height="57.495" viewBox="0 0 71 57.495">
  <defs>
    <clipPath id="clip-path">
      <rect id="Rectangle_55" data-name="Rectangle 55" width="71" height="57.495" fill="#5f009f"/>
    </clipPath>
  </defs>
  <g id="Group_46" data-name="Group 46" clip-path="url(#clip-path)">
    <path id="Path_182" data-name="Path 182" d="M107.071,52.8a.878.878,0,0,0-.266.045l-.272.087.013-.286a2.115,2.115,0,0,0-1.033-1.592,13.2,13.2,0,0,1-3.809.619h0a6.085,6.085,0,0,1-3.409-.876,2.09,2.09,0,0,0-.5,1.413l.02.3-.286-.1a.491.491,0,0,0-.169-.029.558.558,0,0,0-.465.254c0,.007,0,.013,0,.02a15.644,15.644,0,0,0,1.134,5.53c.829,1.865,2.414,3.489,4.262,3.489,2.06,0,3.633-1.942,4.459-4.039a15.732,15.732,0,0,0,.948-4.462.773.773,0,0,0-.631-.375" transform="translate(-88.438 -46.362)" fill="#5f009f"/>
    <path id="Path_183" data-name="Path 183" d="M101.65,4.476s-4.621,1.619-7.272-.3a2.333,2.333,0,0,0-.663,1.69.764.764,0,0,0-.991.6s-.8-5.135,2.559-5.311C97.1-.8,104.51-1.06,104.052,6.825a.984.984,0,0,0-1.193-.53,2.319,2.319,0,0,0-1.209-1.818" transform="translate(-84.553 -0.002)" fill="#5f009f"/>
    <path id="Path_184" data-name="Path 184" d="M27.485,186.306a3.256,3.256,0,0,0-1.9-2.493h.007s-6.5-3.449-11.95-3.367c-4.845.072-10.491,2.756-11.679,3.348a3.256,3.256,0,0,0-1.942,2.512L0,186.838H13.127l.666-2.486c.027-.1.054-.186.079-.258h-.638a.638.638,0,0,1-.638-.638v-1.329a.638.638,0,0,1,.638-.638h1.275a.638.638,0,0,1,.638.638v1.329a.638.638,0,0,1-.638.638h-.638c.025.072.052.157.079.258l.666,2.486H27.509Z" transform="translate(0 -164.689)" fill="#5f009f"/>
    <path id="Path_185" data-name="Path 185" d="M364.336,457.61a.877.877,0,0,0-.266.045l-.272.087.013-.286a2.115,2.115,0,0,0-1.033-1.592,13.2,13.2,0,0,1-3.809.619h0a6.086,6.086,0,0,1-3.409-.876,2.09,2.09,0,0,0-.5,1.413l.02.3-.286-.1a.493.493,0,0,0-.169-.029.558.558,0,0,0-.465.254c0,.007,0,.013,0,.02A15.643,15.643,0,0,0,355.3,463c.829,1.865,2.414,3.489,4.262,3.489,2.06,0,3.633-1.942,4.459-4.039a15.728,15.728,0,0,0,.948-4.461.773.773,0,0,0-.63-.375" transform="translate(-323.24 -415.827)" fill="#5f009f"/>
    <path id="Path_186" data-name="Path 186" d="M358.915,409.286s-4.621,1.619-7.272-.3a2.332,2.332,0,0,0-.663,1.69.764.764,0,0,0-.991.6s-.8-5.135,2.559-5.311c1.811-1.943,9.226-2.209,8.768,5.676a.984.984,0,0,0-1.193-.53,2.319,2.319,0,0,0-1.209-1.818" transform="translate(-319.355 -369.466)" fill="#5f009f"/>
    <path id="Path_187" data-name="Path 187" d="M284.75,591.116a3.256,3.256,0,0,0-1.9-2.493h.007s-6.5-3.449-11.95-3.367c-4.845.072-10.491,2.756-11.679,3.348a3.255,3.255,0,0,0-1.942,2.512l-.023.532h13.127l.666-2.486c.027-.1.054-.186.079-.258H270.5a.638.638,0,0,1-.638-.638v-1.329a.638.638,0,0,1,.638-.638h1.275a.638.638,0,0,1,.638.638v1.329a.638.638,0,0,1-.638.638h-.638c.025.072.052.157.079.258l.666,2.486h12.893Z" transform="translate(-234.802 -534.153)" fill="#5f009f"/>
    <path id="Path_188" data-name="Path 188" d="M605.164,52.8a.878.878,0,0,0-.266.045l-.272.087.013-.286a2.115,2.115,0,0,0-1.033-1.592,13.2,13.2,0,0,1-3.809.619h0a6.086,6.086,0,0,1-3.409-.876,2.09,2.09,0,0,0-.5,1.413l.02.3-.286-.1a.492.492,0,0,0-.169-.029.559.559,0,0,0-.465.254c0,.007,0,.013,0,.02a15.644,15.644,0,0,0,1.134,5.53c.829,1.865,2.414,3.489,4.262,3.489,2.06,0,3.633-1.942,4.459-4.039a15.733,15.733,0,0,0,.948-4.462.773.773,0,0,0-.631-.375" transform="translate(-543.04 -46.361)" fill="#5f009f"/>
    <path id="Path_189" data-name="Path 189" d="M599.743,4.475s-4.621,1.619-7.271-.3a2.332,2.332,0,0,0-.663,1.69.764.764,0,0,0-.991.6s-.8-5.135,2.559-5.311c1.811-1.944,9.226-2.209,8.768,5.676a.984.984,0,0,0-1.193-.531,2.319,2.319,0,0,0-1.209-1.818" transform="translate(-539.155 -0.001)" fill="#5f009f"/>
    <path id="Path_190" data-name="Path 190" d="M525.578,186.305a3.256,3.256,0,0,0-1.9-2.493h.007s-6.5-3.449-11.95-3.367c-4.845.072-10.491,2.756-11.679,3.348a3.255,3.255,0,0,0-1.942,2.512l-.023.532H511.22l.666-2.486c.027-.1.054-.186.079-.258h-.638a.638.638,0,0,1-.638-.638v-1.329a.638.638,0,0,1,.638-.638H512.6a.638.638,0,0,1,.638.638v1.329a.638.638,0,0,1-.638.638h-.638c.025.072.052.157.079.258l.666,2.486H525.6Z" transform="translate(-454.602 -164.688)" fill="#5f009f"/>
    <path id="Path_191" data-name="Path 191" d="M428.185,655.727q.825-.033,1.64-.113Z" transform="translate(-390.798 -598.368)" fill="#5f009f"/>
    <path id="Path_192" data-name="Path 192" d="M413.308,271.122l-.142.01.063-.148Z" transform="translate(-377.09 -247.322)" fill="#5f009f"/>
    <path id="Path_193" data-name="Path 193" d="M414.949,271.241l-.153-.01.073-.128Z" transform="translate(-378.578 -247.432)" fill="#5f009f"/>
    <path id="Path_194" data-name="Path 194" d="M413.308,269.588l-.142.01.063-.148.062-.147.091.157.079.138Z" transform="translate(-377.09 -245.789)" fill="#5f009f"/>
    <path id="Path_195" data-name="Path 195" d="M76.659,278.149a24.619,24.619,0,0,1-7.254-16.927h2.428l-2.17-4.252c0-.02.005-.039.008-.059l-.037,0L67.98,253.67l-4.462,7.552h2.4a28.091,28.091,0,0,0,8.277,19.4q.888.888,1.839,1.687l2.494-2.47q-.967-.791-1.863-1.687" transform="translate(-57.972 -231.521)" fill="#bd6cf3"/>
    <path id="Path_196" data-name="Path 196" d="M307.316,7.554,303.462,0l-1.419,2.4a28.482,28.482,0,0,0-21.067.923l1.74,3.05a24.985,24.985,0,0,1,17.509-.9L299,7.554Z" transform="translate(-256.443 -0.002)" fill="#bd6cf3"/>
    <path id="Path_197" data-name="Path 197" d="M564.078,294.5a28.876,28.876,0,0,0-.21-3.477l-3.557-.232a25.12,25.12,0,0,1,.274,3.708,24.625,24.625,0,0,1-7.261,17.529c-.17.17-.343.336-.517.5l-.974-1.909-4.462,7.552h8.316l-1.233-2.416q.687-.6,1.341-1.257a28.1,28.1,0,0,0,8.284-20" transform="translate(-499.577 -265.402)" fill="#bd6cf3"/>
  </g>
</svg>
