<svg id="Group_257" data-name="Group 257" xmlns="http://www.w3.org/2000/svg" xmlns:xlink="http://www.w3.org/1999/xlink" width="64.347" height="71.78" viewBox="0 0 64.347 71.78">
  <defs>
    <clipPath id="clip-path">
      <rect id="Rectangle_58" data-name="Rectangle 58" width="64.347" height="71.78" fill="none"/>
    </clipPath>
  </defs>
  <g id="Group_53" data-name="Group 53" transform="translate(0)" clip-path="url(#clip-path)">
    <g id="Group_52" data-name="Group 52">
      <g id="Group_51" data-name="Group 51" clip-path="url(#clip-path)">
        <g id="Group_50" data-name="Group 50" style="mix-blend-mode: multiply;isolation: isolate">
          <g id="Group_49" data-name="Group 49">
            <g id="Group_48" data-name="Group 48" clip-path="url(#clip-path)">
              <path id="Path_198" data-name="Path 198" d="M21.819,35.89A10.355,10.355,0,1,1,32.173,46.238,10.356,10.356,0,0,1,21.819,35.89m30.781,8.1a9.271,9.271,0,0,1-5.811-2.84,15.591,15.591,0,0,0,.152-10.2c.927-1.246,2.369-2.471,5.746-3.312A7.4,7.4,0,1,0,49.4,22.253a9.271,9.271,0,0,1-5.311,3.594,15.5,15.5,0,0,0-8.826-5.261c-.609-1.42-.927-3.275.022-6.586a7.393,7.393,0,1,0-6.311.152,9.229,9.229,0,0,1,.471,6.369A15.469,15.469,0,0,0,20.5,25.564c-1.543-.181-3.319-.826-5.724-3.318a7.391,7.391,0,1,0-3.022,5.543,9.228,9.228,0,0,1,5.776,2.8,15.551,15.551,0,0,0-.095,10.188c-.927,1.26-2.369,2.507-5.775,3.355a7.39,7.39,0,1,0,3.29,5.391A9.29,9.29,0,0,1,20.333,45.9a15.534,15.534,0,0,0,8.688,5.152c.645,1.435,1.014,3.312.036,6.724a7.393,7.393,0,1,0,6.312-.152c-.667-1.442-1.159-3.253-.435-6.492A15.5,15.5,0,0,0,43.753,46.2c1.565.167,3.362.783,5.818,3.333A7.4,7.4,0,1,0,52.6,43.991" transform="translate(0)" fill="#999" fill-rule="evenodd"/>
            </g>
          </g>
        </g>
        <path id="Path_199" data-name="Path 199" d="M52.6,43.991a9.27,9.27,0,0,1-5.811-2.841,15.591,15.591,0,0,0,.152-10.2c.927-1.247,2.369-2.471,5.746-3.312A7.4,7.4,0,1,0,49.4,22.252a9.272,9.272,0,0,1-5.312,3.594,15.5,15.5,0,0,0-8.826-5.261c-.608-1.42-.927-3.275.022-6.586a7.393,7.393,0,1,0-6.311.152,9.23,9.23,0,0,1,.471,6.369A15.469,15.469,0,0,0,20.5,25.563c-1.543-.181-3.319-.826-5.724-3.318a7.391,7.391,0,1,0-3.022,5.543,9.229,9.229,0,0,1,5.776,2.8,15.551,15.551,0,0,0-.095,10.188c-.927,1.26-2.369,2.507-5.775,3.355a7.39,7.39,0,1,0,3.29,5.391A9.29,9.29,0,0,1,20.333,45.9a15.533,15.533,0,0,0,8.688,5.152c.645,1.435,1.014,3.312.036,6.725a7.393,7.393,0,1,0,6.311-.152c-.667-1.442-1.159-3.253-.435-6.492A15.5,15.5,0,0,0,43.753,46.2c1.565.167,3.362.783,5.818,3.333A7.4,7.4,0,1,0,52.6,43.991m-30.781-8.1A10.355,10.355,0,1,1,32.174,46.237,10.357,10.357,0,0,1,21.819,35.889" transform="translate(0 0.001)" fill="#bd6cf3" fill-rule="evenodd"/>
        <path id="Path_200" data-name="Path 200" d="M18.683,256.19a6.572,6.572,0,1,0-6.572,6.573,6.586,6.586,0,0,0,6.572-6.573" transform="translate(-4.566 -205.822)" fill="#5f009f" fill-rule="evenodd"/>
        <path id="Path_201" data-name="Path 201" d="M17.492,93.64a6.576,6.576,0,1,0-6.579,6.572,6.593,6.593,0,0,0,6.579-6.572" transform="translate(-3.579 -71.786)" fill="#5f009f" fill-rule="evenodd"/>
        <path id="Path_202" data-name="Path 202" d="M160.093,336.4a6.572,6.572,0,1,0-6.572,6.572,6.581,6.581,0,0,0,6.572-6.572" transform="translate(-121.167 -271.955)" fill="#5f009f" fill-rule="evenodd"/>
        <path id="Path_203" data-name="Path 203" d="M157.706,10.869a6.576,6.576,0,1,0-6.579,6.579,6.592,6.592,0,0,0,6.579-6.579" transform="translate(-119.192 -3.543)" fill="#5f009f" fill-rule="evenodd"/>
        <path id="Path_204" data-name="Path 204" d="M300.44,254.249a6.576,6.576,0,1,0-6.579,6.572,6.587,6.587,0,0,0,6.579-6.572" transform="translate(-236.884 -204.222)" fill="#5f009f" fill-rule="evenodd"/>
        <path id="Path_205" data-name="Path 205" d="M299.482,91.61a6.572,6.572,0,1,0-6.572,6.572,6.586,6.586,0,0,0,6.572-6.572" transform="translate(-236.1 -70.117)" fill="#5f009f" fill-rule="evenodd"/>
        <path id="Path_206" data-name="Path 206" d="M25.767,108c.583.571,1.255,1.132,1.524.863.381-.381.605-.717,1.457-.045s.191,1.131-.168,1.5c-.426.426-2.017.022-3.6-1.535S23,105.621,23.425,105.2c.359-.37.807-1.02,1.49-.179s.347,1.076-.033,1.456c-.269.269.291.941.885,1.524m.841-2.767a.367.367,0,0,0-.3.089.36.36,0,0,0,0,.482.481.481,0,0,0,.19.1,1.507,1.507,0,0,1,.9.459,1.583,1.583,0,0,1,.459.885.42.42,0,0,0,.1.19.335.335,0,0,0,.471.011.4.4,0,0,0,.1-.3,2.234,2.234,0,0,0-.65-1.266,2.3,2.3,0,0,0-1.266-.65m1.658.258a2.385,2.385,0,0,1,.818,1.95.388.388,0,0,0,.09.314.349.349,0,0,0,.482,0,.452.452,0,0,0,.1-.213A3.465,3.465,0,0,0,26.215,104a.353.353,0,0,0-.213.1.338.338,0,0,0,0,.482.367.367,0,0,0,.3.09,2.393,2.393,0,0,1,1.96.818" transform="translate(-19.184 -85.733)" fill="#fff8e3" fill-rule="evenodd"/>
        <path id="Path_207" data-name="Path 207" d="M316.357,110.722v-.912a1.407,1.407,0,0,0-2.791,0v.912a.647.647,0,0,0-.691.608v1.52a.654.654,0,0,0,.691.617h2.791a.66.66,0,0,0,.691-.617v-1.52a.653.653,0,0,0-.691-.608m-1.225,1.474v.507a.159.159,0,0,1-.175.148.157.157,0,0,1-.166-.148V112.2a.287.287,0,0,1-.174-.258.328.328,0,0,1,.341-.3.331.331,0,0,1,.35.3.3.3,0,0,1-.175.258m.525-1.474h-1.391v-.912a.7.7,0,0,1,1.391,0Z" transform="translate(-257.981 -89.534)" fill="#fff8e3" fill-rule="evenodd"/>
        <path id="Path_208" data-name="Path 208" d="M29.446,273.026h-5.3a.546.546,0,0,0-.553.542v3.283a.546.546,0,0,0,.553.542h2.125v.5h-.733a.367.367,0,0,0-.372.361.376.376,0,0,0,.372.372h2.507a.37.37,0,0,0,.372-.372.361.361,0,0,0-.372-.361H27.32v-.5h2.125a.544.544,0,0,0,.541-.542v-3.283a.544.544,0,0,0-.541-.542m-.085,3.729H24.229v-3.092h5.132Z" transform="translate(-19.452 -225.123)" fill="#fff8e3" fill-rule="evenodd"/>
        <path id="Path_209" data-name="Path 209" d="M173.433,350.2h-.148c-.079,0-.148.207-.148.119a.35.35,0,0,0-.345-.346h-.01a.35.35,0,0,0-.345.346c0,.089-.069-.119-.147-.119h-.148a.3.3,0,0,0-.3.3v.01a.3.3,0,0,0,.3.3h1.292a.3.3,0,0,0,.3-.3v-.01a.3.3,0,0,0-.3-.3m-.651.267a.146.146,0,0,1-.148-.148.152.152,0,0,1,.148-.148.154.154,0,0,1,.158.148.148.148,0,0,1-.158.148m.671,5.515h-2.506a.4.4,0,0,1-.4-.395V350.8a.4.4,0,0,1,.306-.4h.8c0,.039-.01.069-.01.108a.5.5,0,0,0,.5.493h1.292a.5.5,0,0,0,.5-.5c0-.029-.009-.059-.009-.1h.6c.326,0,.5.187.5.4v2.989h-.1a1.825,1.825,0,0,0-.4.049V351.5h-3.482v3.985h2.3a1.7,1.7,0,0,0,.109.494m1.48-1.894a1.3,1.3,0,1,0,1.292,1.292,1.3,1.3,0,0,0-1.292-1.292m.838,1.026-.789.9a.191.191,0,0,1-.148.069.2.2,0,0,1-.129-.039l-.5-.4c-.178-.148-.109-.592.6-.029l.671-.75c.178-.2.473.069.3.257m-2.111-1.924h-2.151a.1.1,0,0,1-.1-.1v-.1a.1.1,0,0,1,.1-.1h2.151a.093.093,0,0,1,.1.1v.1a.093.093,0,0,1-.1.1m.513-.9h-2.664a.1.1,0,0,1-.1-.1v-.1a.106.106,0,0,1,.1-.1h2.664a.1.1,0,0,1,.1.1v.1a.093.093,0,0,1-.1.1m-.957,1.7h-1.707a.106.106,0,0,1-.1-.1v-.1a.1.1,0,0,1,.1-.1h1.707a.093.093,0,0,1,.1.1v.1a.1.1,0,0,1-.1.1m-.71.9h-1a.106.106,0,0,1-.1-.1v-.1a.1.1,0,0,1,.1-.1h1a.093.093,0,0,1,.1.1v.1a.1.1,0,0,1-.1.1" transform="translate(-140.62 -288.571)" fill="#fff8e3" fill-rule="evenodd"/>
        <path id="Path_210" data-name="Path 210" d="M315.429,277.941a.7.7,0,0,1-.093.363l-1.908-2.126,1.887-1.659a.8.8,0,0,1,.114.405Zm-3.017-1.379,2.623-2.3a.822.822,0,0,0-.363-.093h-4.531a.819.819,0,0,0-.353.093Zm.725-.145-.6.539a.2.2,0,0,1-.124.041.181.181,0,0,1-.124-.041l-.612-.539-1.928,2.167a.731.731,0,0,0,.394.114h4.531a.768.768,0,0,0,.4-.114Zm-3.629-1.9a.8.8,0,0,0-.114.405v3.016a.7.7,0,0,0,.094.363l1.907-2.136Z" transform="translate(-255.111 -226.064)" fill="#fff8e3" fill-rule="evenodd"/>
        <path id="Path_211" data-name="Path 211" d="M167.9,24.775c-.2-.081-.262-.131-.262-.222,0-.071.05-.151.2-.151a.565.565,0,0,1,.242.061h.031a.076.076,0,0,0,.07-.04l.031-.091c.01-.04,0-.07-.031-.081a2.02,2.02,0,0,0-.242-.06.01.01,0,0,1-.01-.01v-.141a.078.078,0,0,0-.081-.07h-.06a.078.078,0,0,0-.081.07v.141c0,.02-.01.02-.01.02a.393.393,0,0,0-.332.383c0,.232.191.343.4.413.161.07.232.141.232.232,0,.111-.1.181-.232.181a.624.624,0,0,1-.282-.08h-.03a.084.084,0,0,0-.07.04l-.031.1a.062.062,0,0,0,.031.071,1.186,1.186,0,0,0,.292.081c0,.01.02.01.02.02v.141a.069.069,0,0,0,.071.071h.071a.069.069,0,0,0,.07-.071v-.151c0-.01.01-.01.02-.01a.417.417,0,0,0,.342-.4c0-.212-.11-.343-.373-.443m-3.628,2.2-1.038-.05a.174.174,0,0,0-.182.131l-.181,1.714a.1.1,0,0,0,.1.141h1.149a.154.154,0,0,0,.161-.141l.131-1.643a.146.146,0,0,0-.141-.151m4.958.584a4.447,4.447,0,0,1-1.421.484c-.464.07-1.33-.1-1.33-.313,0-.08.766.192,1.229.071.353-.091.3-.423.111-.464a10.925,10.925,0,0,0-1.794-.473c-.221,0-1.038.08-1.31.121-.09.02-.151.02-.151.1-.03.413-.111,1.25-.142,1.693,0,.01.011.131.121.041a.507.507,0,0,1,.413-.162,20.7,20.7,0,0,0,2.772.343,7.068,7.068,0,0,0,1.7-.947c.333-.312.07-.645-.2-.494m-1.421-4.424a1.779,1.779,0,1,0,1.783,1.784,1.779,1.779,0,0,0-1.783-1.784m0,3.144a1.366,1.366,0,0,1,0-2.731,1.366,1.366,0,1,1,0,2.731" transform="translate(-134.289 -19.073)" fill="#fff8e3" fill-rule="evenodd"/>
        <path id="Path_212" data-name="Path 212" d="M156.625,187.83a1.54,1.54,0,1,0-1.544-1.544,1.536,1.536,0,0,0,1.544,1.544m-7.739-.027a1.54,1.54,0,1,0-1.535-1.544,1.543,1.543,0,0,0,1.535,1.544m.632.4h-1.309a1.967,1.967,0,0,0-1.969,1.968v1.59l.009.027.108.036a8.864,8.864,0,0,0,2.673.434c.235,0,.443-.009.641-.027v-.957a2.424,2.424,0,0,1,1.463-2.221,1.956,1.956,0,0,0-1.616-.849m3.892,1.1H152.1a1.973,1.973,0,0,0-1.969,1.969v1.6l.009.027.108.037a8.933,8.933,0,0,0,2.673.433,5.432,5.432,0,0,0,2.339-.442l.108-.054h.009v-1.6a1.973,1.973,0,0,0-1.969-1.969m-.65-.4a1.535,1.535,0,1,0-1.544-1.535,1.534,1.534,0,0,0,1.544,1.535m4.542-.7h-1.309a1.956,1.956,0,0,0-1.617.849,2.425,2.425,0,0,1,1.463,2.221v.921a7.674,7.674,0,0,0,.984.063,5.378,5.378,0,0,0,2.33-.442l.109-.054h.009v-1.59A1.967,1.967,0,0,0,157.3,188.2" transform="translate(-120.582 -152.314)" fill="#5f009f" fill-rule="evenodd"/>
      </g>
    </g>
  </g>
</svg>
