<svg id="Group_29" data-name="Group 29" xmlns="http://www.w3.org/2000/svg" xmlns:xlink="http://www.w3.org/1999/xlink" width="79.009" height="61.979" viewBox="0 0 79.009 61.979">
  <defs>
    <clipPath id="clip-path">
      <rect id="Rectangle_49" data-name="Rectangle 49" width="79.009" height="61.979" fill="none"/>
    </clipPath>
  </defs>
  <g id="Group_28" data-name="Group 28" clip-path="url(#clip-path)">
    <path id="Path_146" data-name="Path 146" d="M0,.06H1.184Q25.422.027,49.659,0c1.858,0,3.718.02,5.574.115a2.366,2.366,0,0,1,1.4.579q4.653,4.439,9.222,8.965a1.437,1.437,0,0,1,.394.924q0,9.493-.056,18.985a.907.907,0,0,1-.085.239c-1.043,0-2.1-.006-3.156,0-2.195.015-2.41.16-2.435,2.334-.045,3.932,0,7.864,0,11.8,0,.525,0,1.05,0,1.65H0ZM29.2,16.252a44.512,44.512,0,0,1-5.353-.044c-2.084-.254-3.029.75-3.736,2.475a37.2,37.2,0,0,0-2.586,11.658c-.358,5.2,1.638,7.349,6.843,7.372q5.034.023,10.069-.064a10.9,10.9,0,0,0,2.963-.319c3.006-.914,4.2-3.132,3.7-6.667-.231-1.625-.475-3.251-.8-4.858-.467-2.309-.962-4.615-1.542-6.9a3.112,3.112,0,0,0-3.448-2.654l-6.108,0m5.946-1.243c.042-2.523-.513-4.678-2.776-5.949a5.685,5.685,0,0,0-6.551.344A5.807,5.807,0,0,0,23.6,15h2.677c.384-2.976,1.022-3.906,2.89-3.953a3.913,3.913,0,0,1,1.88.589c1.284.721,1.356,2.064,1.4,3.376Z" transform="translate(0 0)" fill="#bd6cf3"/>
    <path id="Path_147" data-name="Path 147" d="M270.888,146.619c3.01,0,5.79-.026,8.57.013a3.147,3.147,0,0,1,2.6,1.511,48.819,48.819,0,0,1,3.512,5.627,10.681,10.681,0,0,1,.561,3.755,17.483,17.483,0,0,1-.094,2.57c-.065.9-.207,1.773.924,2.218.285.112.51.611.591.97a8.149,8.149,0,0,1-.349,5.253,3.273,3.273,0,0,1-2.988,2.127c-4.575.038-9.15-.02-13.726-.045-.062,0-.123-.062-.274-.143.067-3.308-1.368-5.927-4.36-8.046h5.037Zm7,12.086c1.432-.064,2.679-.135,3.927-.171a1.807,1.807,0,0,0,1.909-1.656,3.194,3.194,0,0,0-.181-1.874,55.1,55.1,0,0,0-3.419-5.625,3.352,3.352,0,0,0-2.134-.994c-1.19-.162-2.422.011-3.63-.057a1.474,1.474,0,0,0-1.7,1.27,19.438,19.438,0,0,0-.008,7.757,1.4,1.4,0,0,0,1.467,1.143c1.318.055,2.635.142,3.773.206" transform="translate(-208.808 -115.153)" fill="#5f009f"/>
    <path id="Path_148" data-name="Path 148" d="M93.488,228.23c.051-3.6-1.549-6.168-4.508-8.26h29.47a9.106,9.106,0,0,0-4.376,8.26Z" transform="translate(-69.888 -172.772)" fill="#5f009f"/>
    <path id="Path_149" data-name="Path 149" d="M42.373,221.313a7.038,7.038,0,0,1,7.136,7.247,7.288,7.288,0,0,1-14.574-.113,7.224,7.224,0,0,1,7.438-7.134m.018,10.007a2.908,2.908,0,0,0,2.811-2.812,3,3,0,0,0-2.81-2.961,3.056,3.056,0,0,0-3,3.021,2.956,2.956,0,0,0,3,2.751" transform="translate(-27.439 -173.826)" fill="#5f009f"/>
    <path id="Path_150" data-name="Path 150" d="M219.886,221.8a7.166,7.166,0,0,1,7.337,7.3,7.088,7.088,0,0,1-7.194,7.091,7.22,7.22,0,0,1-7.011-7.415,6.8,6.8,0,0,1,6.868-6.974m3.086,7.149a2.915,2.915,0,0,0-2.856-2.875,3.016,3.016,0,0,0-2.881,2.769,2.87,2.87,0,1,0,5.737.105" transform="translate(-167.311 -174.206)" fill="#5f009f"/>
    <path id="Path_151" data-name="Path 151" d="M.281,220.022H10.412c-2.685,2.169-4.251,4.7-4.173,8.067H.281Z" transform="translate(-0.221 -172.813)" fill="#5f009f"/>
    <path id="Path_152" data-name="Path 152" d="M119.938,102.728c-.963.036-1.9.4-1.921-1.049,0-.225-.541-.483-.869-.655a13.1,13.1,0,0,1-1.637-.767c-.735-.532-1.293-1.372-.785-2.2.258-.422,1.187-.433,1.8-.624.717,1.989,2.108,2.639,3.841,1.874a1.812,1.812,0,0,0,.992-1.2,1.673,1.673,0,0,0-.805-1.326,16.84,16.84,0,0,0-2.875-.771c-1.924-.46-2.742-1.36-2.892-3.2-.124-1.527.312-2.194,1.865-2.849,1.482-.625,1.482-.625,1.633-2.086,1.434-.292,1.38-.277,1.757,1a1.442,1.442,0,0,0,.976.816c1.909.3,2.489,1.547,2.544,3.423A8.414,8.414,0,0,1,122,93.077a1.293,1.293,0,0,1-.812-.583,2.538,2.538,0,0,0-3.752-.768,1.211,1.211,0,0,0,.2,2.059,8.382,8.382,0,0,0,1.816.594,18.865,18.865,0,0,1,1.867.45,3.5,3.5,0,0,1,1.852,4.963,3.322,3.322,0,0,1-1.885,1.2c-.908.257-1.535.549-1.345,1.736" transform="translate(-89.956 -68.893)" fill="#5f009f"/>
    <path id="Path_153" data-name="Path 153" d="M332.705,184.92a16.013,16.013,0,0,1-1.4.99c-.054.031-.495-.411-.462-.468a5.892,5.892,0,0,1,.89-1.2,7.723,7.723,0,0,1,.975.679" transform="translate(-259.852 -144.707)" fill="#5f009f"/>
  </g>
</svg>
