<svg id="Group_31" data-name="Group 31" xmlns="http://www.w3.org/2000/svg" xmlns:xlink="http://www.w3.org/1999/xlink" width="86.29" height="69.725" viewBox="0 0 86.29 69.725">
  <defs>
    <clipPath id="clip-path">
      <rect id="Rectangle_51" data-name="Rectangle 51" width="86.29" height="69.725" fill="none"/>
    </clipPath>
  </defs>
  <g id="Group_30" data-name="Group 30" clip-path="url(#clip-path)">
    <path id="Path_154" data-name="Path 154" d="M511.727,453.6h21.609v23.445h-.5c-3.217,0-6.433,0-9.65.007a.521.521,0,0,1-.593-.412,5.391,5.391,0,0,0-10.158-.008c-.158.428-.158.428-.708.385Z" transform="translate(-464.017 -411.313)" fill="#bd6cf3"/>
    <path id="Path_155" data-name="Path 155" d="M22.71,491.112a6.814,6.814,0,0,1,.552,4.024c-.332,4.274-.62,8.552-.927,12.828-.023.324-.057.648-.091,1.027H20c-3.574,0-7.148-.01-10.721.01-.454,0-.529-.148-.526-.555.017-2.237.011-4.474,0-6.712a1.428,1.428,0,1,0-2.852.025c-.008,2.222,0,4.443,0,6.665,0,.167,0,.334,0,.533H.024c-.008-.174-.021-.325-.021-.476q0-7.644,0-15.288a5.6,5.6,0,0,1,4.083-5.679c2.816-.975,5.619-1.987,8.421-3a.717.717,0,0,1,.886.2c2.15,2.178,4.321,4.335,6.484,6.5a1.483,1.483,0,0,0,2.193.278l.643-.379" transform="translate(0 -439.275)" fill="#5f009f"/>
    <path id="Path_156" data-name="Path 156" d="M160.9,122.139h.6c3.029,0,6.059.027,9.089,0a9.081,9.081,0,0,0,7.3-3.606c.1-.13.2-.265.321-.42a9.406,9.406,0,0,0,7.328,4.044v.507c0,2.284,0,4.567,0,6.851a12.318,12.318,0,0,1-24.158,3.356,13.556,13.556,0,0,1-.48-3.211c-.071-2.39-.023-4.784-.023-7.176,0-.09.015-.181.03-.343" transform="translate(-145.86 -107.099)" fill="#5f009f"/>
    <path id="Path_157" data-name="Path 157" d="M353.545,508.88h-16.2c-.061-.777-.124-1.546-.179-2.315-.314-4.369-.659-8.736-.907-13.108a10.352,10.352,0,0,1,.5-2.5c.368.219.616.37.867.517a1.441,1.441,0,0,0,2.014-.25q3.3-3.292,6.586-6.6a.669.669,0,0,1,.844-.2c.733.3,1.482.56,2.236.8a.518.518,0,0,1,.411.6q-.014,10.09-.008,20.181c0,1.295.5,1.794,1.8,1.794h.746c1.011,0,1.011,0,1.283,1.078" transform="translate(-304.91 -439.197)" fill="#5f009f"/>
    <path id="Path_158" data-name="Path 158" d="M160.859,12.152c-.151-2.981-.16-5.889,1.776-8.394A8.847,8.847,0,0,1,169.55.069c2.559-.088,5.132-.109,7.687.043A9.049,9.049,0,0,1,185.4,8.231c.1,1.278.016,2.57.016,3.99a14.694,14.694,0,0,1-1.865-.468A6.171,6.171,0,0,1,179.6,7.209a1.482,1.482,0,0,0-1.434-1.284,1.451,1.451,0,0,0-1.439,1.27,6.312,6.312,0,0,1-6.087,4.975c-3.185.045-6.371.012-9.556.012a2.037,2.037,0,0,1-.225-.029" transform="translate(-145.807 0)" fill="#5f009f"/>
    <path id="Path_159" data-name="Path 159" d="M788.417,543.5c-.06-.15-.118-.289-.172-.43a5.395,5.395,0,0,0-10.123.069.54.54,0,0,1-.63.428c-.819-.027-1.64-.009-2.494-.009V526.981c.138-.01.272-.027.407-.027,1.972,0,3.945-.007,5.917,0a5.609,5.609,0,0,1,5.431,4.1c.745,2.578,1.466,5.164,2.192,7.747a2.116,2.116,0,0,1,.083.549c.008,1.056,0,2.112,0,3.168a.917.917,0,0,1-.616.973m-4.232-7.034-1.285-5.556h-4.056v5.556Z" transform="translate(-702.744 -477.823)" fill="#bd6cf3"/>
    <path id="Path_160" data-name="Path 160" d="M238.459,406.462l-4.165-3.468c-.43-.358-.853-.724-1.29-1.071-.185-.147-.244-.265-.121-.5.54-1.031,1.062-2.071,1.575-3.116a.349.349,0,0,1,.47-.225,15,15,0,0,0,7.06.017.494.494,0,0,1,.429.177c.594,1.122,1.16,2.259,1.752,3.427l-5.71,4.761" transform="translate(-211.112 -360.948)" fill="#5f009f"/>
    <path id="Path_161" data-name="Path 161" d="M274.028,605.689h-4.42l1.039-14.575h2.339l1.042,14.575" transform="translate(-244.472 -536.003)" fill="#5f009f"/>
    <path id="Path_162" data-name="Path 162" d="M181.762,463.974l-3.423,2.057-5.275-5.288c.152-.06.383-.158.62-.242.818-.292,1.634-.591,2.46-.859a.666.666,0,0,1,.537.054c1.669,1.366,3.321,2.752,4.977,4.135a.943.943,0,0,1,.1.143" transform="translate(-156.929 -416.761)" fill="#5f009f"/>
    <path id="Path_163" data-name="Path 163" d="M328.214,460.464l-5.316,5.3-3.566-2.136c.163-.111.281-.179.384-.265q2.346-1.947,4.684-3.9a.582.582,0,0,1,.665-.124c1.028.386,2.068.741,3.148,1.123" transform="translate(-289.56 -416.467)" fill="#5f009f"/>
    <path id="Path_164" data-name="Path 164" d="M551.69,695.748a2.535,2.535,0,1,1-2.509-2.58,2.537,2.537,0,0,1,2.509,2.58" transform="translate(-495.657 -628.542)" fill="#bd6cf3"/>
    <path id="Path_165" data-name="Path 165" d="M840.716,695.761a2.537,2.537,0,1,1-2.49-2.6,2.537,2.537,0,0,1,2.49,2.6" transform="translate(-757.735 -628.536)" fill="#bd6cf3"/>
    <path id="Path_166" data-name="Path 166" d="M274.116,526.159c.6.362,1.21.71,1.795,1.089a.466.466,0,0,1,.158.4,10.64,10.64,0,0,1-.435,1.373.525.525,0,0,1-.379.276q-1.139.039-2.281,0c-.134,0-.263-.18-.39-.281-.02-.016-.019-.058-.027-.087-.149-.5-.528-1.091-.383-1.487s.814-.592,1.256-.871c.222-.14.451-.27.687-.41" transform="translate(-246.768 -477.104)" fill="#5f009f"/>
  </g>
</svg>
