<svg id="Group_33" data-name="Group 33" xmlns="http://www.w3.org/2000/svg" xmlns:xlink="http://www.w3.org/1999/xlink" width="56.566" height="68.226" viewBox="0 0 56.566 68.226">
  <defs>
    <clipPath id="clip-path">
      <rect id="Rectangle_53" data-name="Rectangle 53" width="56.566" height="68.226" fill="none"/>
    </clipPath>
  </defs>
  <g id="Group_32" data-name="Group 32" clip-path="url(#clip-path)">
    <path id="Path_167" data-name="Path 167" d="M34.891,297.646c-2.384,4.957-2.226,9.7,1.241,13.978s8.067,5.438,13.388,4.127c.009.161.024.307.024.453,0,3.936,0,7.873.009,11.81a.818.818,0,0,1-.355.72,27.338,27.338,0,0,1-7.851,4.139.886.886,0,0,1-.189.015V320.848l-.109-.015c-.089.453-.181.906-.266,1.36q-1.025,5.528-2.039,11.058a.637.637,0,0,1-.546.6,54.35,54.35,0,0,1-17.391,1.512,51.49,51.49,0,0,1-9.441-1.508.635.635,0,0,1-.555-.589c-.72-3.987-1.461-7.97-2.2-11.954a1.213,1.213,0,0,0-.185-.479v12.129c-.462-.171-.856-.309-1.244-.461a26.23,26.23,0,0,1-6.767-3.72A.949.949,0,0,1,0,327.937c.015-4.528.036-9.056,0-13.584A15.745,15.745,0,0,1,6.9,300.948a19.04,19.04,0,0,1,9.221-3.514.833.833,0,0,1,.791.293A10.764,10.764,0,0,0,32.7,297.7a.933.933,0,0,1,.64-.257c.5.02,1,.123,1.549.2" transform="translate(0 -267.273)" fill="#5f009f"/>
    <path id="Path_168" data-name="Path 168" d="M123.518,12.881a14.33,14.33,0,0,1,1.972-7.3,11.094,11.094,0,0,1,9.2-5.548c4.178-.273,7.816.941,10.54,4.283a12.239,12.239,0,0,1,2.533,6.153,20.764,20.764,0,0,1-1.9,12.32,15.279,15.279,0,0,1-3.966,5.073A9.283,9.283,0,0,1,129.869,28a16.9,16.9,0,0,1-5.677-9.3,21.848,21.848,0,0,1-.674-5.825" transform="translate(-110.996 0)" fill="#5f009f"/>
    <path id="Path_169" data-name="Path 169" d="M344.415,264.454a10.825,10.825,0,1,1,10.849,10.816,10.843,10.843,0,0,1-10.849-10.816m10.767,6.259c1.2,0,2.4,0,3.6,0,.682,0,.888-.2.889-.865q0-3.142,0-6.284c0-.65-.2-.847-.846-.848q-3.573,0-7.146,0c-.677,0-.862.187-.863.882q-.005,3.117,0,6.233c0,.688.194.879.871.881,1.166,0,2.331,0,3.5,0m-2.275-8.311c0-.568-.011-1.073,0-1.578a2.331,2.331,0,1,1,4.661.044c.006.5,0,1,0,1.527h1.182c0-.6.03-1.173-.006-1.741a3.516,3.516,0,0,0-3.017-3.318,3.421,3.421,0,0,0-3.807,2.412,15.615,15.615,0,0,0-.264,2.655Z" transform="translate(-309.499 -227.906)" fill="#bd6cf3"/>
    <path id="Path_170" data-name="Path 170" d="M445.779,371.762H444.4c.067-.331.123-.639.192-.945a1.036,1.036,0,0,0-.1-.99.817.817,0,0,1,.149-.783.84.84,0,0,1,.8-.073c.191.119.386.622.3.738-.423.545-.135,1.055-.048,1.579.025.148.054.295.087.473" transform="translate(-399.353 -331.505)" fill="#bd6cf3"/>
  </g>
</svg>
