<svg id="Group_35" data-name="Group 35" xmlns="http://www.w3.org/2000/svg" xmlns:xlink="http://www.w3.org/1999/xlink" width="73.664" height="78.106" viewBox="0 0 73.664 78.106">
  <defs>
    <clipPath id="clip-path">
      <rect id="Rectangle_55" data-name="Rectangle 55" width="73.664" height="78.106" fill="none"/>
    </clipPath>
  </defs>
  <g id="Group_34" data-name="Group 34" clip-path="url(#clip-path)">
    <path id="Path_171" data-name="Path 171" d="M412.876,461.084A12.117,12.117,0,1,1,425,449.03a12.109,12.109,0,0,1-12.125,12.054m-.956-3.751a2,2,0,0,0,1.572-.889,14.4,14.4,0,0,0,2.594-7.33.711.711,0,0,1,.385-.622,2.028,2.028,0,0,0,.739-2.779c-.763-1.362-1.542-2.716-2.35-4.052a2.06,2.06,0,0,0-3.585-.023c-.81,1.335-1.582,2.693-2.34,4.058a2.019,2.019,0,0,0,.682,2.756.606.606,0,0,1,.306.694,8.577,8.577,0,0,1-1.258,3.486,1.988,1.988,0,0,0,.265,2.636c.474.49.962.966,1.44,1.451a2.072,2.072,0,0,0,1.55.614" transform="translate(-351.337 -389.978)" fill="#5f009f"/>
    <path id="Path_172" data-name="Path 172" d="M317.754,289.653l-.4,3.007h-1.073c-1.295,0-2.589,0-3.884.006a1.141,1.141,0,0,0-1.28,1.112,1.163,1.163,0,0,0,1.288,1.114c1.438.01,2.877,0,4.315,0h.693l.4,2.446h-9.374V256.284h29.894V276.56c-.749-.1-1.475-.211-2.2-.288a17.279,17.279,0,0,0-6.047.511,6.138,6.138,0,0,1-1.454.186q-7.922.019-15.843.009a5.812,5.812,0,0,0-.677.017,1.1,1.1,0,0,0-.15,2.158,3.117,3.117,0,0,0,.732.061q5.641.005,11.282,0h.761a21.845,21.845,0,0,0-2.239,2.012,2.712,2.712,0,0,1-2.387,1c-2.587-.07-5.178-.028-7.767-.02a1.129,1.129,0,0,0-1.223,1.108,1.141,1.141,0,0,0,1.217,1.117c.123,0,.247,0,.37,0h7.129c-.452.967-.868,1.9-1.328,2.8-.06.119-.343.173-.524.175-1.747.013-3.493.008-5.24.008-.164,0-.33-.008-.493.006a1.157,1.157,0,0,0-1.13,1.151,1.12,1.12,0,0,0,1.19,1.076c1.6.014,3.206,0,4.809,0h.635m17.172-26.365a6.729,6.729,0,0,0,.335-1.268,3.067,3.067,0,0,0-3.068-3.241c-.941-.06-1.889-.03-2.834-.02a1.1,1.1,0,0,0-1.217,1.228q-.015,3.759,0,7.518a1.117,1.117,0,0,0,1.213,1.244c1.15.016,2.3.035,3.451-.007a2.994,2.994,0,0,0,2.9-3.353,11.2,11.2,0,0,0-.783-2.1m-11.491,10.679q5.486,0,10.972,0a1.129,1.129,0,0,0,1.281-1.1,1.155,1.155,0,0,0-1.272-1.127c-.123,0-.247,0-.37,0q-6.935,0-13.87-.008c-2.568,0-5.137.01-7.705,0a1.232,1.232,0,0,0-1.2.593c-.445.791.132,1.638,1.13,1.639q5.517.009,11.034,0m-.248-15.219a3.844,3.844,0,0,0-2.354.784,5.43,5.43,0,0,0-.527,7.968,3.977,3.977,0,0,0,5.909-.14,5.493,5.493,0,0,0,.135-7.077,4.029,4.029,0,0,0-3.163-1.535m-4.952,3.9h0c0-.9.013-1.806,0-2.708a1.115,1.115,0,1,0-2.224.031c-.01,1.7.006,3.406-.008,5.108a1.353,1.353,0,0,1-2.7.188c-.12-.773-.608-1.233-1.241-1.169-.671.067-1.049.628-.976,1.449a3.583,3.583,0,0,0,7.141-.252c.035-.881.006-1.764.006-2.646" transform="translate(-270.406 -231.68)" fill="#bd6cf3"/>
    <path id="Path_173" data-name="Path 173" d="M17.736,308.31c1.631,3.6,2.053,3.951,5.889,4.879v19.369H9.647v-.74q0-5.64,0-11.279a4.149,4.149,0,0,0-.01-.493,1.1,1.1,0,0,0-2.141-.233,2.341,2.341,0,0,0-.072.668q-.007,5.671,0,11.341v.782h-4.5c-.349,0-.7.013-1.048,0a1.876,1.876,0,0,1-1.868-1.905c-.012-5.116,0-10.232,0-15.348a.769.769,0,0,1,.552-.84q8.455-3.052,16.9-6.132a2.258,2.258,0,0,1,.282-.065" transform="translate(0 -270.29)" fill="#5f009f"/>
    <path id="Path_174" data-name="Path 174" d="M128.309,80.931a17.918,17.918,0,0,1,6.919,1.588,5.169,5.169,0,0,1,2.636,2.979,11.649,11.649,0,0,1,.232,8.6,18.43,18.43,0,0,1-4.173,6.9c-3.656,3.633-8.143,3.584-11.725-.122a19.538,19.538,0,0,1-4.374-7.766,3.419,3.419,0,0,1,.085-1.513,17.021,17.021,0,0,1,2.2-6.1,9.032,9.032,0,0,1,8.2-4.568" transform="translate(-103.24 -70.951)" fill="#5f009f"/>
    <path id="Path_175" data-name="Path 175" d="M221.107,332.179h-10.82V312.757c2.957-.383,5.088-1.775,5.807-4.894,1.626.591,3.206,1.16,4.777,1.75.11.041.185.231.232.367a1.181,1.181,0,0,1,.01.367q0,10.509-.005,21.018c0,.26,0,.521,0,.813" transform="translate(-184.355 -269.898)" fill="#5f009f"/>
    <path id="Path_176" data-name="Path 176" d="M116.936,17.387a39.938,39.938,0,0,0-1.411-4.185,7.371,7.371,0,0,0-4.42-4.041,22.94,22.94,0,0,0-5.921-1.368c-5.02-.353-8.857,1.618-11.329,6a38.423,38.423,0,0,0-1.93,4.712c-.067.167-.1.345-.185.625a10.153,10.153,0,0,1-1.428-3.99A11.483,11.483,0,0,1,93.48,5.753,16.547,16.547,0,0,1,103.732.117a8.817,8.817,0,0,1,9.8,5.373,1.759,1.759,0,0,0,.979,1.026c3.108,1.268,4.214,3.178,3.784,6.539a14.771,14.771,0,0,1-1.355,4.331" transform="translate(-79.089 0)" fill="#5f009f"/>
    <path id="Path_177" data-name="Path 177" d="M171.048,272.3c0,1.233.092,2.406-.022,3.56a3.391,3.391,0,0,1-2.711,3.127,7.815,7.815,0,0,1-4.2-.013,3.469,3.469,0,0,1-2.688-3.223,7.887,7.887,0,0,1-.052-.8c-.006-.9,0-1.8,0-2.811a9.471,9.471,0,0,0,9.673.158" transform="translate(-141.473 -238.587)" fill="#5f009f"/>
    <path id="Path_178" data-name="Path 178" d="M478.512,488.463a1.93,1.93,0,0,0-.959-1.866c-.339-.2-.371-.391-.176-.721.71-1.2,1.395-2.418,2.1-3.624.26-.446.442-.452.7-.014.721,1.233,1.426,2.477,2.146,3.711.162.278.115.443-.171.6a2.044,2.044,0,0,0-1.093,1.777,12.72,12.72,0,0,1-2.087,6.314c-.346.51-.374.511-.806.081-.342-.34-.668-.7-1.028-1.016a.493.493,0,0,1-.085-.762,9.606,9.606,0,0,0,1.465-4.478" transform="translate(-418.096 -429.485)" fill="#5f009f"/>
    <path id="Path_179" data-name="Path 179" d="M486.439,327.456v-1.65c.81,0,1.6-.031,2.387.011a.738.738,0,0,1,.723.832.781.781,0,0,1-.834.8c-.733.021-1.467.005-2.277.005" transform="translate(-426.453 -285.619)" fill="#bd6cf3"/>
    <path id="Path_180" data-name="Path 180" d="M486.6,296.139v-1.56c.626,0,1.22-.044,1.8.015.417.042.823.255.826.763s-.4.726-.818.768c-.585.058-1.18.015-1.811.015" transform="translate(-426.596 -258.239)" fill="#bd6cf3"/>
    <path id="Path_181" data-name="Path 181" d="M414.938,297.079a2.986,2.986,0,0,1-.773,2.145,1.771,1.771,0,0,1-2.711.021,3.314,3.314,0,0,1-.022-4.286,1.791,1.791,0,0,1,2.757.026,3,3,0,0,1,.749,2.093" transform="translate(-360.015 -258.029)" fill="#bd6cf3"/>
  </g>
</svg>
